<mxfile host="app.diagrams.net" modified="2023-07-12T07:36:53.931Z" agent="Mozilla/5.0 (Windows NT 10.0; Win64; x64) AppleWebKit/537.36 (KHTML, like Gecko) Chrome/114.0.0.0 Safari/537.36" etag="4wdzBgFz4VNGgZKus7EY" version="21.6.1" type="github">
  <diagram id="C5RBs43oDa-KdzZeNtuy" name="Page-1">
    <mxGraphModel dx="1434" dy="764" grid="1" gridSize="10" guides="1" tooltips="1" connect="1" arrows="1" fold="1" page="1" pageScale="1" pageWidth="1200" pageHeight="1600" math="0" shadow="0">
      <root>
        <mxCell id="WIyWlLk6GJQsqaUBKTNV-0" />
        <mxCell id="WIyWlLk6GJQsqaUBKTNV-1" parent="WIyWlLk6GJQsqaUBKTNV-0" />
        <mxCell id="cFBqHGoz0xMpMaC2QSJA-0" value="STimelineEditor" style="swimlane;fontStyle=1;align=center;verticalAlign=top;childLayout=stackLayout;horizontal=1;startSize=26;horizontalStack=0;resizeParent=1;resizeParentMax=0;resizeLast=0;collapsible=1;marginBottom=0;whiteSpace=wrap;html=1;" vertex="1" parent="WIyWlLk6GJQsqaUBKTNV-1">
          <mxGeometry x="130" y="110" width="390" height="140" as="geometry" />
        </mxCell>
        <object label="+&amp;nbsp;TrackListView:&amp;nbsp;SListView&amp;lt;FTimelineEdTrack*&amp;gt;&lt;br&gt;+ TrackList : TArray&amp;lt;FTimelineEdTrack*&amp;gt;" TrackList="TArray&lt;FTimelineEdTrack&gt;" id="cFBqHGoz0xMpMaC2QSJA-1">
          <mxCell style="text;strokeColor=none;fillColor=none;align=left;verticalAlign=top;spacingLeft=4;spacingRight=4;overflow=hidden;rotatable=0;points=[[0,0.5],[1,0.5]];portConstraint=eastwest;whiteSpace=wrap;html=1;" vertex="1" parent="cFBqHGoz0xMpMaC2QSJA-0">
            <mxGeometry y="26" width="390" height="54" as="geometry" />
          </mxCell>
        </object>
        <mxCell id="cFBqHGoz0xMpMaC2QSJA-2" value="" style="line;strokeWidth=1;fillColor=none;align=left;verticalAlign=middle;spacingTop=-1;spacingLeft=3;spacingRight=3;rotatable=0;labelPosition=right;points=[];portConstraint=eastwest;strokeColor=inherit;" vertex="1" parent="cFBqHGoz0xMpMaC2QSJA-0">
          <mxGeometry y="80" width="390" height="8" as="geometry" />
        </mxCell>
        <mxCell id="cFBqHGoz0xMpMaC2QSJA-3" value="+ CreateNewCurve( Type ):&amp;nbsp;UCurveBase*&lt;br&gt;+ MakeTrackWidget(Track, OwnerTable ); TSharedRef&amp;lt;ITableRow&amp;gt;&amp;nbsp;" style="text;strokeColor=none;fillColor=none;align=left;verticalAlign=top;spacingLeft=4;spacingRight=4;overflow=hidden;rotatable=0;points=[[0,0.5],[1,0.5]];portConstraint=eastwest;whiteSpace=wrap;html=1;" vertex="1" parent="cFBqHGoz0xMpMaC2QSJA-0">
          <mxGeometry y="88" width="390" height="52" as="geometry" />
        </mxCell>
        <mxCell id="cFBqHGoz0xMpMaC2QSJA-9" style="edgeStyle=orthogonalEdgeStyle;rounded=0;orthogonalLoop=1;jettySize=auto;html=1;endArrow=diamondThin;endFill=0;entryX=0.249;entryY=1.019;entryDx=0;entryDy=0;entryPerimeter=0;" edge="1" parent="WIyWlLk6GJQsqaUBKTNV-1" source="cFBqHGoz0xMpMaC2QSJA-5" target="cFBqHGoz0xMpMaC2QSJA-3">
          <mxGeometry relative="1" as="geometry">
            <mxPoint x="220" y="295" as="targetPoint" />
          </mxGeometry>
        </mxCell>
        <mxCell id="cFBqHGoz0xMpMaC2QSJA-17" style="edgeStyle=orthogonalEdgeStyle;rounded=0;orthogonalLoop=1;jettySize=auto;html=1;entryX=0;entryY=0.5;entryDx=0;entryDy=0;endArrow=diamondThin;endFill=1;" edge="1" parent="WIyWlLk6GJQsqaUBKTNV-1" source="cFBqHGoz0xMpMaC2QSJA-5" target="cFBqHGoz0xMpMaC2QSJA-13">
          <mxGeometry relative="1" as="geometry" />
        </mxCell>
        <mxCell id="cFBqHGoz0xMpMaC2QSJA-5" value="FTimelineEdTrack" style="swimlane;fontStyle=1;align=center;verticalAlign=top;childLayout=stackLayout;horizontal=1;startSize=26;horizontalStack=0;resizeParent=1;resizeParentMax=0;resizeLast=0;collapsible=1;marginBottom=0;whiteSpace=wrap;html=1;" vertex="1" parent="WIyWlLk6GJQsqaUBKTNV-1">
          <mxGeometry x="30" y="340" width="250" height="78" as="geometry" />
        </mxCell>
        <mxCell id="cFBqHGoz0xMpMaC2QSJA-6" value="+&amp;nbsp;DisplayIndex&lt;span style=&quot;background-color: initial;&quot;&gt;: int32&lt;br&gt;&lt;/span&gt;+ OnRenameRequest: FSimpleDelegate" style="text;strokeColor=none;fillColor=none;align=left;verticalAlign=top;spacingLeft=4;spacingRight=4;overflow=hidden;rotatable=0;points=[[0,0.5],[1,0.5]];portConstraint=eastwest;whiteSpace=wrap;html=1;" vertex="1" parent="cFBqHGoz0xMpMaC2QSJA-5">
          <mxGeometry y="26" width="250" height="44" as="geometry" />
        </mxCell>
        <mxCell id="cFBqHGoz0xMpMaC2QSJA-7" value="" style="line;strokeWidth=1;fillColor=none;align=left;verticalAlign=middle;spacingTop=-1;spacingLeft=3;spacingRight=3;rotatable=0;labelPosition=right;points=[];portConstraint=eastwest;strokeColor=inherit;" vertex="1" parent="cFBqHGoz0xMpMaC2QSJA-5">
          <mxGeometry y="70" width="250" height="8" as="geometry" />
        </mxCell>
        <mxCell id="cFBqHGoz0xMpMaC2QSJA-10" value="" style="shape=image;verticalLabelPosition=bottom;labelBackgroundColor=default;verticalAlign=top;aspect=fixed;imageAspect=0;image=data:image/png,iVBORw0KGgoAAAANSUhEUgAAArkAAAHoCAYAAABNZPd7AAAgAElEQVR4nOy9eZwdVZ33/z6nlrv2lnSaLGyCJBJCAI0JqxLUgAgMqCM4oDOI/pRhHGZ+qDDP8xtFFGd8nHHcQRR9EBFUdpAdBSSQkEBIQjYSCGRPeu++t++9tZzz+6Oqbt9usnTSIZ0m5/16XW53ddXZqip86lvfRRzz3pM1O0XG32o7f1MoFW3X2kJrjZQSITRai/hvKtounGp7SgUIIRASpIzaF9hoHYIIEcICHe8vKlH7OKAlQvjx7wKQCA1B4JHOpCiX+8ik8/T0dpPJZKK+Vdy+BK01aAsh4imL/qlrEf1H6Jr5Ck0QKsIwxLYkQgjQFlqHKKWQlkAQbwcsW1Iul0mlUgS+QAiBtEK01gjsAe1Ga6b7x1IdiAVCR+NBVdffUlEfavD+2z0vBoPBYDAYDAc2cte77PzwSKRGQi8SuAIhrOrvMhay/ds10hLRR0osy0IgIwEao3VYFb9DwbIsPK+MbdsopXBsFyEEWouofSHQiljJqqoYH0CkKt+yTVoC27EiAUwi4DWOayOEIAxDHMdBKUUYKBzHicWrQErieQu0jo5LBG4ijAeegu3NWSF0Im538TxiMBgMBoPBYAComhd3ws4thUrJqpDst+pqtALbsVE6iASktgGJkF68r0QrCIIAS9pYVmTJVToSob7vx4I46mewAbNqjBUaP/DJZ9L09fVhpd1ITCORQhAECsuysCxZtcD2ty9qLMkSUGgZxhNzQCiEDpBCIGw32k8qpKVRKhbKNlQqlVjASyQKx3aoxEI9jK3WidAPdBgJ5VACFoh+a+325ld7DpSQb9lmMBgMBoPBYHgrQxC5u2jAjppILLFVC2X85TgOKgS0QKno1b1SIVJaIDUCidIhgRe5NthOJAhtK2o3VGFNb4OFnUJrSKfTFItFUtkMgR+QSjkEQRC5FMjIuhsEXnW8UsrquEMVRE3pQW2LyIJq2S5CaAI/jN0dNJYlsCxZbS8MEnEfCehSqQ8nlcb3PSxbxs1rwjBEWgKlFbZlVR8KBvabqNvtu4f0C2K5g30MBoPBYDAYDDsRuTvzxe1HKQ+QCMtGCknoB4BCWpEIC4PIFKt0X9ymjSUdROQ/gBIgBFjSQggbP/AQArSqoLWuisTB40i8C7TWoDTScVEKEJoQHyE1lgS0jtq3I/cC34v9gbVGa4WwIxcGROR2gRYgNIIQBKhQolFYTkgYhugwDdpBKQ8hoVL2IrcMNCr0cdIphG2jUTiuTRj6CGFhYSEsgdJ+ZGHWQbRGVaE70EqbzK/fR7hm4lUhbISuwWAwGAwGw/YYpiVXoYWHkH7sZiCQlgWR5ENpjZAarQOQccCYctG4yETUycg6qUIXtF31qxUWCFHjq/uWgKt+LFsSBiFCKhAFhJQgBSoEIaPxKCVB2ZELRaiRImo/RDNQ0FvVnyUKJRSaMiFlsDQal5BUfIhNKp3F8zykpbGcEC22EeiAdKoBr6JB2GitUHigJEKKAb65tWtZi9DbdxPe2ToYDAaDwWAwGCKslgmHXBv9GFlWq34G7CjQScb7CBA+rlNGW5042S6cVBGBjxQhUnpIu5dUpgs33YmwupF2D26ugO16CCykpfjaNf8PGze9RkdnL4IoME2I6NW+1gohFANf00cILaJRCAU6INAell1GOK38+79fwbo3X6e7ZxvXXPNlNm5cS0dnIW4/yuoQKA+lQeASCVurOi1QUTCcrGA73VhuB1a6F+l0kkr3kM5U0MpHAEEQeTpIEaJkB5+/YjZOup1NG9dxzdVXs2HTJrp72pBWCWQFhI0QNhqB1kQ+uUIj4rWXVXGr4m2J+I3Oi06WvroSRvQaDAaDwWAwDGY7ltztB0JtF1kmW1/kw2eewmHvehdCCN54bT1PPPZXersVn/3sxRxyeAPIAlCI/XGzaN3EC399jT//+Sm++72vR4FZzhhQkV1Vqcg3V8dZCarj0RboFGgJMgQRIKSH1hpbOgS6D9cpoEQHtlsBUeK7//W/EKSw7XqU9tFxCjPpiEhsBrGbgvBA+HGKMgEqHaUvs3r4l6v+gVQ6DqzTNkJneX11B3f+4SGclI/v+yhdwU51IuytWKmtCLub7/7Xv6NUFilDjnrPOKR0WPlKG2GYi4LUJGi8eG4OUksQCinCSPxqC4UbBcHt8JwYlwWDwWAwGAyGwdiW0CgVZSDQOrKg2rEfbJIiSwhBWH133p9BwRJ9fPxT76OtYx03/Pgp/MDirLOP5+LPfoxf/OwRbv7lfTi2wk538OnPvo/169fz1GNbCMpjETKPtJ3IR9Wq4LgWxWKFbMrF88tYjiQINahIhFq2JvRd0C04dhroIVDd2OkQrS38Sj1aVXBTgnKlCEKhtA/CxxIejqsp9flRiq/Aw3ElgWcTMgYpHRy7RNlrJ5u3KHsKrZqwLUAWCcI+/nTXk7y6ciOVch5ULsrjKxSu24GwelGqD2QFKYsoXUHIAM/vxrF9sHt5z/RxgM+KleuwrTFobQEBjhsSBprQq0Mjsd0KpXIPmWwKVAYRNqCw0Cp6+BA6jpETg31z95SRE8hJmrfRzeh9wNg/1n/P12/vjH/0nr/hMtLrt39cf8NltM9/pMc/evsfLqP9/A+XfXX+7GOOOYb6+np0qFAqwHEcPM/DcfqLNxT6iix6aTFY/T6yWmtCVeGQw5qZv/BRSuUAHaZ55pln+NjZY3FSeXp7FI5Ig6rEr+UVOsxCWA+kgApX/9s/8/s7f057a4Err/wyf/nL05x6yixsx+fZ5+ayYV075513Po0NWZ5//mUee2gJStnUj6nw6U+eSUtLCx2dfTz0p7ls2rw1sqjaNo5jo/H4t//1Ze74w610bOvgX676Mg/e/zinz/4g6RQsfnk5Tzz2CpZ0SGd7+bu//yiNjY14Ptx//zO8+eZacpkKggq2pQiDMkpnYkkpsR1omWBz5tkfo2XsBNasfRmtPbT28X343//+FX532x+ZedIpTJkWWaUPnjCDH37/FprH1XP2xz5KS/M4KuWAp596nldXLqe+0eGrX/wS8+e9zNSpJ3H/vc/x5ps9/WdMC6SMrMqCWqG7Z9TmJx4ZRvomHx4jv37DZWTXf/jrN7zxj/7zN1xGev0O9Pvf3H+ju//hMtrP/3B5++dvV0plyNdhSxCWje97ZNMpKpUK0rERaPr6CmhCLC3RUsbWXQu0y4J5q/jwhz6KX36G1tY+Cj2C3/zqYWxrAq6TRiEj9wLtolUknJUAK37NLuxuUrle0iUPZIFx48Zxw403cewJEzjrrDNZuXwDv7jppxx8WAsXXvh3vLZ6HdtaN/D3l32Ula++xN33rOaYqcdz0adP5de/vpli2UfaDn19BaQVgFUglS2RbigTyl4OP/Jd3HzzzYxttrnk4s/w5htbeOPNNVz02Tm8uXYRf/zDSiZPmcpnPjOHG2/8CRUvRFhl6hsCDj5U4HkVVOjR3qbw/G4+edE5rFmzjD/+/kEOPWQ8U6cdSxB65OtB6RLCcrjzDw9ybvgeUm6ae37/OG46x6c+fRbr16/jgfueYPxB4/jEJ0/mrnuW0dXViZsOsFMuv/zFLVRK9aDzQFIhDTQ6ruAWC91hMcx6IMNidP8PLmIk12+47A/rP5z12xvjH83nb7iM9PrtD9ffcBnt8x/p8Y/m/ofLaD//w2XfzN9evXo1juPQWJ8HNJZlUS6XcV0XLwwo9PawevVqJkyYQBhotra1IqUkCHykZTP32SW0trXwgdNmU98wjpcXrmLe8ysIKoJysPOnBE2AtHzKnoeTAkTAy4uW0t1bZsWqtcz+sM+qlauxHIcNG7axbdtmJkzKgbDI1fus27iChoZGNm/eTD6fYczYOkqbOwhCH8sWUYlg6dFX6URaIGTAwoUv0lMoIW3Flq3raWyUHGE1MGYMPPvsKvINKQqFAn6lwLiWRrZsbcPzPE466SQmH9WDUjlcZxx/uP0Jxh10BA1NKeY+/wJ9hQZWrtzA5i0Hk8vlKFXKSEshlCafr8OraAQKpWDSxBZSacm8+XMpFpp4rXcd6zc18u7JTSxfUaRc6WHJ4uUU+0JsIn9cISxqg8ySqmoGg8FgMBgMhrdihwqWr1zBtKlHU5fLoYIQ27apVDzKnseyFSsRwoqst1LEfro+jitBOhR6BEtf3sqL856kaWyWj5w1jc9+bja/vOEvuPZYwqpaD6KPiH164wwBQeiRy8H6NrBTaUplSKea6e1tw6+k6O0JKPSEpDIghA2yxLiDsli2ZtasmYT+eHRQx9Kl66lUMmgNduxpEYZB1H4+xcaOCpZ0qZRDUk49hd5OwlCQz0PFrxCEfRz/vuOp9I0l7TSzaVOBUtGi1Adpt4nHH36G1au2EIQNlEsa25YcNCFPe2sfXhlClY2D04gqr1lxYQwR0NHeS8rNIBAIfJrG5NBa0NPlI2QeVB+vv/46U45u5vl5G0hlc6jQwrYcCJwoAC0uViFl5DIihbWDVGQGg8FgMBgMBhtLEvghy5at4Pjjp5NNpwlDRag1ryxfgR+GQFS6NymJG1lyA8ZPGsNZZ3+Q/3vLz3HcMWzZup4n/vwm//zP/8RB48ey4Y0K0s5GPcU+uRFJaiyFAioVyNVBqa9COlNH36Yuco0OtsyQzTXhOlsJVYXAV0gp6S70orTFffe+QE9PJJZDz0WgqG+y8TyPtJvCti1A4ZUrZLNQqfikM3Vs2tRFPudGQlFE2RxSqQyPPrqIzvYooVi5CNlsCicF5XIZLOgudCO0hQqdyF0AnzFjG6hUINQ9hBqQIfl8niAoxUF8Lrmsg/I1qZSDHyh6utvIplO4KSj1dBAqj8MOnUFb+wayeSj09uG6aQK/goxL+Sbitv+jjCXXYDAYDAaDYQdIK7a0BmEkasueh68VS5ctxwui6mBSUi1BG4ktgRQ2Pb3tNB9kce4nTiDX0EpTi2LacYdTKJbp7SkR6riwglCRX24NQkeWTtu2kTb09kJzczOlYpn6ujqiJLaaUqkClh35DAsL121i/boine19nHrqUTQ0QlOTzUknnQAixIsrmlUqFZQCx0lhWRaFAjQ1NVEslsnnG2LLdBrfz/Damm7KfRbHHzuJsY1Ql4NTT50VCeAAMjnQVhtNLQF1Y7ZR19SBkN2sW7eSvr5tfGD2wdQ1FZk6Pc2kSU0Ui0UcF7QOKZdCQuUQKEkmk6W5Oc+Wretpbd/A6WdMp25MF9OOa+SgiZNYsWIzvT2Qr2vCqwRks9koWE9EbSWV0DQCaQ0/6MxgMBgMBoPhnYqtlMK2bUI0pYrPkleWoZTCDzVSxtXHagyGtdF4lbLi9jvu44OnT+OLX7gcIQQbNmzgt//3EQrFLKlUBhUCKgNBM/h9oLyaxhxE2IwIx5GyivjlPJnUWDraNmOn8lg0kUmNo1TYRF1dPbZoxi91ov0xPHD3Qs46ezZf/PzZ6NBl6ctvkrLXIlQF7TdgyUYI69FeMzKcRMpqIyg3kE2Po6t1G1j1SD0GV07EKzdw5++e4wOnz+KUL3yKYknx+ppOhFqL7XgElTx/c87F+L6PIIXQOTau7+W222/hwfueZfZHZjHzvWfx+htrWb2iC+1PgmA1tmjGtseigy6WvLSZj398Jp++aBY33HADDz8wnzlnfZB//NIHKZV8nnriOd5YE1Df0ABhE5bVQLlU5C2O4VrEZY/pr55mMBgMBoPBYBiAmHrCSbtUSUIIWsY2A7C1rbXqsoDwweqNvmvRTpRLNiliICtI0QuA0jlQqep2RXd0vLbRykXobFQKmD6UDrBEnFkAP0qdFUYuCFFO2rhCm7YjwSxE/1jiPLZRsYUQLQQCB0I3nlQAaCIfAxBSobUfz9chVHYU7CUqyLfkYpOgUiihQJfwdRlHCnwV4lppKn4c+KYtJA2RNVwU0TpEizRaCSxZjsoQIxFIwCbUOh6XjB4MVCqaB/RbbQfnlRvFKcTeCe4Wo/khY39Y/+Gs394Y/2g+f8NlpNdvf7j+hston/9Ij3809z9cRvv5Hy57Z/5DyJO760YkOywdqx10OAbYmdaKBJsitZ3xpZC0EHtCxFV1o4IHAheUQmNjSZswDIn8JkAIjQoU2EklNIEWEqU1cnAZYB1ZO4UdWz3VwKwEFgKlNEEAoJBWVExX4sbm0jBqVyViMxLHWkiElihVhyMBFWBrQejZuFLiVbpJpVLo0AUkWsa+yaFECoEOFVrVLFoiXkXYv261gnbEk0YbDAaDwWAwjB6GkCRte0q5/zCxywD/RHRunzCMrMK2bWNZVpz/VaOwsBwX25YoHSKli9YWUoK0BI7joEINUoMFQitkNZODrPquaiFBWuhQRQJXOiBstIpEpK8iK6/jONi2DUTBdUEQxNU44gA5AQqJQkZtxnl+LVsihEZaEIY+mUwGpRTpVJYwDJFSIoRAhTqqVFZdCxmXKU7EbbKQcdtvEbVJ+WGTUcFgMBgMBoNhVww9E3A1O8LeTR4cCUuqWQMiK2uSOUBWA95AYdsSnfxN6Cj4asB4VGQJFqL6SZBSDshQULuPUgrP8yKfWyGwLAvXdZGy1pwfV2yLj0/Equd5KKVQIaRSGUqlEtlsGiEE2UyeKDlCJIYRsZsHKjpGbUf8azFQ4BpBazAYDAaDwbDbDMFdYU9JxOfOfSaUCtBaY9kppBSEgR8frVFBiMBBCo0WJbwgxLXrIoGoI0GKtiPLqoiFZ+TzUBWKkd8raG3F+wcgNCIW0EIKhAWOJQGLIIhy+Qb0ReOyaqytKERsSdVEYjedTqNUlNosShkmqXhlQEWpx7Cjv+kAIQXEWSUsW8cZEwatk4ituLXiVmhiM7DBYDAYDAaDYQi8jSJ3KCi0qIAIUKIIxPpOWHEQlkSQQmkduQRIgcZD6RBheUQCMRGgNa/9E0S/xVXHMWoIP7bI2gipEJYXuUeELmgb27ZRKkQKsCybMA5M6/eVrWlehCj6CLRHysqBDgi1FxWCkGF0rEqhSUWZEJRAJ2nVCNE6jDNXDLRGx+bfHWP8cw0Gg8FgMBh2yjB8DxK/1OQ3NSgLQeTLOvjte/9xEkSIlSphZdqxsxtx6zZiZ1qRbid2qg9pF8BpxXKLWEgsbBRFpNuDsIpIuwSigiCMP1FgWZRjN6Q2AE1YHsgiwupDU0bIAGSJq//35zjsyCxKllBCEeKBpQjDEM/zojaqbSm0iD5oEWV4yGzj/7vuMxx6RAon04FMbYD0Wki/gZXdhHC3oGUn6ACJhZaakMiCK6UdtxsMWDchwshiXLOOVV9cI3ANBoPBYDAYdskeWHIV/dbT7b1CH+i3u1OXUlkmW19kzkdP4cgj3wVIXl+9jicef4be7h7+9qJPEoQl7rv3EXxfIISD5fRw0inv5fjj3stPf3JTFHimPbRUCGWBjlOESZ/Et1epSKgKq8y7J7dg2zYrl24FofjP7/2vKPesNQGEBcInVAGWayGw0bVZFUQQCV5tIUQGJUtgdRHKDrTsJdBdXPnVz5CvcxCk6StWaN3WzV8ef4H1a4voUCIkSBmi4nzBkdCVNWspIfZLjp4QnChFGhiBazAYDAaDwTBE7KHkKqsN4op+jtJ4CZEEcoVxQBWxX6pA1JT/1UKgtYhdTRP3AQ2iyMcvnElbx3p+/OM/41ckc86axUWXnMMvbridFxfN5cKLP8ojTxTxfQuEhXbamHbCRBYtfp5A95FKafyghONCGEgsxuJVFG6qTF+pk1xdmtALsEWakHbec8IYUimLV1evR4d5/LCPlJsjDCtIW1NR27BSAWFAlLNXjCUIQty0h6IXYftYMoVXypJKSSw7qgYXOUZUCHUXd939BMte7sC2XWZ/ZDqf+PRp/Oz7f6JUDJFCoUUfdrpCGGosmqMUaqJEueyRz46P/IJlD2GgkIxF6DwDjO57KRgtCarrD/gb+nG118NIkYxjd8e/N/uvHcfuHLc31m9P+9/eOPrZTk7ot5Hhzn8kzv/+cv0Pl/3h/hnp6284DPf+H+6675/nb9/1uzfWr7a93e0fRv/9n3yPxvlH49j1fru05OrYH1YIXf25NinAtGlTqa+vB6UIQx/XdfE8D8eJLaBIeotFFi1ajLSiVF7J4ioVcPCh45i/8FF6C0VQWZ76yzOcc845ZNL1LF+xgr7y+5kydSILn9uGkJIx4yTNB7ksW7YUpSs4GY+PnzeHd73rXXR29PHgfX9l06ZN2Cmf66+9ij//5WlmvO8kbrn5j8z+yCkcfULkhvCVr17Jd779Y75x3Vf5zW9+w7rX28nWNXHJ336KcQfV09HWzhOPzWfNil4aGhoJ6eUfLvs06YyF7aR44L4nWblqGWlRIdQB0gJph0i7jO162I4kDCssWvocJ596HG46xLIcpFvmgo+fQ9OYejzP55m/PM+qVauZMuVIzj//4/zX//kpblZz8qnHMWXycfz8Jw9E6XqFIEn0oGO33b15ge1uW/vDRQ67n8y6dv/BGTiGw0iv3746D2/X+u0pw01mvqfj31+u/+EyUuu3p+xv11/CSN3/o+387a3+R/rfz3fK/Z8weue/6+vfapkw6dpox+1/pIwmkc9lEULQWyjG6jn6B6axvo58LodEY9sWge+TTqfwfQ/bstBounq6aG9rjwLJZFS0QUgLLfvI5D3eP2s6HR3b0DqgryBYOH8NKsgjpKauyePIo47gpRdeRwjNzNMOI1QVXpz3JgCfv2IObR2vctutd6O15tzzP8DCl/9Mvilk2rHH0Nla5vbf3o9fSbFs2SvUN4UUCz433/gE4HLSBw7ltTfm01Ms8rnPX8Qba9/g7jvvxQuKnHPOOSx75TU6O9u48v+9lEWL53H3XffR1raVv/30mby6ZiEKj1NP+QArXnmNzq7NzDjxUDZtfZ2O9hLpjOLUDxxNe3sHK5ZuxvMrXPalc9m09XXuu+spNm/eyicvOpn1m5fwxtoNHDR+LJOPqWNL2yuc9zdncsftd1PodtBhhv60ERIprTiSTse+u8P/ROd09/ff3eP2/md7lqCh7R/9T/KdsX572o7Wg9drMPtm/Ubqs6frJuLg0NE+/5Fav+TzTrn+Rvr+33/O377pf2/ff6P1/I3UdbD/zH/X7NKSq1Ti1xpdUOPGjQOiDAgAq1evxnEcGuryCA2WZVEul3FdFz8IKBSKrF69mvHjxxNq2LZtW+zG4COExXPPLqG1rYUPnPYhGhtaWLRwFc/PfQXlu3iBy5IlrzJz1iwaxwr6Sr0cM20Kzzz9PErBYYcfwthmh4cfW8y4lga2bNkEosLhRzSzeWsbjgsvvriY0HcpV0JS2TQ6dKmUwLHqCbwilh0Q6BJHTnFJZTye/evzFHpCli1dS9pZgOeVaWhK8/0f/AcNTZJ0JkVH52aU6CBTH9DWCb29vfh+BY3GTad473vfy+TDGtHKpq7JY9269QSqm/ccewzpXMCLL71Aqa+ONavfZMWr85l23MGsXrGcxx57iMv+8UP8TctJvLRoPm1tHaDzcX7f2HyrOaBLkQ7mra+tdvVkKcz61bD7T+L71/qN5OvadwIjvX6j/fobaUbf+TMY9i32rnyeomtYVV+Xa0LQUalfIQSBghUrVnDsMVPJ5XKgQ2zbplL2qPgey1asQmBFwV/xzRiGPm7KQuHQ2yVZ+tI2Xpz3JGOac3zorGP47BfO4OafPoEUDq2bAjaua2fq9LF092i0sli1YhNKNdHYlKFcLjN79iwqvS3YspG1r22ldWsRASglUaFAKYFtp1GqSBAE1NXV0dvbSyrlRHFeFlh2SE9vN0LXY+GifHjmL6+QzeQo9rXywQ8fy9HHHkZfr0UqbaEoYTuKbA7q6+ujYhPCplKCuXNXsGyBBypFuq6LSz5zHh8606a1vZVisUhXR4VCT4ZcXYbu7m4mTTqIbLqeYsFn1coXOe74Y7jt13Op9I3FQu4gn65mYBDggc5Q8whHlofkIc2wZxy4/3PbSZlzwz7jwL3+DnTM/WfYPYaYXUGybds2hBD4yo+CzLRECAspJV4QsuSVZbz3+ONIpVKoQKHQLHlleRx4JqtPnKgoIM33fQ6aMIaPnH06t/zmJhyniU2b3+TxJ9/kX/7lHzlo/Dg2ritgiRyLX17Oyae/mzfXSVa/uoFKIY1QKfp6PVJujt/eOj/KTxCAX4Z8XRo7DQKJVha25VDuC7CEIJXK0dXVRX1DimJfb5SjV4EKJU2NY/D8bkKdIvBgypTJvPnmet591GF8aM4p/PLXN9K6BTwfvn7txWgd4HlQKpWiwDqtsWyBkAopBUprymWf1a+t4fBDDmbdujepr88jrICGMZJypZuxY46kq6uA5xfJ5tJMP/b9dHW0c9JJJ/LMk2sIK1FxCnRNqV9TBc1gMBgMBoNhp8hqHta30L9da43AQscZE/q/w+oTdagFS1esxA8DQq1YumwFYRjGneiobIMQkUBWAgubru5WWiYKPvaJ6WTqttE4Dk5436EUekv0dgeoIAsqx8oVa6hvdJk85TBeeXktlWI9hE2se6Ob7i6P2bMPx3WhocHitA+eTFd3GUtIVBhblSsemVQWqW26uwoccugkvLAd6RTQyiNlw4olPpVSwKlnvIuGg9o49n0OF1z4ftJZTRj6+EEffgCpDJz9sWn4QRHLhlQKMpkMlmUhpEKJLpxUByLVjZVp45AjBEdNPpjWzSGrlrVTLPZy6geOIlW3jcnH1PHuI49mxbLXcXIhF3ziI6xY0sGdd/yVGbOmcMgRLohKfA62F2SxNyKPB+Y7fvuP29vs6Pp9u44bzGhfvx2x638XDIa3j9Fy/b1T7/8DhQP9/L3z5z8kS25UDhcEVvwdkQhe27ZRaPrKFV5e8gpaa/xQgbQgDCIXhZp0FQmeF/L7O+7llA9O5/LL/xEhBOs3ruX2Wx+nr1BPys2jtaSv12bNym4ymQxtWxQ6qEPIPDqQ3P37uXz4zBn88xUXoAKHpYvfIBZ9Nr8AACAASURBVOs2ogMLV7YQeClcx6avEGCnHF5/tZejp0zgy1d8le//z3/hiEngTyAsb+HOO/7Ch8+cySknn8amjW3cf9/DFAsepb4Ky5du5eILP4stczz66OO87/hJZKxDqRQ3USqkUEEWHdTh6Amcf86lnDenmTCQBKqbF+cvY8FzmwkrY3n4wQW8f9ZU/umKs+ho7+WxhxbxxpoSx51wPJMmTOHnN/yWcrGOBfNWc/ZZn+CXr/2Ziif6LeGiP32KwWAwGAwGg2H7iGnvO2VYamko9QmEEDQ3NyM0tLa2RgJNChCVKPesDOLAtihaVisbSQMqFAipQZTA6okaC+tBZ0DbCBkQht1RqV4pENiAjdAQqgpaCdAppEihQom0QkLRi+2A8iPLtJuOq5npVDzYqIgESNBW/3bZR1SZLHkuUGgkQaCRIo0lXfygjO2WCJWHLXOR9VWGoG1Q6ahNWQISH1sBatACJoUfRFy2OKwD7bCjpyaxB64LiUhWqqYiXNVKvCsriawK7P7o5n3LSI9//+q/f9u+YuD4971v5IE+/+Ey0us3XEZ6/Q/0+3+kGe75H+nzN9KM9vnXjn8o538PKp7tOYMFsVYugrFx1dp4sYRACtE/AQ3oOlB122nQwWIcAoHn+ViWBUojpMQRAiUUSisEAiEUUrhonUKEFraIg+j8weKxpvJY7e9h3Vv+LgBHRmJZhyBUBlVpxJISHcaW7rDfgi2EAJWLf4/zzI3APTLarcAjPf4Dvf+R5kCf/3Ax6zc8Rnr9Rrr/0c6Bvn6jff67O/49LOtbyy78MpRGyLeqbaFBIFBxpGRSMU1rTRiGWJY1pMkoFWDbNpmUG4lNqeMqbArLkpHwJUp5prXGkU7kKyyo5tobXIp4aETHJE+TlmVFfrlC43ledR62bcf9D1yD/cHlIBpDcj6H+kSc5EVMjhk5C8JIj3//6H90/4M1HA70+Q8Xs37Dw9z/o5uRPn8jzWif/1Ct+LbQ4W40+1ZT9q5uMklspVVRP0KHUSox+l81aK3RqsbiCVUL6E4RglwmcicIggCtFDp+hSPifrPZLEopgiBAKU0YeBALUCF0VQRHJ652frv6HSBEIghDjed7CBEF5KUcOyrNC9V5v5V4HbTsz56wB99iOBdZvNbV6e3GcRA9pAyr/+Ey0uMfrf0Pl9F+/vdCv7AfzH+4jNT6DZf9Zf0P1Pt/pBnp9dtfrr/hMtrnP8QHPLtty4ahNyq246+hIwvoYNfSBKkjxe2IEK01bVs2D0heXZuxoX/sb9223eEIQYeOLLfSsSMfk1BVratSStqUGtCeElH7tpCxxVf3i8baee7q93ju0nFrxhOJ50RUA6Rspzqn2ieP/vrbgn5L8p587zmjPYn+SI//QO9/pDnQ5z9czPoNj5Fev5Huf7RzoK/faJ//UMdvM2RLrtqB2k9U/Y5GEv9Vh5GVNbbk6lj8CqhaX6uD1hqt1BBex0T7ojUqUJGbg5CEocKyLIJQ9x+vZWS9tSRKKUKRpEJLxpj0o4b4e7RNB34klgmrwloIjbDijAgq6F+KQVMZ+Hu4h997TrUi3yhlpMd/oPc/0hzo8x8uZv2Gx0iv30j3P9o50NdvtM9/qOO36upy1zKsGsFiwNdbiJVcXV0UuFUoFKp/Svxwa0sT7k7EpBAC27YjYSll9LOQuK6LFiCkwHEdpGUhhcBxHKQV7WdbdmzdHTz4wX4mO/o92vbnP/+FVCrFiy8urPoRizhwLggCLNsCIbb70TtZNoPBYDAYDAbDnvO2Z/PdkWgdvO20007j2GOPrboQDNUU3dLSwk033cTy5ctZtmwZN954I+PGjau6KCxfvpx1b65j/fr1rFy5krvuuovjjz8e3/erxSqGQ2S5FVXBXutm0e/v+1ZMwIDBYDAYDAbD24ctxI6F2O6wQzla84daS22tTy5APp8nn8+TTqdZtGhRdf/Et3VHrgs///nPWbNmDSfOnEW5XOb666/njjvu4IwzzqBcLqOCkM9ccglPPvkkqVSKr371q9x6y2+YMWMG27ZtI5vNEoYhQRBlacjlcnieFxWeaGujoaGBSqVCJpOhWCxWrbWO46C1pq9UQBP5G7uuS3d3N9lstlq+WCJIp9O0t7czduxYisVidT7Qb80esGSD1mZXDH4oGPxwsLN2hiu2h+PTszd8gkZy/CPd/954UBrtPlnD5UD2qRzp9Rvp/kead8K/fyOJWb/hMdL3377692+f1GUbLNpqrbUAtt2fjaCpqYlZs2Zh2/aA/WoTECffWmve97738eCDD9LW1kZvby/XXXcdb7zxBg0NDRQKBVKpFGPHjq0WofjVr35FY2Nj1X1iwoQJ3HbbbWzYsIF58+bxoQ99qJr6q6uri8svv5zly5dz2GGHkc1mmT59Ok8++SSLFy/m+9//PpMmTaK3txfLskin0zz22GMsXryYhx56iKlTpwLQ0NBAa2srX/jCF3jxxReZPn06SqntCtw9Xd/ddfXYXxh8jnf3M9r7NxzYmOtveIz29Rvt4x9pRnr9Rrr/0c6+WL99Wnx4sDU2yS/r+35UGjgWfrlcjhNPPJF0Oj3AFQAYMDkpJb/85S/57ne/y+zZs2lpaaGvr4/zzjuPtrY28vk8hUIBz/M4/vjjqa+v5ytf+Qr3338/27Zto66ujltvvZX29namT5/Ot771LX76059y3HHH0dTUhFKKxsZGpk+fzvr16wmCgBtvvJFVq1Zx6qmn8vDDD2MJSVNDI37F4+E/PcT85+dxykkn8/vf/54777yTXC6H67oIIZgwYQLHH388S5YsqY5/e5iL32AwGAwGg2F4vO0Vz7TuT9+VCD3otz5u3Lix6gJgWVbVTzaVSjFr1iz++te/4nneAAtuIpa11vzwhz9kzZo1/Nu//RsTJ07kd7/7HT/72c/wfZ9isciYMWP4yle+wvz582loaODwww9n/vz5uK7LEUccwdFHH82cOXNwHIc//elP3HvvvVx++eV885vfRGvNLbfcghCC1tZWzj33XCZMmMD5559PEAQ8/PDDfO1rX6O9vZ1zzjmHhoYGXnjhBSZOnMjSpUvJZDJMmTKFjo4OKpUKt912G5VKhcbGRrq7u8lkMgNKMxoMBoPBYDAY9g77tKzvnlIrkhNRmIjdjo4O/vjHP/Kb3/yGww8/nGuvvZYHH3yQ2bNnY9s2ra2t/Md//AePPfYYlmUhpeT222/nmmuuYenSpaxcuZJMJkNvby+NjY289tprvP/976+K7iR4LJPJMG7cON544w1832fTpk0cdNBBhGFIXV0dhUIBIQSXXXYZlUoF27Z55JFHAOju7iadTtPV1UVLSwtbtmyhubmZ3t5e0un0iK2rwWAwGAwGwzuVt13k1qYHA9i8eXN1e+KuEFUfE4RhiJRRHttKpcLChQvxPA/oF7rJt9aao48+mm9/+9t87GMfo66ujiVLlnDVVVexdOlSpk2bxsKFC6mrq8OyLCqVCsVikfHjx/P0008ze/Zs/vCHPzB16lRaW1tpaGigo6ODyZMnVws6JBZkIQSlUomuri6OPPJI2tvbmTRpEtu2baO+vh7P86qpzC699FK6urqqc7RtmylTplAoFBg3bhwvvvgikyZNorOzkzFjxlTnZzAYDAaDwWDYe+x1n1yho8/2qBW7QgMqqhDmOA5BEFQFbrFYZN68eZTL5QHuCbU+vYmrw1FHHcUPfvADUqkU48eP57LLLqOnp4ctW7aglKKvrw8VF5Zobm7mkEMO4cILL+Tll19mxYoVrFmzhv/+7//GsizOOecczjvvPG644QZyuRxCCLLZLD09PTQ2NvLUU0/R2dnJNddcQxAEXHjhhTQ1NZHP57n33nvp7e3lyiuvpKWlhUMOOYQrrrgCKSWlUol8Ps/WrVs58sgjaW1tpbGxcUDOYIPBYDAYDAbD3mOfBJ7VCtPkuzYTQJK+C6Czs5P58+cTBMGA/bYXTVcoFLjooouYOHEiCxcu5OWXX2b69Omcf/75tLe3U1dXRy6X46abbmLLli2sWLGC++67j0cffZTrr7+eIAi49NJLOfroo1m2bBnf+c53uPbaa5k3bx5aR2nClIqqpyml6Onp4eqrr+bMM89kxYoVzJkzh7lz51ZTkH3+85/nhBNOYMmSJTz++ONMnjwZ13Wrc2tsbGTr1q3k83kqlQqu62IwGAwGg8Fg2PuIiRMnvu2h/EIIxo8fD0TuCrUW3cQF4eSTT6anp4elS5e+RRTvjCAIqu3VfhKXA9d1q1ZiIQSe5+G6Lr7vk0qldhn4JaWkUqlQX19PT08PmUyGvr6+asaEXWVCqBXog/MD1wr42vnuTnqxYrGIbdu4rkulUqmuZ9Ku4zjbfVBItg038G2k82SOdkZ6/UZbyrlaRvv8R3r874T+h8toP//D5UC//0ea0X79jfT9P5T+RzzwLBFfzz777AA/3SRv7q5IAsM8z6sWaEh8YRO/2lwuR7FYJJfLVbM31Jbg3RlhGJLNZmlra6OpqQnf96upzXzf32lVs9o5Du6ndlut4KwVt0MR0ZlMpjrORNT6vk8ul6NcLlf3q3X3SNxCDAaDwWAwGN6p7NM8uTsjsT4qpaqW16GQ+Ntms1ls28a27Wo7lmWRy+UolUq4rovneVEVMilxXXdIQk9KSXd3NxMmTKCzs5NUKkVfXx9Syt3KjLCj0saJ8EwEbjLuoQrRJAOE67o0NDQMqNpWm2O41pqcCF2DwWAwGAyGdyr7hSV38Cv93almkc1m0VoTBAFKqbe8+k/8faWUOI5DuVyuCsih9CGlpLm5mY0bNzJ+/Hi6u7tpaGiolud1HGdI49xeX7WVO5IxJeIzEahDGWOSocHzvOp6NDQ0oLWmVCoNELVJe8aSazAYDAaD4Z3MiIvc4ZK8kk8suLW+rrXWUCEEvb295PP5aqBYUjp4ZwRBQKVSYcyYMfT29lZ9XxOXhaG6VeyIWveMRJjvjghPBLxSCtu2qy4UHR0dVStvre9tbc5heGf4NRkMBoPBYDAMZsTfWSev6mGgD+pQHZoTC2UiXBNBp7Wu+qkm34kY9Dyv6pM7lPaz2SxBEFQFo5QSy7L2Wo7bJE/w9oLDdkbiF5zkFU5+1lpj23bVyjzYkmuErcFgMBgMhnc6Iy5yExJxJqWsBo0NhURwJn6pyXfi4wuRS0HirhCGYTV111CCxpLsCknOXt/32bBhA+9973t34Neq4s/QSOY8uK3tBasNRgjBhg0bOP3008lkMti2TT6fx3GcahBe7Tok/dRuMxgMBoPBYHgnMuIiN3l1fuqpp3LsscdW/WuHSktLCzfddBPLly9n2bJl3HDDDTQ3N1cF3rJlyzjvvPOq6bVs22batGls3LhxSIFjiSjOZDLVUr8HH3wwCxYs2IFQ3P0lTazZyZjPPPNMzj777O1aXGv7rP3Z931eeeUVVq1axZo1a1i7di0PPfQQs2bN2m4bxpprMBgMBoPhncw+LQaRMLgYhNaauro6Jk2axPvf//6qJTLxs4X+7AuDLZw33HAD3d3dzJgxg2nTptHd3ckf/nAHlmVF/ro6JPArVd9XFfq4Tr+rgdYa3/ervqxhGJJKparbgP62iKzCSRnfcrlMT08PqVSKIIiyIhSLRRwnRbFYjNvTlMsevu9TLpfxPI90Ok2pVIotzGBZgopfJtRRzt85c+Zw7rkfi/8WWZu7e7sIdYAQmlKpWM1CAf3BdZVKhS996Uu0tLRw2GGH8cgjj3DTTTeRz+eradV836dSqVAqlQiCgFQqhW3b9Pb2VuedSvWPf3D+4cGffsv17n/EjkrjDbpWdva34X/0MD/D6384jLQ1frT3P9rHP9L97w/Hj+T9N1zM/M31M9zxD/f40fz/r6Eev09EbjKYROzWZhUQQuC6btUvdcyYMZx44okD/Elrv5O2kgCqGTNm8OCDD9Le3k6xWOS6665j7dq1NDQ0UCgUqq4MAKVSCSGiQhGJyA3DkMmTJ3PnnXeyYMECnn32WWbPnk02m6WlpYVNmzbx+c9/nlWrVjF9+nSUUqxbt44ZM2Zw7rnn0tHRwdKlS9m4cSMrVqzihRdeYN26dTQ1NTF27Fhuu+02Vq5cydNPP80ll1yCZVlkMhk2bdrEnDlzeOaZZ1i0aBHXXXcdWmtuvPFGPvnJT3L22Wczf/58KpUK48aN46WXXmLu3LksXryY008/nVwuVxXiid9xMp/EX/iee+5hzJgxVfGez+e57777WL16Nc899xwf//jH8TyPM888ky1btpBOp2lqauLyyy/nlVde2acZGPb0Jtof/rEZDrX3wp58Rnv/o52RXr+R7t9wYGOuv+Ex2tdvNIx/n2ZXEGLga3IhoiAu3/erfrhSSnK5HCeeeCILFy6kUChUj6tdmETc/OrmX/C9//OfBJ7PsmXL6C108zfnnUdjwxjqcnlKpVJV+OXzedCRpTadclChT1NTEzfeeCOLFi3i0ksvZebMmdxyyy2ce+65dHd3A5FLxMyZM+np6WHChAkA5PN57rnnHh599FGUUkye/B6eeuop/ud//ocjjjiC7u5unn/+ee69936++MUvcvrpH+BHP/oRa9eupa2tDdt2mTlzJueffz4TJkzgvgfu56WXXuKyyy7lxz/+MY7jcNVVV9HQ0MADDzzAL3/1C379619z+gc+yB133MF73jO16ofrOA7pdJogCGhqaqKhoQEpJRdddBF33303PT09SCl54IEHePrpp7nsssuYPn06N998M5s3b+bxxx9n3rx5fPOb3+R73/seX/va15gzZ05VHI/U9bFvGHGPHYPBYDAYDG8Db7vI1VoPSFuViMREpG7atKmayqtWVKVSKWbNmsUzzzxTLWxQa7VLBO8PfvADVq9ezTXXXMPBBx/M727/LT/5yU8IfIXv++Tzeb785S/zdxd/hkKhQDaTorGxkXK5jGVZzJgxgyOPPJLzzjuPvr4+5s6dy2233caVV17J1VdfDcCvfvUrPM9DKUWxWKwWhBBC0NTUBMCPfvQj7rvvPu666y5KpRInn3wyruvy3e9+l1wuxz333MMnPvEJPvnJT/LTn/6UUqnEr3/9a15//Q26urpYsmQJBx98MLlcDqCa39bzPKZNm8akQyYShiHr1q0jCAJOO+00/vSnP1EsFikUChQKBWzb5qKLLuIjH/kISimmTZvGk08+WbXWZrNZvv/977Nt2zbmz5/PY489xqc+9SkWLVrE1VdfzcMPP8yUKVP42c9+xuuvv065XB5yHuC9cZ0k36PZMmswGAwGg2H/YFTkya0VybXpxgDaOzr4wx//yC2/+S2HH3441177dR548EHOOOPDWI5NV1cXP/rRj3jgwYeoq6tDq4Bjjz2W2++4g4rn0dTUxMaNG7Ftm1KpRF1dHVu3buXwww/HcRyCIKj60CYV1bq7u0mn00gp2bhxI//6r//K+PHjueCCC+JiDCEnnHACvu9TKhVpa9tGc3MzL730EqeddlosvrM4jkNTUxOlUpkgUAhhUSpVKJc96uvzBEGADuEb3/gG53/8b1i3bh1CR0Kwra2NTCZDPp8nn8+Ty+UIgoBbb72VO+64A4hyCD/yyCN8+9vfZtmyZXR2dqJ1FNgXhiELFizg7LPPplwu09nZyd13380Xv/hFLrnkkmpVN4PBYDAYDIbRyNuuYpJX0Iko3bx584BPrfU2DMOqsKpUKsyfP79qQU3aqU1/NXXqVO688046OjpwHIclS5Zw1VVXMWXKFI455hgqlQqNjY3VzAXbtm2jr6+PSqVCEAS4rktbWxvvfve76enpIZPJ0NfXx6RJk6rBWbZtVwO8ksCyxsZGOjs7ATjjjDP4+te/zj/8wz+gtaa7u5tUKsXLL79cTWU2fvx42tramDp1Khs2bMC2bYrFIkIIenp6sO3oWSObzVZTfyVidMaMGVx55ZVccsklfOYzn+GSSy4hk8mQy+UIw7Dql+t5HlprCoUCvu9XxfncuXN5z3veQ29vL4ceeijlcrlqIZ45cybr1q1j7NixWJbFxRdfzJIlS7jiiit2q2SxwWAwGAwGw/7GPjXVDX4VrXUUMJXkr00stcVikXnz5lUDxWqFcq3P5oYNG5h81FH86Ic/JO2mmHDQeC677DK6u7vZunUrSil6enqqorGpqQnXdWPxaRMEigULFrBy5Uquv/56mpubmTlzJhdffDG/+MUvqgFrdXV1lMtlbNumrq6OYrFIS0sLqVSKn/zkJ1x33XVs2LCBcrnM2LFjCQLFq6++SmtrK9/4xjfx/ZALLriAk046ifvvfxCQuG4ax3HIZrNkMinC0Ke7O7K0lkolmsaOYcKkieTq8kgpq4FjX/va14BIcPf09OA4Dq7rksvlkFKSTkftCiEYN24cH/3oR1m9ejWPPvoonZ2dXHnllUyYMIGTTjqJM844gwcffJDu7m5uvvlm7rrrLr70pS/xuc99jmOPPZZMJrMvLw+DwWAwGAyGvcY+TSGWCNzB/rVJ4JkQgs7OTubPn1+tXlYrcge3UygUuPCii5g0aRILFy5k8eLFHHfcCVxwwSdob2+nrq6OfK6+miarVCqhlUCFURtJ2q1/+qd/4uijj2bBggV85zvf4dprr+XZZ58jnc5WraPpdDZOB1Yml8vR2dnN3/7thUyYMJGvf/0bLF68mM2bN7F06bJq5oMvfOELHHPMMSxZsoTvfOc/uf7663nuuecIwzD2Qxb09fXh+z6Ok6KpaSzlssdvf/s7jjji3Tz00CM89dRT3H333Tz88KM888yzLF26DJDk83laWloIw5ByuUyhUCAMQ3784x+zefNmtm3bxtNPP82CBS/y3//9PxQKBS6//HKOOOLdLF++nG9961t861vf4rnnnuPv//7vmTZtWhwY9yY33fRLfvjDH1aLZgxEsv3LZkfbd+/4/oegwftt/xitBVrvzId3qOPaXYwrh8FgMBgM+zNi4sSJb3s4uxCC8ePHA7Bx48a3iF2AU045hd7eXpYuXVr1u018cXdEZAn2YwuwrB6TWIS1DquuCpYVBVAJLWOrcWQZlnZ/LtjILUIjhIVWUTtaRrlyhbIBgRZhtZ1kDL7vk8lGwWi5TJZCoYCbduI2B6W5So4jslwjBAhV3V5tV0RrEMb+s5ZlRa4cqn9uUkqQUf5fLyhF+W17PHK5HBUvysPre/F+Inb5UPFDAyGgsO1BQjbun7j/JJVtNB45aHwKRYgQFuW+Cvl8nnK5r+r2Yds2UspqHl+lFJaIggwVYfVvUtpY0onOu4geblDReVFEKdJQFlpH5y0MQ6TtgO6/PoSM8taGKr5uCEFpbCuDQAPBgHXWQg54s6Cr803Ea5I+bQdiVst4jYaXZm1/SAOzp+wPAYLDWb+9Mf7RfP6Gy0iv3/5w/Q2X0T7/kR7/aO5/uIz28z9chjr/fRp4lmRQqM2/qlRUROHZZ58dIH6T/QenHBu8qMKSqETYKAFaIITEkhahAsvSgAU6cj2QMipgIGUsbq3ouMAPYnEUoLXCsdP4vo+oahxBJHhqU2pF40zy0rpuZJ21bRcpo3nallN1yxBSQzx+23YJQg8pBFrHVkydtKkRWqKF6i+CgYVWGktKtA6xrOjUhSqaniQS1Ol0BhBVF4dkv0StJoJbSis68C0MvnAGiT5dY2kVKl57XfUltiwntkwneY5F1e868reWKBViOQ5B4GHbbux/HIt+onPuyBRB6COs2BdbWAShxnbj60IlVv5oTkp7gKjOVwjZPxctBk1LgpbRJk1V0Ef7DhT5O/zdYDAYDAbDfo29L5R4rXhNgsxqtyWit9bvdnABicE/V7cpiRMHbmERuSPEgWq2bYMOAQHKRggLJcrYtgAV6c0w0Ehb4rophIAgDAFNpVKpWk5BxX0nn9qxaELlk8tlojRemTQIgRQ2QuqqFTPxkw1CD7TE9zxEIsyrLWmILcVoKxaUCikFUlsIKVDCw7YEYRhlY7CFRAoLIRykdqgEQdXq67o2vhevpY4sncTW8WT4Sf9aBrGAi8Ww1oACJYlTOgAhqip6Q9Aa13Ziy6yPEJrAi9K2Ffp6cV0XrfuFutYaDUjLJgx9LMtBBdGDj21bCMn/z96bx9lVlPn/76fqnHPX7k46C1nYZBVQCKCggCwiIsiijIA4LojDjDq/Gb/OfJ2XfnVmnFFHx3VchnHGUUcZNzZFRFHZRPYIhJCkWUJCFkjSWXu52zmnqn5/1Lm3bzcJhHSSTpv7eXHT3Nvn1vJUndNPPfWpz0Oa+rkQZ1nqpBnZdYowzGGMV31QEmb+tgNt0M471ca1RWSFVp1+kSPbcFId2VWtRUhrMeMC333lI9/iInDi37vxJ8vYmyOBOwMTbb+Jrn+yY2+332Tv/0S3f2+vf6IxGfof7O6Qd7scWNPB1Vo/P0LbpqYwlovbfm0UjagR+HJVK1osIoRh3jthqW45QK1tc3FZBDTFGPER3Mg7QUEuxDnBOoOPePooIy17jfwsFAoMD1cpFssYk5AvRFhrMSZtRXRtlrI3DP02e5hpAxvnlRu8xyZt5fuygyCjPRjxW/taIQJh6KOwaWyIGw106O1UKhV8BDkMsxS9nldsne+ncyaLqgY+mtmkS0hWf9YvQQCd2VxAtA+INk2ffe7LgkKhQBzHFIt5hoYGKHWVR6llNMetudARlS1mNFibktqmffSocU3SLEKrBGcdYZijGYm3DoJIedsa68c8a1OznVoFZOHatj6OgUjWX0bsL7r919k/GsHhWvQTzXjpCpMZe8J22Xgw2ds/0Zho+010/RONyd7/iW7/RNc/Xkz29o8X201XKBaLu7gpvjGFgne+vI7sSKS26QTtSDIA5xyoJodWo1AY47mXfmdcEOudSRcmgEJJ0+mLW7xcX58/+GaSOHNuvUOkdXkMlzOLFEKLEyoihDpClILIorWPwIrLtzi5vp1CGbmvPQAAIABJREFUmlqczWgXYsnpgNH8z9H0AC0Rxlokl+AkxKahXxTYBMRSyGWLAW2JkwStFdYJSguFQo5M/QzQKFXAmASlAk9/cK7FzW3Vn9E6XJPe0L72yDio3tn17dS6ucCQ1uHBMBdkixSNaIUxjiCjh3gqQ6HFlRbxNA4hRMTTGvyixFecy03NHPY061va4uVGQYRDoQmR0GVO7sicA8Ao3xdJR7V7pM9jbW9p0hl8QWlmh2LW95HrrROUOMbj6E6GlfC2sCc8ZPdmTt5EY6LttyfMv/Fisvd/ots/mesfLyb7+I8X2+3k7i5Dbc15befYtkdf29UUXrB9kmKJQRxGOc9tVVmEWKwPvCp/yMpI7L9jQxRBMy6LBP57zqSIyxxIJ6jspL93AkeFMEf965wjCAJiY9CBwVCDAMSJd9S09iQHpxCnCYIIk7rMEQ9xGZ3Cb70L0uK8ekfZSg2rEkTXsQKOCEeIKOfbSESaJuhAocMUFVZJTYIOI9LUQeAVCKxYUicoDcaFKJdnRM2gGZFss3XTyW0/eCXio5jY7DAXGJsQhA7jGjjjCMMuGlVLPp8nSesgCUo7nPN0EaXAuQQfJTagY5xYnHEtSgmADgWFd3qNTUBinODtpSyiUoyuAqoVYbY4lAvAKsR5p1kUnqaBZP+Ntq8oMof2hVQfms6xwmXzyKFQzmXlTfzDZiKwJzxkx4PJ3v6JxkTbb6Lrn2hM9v5PdPsnuv7xYrK3f7zY3v7r3t7eT+7qhogI5XIZgEqlMurzEVjAZQeG/Ba2tE4GZU4K4J2OLOpLjArrWD1IWBokKFQRaSBBgqgEG1SIysPowiAqrCG5KmFXDZ1PwIAK4FOf/RjLVjzBlk3DOCMZv9VzO9M08RHhZv1tnNVmpE+JwdoGqY0hqCOFQT73pf/HsqefYOOmtXzm859g2fKlDGwZwlntHS9RWJNi0hSREJzG4Q/NtZi/4nASI7kqkttCUBiGXAVdHCIs1HE0Mm5qhLE+wmzUFj70sYsIujaxZu1KCKqoXAXCYXSxQlCooYIGOnSIC1ESYqz4ultoRnabKhK+/15VwmTXiuejikFUSr6c8Okv/TUL++5lYHOMNQEOiwpSRFcR3UCJwzkfJfWH/wSnUj71uab9K9B2mMxaQ5LG6NAiKgGp41QVFdZwQQVdGEbyw+jiMJIfQuUqBDmvvqBVgCBoFbQWKc5mh82aZ9EcfgcAyV4249h659dHcI3/jvPRYOtS/IIgi/g6OzIfdhB7cyRwZ2Ci7TfR9U927O32m+z9n+j27+31TzQmQ/93i7rCtgzRHqltRnGbp+uVUm2fbaNc1aA0tcH5bz2LQw85HFAsffJpfn7jr6hssfzl+z/A/gdPw6oKVlewOLAlSLq479ZF/PKXv+Tj//i3gANVQnQBK3XvAGkIQsB6DqavMECsP+CEsjhJQNlMRSEioUYUVUnYQhDFOF3hY3//YXAhIkUkMFgX+0NOgSFQAc6ojI6bYCWlufWtXOQjuMEAn/invyHKCcalOKtQrsiyvrVc/Z1rSOwwBA4rKUGhTqrX4IJ+Lr/yYg7a7wicTrOIt8OlAZLmuPvOBdxy0104FyNKA14VwvNN0+zwW7Ztb0OaKgyewtDAKoNytNqqQ0uqNqPyw1gVoHMROB99NWqQT37yH/nZNb9i0cKnsUaRJpLpBCeZ/S1CN0rlscpnZCOAIBSSNEEFDY6YNxckpm/JMt7//r9gvwPmIFEDyQ37tqXdEBe55475/PLnt6GlhLEGVHvbm9zj7KAjtFFRgiyanngHVxqAQkwJR7jVOduyUQcddNBBBx10sMdhlzu5TUe1XUGhCdU66e+yrWyFSdKWHFUQ+MNToyXF/Gl7i4OgxtuveB3961fyuU//liSGCy9+Le/7i0v42r9ey79/9X+QwKDyA1z+l2ewYtVKbrn+aaQ+BU2BIIxI7RaUBl2sUq0MUCjkSOKYKKdJkhRlFS7Tok1iRZBOJYrypAwS2yHCkkaMxlTzpGlMIXLU4iFSF2OsQ4UOpRroHNSrm4nyedK0QRSFmFiwpoxWITof02hsotCVJ6lZTFpCB5AS00iqXH/NTSxetJy4VoC0iHKCc4ZSd0I9HcR6AQmcrgGK//rGtTSqkC/D5VdexKrlz3Lrrx+AOI81AWHkiM0gKIdWeYjznlOs60iQEIQ++lkfDsjpLu8g65RYbUDClLhhwWoKYTciXkLNugRLHWt9RDUKHSow1JLNOFXDEWOMBhdQr9chaOBcnSincUkN6xLI1ZHAkdYMWocordBRhWNPKpG6kMVL4Jv/8S1cEqDzMVf89etYuuxp7r91A0ObAnq6ciidkqbDOALEaoK8wtoqhgah9nWXuorUG1W0VphYE9FLkhgkqmOpUChEiATEw4ZAytg0BCSL3FscCmudV+qYIGxNUm9Px9g2T/Ytt/G0fzKO387G7h7/P6b5tyNtb+//zph7E22/8d5/E4mdcf9PdB/Gg931/Bu3k/tijWyPfLUrKoB3gI8//nimTJmCMd55yIURcRy3HF3nHENDQ8yfP3/UITWHw5iYlx00l9/f92uGawZn4NZbb+eii/6EYn4KG7bUKJW7wNX8lrdLEBMgpoRSEVDhXz7793zru//GurVDfOYf/o5f/vIWzjjjNHIFuO2237Jy+VouvfQypvR2c9fvHuAX192NiRVdMxzvfedbmTFrNgNbqlz/41+xYtVGjPH84iinsQo+89mP8q3v/Cfr123m0//0d1zzk59x9pvOolBUPPTAAm65aT6iNVG5xrs/8CdM651Bmmiu+8EveOrpFZS6ANVABQkmBZsmKEBLgM45Zh9Q4LwLL6B36j48sfwR/BZ7QFKHUHdj0kGUDQh1jgBFmhYBR7En5lOf+Ci33/Z7Tnrtmfzn166mUqkQFi2X/unFTJk2hcpwjd/fcT8PPvAoYVCiu6fIle95N9Nn9TCwaTM3//y3PLl4LT26mzgZRkcGp+BN553ACcefwjeu+hrVpIGOHEiCIwEKGe/WogPHF776Gb521RdZ3reJww47lLdc/EZ6e7tZufw5rv3xjWzeWOU9772EQ45NsDblsH84nX/86H9QimaQJGs9ZUUM9WEIXJk0SXjXu9+OBMK3vvVthIiZM2fzkY99hE99+h9oxDU+9cmPtMY5CB333/cIv77xXvL5PMVew6VvfyszZuzDlo3D/OaWe1ixdD3WdqHEpznWWreSTkw0xvuQ291O1s6ub7L1fywm8x8pmHj7vVRMtvZ28MeNyX7/jxfj6f/23su7/K90u2SYc64V2W02sFapYlODFkWoA+I4JpfLZZmw/MGoWq0GZM6t+ANGIoIiz713LuKCN7+Nlx/TQ+9soTII//HV66kMJuTzRa+S4AKcDTFpm0GdVzWwejNR1zCFqeDCCnPmzOJLX/46t9x2A+dccBqnnnEi//b1/+C/v/fvnHz6PA49ajq5KTFXfuh8Vq1/mC9+4avMf/B2Lv+Lc+mZCakDrSKq1WFEgQsGCct1ilPB6iEOOfQgvv5v/87/fP8/OfnUY3j5UbNwusJ7P3Auq9Y8zJe//E3uuP1GrvzLi5g6J9sQ1wld0xz7HQz7HqaZfaAjLNRJ7GbeccW5rFrXx+c//2UWPvQkM2fMJkkMhXwXaSIICmu035JXIaJyGBxhOYWoisPyTx//NJs3DTM4MMyfXXk5a9as4kuf+zL33HU7F1xyGjMPtAQ9Q3zgQxexcsVSvvz5L3Lv/bfxjndfRLkrR5JWyZdSGgbmnaQ56YzDue76nzCwuZLxa62PlmshCBVKQRiGWNegljxLvjxAeQa8830Xcs/dv+ETH/8szz63nPd/8EoiHfE/372GBQ/3sWjhcv7l018nr2eALaJVEZxGqxDnFFoVcEYxf/4DHHTkdArTQJVjXvmql7Fi5dMMDdcodYHOx+y/71y+8fVvcM0NP+Ck01/BvBPnkgZ1/uJD57F6wyN86ctX8cijd/POK86hMKWGziVo7VU3rPNybsYku/r26aCDDjrYaeg4+R3sbdjldIVmSlprfVKAWbNmjdLJ7evrI4oienp6aCZwqFZ9atgkSRgYGGDx4sXMnj0bYwzr1vdnElIpojV33v4Qa/rX8oYzz2ZKz3QefvAx7rr9IWxV0ahZgla0rf3gmlczcOIgSKglDh2Bk5QHHpjP0CAsWvwsbzo3YfHiJSgFK1YOs2bds8zet4TR0DXVsnT5UnqnwbPPrqbUnWf6zDwrV9dJTOqpoALomFpSQ2kQlXLfffcxOAC6ELPyuWX0TFMcnivTMw1W3LGcKVNgYGCAajzE7Nk9rH5ugCRJOPV1p3PkYRtxlCnoGfzvt2/gZXMOZmpvmdvvfIjqIDyxeDWrVj1LuVymVhtASbd/qGmFzTKiNbVxDQ0sDR5bsJhcVKZRjckXI75+1ZdIDJSKmseffIKLCmdS6IZZc0N0ocqdd97l7fPYMxTz93jnWRviZIhjjg85/LCj+f19t/B430rCoIRIpZWNztpsPojPyKYihQ5jwpzxixdnKBRyFPJwy6138cD98zEGSoU8jbolDAWXaJwJiJOEYi6Hc5neLhqtAqzRPP7UUoYq/Rx6ZJHFi6occNBUFi9eTGUYZs4VcnnF/ffcT1yF5cu38OSTS9j/4ClEXVsIi1VWrF7GzFmw7Jnl5AuambOm8/T6OsokrQxtYRhibbq1Kd/BdmJvj2J0MLHozL8OOpiceCmLtV3u5DYPkLUfJGuP5KZpysKFCzn22GMpl8skSUIURdRqNer1OgsWLAAgMTY7lQ8OQxgpnNYMbU5Y8OByHrxrNb3TC7z5ohP4wIcu4t/+5Vp0MBUkC1dneqzKH8HCy0c5kiShWIL+dRCFReIalIsBg1tS0kaRgU0NhrdArgziNBI0mDW3iGh47etOQOozIC2xYP7TpPUcztUJI+9IphaMSSiXFSvXWQKdI64aigXN4GaDSTVdUxSVtIZVdV594itIKjMoBDN5duUAlUFDvQqFfA83XnsTfYtW4MxU6hVDqIVZ+06jf90A9SpYm0fEb6VXa4MEYYhNFSoEpby+rVJQMzFOGx8itpp6zVKtpCgCGqbOa151GGefexorlq2jVM4jQUJYgFzJUa0OYZKI0IU0hhJuuWk+XYUp6EJCqRxyxJGHMHPGNL73rYcIdA6ThKimhKwO/Ba/zmGNYJIGor16RbUCA+vhG1/6Nhe85fW87oxTeG7dM/z65ruQdZbNm+t0l7qpVuuEYY5GzVIo5EnS2kiyEJugRDBpBDbgwQfv5xVHH8z6TY9x0CHT+dF3f0lXISKpxwwMDCG6SK2+BW1h3dotvOygHlavrxDmhRNfezyVTV0Uoxn09T2LjfOEgUIkakVvjfFUmija1XdQBx100MHOR4cT3sFkxUuZu7vcyW0qJaxdu7bFx21fQWutSZKERx55hOOPP55yudxKCLBgwYIWfzcMQ4xJvE6q+IjgrNnTefPbzufrV32HQmhZvWaQm351K3////6KOXNnsurpaiuDFthML3UEVmxGh4CeHqhUahQL3axeuZl8LwS6QE/3dHJBfxaF9H3ZsrGKtfCjHz1IbYsXI7CJ9xu7pkGjUSOXy9GsulGzdHVBvR5TKvbw7KphSlM8rcGkDmMcUVjkhhsXMbgeQqAyCKUyhBFUq1WcEgaHQLkhr/WbJTiYNqOXNIWUuhe2cj6tbhwPoqWIdY60bVtdBwqnVKZXK3R3TaOyeQiTxMzZdwaXvuNCPvnZL9AYhKFh+MJX3kNqIG44urp6MNRo2BpahKOPPpJnlj5LsVBmy0CNX9zUx4mvTnjHZW/km1/6DblcmC0nGlgZxuhhL5emIrQSrEpITEIuB7NmakqFAj/44c9QOXjlvG7+/AOX87mP/5AwFIaGKhSLRaq1KoEqkRqNBJ7+kiQJuXyIrRnCME+caPqWLOXUsy5i4+ZVPPnUYqpDKXHDMX1uSLmcJ7EVJIAggpn7TKNeq0IqxA3LNdc/xGA/4POKELk8NpmK2JQwDEjTlFwuxO69yc466KCDDjroYI/HLufkth80M8aMcnCbGcucWBKTsmDho9TjBsZZHnrkYVJrfHIHrXDOjHB7rddZHRjcxIy5OS5+5zEUphmmzYHjXzWXwcEKg8N1rFP+FHzW1WZSBNe2S6WUIgxhYABmzZrF0NAw5XIR5wBxDA9VWxlenRXywTSeWQpbNlZ545kH0T0FeqfDqafNQwmYBAKlaVRriIVAa4IAhoagt7eXwcFhuroKGAO4CJuUebrPUhtSvGreDKZMgWIZXn/msV6x1UGuCJLbxLS5UJyRUpxWg7DOk08/Sa2xnjPOnkt5BhwxL8++B8ykWqmTiyLSOMFZ70xjHYEoxBqsaQB+4VCv1Inr3gnO5RXrN6+m1AUSwiWXvYLEVSnlYPECg0kiTjv7CKbuC0ee2MVl7zuDcrcwMFChq7gfw1vgp9cupad7Fuec9xokN4yKQIIGqriRfC+EvQNEvetx0UYkNCRpDQcEBcNff/hyDj+ySBABqoaolDRNqScpqByFcokpM0DlqjTiClrr1hyLTUwQBFgD4vKsW52wYW2d17z6VFYsf5bBQUO5PIM4TkDHvOrkAylNg8OOhoMOmsLSvvUsesjRqAS85lX7MG06TJ8JJ59yNErT4hQbZxGtaCQxiYl33Y3TQQcddNBBBx2MC7tFJ7c9hW8zzDxCWzDeObHQaDSYP38+MOIQN69tUh5aSg1o6rWEq79zDWecfTx/++G/QGvN8uXL+fZV11Md0OTzPd7BdjlUMg2VDKLMRp/bSwRlc2gzDZWUKahh4kqOUjSd9bXVhAiB66Gc24fG8CpKUwMimYKp9WAbcN3Vd3LBRW/m//71uWBzLPjDExSCJUjikHQKUTAN7DokmU5oZpLX/aS1EuX8DDb1P0cQaSI3lbyeQ1p9lKv/+7e88U2ncdbfHEaj4ljat54/mMfRYYwkZS67+EqSJMGZCEWJZ5dv4lv/fRXX/ugW3nj2aZx0/FQef3wJTyzsx8VTwaaEQUjgDCRlAjcF5YooyaHEIqlGkh5C3Y0SA6QsfXwVy/o28L4/fTfORtx44028+tjTKen9sZWV/O9//4JzLjiJM04/k9WrV/OTH1zPwJYaM2bsg630EqU91DcP8NMf3sF7r7icJx5fxtr1/Yjp4rK3XUH1/CqKLsSV2LhmiK9+7YtMKb0MlfawpX+Aa358E289752UekLW9K/hR9//JUmsCMNuHrjrKa543zt5/58fy5c+9y3yuSJpbAnMTCTZhHa1jJvrs5MJ8MgfFnP+hafzyEMr6Cr24BzEMXR1dZEkCf/n/7yDXOiYf/9jLFmwlmQYfv6Tezn19Sdy+l8fTlITlixawQJZjXXKU24yHWfoHOIYLzrbpR1MJDrzr4MO/vghhxxyyLju8p31kJAs3trMJNaKtjqDUooZM/2Btf51a0a+ow1ONUDGnnLXiCmAC7MiE1A+aYCYcva5AklIGfQyVEqBzaFcCQCDv165UnZ4q4Yoh00ClNYYV8UHEgVQKPEJFZqpfpXYTOoMUhOTywU0GjH5YDpxnKCDZkY3L6flVIOR7FlZ+yHrX/OAUxZ4d4Hvg6QgdayLEUKcEkQZrFEo040QgCSIOJQNcC5LCyypj5QKxDXQEiIajK17nVxlW4uLQEc+JbENfF/F4MQiYrFWfHpgp7yN2cb+vYxkUPO2z9QexCAqBrE4G2QLGJNdj89SZkv+c1Xx9nGhFwS2uSyBxiDOObR0Idan8jUyCKX1nPqGeRy4375c/d1f0BjqJYyE7tmb+MQ//C2f/+f/YsOaCkLok3WY0hh7K3C6ZWtxYWtujupaM8y/g+jkXp9Y7O39Hy8ms5O4J9h/b77/JxoTbb89Yf6NFxPZ/+3m5I53ku+8m6SZLte1v/MpVdvFu9FZqlYQm8PZCFCIyxwjGVOcACYC0zuqXO8wRQRuJs45jKujVOD5rkqBZIkq0pAwDIkTIQh9Cl5SQVNGWu2yPi0syjtEgBNPCVA2RzEIqA5vIV/owSYhATmUc6RJnOn1NjvnD4j5TGOZ85T9vplpzamms6gye5R9ZFY0LnUggnLOp8hVCocGNNa2Lx4UmAiHI1Q+Ym6dwxlF4LoyzqmXcXPa19vKTGcki2gaf6DNmqy8Ylsftg1pLWIyrWQ3QmHZ1kzyn0/Zyi/8uIZBgBKFldTvDOSErqk9nH7Kmfzo6hsR2wWphghwOUgKBHYqJBE4L0PWqjtbXGy9DVtr4Z5y/0zO+icae3v/x4uO/caHibbfRNc/2bG3228i+7/HHDzbXrhmlLLl3CvA82dbMlFZpjPnJIvuiSetMppnCzzv/fPrsYjz0UKlQId5rE0zzq8DCRAlBHlFmqRoVfD+nPjIsqBbXGPfZv//TSfOSka3EEW13qDcVWZoeIBSoUilUqUY5AmCCOOaaWU1OMGpLGorzVSyaszPZsQ08hWLj4o6LIhuZY9zmExXWOFwiHjn2WXtFee8DTKJNS0qo42k5MI8JhYfXQ0EJzY7ZOVt7vN9aXBgm+lyWwZWPjLbZuP29rtmGt2mk96yXbN/I5nxxvK3/fvR16XWkcYNRIRCMcTYlIMOPoDL338h999/P48vXoukJbQEmEYD28iBLYPLoVXix7SDDjrooIMOOvijgxx8yGE7ia7gndLtR/P6sT/bf581UhwzZ84EYN269a06tX7pnCorI06ScopQ53ySCmLvFJrsMJP2Dlx7YDIIglaSCudc20E611JuEJvzTp7ykVxxRYIgoFLbQLGYp16z5PMFkkaMcxatNU6klZyiRb1oo1T4cny7nJjMTnrEoWwtAEa2zzXZgT8ZTQNp9l+RAl4toj11ci6Xwzky+oUjSRut77dz2KRZd6s9Y/WIHVYsaoyTO/oa7+Q+fwy3Ni+2fkaymXVMxJGkNXQOnFRBVz11oV4mDMrUK3VyJYWRQT9vkjxpIzuUN47zl0KHrrCj2BO26/b2/o8XkzmStSfYf2++/ycaE22/PWH+jRcT3f/tqV+OPPbEcc3ylnuQOT3bjeb1Y3+2/77ZSOWYNXMG1lrWrd8w6uDath3rsY6L3ern4mhFhZ0VsApwoBNAIabg6RG6RpIkFKIerHWkNkaUw9ksypx5c01HUDfpDk6wNiWKvIMs4iPAOgwQRxYNViOb3mOc0rHOv4ziLFvPZRaNtd4e0owEm2Y2CjdiX6QVyZaMqysqyrjDDU9DMCFKCXEyjIj4LGIOmtvyzcOCI07u6PZK80ppRrbb7T5i+xYdZWu55LP2OkxrXjSdyVGTWrx8WBiGpGlMoZCnEde8vbQvS6zGpI4oypEkMRI60jQl0lGm0tFs9Y7BjlOgZDJwmnYVJvohv7f3f7yYaPuNFxNt//Hab7Lf/xONibbfRM+/8WKi++/9rBcvI/CpucZTUTvNwB+i2lpjRjByvYge+d7Y70ub8yAOYxUIWAIQcFiUqG3W+XwnV7byuUVCg3F1nDgsDk2EEGAzhVdUFaxPRKGUxuIdXMIEY1NE5YEAh80OnAEiOBdkfbREUQ5jMjm0yIAxOFGkxqIzWkKTXqGyw3J2VPNH+ijZVr/n5gqIV6ZAdNNj91QFJWia2/tN+wqOEXUKq2Oc3ogjwaQaLQESClaBU1W0zuPSAGsCBE+JEPGUDy2ClaYjPTJe4pp82xF5r9EOO6P6S5OP25wjIq32Oqfa5sfIdSPUBU2+mKNarVIslhiuVn0qZ2tJk6aah+foVmsx+XzRjxEGhxCnMWEYMi7IS3dypb3P43lQtBZ6L+2B03q4ODexf+h2sP3jr3bv7v94scfYb7yY7PNvst//E42Jtt/efv9vR//H0hafX/+LVzNuTu7zG9dskB3TuG1sNz+vkc1t9fbys462G0QpnKg2zufoSK1royXASAR0VDskwcowLhhG5ateUbdRQEwXyhSwGCQYRCRAkhloFeFooAt1EjeADkNsrMEq79i1HHWfaMI5h0bTqMcYSQhzKQ1T4R/+4RN873+uYdWKfuwoJ7DZ73ZnMPXRWqdQTuHVB0aIpM5JdrnFkXrdYWcgaGCdPwjnqRBNmBGr6CE++i8Xc821V7Ns8QA4jS7WQRJMPcXZbhwJIl1gAlTmkAsK66UavDPaxr21bUPuxPo2tD5rox00vdwdWMy1z6tKpUI+H1Gt1omiCGcMSoRIe8mv2KTUqjHlcjeDg4N0dXVRrQ5TKpXG7+COacuLYWs37M7C9pS7K+sfL3ZHu/b2/o8Xe7L9xotdfV/uaidmW+2fjE7URGCi7TcZ7quJ+Pu1M+obt7oCrQDc8xszWk90W576CxY7ghaVwSKi/CrAjZSdHb3CO3EK3OgTRW5r/6dq9ExLeMM5p3Lgy/bDOWHlslX89lf3MLRJEGX5m4++h5tv/hV9Dw0hdBOGKTPmlLniz9/D5z73edIk9HxcHQMW63TmUAc4HCkpkrOEyuAkQVSFT33242jXBUow0k5FaMpVBeA0TgxO1xBnEacwaHCZGoPEOHFNEgHiApyk6LDBIYfvT6AsfUuehqQbIcJJDJJNUqPA5XCqSqrXYXJraEiNj3zkE3T1CGkak8awbs0wd9z2IKuXbQG68Jxh308vl6ZGtvzbZM5GFC5Ui1vcVHVoKVI0h8Ft+wGytc/HfpbP5zHGp4I2xhCobBsj4xqjFFqHpGmK1rqVcc9a2/qs2e5tc4FfgCP8IvfP2IdkK6FJtgremQ/P7Smr/UG1s+sfD3ZXO/b2/o8Xe6r9xouJiOTuTPvtSCTyj2n8xouJtt9kGYddef9vb1mjd0Jf/PrgxTzlra1kWoePRGiG8EYiyCO0gJFkDi9U/ki57VFAGXWNjK4z23QXAeUcDosWhRLrHZ1AWvWnaYoTabVLpM25UFXOv/Q41m98mq9+5de4JOAN5x7H2991Dv/19V+Qmjqp2oQyFkmKAAAgAElEQVRRm3G6jihF6iyiQ6p2HapYQWp5jKmBDBDmPd8zlC6SahmHQecHUUFCo+GTM2gNccOiVUTqqriwSr4k2YG2AvUBoZibTq1qyRU1Rm8mtVXv46d5sFOI8jnqyVqiks34qhHJcISolLBrgIOPmUuUC3hy1TpkOI9JLSlr0XmL2Ii0HqClF5fxZeO0TlSG2A7y4/+9k8WLniIKAl57yom89ZJT+eZVV5MMaJAQp9ZjqZEmFiFPFE7DOUe13k+pVCBuQBQWqNXr5KIyNin5w3jOc53bFxt+XEfPh5fi8AKZ0+pVJby0WfNzA9onhWg6tz41tCGXK9A89Pd89YqX8tNm6h7bhtvKXTiyNIEXvDl44ftvW9duL7bn+he7/2U8z7hsJ2B727Kz8UfR/xeZfy8Er/6yw1+fePvBuNoPtOy3I8XsDPuNe/64HWi/2znPn50xfhOK3WC/F8UEzr/xYrz3/46U97zrt8MxftFI7ov9fpt8iW28f973s59Wtj7Q3kl2maKBl+9qSncpB694xZF0d5cBnyUtjALiOCbQYcv5Ga5WWPDIQpwakSIDSG2Dufv1cu8fbqFWaeBMnjvvvJML3vwWCsUcGzZuADWICzZhgxppnBAFilQlpDKMVRVSscycM5ez3/xWZszsplYf4o7b72XZ4wPkciEf/uj7uP2O3/Ca48/mJz++gbXrV/Kxj3+Ua35wM7l8yAUXn4VhCIlqpIlQ31jgS/96FT1TeykUA950/tnMmttLdbjCffc+TN+ja9CFmI994gp+fvN1nH7q2eRz3Tz2aB+33nYz577ldA4/6kDAst/sd/L1z91ET/cM3nHFlaAqFEsR113zK9YtT6maBsYkiPLKwypIQFuUtsSmymNLHuKMc45HckMk2lEudnPRxRcyc58uBoe2cPdd83l8YT9HvPwwzrvoT/j6N76I5AJOfPUxHP2K1/DNq36QjWIbRWEnPxVffPW3Lc6sjPnZ9Dhe6s+XoijyfLxY68d7f75o/bu4/PHWv6sx6fs/3vEfX+1/BPab0K+P48hrVv8uHv+Jvj93NXa1/XZ1ARM9OuO9/8d9eG07rgnEbcsJ2J4KpBWJdbtoSeElokYcieZ2cxNxrY7qLiMiBGFAEicUc3kajQYSeGekXq9nq06FUw5rM91XFfHgvX288fXnkA7fxfo1Q9Qqiqu/cxM5NYMw1MRuE6owALmUKAdBlKLyCUrHGGcoThvm/Etey5qV67nmmh+z7wFTuPTSi/ned6+jWtuAy2+g2CN842vfpVGH0vQAqyqEkWLxY0/z5OOrSPQm9tk/5s/+7Ap+c8/d9M6YQkw/l//5++lb9CQ3/PRaDjp0X84//3y2DNxApboJl+9n7oE9/O93rqOrq4d3X3k2z23s5brrbuPC+A1oLfzy57eRL07nPVdcyoN/+D3zF9zBwS/v5bJ3v52vfPp6AmXIFzRhCEqBJSHXVaM4rYFycPTxB/HIo3+gUq8RlBu8670X88zTz3H9DT9m9txuLnrrJQxv+SVPLPsDRz5X4LQ3v5J77n6IM86Zx39+5RowUUv6zE8YN8bR3bY02A7MlG18vq06dnW924fx+Pwy7j+RjMtJ2hn1T3gkaJL3f2s7BS+h9vHbf8LtN5ETaE+IZI7TSZjo58+EY+LsN37sAfNvgu//7Qky7ZRkEN4b37EG2xf5WtOpNSZL7ztjRsvJVQ6efHopUS6gu7sbcGitqdf9IaQ4NQwODvL4448zc8YsnBPWbViHUgpjEnCa++5+jE2bNnD6aWfRU+7l0QVLuPf3j+EaCmMNUaQ54YRX8cqD9yWuhoS5BoUuwaUGpWGfOXl6ZwZc/Z3bSeqwauVzPLTgIU459Vh+ccvPEV3nkUcfwaRzsKnnu+rAYmyWwKBQIAq6OPfc17J40VM8tvBxkiThgMOK6Fydu353L5Hq4vG+p3jlK5dy9LyDuff+Z4jNII8ufIRN/SXiGqzdsIzSVEcUgbMRJnU4q0jcMF/82j8zZUo3hoTN1XXEbObAg2az5InFVKoDNBoQxz7qPm/ePA499FBIQ2bO3oenlj2GcXDwIUVyxQZ3330v1QHDaruWpUufZN5xL2f1r57gN7ffwjsvP5/pswrcec+v2LRpCybuRY9VH9jtd+XYg25u6+876KCDDjrooIM/KuwEdQVhvJsu7UHgsT5Hy6GVAGczlVfnt4kdkBrHY32Pc/SRR1Aul7GpIQgCGo2YWqPBkr6nWtnJfFmKNE0JQnA6ojogLHpoLQ/f81um9uY5881H8a4rz+Q73/g1WivqNeGBu/tY/GAfBb0PyBCz9ity6bvPwVgoljUDg5sQlyeNPY+2NpQydaogGmoNg1Z54oZDqRCUptaoEwQBTqoMJpt47YnH0lWayfe/czNRMAfcILP3m0riGjRqikbNUJray3PPbuSAA2ZgDOSiMtgCxVIvjUbDS5QBSQIuNUSRl9JyUuXMs1/Ly496BQOVNbhgPSjLUHWQMNKUy92EIeRyYBPFQ/c9zaKFT0NaInFbuPyDr+Osc+bQ37+BodomJI2wicI2hFUr13L44UeQOktlABY9+gQnnTqPG35yDWmyH0pygBqloNFSzRBglDrGjmKMEz2WEjF2ck0kiamDDjrooIMOOtht2Fl7tjuMps/RflKv/eR587P+/n42bNjA+vUb2bBhA/39/axfvx60Ik0sjy3uo1qv40RIU0NqLYuW9JFYg0EIgqBVto/kGqZP7+Vd776Mam0QpeC5/lXceufNzNm/m1lzp5EYQyHXjTN5JC0zvEUwjTxpPcBaQQnUKpbp02fSSLagcw2SdJhSdxGTatIGhEGR1CocChFFHMd0d5ep1gZwusJ+h4Wced4x/OS6HyGiqdUqKC30r9vks6HpmPJUzXBtEzP3mUZlsIZWAbVqinMR1ZpB6xCDI4oiQkWmm5tglGXO/lM56bTjufan3+O6G37Bz37+ALm8JpfXWJtSrdUwXroXFMSmTprGWJsSBIpnVixl5szppA3LlCm91M0QNhgiccPsf8BsBgcHKeQjlIJjjz2e1avWccKrj0MHBqeSLLMaSLYY8g7v+His2z2pOuiggw466KCDvRYT7uT6bF9q1HsRjZMxDrDSGASnHAaDBNpL+otgBYyFRUv6aCQJibMsXPIEcWp9AgbxPNzmITaLQ9AMDm1m6j5w7tuOIZqylp6ZhqPmHcBwLWZwSwNnQ+r12GvuOk2p2IMQEgSRz8CVwqqnamx8bpizzjuO0sxh9n95yDHHH8z8+x5F0Y2zIVGYwxgHosnnIyrVQUrdESqfcMElx3Lr3d9msL4FJxWKXTGOOmtXDFAZiDnznFdiC/0c+apu5h7YTd/iZ8B0EwYllFKEYUgYhjjnSJIEl4JJUvLdKVNnQpQ3WRa0mFweXvOa6YhYwNJo1MgXIlQIOgSna6jiRqKpDVTXBrqm1zns8MPZuC7lycdS4opw0usPo3t2hQOOiDjo8GkseqyPesXy1re9iUVLHuNn1/2OV807iTn7lQnzg7TSFI8Zcy+LthOc3eZEyV6tvGrtE6j92g466KCDDjroYK/ATuHk7mo0KQtN+bAmmkoLTSevHqcsXLQY4xxpakFpmnq5zQjuSJmaei3hmp/cxMmnHsUHP/BBlFKsenYFP/zur6gO58gF08jpOQR2Jkpi4tj4ukwRZacSMoVGDX5+/T284U0n8lcffDXrN/Zz+60P8czSLUyZsg+hnYWpl9CSR7kIUy/TXdiXRkUz76h5dBfmcvrJF3L6q+ZQVLOoD2m+8uWvkcYFbvjx7zjnvJP50F/Oo9qo8vvbH2b50s10lXsJ7CwknYpp+MxjOTuHggzgGlUWPPQMlxx1Fu96+5Vc9bVv0ffoGt73zg+T0uA3t16Pa8ygEEynuzCXpDIFatNJKxuQuIe3XXgF9oIUlwrVaszjjy/h/t+tJB4qcOO193DCyUfw4Q+dwtrnVnLbb+azatkWXn3MWcyZfhS/uvkuKpsCHr53Keef+yd879vX06i1pyFu52CrUWPZQQcddNBBBx10sDMhRx578g57GuPTtvRRvO0Jrm1Lj++liAfPnN4LwLr1G0dkxCTBqma0sT1DmkZc2ZcvtezjLsRqEOMTMagEsDijfKRZUq9ZKyAEOOd5wFo7IABbRDmNpUIzY5loi9NVDI7AFcGNqBGICNYlOJcgyuLEpwC2aej5xYEBF6BM0esFhxUsBmdDEIUjbmkCi1NZBjgL0kBEI6YMKIwbxJgYh0ZEEwQBSdJAaYeIRkmOZoJg5xzWpiht8Uk3NM7kve2k4RNCOK9N6zOtRWib99c56x3cNs7sTpk/e3F0dmdoy45HwmUyZOl5MUz2/k90+ydz/ePFZB//8WJP6P94MZkl0vYE+0/0/b/b1BUmLVyIpL2jjD1K6BpwrpT9vi1tr4sgbertKqyzrQRrWmt8ZjFDalOwiiCIsDbT+jUBSvuMW1oEZ7wDL5I5t862nEAFOOvbFAReJ1icQwMuVSgEJRpxDlsreBqG8hQN5SKstSjV5MQ2U9imiAKcT5ChXNGnDcYnVbA1TaQgbgyRK+Rxac7bRRkEh7IBOhWvWawhbXbclbM2Z2mDM1UF20yzjIwEbseR0reDDjrooIMOOuhge7D7ObkvMfImbverPI1eYVi2tVpwTrDGoVVAFAQESnBYz/9NhUjnCUNNmsZZYgqNKHDOoFXgD4hhUeI/82W2KQA48dFUpUitwQkoCVESIlZwFoxNvRJsGBGGWYph67Cpa+MGjG6/d5wz1QqlCIKgRf0oFAoYY8jni9jUobQG0b6sLMpsxTvlzrbxXrOBsqJaDm6zP37h0GLLtjWk4+V20EEHHXTQQQe7BnvAwbOJR7uqw0v5HCxBEIxyikX85n4rFbGhFQkWbTNucOBTEeMjwc3vbd2Ztt65Vd5JbDqMTY5xs544rhPHcYtyEOUCwki3os0iLnt5R1VhEfFpiNM0xThLmIuI4zrlchGAYrGIEocSl6lT2Bav2TnTyjzXbCfY5x342tr5rw466KCDDjrooINdjd1PV5g04vvNg1EvzPnwvFkhEI2SkDRtIMrTFqwFZwOUcjjdIDWGXNCFMQ7rGj7NmNO+LvH1eK5wW2Yw5XxWERd604nBuqQVeQ2U4LRkuruKNE5w1mKp4ZzLkjEITmXlZ+a3eLZAFEVerUICn3BDa2pxDRFLtTqMVp5zm5pGpnqRZRALsnaNMU87sxkAZ5HOWqqDDjrooIMOOtjN2Ls5ueOGxUmCUymxMyjR3rlTCkEwSoAmF9ahlOBIsS5GdAoiYHMjXNX2BYCMiSKL8ZxcMYiAsxpRDhd4ia7URmBDVCAZ/9dzhl26lbKzCp1KMUGdOK6TyxVwxhBj0BqcpEggOBuDCb3znYVkHQac8xSLsRnNGJ39rqWI4baSXnfSLHg66KCDDjrooIPJhgkMsfntd4W84Gt3QZxBtU7sNyO4divb7WrkJQYVVZDcelTPGlTPs+jCegg348IhCAYw4QYkGkasRmyIkSEkGsTpQdBVUA0Qg2AQ51UUnNhW/eKyIZIGEtZwqoZTDdApTtf4u79/H/sdUsRJFUeKI0UHYIwhaaQtrqxzpvUCi3Li6y6s4xOfv5wDDisSlDbjCquxpWdw5ZXY0ipMtAYXbQblM8Z5VWPnbaIESLOXhxWLzdQjno+2sG/Hwe2ggw466KCDDnYh9p5IrhuhBGz1101ZsUxloAmFV0LwDt3YIuuUptQ5882ncMBBL0M5xbKnVnLbr+9iaEuVt11yKVY1uO7amyDxEl0qHOC1J83j+ONP5GtfuQqlnHc28QoEYqOs7BTPgQ2wJkFUitU1Dj1yLlqH9D36LCKOz3zhY4goRM/K6AQJiUtRQQBBANZmKXQTnKQ4MYjVWJvHqQouGsDIJlDDGDbztx+7gnxXREiOynDMxv4t3HbLfTz31DAgSJDgnI9GA75upzLHHMRlmeWa722Y2T4YfUitRZjoUBk66KCDDjrooIOdj2AitdZ8xHRb9dsx1z3fGRJRzzsUtvV6MocLz38VGTnoFYjCuhSlM3/fGALdTD6hSNMU0UKzGieZlJh1iK5x4WUn0L95Ff/+1d+SNhTnnH8K73jvhXzrGz/kkUfv4ZJ3nUvxN3UabtA7e7mNHH3CgTyy4H4MNXTkqCdVogKYVKNMLyZ2hIUGldomSsU8Jk4IJU/CBg45fgZh6Oh7YhViukhtjSgsYqmjQkctXYuKfDIHbcto1UsSp+hijJEhlE4IgjzpUIEwcDhlMcb4w2emQSPZyC+uvZW+hzcTBBGnnXUUF112Gt/8wk00Kgm4FKdjyNVxqSOy07x8mq7RqCd0FWaRpikEg6SJRUsv4oqIdSCS+bkuS/M7fshLjgirtgXN5EazHxPVn63XO3YhuecuYtoPlr4U++0su++Z47f76t0Z9msv76XWD3uG1uiOYrL3f0+Y/+3teCnf2xn229H6t9aOEeze5+9keP5NqJMLLyQmPPbz8YgO6xG1g1F1Oo56xSvo7iljrcXalDAMieOYMGxyaRWVSoWHFyxEKYVpS0VrXMq+L9uHex76JZVKDeWK3HHH7zj/vAspFXtY1LeEcxsncOhRs3ns3g2gNdP3CZg2O8eiHywkJSFfbHDxhW/kkEMOZvOmKjf/9PesXr0al4v59D9/hNt/ezsnvvpkvv/tn3DqG0/mkGO8GsL//ciH+NdPf4N//MxH+M7/fJdnn9lEqTyVyy6+lBmzetm8cT2/ueUeVjxeoXtqD7EM8edX/im5vCIXFbjxhl/T98QitGuQmhilQZRFwhoqqKG0w6Z1Hnnsfk5+3XHoXEpRhUgu5oK3nUNv71SSJOXu2+9jyZLHOfzlB/Mnb7uEL3zuK+ii8JrXzeOow+fxX/92I6TKn7FryaNliSnaxmJr87B9zHYVJnr+jxfjtc/u7n97e0Vkj7H/S23HznISJtv47az6d7aTNVHjt6dgsvb/pc7/XfX8mGj77a5x2NOev7sjGYeeOWe/T3oHcne/Xsy4Yzu/dSdoeyAilItFlFIMDVdan4lAT3c3xVIBLRAEijRJyOdzJElMoDUOx8DAFtZv2OC35jNVAyUap2vkumJec9JxbNqyDmMSakOKh+97ChuXkADK0xocethBPHL/0wiWE05/GUla4+F7luOs4b1/9UY2DCzl6u/cgE1j3vzW03jg0TvpmSYcffRRbF5X5cffv4mkHrJoySLKvYbasOX7V90GNuKEM17Gk6vms3loiCuufDsrl6/mumuvo55WuPD8C1iycBkbN/Xzob+9gocfeYCfXvMzNm7q522XncXipQ8iynDySafQt3ApmwfWcdzJ+/PsuuVs3lAnKlhed/oRrF+/kb4Fa4jTBu/94Hk8u3YZP7/uDtY+t563vfMUlq95hJXPrGafWVM46JhuVm18jLe89Rx++IPrqW6OkLSIE4fQzKKms6huW4II7PPmiI/Ab2v+vLQ5MHYejTykJmLu7zkvySLrO/p6/hiNxbbve38PTrwNdsQOzevHa789b/x2T/0iTenEvXv8Jmoe7Dn931okcvuu35nPj4m2346W88fy/N1xu7343/8J5+RuO1y97fcvJbw9Nno7Y8aMUd99YulThJGmp6uMOC/9Va/XiaKIJE0ZHq7wxNKnmDVrFtbCuvX9PqKbJIjW3Pu7BWzcNIvXnXImvd37sOAPT3D/7x/D1EOMCVm44ClOPOG19EwPqFSHOeKIQ/n9XffjnHDgy/ald2bEzbc+yj77dLFu7RqcanDQIdN5bs0GglB4+KGFmDigETuCch6xOeK6JRd0kcQVVBhTN8McdGSOsNjgrrvuoTpkWbJwKcVwPvV6lSlTC3zhK/9Cz7SQfCFkw8Y1pHqAwhRL/zMwPDyMMV6lIYgijjvuOI7YbyqkmvKMmBXPrCZxAxw972iiouGhh+dTGyqzfHAFi564j6Pm7cfyviXc8ttf857/7zTeMutkHnz4PjZtHAC6vNwZZvSYjBm+iV5RTlZM5HZfs/6X+I1JnUpzZ2PyjV8HHew8PH/+v9h87Dw/2jHZn7+7ha6wy0rebjRXIi/WyXauSfv14+OcWGtZ3NfH0a84knKxBM4QBAGNekwjiVnc9wSCxhjvpIkIxiSEkcLpkOqgYtH8tTxyzwZ6p5U4/dxX8s73v4H//srNBKrIhucGWbVyAy8/djqbBsA6zRN9z+FcN1Omd1GPa5z2+hNIBmYQ0MOKJ9ey4bmq39A34JwCNEGQx9oKJnV0deXZPLCFqBCBtqgQdGAYHhxETIkgiVAKfnfrQroLZQar/ZzypmM44pUHEg8KuWKAoUIQWopF6O7uRimf1MI0FPfd3ccTD8RgInRpM++64q2cdV5Af/9aavUKmzfWqQ6XKHXl2bJlE3P334d8rkRtOGbJkw9z3PGv5Effuof6UC85lzm4VnAt7WGH188F18ntu1ei41ztrWg+AzrooB0vrEc/+rqRpEYd7Bj2pufvnnsqZCehyTtpvtavX09/fz//P3vvHW9JVeZ7f5+1VtUOJ/TpHBBGkpIFIyKISINAq6BgRJ0ZdZzgODo6d0avztz5vL6+914nGGYGE0YMIKCIIGAgiRgHoaG7QWLnfPJOVbXWev9YtffZ59D5NOw+9P6dz/7ss/euqhVqVdVvPet5fs/WrVvZtm0bohVZ5lixYhWNRgMvCps5HJ77V6witRmZ822ZvsL/WZYxb94c3v6Ot1Cpj6IUrN3wOLfcej2LDutn8ZJFZKmg0j6W37OCU158BEcdO5dH/7CWxlgEtkhlpEax0M+3vvkbrr3uRq666ttcffUPSKo2fw4IyikiUyBNHD4V4mKJ4ZERembFWF/NM4+Bd5qBgdk4KlgZoZoMc+xxR2J9ylFHH87ZrzqdG2/5Ad+59jq+9JVriEoKiyVJoFartdLvKg1IhhOHBxqp49FHH2XRokXUajX6+vrQxtE725P6UebMmcfw0BiZrSHGc/KJL2Zw6zinn34qcSEci2YCCS/dDGhddNFFF1100cXTggOA5DZ1Z5/6/Zxzk2Ywreg+gdR6HlgZSK31juUPrCS1Qf+1GcEvIiil8F4QNMNj2xhYLJx/ySmYgS3MWgQnnHwYlUqd8VELWQ/K9fLQqkeYNTfmmGMPZ8W9j2LH+lB2NhvWjDG8rcGZZz4bE0H/gOblZ76EkfEG2gjWWoyJqVbrlApllDKMDFc59NBDyRgBM4YnJdbw4P0N0rrjJWcdRnnJIMe/pMCFb3kxhZLD+QSbjZOmUCjCslefSJpVMSZ8LpVKKBWCwzIZxpRHkGIFyts59CjhqOc+i60bHX+4f4hKZYyXnXUM0cA2jjyxh+c89wRWrXwCKTpe/8bzeeje7Vz7zbt4/kuOZsmRUdDv9S5kbtOTnd0PpGWTLvY3mlrPe/p9p/D03X+6eCpwsJ+/md7+fb0f7K/7yEzvv51hptx/n3roBUsO++fOFD2VbO7l3k/KtLVr9JRLiAjj1eoky67zFq01AiRpxvbBQdZv2EiSWZTSeO9QSlEulcP+lWpee0/mqzyxYSXPee6RnLP0PE59yamILfDDa+9idEuBSM3CA2k6zpJDZ9OoaH7/8800xnoo6llY73h0zUOcfNLzOe/sC3jxKS9ndChj9ePriaMeznzp+fzq5yvJkphGzYI4nK9zzDEn8fJTz+cXP/81Z5+zlAfvX8PW1WNsWDvIC55/Muee90pm9c/hpzffxeZ1FcZH6sye28dZZ57BqS84jd//dhUnHPsCHnloA1vXjfGiU17JH+5fy9DwCKed/kJOOemFvOK0cznjZWdwwgnHs3L5Gn53xxoqozA8vI2jjjiaZee/hkULDuMXt9/PqgfWcvKJJ3HK807l2m//jOqIJ4oiXvbSs7n/t2txaQF8SC/cIrm+OeFoBoDt3fnfd0wNPHu6yn1qceAtPzUnMDuu10Tg0dNUnZ1i38bB/q7/gXf+nirs7+vvwDh/ncMzo/2dUzc4MPpv/1//M+X+G/BU3v/kxBee/rSb05rOxs5NpHqdaOTuZhmq5TKwp5ZAEWHu3Lktd4V2R2e/iwQRu9pfIXiVghmHSRm+HPgIsX2Ii/CkeFUDk6s62F7ElfBOg6Q0/CCeJKgOoMAH39jMpeCEyPTiM0UclaglYygT3AKUL2JtioqyQBxdkDzzJIgG50Bh8LZIliV4XUdUilYF6vUqUawRNCIR+AhsyODm1FiwXPsCWkeEbGYGscVwrlQN32pvyEtn8ajWqTCIeDwJeA22jPgi46MVZs+eTaVSob+/n5GREQqFwqQ+frrQLls2E8nF5Otn4ruZgk73//64/zT32Xud5pl//qaL6Z7/Tp+/TmOmt7/T9T+wyp/47unCgXX/nfjuqUJHAs/2xzL13h5jup24Qx1XF0Eyd6f7hBrGiI3BzpryPeALGDsPESFNU5QxLQJfVMFnNqtn9Pb2Uq/XiVQP3pZxqUNFEZHWuGxCb9a5YHX2qSfSIVhOiSA2pWjmkTQSTKQp+BQaTLhe5G3TWpMlA2itQ/9mO2i37Zk0N/QCOwoBaG4TXC50yyUiiiIqlQqlUglr7UH1cN9f6Lp5TA+d7r9Olz/TcbD330xvf6frf7CX32k83e3vqLpCYPRNNr8jvbx2qLbv91xdYVfyFCKy2zjf3e4/zfPVJLWlUqkV/NV8aa3RWhgbG6FYLOOco1AotOrUaDRQKpBVEYXWukV0syzL6+0oFCKcc0RRhLUpxpi25R7dKs85h9a61bbmjGs6KMaF1ozNe0+tVmPBggVs376dUqk0aTbXxd5hf5yfgxm7vv/sDM37T3OffZ+kdc/f9NDp89dpzPT2d7r+B0b5B+/1/3S134i3u9/qqYJvE5B6Ulunkp+2DbxHJmyF+XcqRPFPeRevEG8RF3xaxVnAIl4jyrM7lioAzgc9L2jqemlZxAIAACAASURBVAUSiEzsv5Pyd/feUwqkNcsyvHOTM5IoRRRpSrP6sNajlGF0dDT8lpNQpTTeWprLKMaYkLlNh8+NRg0RoVAoYW1CMY6BYLVtWlJFQoIL7z3WWpxzpGnQzY3z7XeG3Y3RJA3Z43pKBRqNGgP9vWzbsolZs2aRZRmqeV6fzmu9uVyT/81Y7PL6OYBxoPT/vvbf/qr/TD1/00Wn++9AGX/TxUxvf6frP1PLny5m+vnfS5itG9c+dUffDfavCHAzVeyT30U8Jo8q3LZ5M85lKGVoJ9JuJ9VQPhBKI0FpYXDTxpa1dE/L39V70N21RFGUpxZ2kwLjgrV2oqxyuYz3niRJWn7JzX5sHgsmz5KiKGIo2YwxhizLMNHEfiEgjNY+ItJq355YWXfoxtFWdtO6DLTq5pyjPj7cdVeYJjqZROCZgE73X6fLn+k42Ptvpre/0/U/2MvvNJ6u9hs6aMkV2I8M3u7iXRCyQLZ8iuDxLpnUwTvt6qZeLS7f3+b7uyknaFfl7/w9JP/y2CwJPrRKYW1wG3DeU4hNiwwaY0gaNbIsI47jVpYyAOfCgFFNgpknFXPOkSYWZy1oAZ/irW6VBRMkuVWutXgnLVeKXWNCDmxCGozWd420QbFYJMsynM0ol8uMjY1RKsY46w4uC9Z+xv69fg4+dLr/Ol3+TMfB3n8zvf2drv/BXn6n8XS1/0AWettvaI8m3Flkofjw2tn+4oOWwP6OTAz6tMGqG0UapRRxHLeOX6+HhA9NX9ksy1BKkaYpa9as4fTTT8N7GxQNvG39Dw7nMowJLg9RpFvHUUpRKBRo6v4G31/dKmPq5z3Bziy6WmvSNGX9+vWcccYZNBoNgCdZqLvooosuuuiiiy72Jw4KljGJzO6jZM2+7r8rx2rvPQsWLOCLX/wiK1eu5IEHHuDzn/88CxYsaFlRH3vsMV7zmteQpinW2hYBBjjkkEO46667WmQxBKBJyxVBKUWSJLziFa9g2bJlLWvrypUrWb16NevXr2fNmjX8+te/5n3ve1+L1DZ9hJt+udNFFAV5sziOW8FzcHDJJnXRRRdddNFFF08vzMFANKYKR7dbYZ/U/vxjy6qbf273e21aQPfEp6SdcLYT3ub3X/jCF3jkkUc49dTTqNfrfOITn+Cqq67ila98JfV6nfHxKtb6llqCMYZKpYIxhvHxcWbN6mtZdpsBZpVKhUIhaqkonH/++ZTLZW644QYKhQJpmvL+97+f7373u3gvnHzyyVx99dVs376dK6+8klqtRhRFLfUDay3ee4rFIoODgwwMDLB9+3b6+/up1YI7gnMZhUKB0dHx3Eoc1CGarhVZlrWkyRqNRssHeTrjb6ZHp3a6/p0uf7qY6fWfLg729ncaM73/Z3r9O41O91+ny+809rT907bkTpW9OtBeU+u4L3VvbttUIGgnfnuyL9AKvmonylprXvjCF3LjjTeyfft2xsfH+fjHP84TTzzBwMAA4+PjLRWEYrEITLgrKKXYunUrZ555JsYYTj/9dO666y7uu+8+7rjjDp73vOcxPj7OF7/4Rd7ylrdw4YUXsmLFCmq1Gmma0mg0WiRz7dq1XH/99bzkJS9BRDjiiCP47ne/y8qVK7n77rs599xzW+4FQ0NDvOpVr+Lhhx/m97//PV/4wheo1WrEcUyhUOC2225j1apV3HjjjRx//PGTBuLUPmm3Ok/n/HYSna7/TC+/0/Xvtr+z6HT/zfT+73T9O93/nX51uv9mOp6O9j/j3RV21BH7Ojimzhz21ArZrjnbJMjNz1/5ylf45Cc/yVlnncWiRYuo1Wq89rWvZdu2bfT09ABQKBTQWhPHMcVisWWhDckVCihluOKKb3H55V/huOOO48477+Tzn/8iCxcu5r3vfR9XX30tP/jBD3n+819IsVimUCi1/HLr9TobN25kwYIFDA0NobXmq1/9Kg8//DAvetGL+Ld/+ze+/OUvc+ihh7Jw4UKyLOOMM87glFNO4dJLL2Xp0qVcdNFF1OsJN9/8Y+6++25OPfVUrr32+1x99bWUy72I6NZr4hzIpM9ddNFFF1100UUX+xMdTQaxPzBdH9vdwXvfIqQiwuLFi1vH2BOZreY2mzdvbh2jfb9PfepT/OEPf+AjH/kIhxxyCN/+9rf5r//6r5ZPbDuprdVqlMvlFmluSoIVi0W01syaNYt58+bxyU9+kq9//estt4BGo0GpVKLRaGBM0NpdtmwZ/f399PT0cdJJJ3H00Ufz0Y9+lNHRUS666CLGxsYYGBjgjjvuQETo7e0lSRKcc3zjG9+gXC6zcuVK1qxZw9y5c3nta1/LnDlz+NWvfsWSJUu47777KJVKHH/88axcubJlBW/23cG+1NJFF1100UUXXTy1eMZbcvcWu1JZ2Odj5oSu6ZM6kYRBGBwc5Oqrr+aCCy7gwgsv5Nhjj+WGG24gSZI8sUOweqZpSl9fH9VqFWuDSkKj0UBEGBsb44wzzuDEE0/kpptu4qqrruLQQw+lVquxZcsW+vr62LZtG+VymWq1yoIFC9i8eSulUg9r167liiuuYOnSpTz++OP09fVxySWXcN999/Gd73yHb3zjG1QqFY477jgGBweJoojt27czPDzM0NAQlUqFefPm4X3wG37Pe97DRz7yEf7+7/+OW265CecyguKDTHFdsOw+T3gXXXTRRRdddNHFvmHGW3KfajStvk0Fg40bN7a+nxpMtiM0LbbtKXeb+xxzzDF8/OMf54ILLqC/v5/ly5fzoQ99iPvvv58TTjiB3/72t1hrW/6zzaQR1tpWYgWlFHPmzKGvr493v/vd9PX18da3vpUrr7yS4447jmKxSJIkzJkzh61bt7Jo0SK2b9/OPffcw5VXXklvby9aa9atW8eiRYs47rjj+MQnPsFpp53Ggw8+SF9fH6tXr+bBBx/k0EMPZWRkhMWLF7N+/XqKxWIrc1kURcRxzNvf/nbGxsYA1/Id7u3tndSfO7Jod9FFF1100UUXXexPdC25e4EmOYPc2uv2ILIvJ3rNIK8mqfPes2HDBo4++mg++9nPUiyWWbRoCe9617sYHR1l06ZNrSX+UqlEFEWtl4i01A9GRkZYsGABt956K2eeeWbIbjY01LL8pmnK0NAQCxcu5PDDD2dkZIRCodCSI6tUKqxbt445c+YwOjpKoVDAOcfcuXM5/PDD+dd//VdGR0d5znOew4YNG1pW4WKxSKVSYXh4mP7+fq677nvU61U+8IEPsHDhQg477DD+6q/+qi1BxGRlCaBLcLvooosuuuiii6cMXZK7B2j3JW2+T/1/T15TjzEyMsKb3/xmFi9ezG9/+2vuvfdeTjrpZF73uovZvn07fX19GB3z2c/8B6tXr+ahhx7iscce59ZbbyfLQprhRYsW8dBDD/HBD36QT3ziE9x333184AMf4IMf/Ds2b95MmlquvPJKnv3sZ/Od73yHgYEBkiQhioLEmDGGJUuW0Gg0mD9/Pnff/SuuueYavvWtb3HdddexfPlyyuUy1lr6+vrwXujrm0W9XieKIvr7+0M2MwfvfOe7ecELXsADDyznpptu4aijjiKO40ntbv4foiOf+fJ1XXTRRRdddNFFZyCLFy+elgdqp4OH9jSIbMnihTjn2LhpS2u/SUoJzVS0TzpcsMAuWfKssP/G9ZOW2/ecqDXnE5Otl9b64J+qBPEKwaAQHLXgxyu9OOfQsSW1CcoXQ5slZDfTOppS3bwhokEc3gnOZ4h3OdkO2rXKNOvddJ9wQe3ACSIeRxqSS3iT90uW91Oc75dNapdvtk9yqTQfsriF/RSNuqVcLtNIKhSLMUk91N2x7765B4LG83TG//6o/0wuf7qY6ed/umhfJTkQ+mJf0Onnx3RwIPT5wXz9dxqd7r8DYfxNF9Np/564i8JBYsmdaoltYk8Hyc402fZLWl8xLaIaMpZpUNJKq9t0K7DW5zJcgnOAVxgTt+rmLHgneC8t4u2dBKLrPUqZ1veB4Aug8K5pZQ7Z0gTVKievIZOGiZd8JjB16Ezpi3yb4JLgMCYCQruSJEPr6KC+QXbRRRdddNFFF/uGrk5uG57sF6omBIWFSa8nY4J4OjxN0ud9TjZ3i3x7cXiZuoPCexAMkTYoBUqBw+O8BtHo2FNrVFASgTVorYgihVEGm/hAZL1CJLxQHpTH2yYxz9AROK8QFeHFoYygxKAkQmu9wwxuolywynodXq12KDwm/860+m1CkcJNtNsHmbMWnJCmNmRdyzJEHRTDr4sunlI8Eyw6XXTRRRdPBQzTFuTvrDVuovSwPD71XUQHdwCJEOUDQYM8EYFrEdudPSYCUQxEUomEZXnJHyx79HDJl/Ob5HHKb3GhEMg25IFmgs9JNeLRaMq9Jay1mDho3nrvQ320tFQfvNN471CB0SJG8AJZZhEvKBXarY3O29809XuUivKywVsAh3VBDSLSOhDY1jhptjv0H5ITVaVyV4XcfUI0iJDZDK1j4kIBm2WUyn2MVyqUyz3Byuv0Lnp/NzggHu7TGP/7pf4zuPzpYqaf/+nigGj/dDGDV3MOiP4/iK//TqPT/XdAjL/p4qlvv5m/8Fn7cOwJy6g7UAa5z0nWlHch+KYOzJ0LQOJ1a4le1O5TwzV9d2fl+6d+QgpsT31CAtosnO3Vbu6vQZzgnUEERCWAkDVMkB+TCogj0v2A4FwKkgXrq1f43OLsModSgicFJSgfIyJYGigFPguJJZw0mBhgEnxvvZo4t9Ju+XaQ++Tid6Y6N+FzLK1JRu43k7tMNOs64BxaRTif7cC6vWcQf2BYsKYz/kVkjzWZd+b6vc/Z+6bRfwfK9b83/be/y4WDt/37EwfM82MfcCD0/9N1/5m6H3R+/Hcane6/A2H8TRfTbf+eYN8sua2De3zHB3kz4AkCU5z87rwPS/0SLIxeIrzyoQ0iOB98Rp90PCAQNgnH8gZRwYLqRXDkfqxqT4nCk0mu9xavs0BIdYazIFJAYQJR9R5VcDhvUUahJPjmOmdRUYp1KcpHKALJdR50ZPDe4SWQUecdgscrRyYOtEWMw1PFq6C1izVoenCZRqNxElwNPE1DbdNyqyYst1Pbk7MwheTbB0u6dQ5VsDjGcM4RqznYWl7PrDnI957oCnRsJtt+k5rW+BdB7UBibUdoJ7n7o/xm/7XfKPaYMB8o17/Ivq4BTLvcgAOj/TM5e2Dnnx/TQNv1C50Jwtpf9x+Ygdd/p9Hp/jsAxt90MZ32e/aM6D7jnSKbnfBkTdY8IMuD8s3gKjXFZKYQJyif81wXyFtze98WgKU8qCeRZdXm66smvbwXvHJg6rh4EN+zCenfhC9uhng0WGlVnSRaT1bYCCJ4F+NcAmqMTIb4n//0fo486lCcBKIuYkEaKN20nFpcNA7FCmISJGrgSltx5XUwaxO+dx2udz2+bwvODCJRDadSRCyiMsTYVlt8k9y2fHTJrbBtbRaPE4dr60KnUjI1yIf/9zs47HhFyrbwXZZMyxLrhEnl7Ct2J/vWtNhPlYLb39hd+RppvXK3a9Q07mlT+28m3iC76OJAwUy/fmZ6/TuNTvdfp8s/kHGQZDxzbeTEkc8B8v+nkJYp9v+wX/gu+L8+eR/laUlnTfYLftLhJuAFpEFpdo1zlr2cw559GABPPLqOn/7oLupDGicJH/rYn3LDDT/ikd9VUS5GabBiQWr8P//fR4j9XFARIh5PhpOgPyvSg5MGqWzh2OOOxJiIB1bdD6bOh/7urymVTa7KIIyO1Fj+3yv45c+XI40BvC/gpI5zGcYUwEfgo5ysN3ICnubNjYKV22u8eFA1wGF9lPdDBqZBqrbhCiM40WjTDxa8ErDTSwjRJGrKh//3/t3v+nf35N+9ktbn/WXI2NlNaleqHvuz/C52jl2Nj27/d9FFF108PdiXVStj9+UuPSl71d5bttolvWQaTiUigtvNUnc4vAQprSl1aC9/ZwY6R1OFweFzrVmv8rgwAXEWh0VJrgtrLcZMJEDIsiy4N7jJpnXvPV5VeO2bX8CWwUe57NM3k6Wac5a9iDf/8TK++pnrsb5BLd2ClWEyqWJ8AeVL2FSwhZQkqyC6jFINEkbxOiEuCGmiMNkcxFhUaYjDTjTo2LJ8w1bEQWKr/OiaO1nx+4dQvsiiQ+bw1nedy2iymgd/PUbaaODNKDq2WOcgK6OSeRijqPp1RL0Z1XqFYtRLVokpmH5wBZSx1NiIGIfYGE0JnxQwBlJfQyJP5jw2dRhxiE1bChd7fM7bTmKQRgvWcgd7/e7yxZK9fnkf5IiV4PZy/E9SsEDwfjfjd0cXdf7Zy94v90y93LJpXv/TxXQsEGHsTDdwdveTrJ2ef/bt/re/4H0e0Nq8x+0T9n2SOSFFuO/Yl9O/v54f4Tj7vpgZ+r+z/TedWZb3ftrXfyef/51Gp/qv/TCdH3/Tw95e/77tXhfqv/v2m+mbufe+kyZn/5pe+XsihC7S3Ma1SEP4DiS/ye3sEN57tA76rt5b0Iqmdpg4zwnHH0t/f0jYYL0jNlEro1iAYqwyzn333j8pmMt7T5bVedaz53H3PTcxXqmiXJnbb7+dVy8boNxbYuv27UhUw8oYKjKI86Fo5VFxxsf+6e+55ps/YfXaxzj0iB7OW7aMnvIAY0OWH13/c9aue4w3vn4pzz1pEQl1Djv6jfzHp75L6mtYawGFcprR0WFWPPRrDj1igJW/28yceX2cf9EbWPSsWYzXBrntlrtZ9dsh4nKZf/xff8nV113B0le+DS1FHn/0cb5/9Q8pFAagILzzj9/AwNwyg4PD/PiGO9m8uoH3WTB9SZBh035CocLL3o2gqds2r9F9eve5T7DPR+Fevofgrb17SE6d6Oyu7TtLfeynf+kcEOh08GBLXWUnfbm7cTTdc9Dx9nfg/j9d7K/nR3gWTK8uM7H/2jHTn/+dRqfPf6fLnwkw03XL3Zeb9OQTM53ypUVgd3Wyp9bRt8itPMmvs+nn2FoGV00psnBDtNYGX8l8u3q9zqy+HoxSaKVwaUq5WKDRaKDjCO8c9XoVj0WcRrTkx9AIMb/95UrOWXoBWeU2tm4cpz4mfPPy6+mJFxEVijiVEhU1kYpRqoSIwmKxporTFVSU4nSFi99xDrfdfjO///kGlr7iQl538Xlc/tXLuO66H3Je9gq0Fn7ww9uIDCgD6ASJEho2pTbeoLf3RIaHRvGqwSVvfh1r1j7CNd/7OkeeOJfXveUiNqz5PnEhocFm/uioRfzHv3+FxYsX85Z3vpxj1pd5aNVm/uLP3skjD63kF9+9i2Of90e86U+Xcdn/uSaoOnifEzYdYh1Fgp+vt+wNpk48O3+J7ttMemKys5f7TfGj3dvrb1L/yS7cabo4SDC9++900annx0S50zWydLb/ph9WM732d/b5fyDg6e+/SaV3fPxND7s3UO6Y2+0NuZ+2T+6B4PC828j0/Hcne19f5wLBDcRUsWDBghbJ9d7z8MMPE0WaWX19KBUCher1OnEck2QZ42MVHnroIRYvXoLNPBu3bMYYQ5ZloBV333kfW7cv5uVnnM3ArPncd88qfvXz+1AJJJkjjg1KC94JSZIQx8WWGkNwNkmICxqjNMViTLkv4rY7b+a399xFZmuYyGAbikKpF5eCU9BIKhxz7FGU4h5Kpo/Fixcyf6Cfn918JY1Gla9e8R80anWK/cLq9auxpkJcTrG2jpU6y5cvp6D62bxpkO1j64gHxjjieEVxoM4T6x6mp7/E5m2bMbFm4cL5bN62heDU4Wlek4Gg7dPpfkZgwmVhb3fc71XpoouOoVPPj/YVtS72Hd3+mx4O9v7bU+42HTzjAs8k99FzraXgnS/3+qAu2/q8o60nyIjGOw85UW72vXWw8sGHOOG4Y+nr6SGksDU0Ggn1JGHFqgdRKpBaJQalFNZaolhwKqY2qnjgvzdw713bGJhX4uxlJ/L295zLV//zJrSxOAfOCpl3FIoFGo0EF6uQGc1leG9Ja/CFT1/N2a86jZPfczrjIzXu/OmvGB3dTr0GpbiPyngDo4U08ZRLvYyNrcEYw/Bgjc3rVrP++1upN2IK/RknPv9wXnbG6QyPbcKVhkmyKnMXzuKxR9cQmR6q455aXZHalIatUegR6g2HpcKLT31R0PY1hkdXbkJJiabFXeVyZN5LkCLL+/NghYjstSl3kuXVP9my3cXeYV8t2c39Du5HVBdddNHFgY1nHMltx57EY7R87PzOn1oiwtatWwHIfEgEIc3IE61IreOBlas4+aQTKReLWOuw3vPAylWkNmyntca5sDSvlCLLEhYsmcPSC8/i8q99jqKey8ZN67j5ttV84G/ey6LFc1mzbjWZr5P5cVKdoSTGF8DqUTQZHgviKZeLFAqGK6++md65cNxxh3Hp297Av//LZRgt2Ewo9kZUG57+fqhXG2xYv40H7nmEkixCuz7Ghw09s+Yxb0GFCy46i8985jNsGnSUBuB/fPBtbN6ygVkDfdSqdXp7ZjGmYqK4j1KpBC6oBmsdcdV3f0CjFrrd2BjdmIcpSUs8bQIOEXNQk4Q98cntoosuuuiiiy72DTPdIQZoEtVcfxZaIvd75u8SEim09GyVBqVbn0MkvseJwiItH5FmtrPm5yy36NazlNQ77l/1B1LrEa0mbauUCi4QaIbHtjGwRDjvjaegZm+hb5HlhJMPZ3ysxthogvcea0Yws4aRWWPIwBNE89YjvVvAeLTWNBoNyv0R73rv6zn6RIPXUG+MYW1GHBXBCrVaheKslLmHQC0lqD+kMZEbwNZLjA1bSsV+6rUGSmvqabDOzpkL55z7bKq1cRYsmMfo6CiFQoFqtUocG5IkoVpJKJoBVv032GqRl55+DH1zoH8evPClJwbLuo9o+imI8+At4l0I5NtHiO/6k04H3f7roosuuujimY5npCV3qh/HrpZ09+Q5Ly2ZnsmO0kopMh/cEwCq9YT771+B9R5rPaIN3mV58NqEE3UzqrRRz7jq2z/gZa88iff91d+glOKJtY9z1dd/TGVUUzRziewCli19K6975UK068Naz9atW7n88suJ7Bz6exfw4EMruOn6Ozn3zIuZM2cOo4MNfvSDu6mNanzWy72/e4Q3nriUN1/0Zr79te9BdRaxm49xdbzrYVZfH7VKld5Zc9i4djUr7tnA2y75Kyr1IX5z790878hDkXQtZeVQ9TmUZQGjdcG4Mn1yOKo6hKoOct037+aMpS/mFX/9GkZHKjy6chOGKtoKOp2LTuegfII4BVq1luu9TOgKt6cH3tnnCXLmQkpjmbr93gSDTT3+3mJH+0/MHcW7HYy/yVn1dnW8oHks7Kw/pOWysOO00bvuvx2N/qn9t6f9s7P98nTQrVvNnhynicma00+uT9u2XiY6Y5LO3A4+wy4Y/nTHw07K2W25uznW1OPs67G66KKLLg4iyHGnvKxjd8rpRRa6XCd3QjMUdnzfVwoWzp2HE8eWzYM49jwqPchE7Xjb9uCF9lSrMHkfEWHBvDkAbN66fcICrFKcGsWpNM+iBk4cykWIKwEOa0ZBLLgCOicK7WU4qxDlSV0jbAcoiRAbgSNPP2zxOgm/eQ3WoIjwThOZMt4Fa3PqakhUQ1QGODKbgnbEukha0ZRKPVQbw8SFEmndEEWGTI+CpAgx3gkiOgTGKRcSRNR6Q+BeNAiAzgZQrojPM85plbepSdpaaZpzK68vhDfVCJ9tsNhLbopsbu9zuQtxgRA09QPT1KJF4fLJRlPGTXKlDCVROFfic8tyG0EVQbTDWksx7mFsbIy+vh5qtRqlnjL1ekKkoknl4zzegVIGcChCMokWN3GBiLXGRz5glW+SttyTvNl+KyRZBmIxcYTPwkTJSTi2Uib4Z0uC9yAuaDSTp2wWF+oXzinBqp4TR1GhDzSCJSh+YD1owbkk+I9nE+fDuQyRCI3kWfbIpfWESBkajTpxydBoNChF/Vhr8aaet7vQdl5DW5VXbeomeftbWQQdiMdmDqUFpaDRSCnFRZIkoVgskKZpWHkJDWYSKW4SXhvOjceBEnzWXI2xIUO1CjrYWsLKRMHEuYa1y2UBaVuJ8Xjr2q51QSsz6Vw651CiUd5g8YhKWv0eEkhMJs8iQpollEolarUaPcUy4+PjxKVw3jQGfFBUCeOkjdjLFJXw1s3PtTIUyk7SAk5IoE1PZ3O6mE5gSafLny46LR8H3fZPFzM5cOxA6P/pX/97oJO7zyXMIHTe4OGmvAeIi9BuPrrtt6nS9irp38mx8mOIw6WOyA3kO+SuGk5w3qKUDQ9eGx7eRimcs8GvWAneK5TSOOfQFJCs2FKUiEUQp/E1SyyCbyhUZlAqxmAhE0y2MBDKvJM1hZwk1PBecDZkaSPNiak1aNHYXPqt+chuJRD2atLDW3k1pcXqSZ8ctBHHpjUv/B6pCI9rk4LTaB1h0yRY4K1HK4UFlIoQF4iu9+DJyZAIzjlKxTJZlhFFES7z6Paz1WZtm5CYC23xvs3iPHUsPsnSOJXkK6KogPONQDoJbious5jYBBLnPUpUSFLiFDaw3UDOnApKIJN6LE9c4j06d8FRDpTR2MyhkZBkgIlATlE+9B26zV3H5sGPGhFFqVSmlo5QKBbIGiBigJDsQ3uFEwXYvMmB0Afi59vO62TrrFIKZx0iimKxSFJPKBaLgeAik7dv9/z2YUyKKBCFz33pg0+9abnKWOuDprWlRVittZgoAlJEVEurOOyX5f8rJksYK7yzQdJQEch0syri0G7SaCVM1MKExeigrR1rA06IojCRSF2YoIX99sa1R02Q251agDv/gOuiiy66eKrxjPDJhZ37GHae4O4OIfeW8hMavTv6feI15VenMKaIMSokrRAFNpxYrQVtIDKKSEXEuogYMAWFV74lqZZlGUYUGo1RitgYIhWh0dgkZHDLbIKOdcvXORC8nDj6YDEKL4v3aat+PN5ZwAAAIABJREFUWuvWSymF1jlpEp9nu2mSY0HvcDg6Qsrk/DfV3I8JgiQTFvXmK5SRE34UxihMHIX+cR4TRyij0XGwSk5YhCX0W97+2BRavtRZ0iCOi8E6rCcIbpOntsZa26Czk9wEVJjFtHHjYExsJ2uT38UEK6ZSCptmlAoxiCeODdZ6tDYoibBZbtXPz6F48Na10s96AbTfwTia8F93aUZkTDiGGER0a1wpZdA6QqnQl0qBiRSFYoTWgqAZH6tSLBeoJ3WKcRE11bVgJ5qO7eNe5ddCs0NjHaN1hDEmWDp7eqhWqyhjsN6jvGqzbjb/b7PGK98aa9amRJFGKVrjMVIRLnUor9AiKOWJYw3WIbkNwBhDHMdorTG6QMEUEOeJlKCNwntBeYORGJTHkU6cY8naxq9qtSvU22DEYBNLT7EUZAXDIAx1ayWUmRhXTvLroc0i7NXE4Av3EZnUL37Ktl4cgp8B98Yuuuiii+nhGUNy9wUHgrl+d9i1OX/iQdhO7pRSuNxSakyEjgwmUoiyIZgtT0/cbL8xwarUtBBmWXgwKw1xbEjTBqViIBdRFOXZ0qaQ8jaiqfKPCiGKJSdFuTuGczhxQRrNOSaW592ERa/1cJ5Y3m0+kCUnxTkFzAt3EyyznW3mChiesPTctFBrrVvExebqF0oLxgSJN69yK6YKE4BIx7g0o7e3l3q9SqlUoF6vYyLdKm+nft9+wo3Fe7sHml9uUoKSRlIPbiMEYpamKcUoEK5SqdSyuBoTo8UQLIpBV5lJ7gCE75Vv9ZfKXTastXlmP40nkFetNXFsgjUyl39rEsMm6RcR0sSGMeEzZs+ZRa3WoKfUw1hlLFcTEcTrUI8p53LylK3tUxspa2QNlApJV3p6eqjUavT19dFoNHJf+HbS7vLxMrF/kmV5+wSjovBuTN6+GFEEy6nWRFGE9540TcNY8RNE0LkMa9MwjpWmUCigIhMssW1Z73w+YXEuw7kMvEKcyc9De4snJq7FUkylUqFUKpHahEIxwjnIMpdf0xMrJTvqsd2RVWmbXIThelDf9rvooouDCAeFu8LOcCD50zzZda75IGouLe4oQMlhbQhsMiZYVsMybvBD9iJkaVhWzqQCCpQvIN6AWLwPHs3eCykJShTaBHuqCFgyMpflS7ieWBfxPnd1kODiEAipA2URr3IfUI3zKUhKZsMyfbCm6UAgPRgdrGEWH+oirq1dCkhpJzDehUqpSX2S99AkAtFiJUEFWSxGB2ub98HfNLMpkgardGSKWJfhsFibYKQIeKwkeJ9bbC2AkGU29GWWoLWaPH6C8zbigiWtRc7R5PocYfnca/DBYtmq9SSW0u7a4iiVSjk5t1jbXNpO8cpRTxpEUQG8x9ksX07P3Qp0oTWZCYfTwYInk8uL44jU2VYmPaMUaZogkSVJUozOrZOt9sSIa45XhTERaZohylOpJ0SqhzSBco8myxKUi9sIXpO07SwRiMNNcthxxAVFlqVhQpI5TKQZr1UoRBFpIyOK9eTx0HLzEPCaOC4E32sFzjq0NqSpRRmoNao0fftxYeIjqHzy03Q90DiXoY2EMWAz8EFKEHJSKw6wOCcoFefVyfu6zQfaSWuw4pQFwuQi8mEsZlmGV47MpyhRGHTuNjPhqqAgXHPt14vP+1d83te2NYlRzfJ25rZw4NwCu+iiiy72Ow4Sktt0jntmWTC8OJwkOJW0XA+cyv0mVfjdYnEkeeCRCoFcNjxAwWBMMeQj8GFZ3GUWKw1UnOIJxAkbh+C2WkJUMjipk/pxpKCRpBxIcw7X9vD1kuLUMFYFwhCsXAblY7yNIH+4Tzx3py6l58u7OwmOcYAomXJeW969+TYe5+ugG4E8aLC5v6p4hbO5ddIbEEemkhA4F6Whvq4clsap58v2glKaRj2hGBl81oxxciHwCzVBKGCi7m1BQW0/TnaNbIueDH7OFitjZL5OXIhxaUoDAeVRMfg0JRODUhHYCO88TvIAO0ApjXcTrh7i1ZNcMTPncx9bT+YTxNRCAKL2OLGkYnIrdIbKg7xUriaSORd8niPCrMgJWso4C40sCaSbpq9EMxisPXBq1yTLqwaJqYDxkBVAYiIdA4LLHKVyIV/in8qYQ/roMAlMc2IteBKsrpKqGlqDU7nyiTVgiygVk9oGCoczVXwevGd1IKOoJul1uT95hMpirItQKLwKvsnAlBwfU8av+NZ3SgliBGcdJvI4Gc1duXtxiSASMTHJVTs44t4EjjX7pYsuuuji4ICev/iwf+5U4dNzF/C5v2X4a2rjqrbPEB4PIkJPuYQHqtWQqUAhIVhnd6aMcID8fefhGlPbMlldAXrKZcBTqdZ3uH14ALVbKH3rtaNu8iIgKcQVrBlEegZRpQpeUkRSxCRk0Shq1jC6bxSrR3DFMaR3DFWoo7xBq4gsyVBeI0oF661LoVChuGCcD330z3lg+QPUqw1wwSIbRUKqtvLh//s2Vm9dzvDWGuKKKEzeQb5lTfO6huvZjittQXpGIa7gVR2lHErpnIy1Fl3z/VO8ZCEnt1O54ECIjCcP1PH55mJya6oXFCb3q5UJhQYEpT0UGrjSNnzPIL48DKVhKI3giqN4PYKKLNrHQUmhZyuuuA2nxtCRxXmFKmSYeUP87Uffw/33raRezRAMRsUTy8nehrHkXU5Q2xx1cxWIoKjRXHqWnLrkrg6TTPmhjV7VsKVtvPuvL8HEKRu2/oGsuB1b3o4rjkA8jpMxUElovwhOVfEqLPF778GFgL9mcKC0sp+E/tRoQmyZQ+I6WWkzvmcbLhpGiuNIXEEK46hiBSmMonrGsaVhXHEY1TNOKsOYUkJix/nYP32ERx5dxejYMOJjtI5xuVWRfCIlosL5Edr8hScmRirvFy8ZPhrm7z5+KWuH7mXTltV87B//gccfXc3YSBXnLZnzIAbf8g9vu+By9wgRwhhQKVKoYHs243u24ouDmFKFVEbxyhHRi2DCcU0FVxzk3e+/GN07zvptK5CecXxxFErDqJ4xfHEMMXWcBS06BN8pDWJxYvMJhQeV5NeDhnw+Ji3CGiZMDocjQRWqRLOH+cg//zUr7l9OvdYAGyzBPvdfD+Mov2+Jb40nye8bKp9oic/7pLVf857RdO1pTj723ZTbaXevTpc/Xcz0+k8XB3v7O42Z3v+tQPPd4BljyZ2asczn30kbLVX5d75JIvwUS9oBgZ3pnT4ZXtUpDFQ4f9kZHHXUUeAVjz+8hp/cdDvVEcsf/8nbOOTI2VgzTsZ47mfYS5TO5p47HuXWm3+BGEXmE5SR4OOgIFPj2GgYW9iOjYag6LCJRVSElQiJEpJoCy4exKs4l0KrhgAuF/xqxRmcqvP+D78d05uhfJGsYdm2ZYi7fvbfPLFiFHyK6OZyKnm0P0BYPsYHt4hgsc5CYFtTsksnCBrxBSBiwm8xl85qUxDwmeXSd72VQ47oJ9OjiLEhuMcXcbUCv/75fdx+02/oH+jl1RedzWFHLEY7w2OPrOfWH/83g6ObKZcqJNEmdO8o6VAdrXtwkoHLJdBUgpcU25TW8sVwkiQEE7U8ib0JSgsqw4knI6gEaFsEn1vZxGJ1HWtG8PFWErOVVA2RqkHe+w/voqevjPZ9ZA1LZXyEe3/zAL+8bQV4w3NOWIKSiIfu24D4MmJaEVDgDbimu0q4CqwEVwckwzLO+z/8Dgr9DpUVkSxGoRgaGmFkZIjDDl+CN3WczkI3+wKR6+XuO37Hrbfexv/7fz5G5HtARzgc1o+17jDighSWV7mqhtW4XGHBi8erMPnzPmwnOJyqQc8oidmE9FT5xL/+I3E6H3QBT4ooFdwbfG6J97rVt17VQCziNDafP3rG+Ju/v5RCv0NsEXEFlC3w8IqNfP+bt6K0gaiOlRF8cRsN2USqhnnbn17CkkOejZMUorEwTt0AcTabX/5sJT+76Rcok+E9ue+5wmVRGIumDmTgY8RH4E3uR20RZcm0x3uHMZqEcYrFMRpqO0Q1nDTwxoOP82squPuERYGg+uGnrnw0R5s0J81T7ydtn7vuCl100cUzHNMiuZ2eCbT7RE6tifhgK2sPyGpF3fsd7LCH5Ux9KEw99o728X7CF3FSnUVQORFrBmZZazGmaeUJPrYiYKcGLDmLi8d59dtewPbhNXz2327DJppzLnw+b33Xa/nKv9/AFZ+/Dq8zpGeY17/nhaxZs4ZfXLcBVZ9PTC9aK1I9SsI4cY/HOYVv9OBVHWcSGm6YJNpEPUrA9yJZmdj3oSNPktZAMiSKQarU1GaKJUV93FLUs0gbBqdHoTDGNd+7hkfvqSEYTjrtWVz01vP42qduYWhzBW9qpNLAa4vWEdgSYhVKe5J6ivgScRwhapxarUZvvBBrLYkMUSiUoD4XIxFKW9K0jpcQOBeZUiCNTvC+wLcuu5EsGkT3D/KWP76Ytas3ccePf4OvzsVb0L0VXv2Gc6hWq/zHv3werQq8culZvOntr+Kyr30aFXusH8NGW3HlMYQCie1DkgGcFaRYJ1NVJE4wKiKpFIhNCSd1aukY5XKBpOHp00vI0pRMRsh0BVPyeGdIxkoYV0brmHo2giqNYeNBVMlho1Gc1BGTkTHM96+7gYd/WwUX8ayjSlx48XnUs0F+f/9y/uiFcykYw0OPbiGrl9HGgVK41KBdL5LMRkuM80mQkhOFSIb1GWJSGgzyo+tvYdWvhtCN2YjXaIK/qIuqmP4x3vKO17P28fXc8ZPfotMF2CQj6jUktoHYPqJIUdebiIoW5zOUFEjqQqFQIHFjRKZIMh5TkF6EMk7qNGQLcQlqFUdJzSJrGBwJmWtgvUWrEHQnroaJLfXGFqRgiQpBXaI+oiipAaCIVw2kNIKlgbgivh7hkgImglq6jR9eewsP/mYc1ejHW0VkimhVosEgCduxZpCo4JE4QUvMFV+6jqxeQBfqvPEvXsq6dev45Y3roD4HlcXEJUPFbiQuCWlNUL6Elh4sGVIax1JDYbBVjc7mEEcFam4bma6gCx4wpLUyqAZS8CRZLUw644zEb8ZmmiLzyWpCpGOy5oqP1yjRuTa1DcZZb8ls0rpRxXEhTC68CwsOTVk2l0sLqn1/BLTrgx+MOJjbDjO//U0Jv06WP11Mp/7TvX73R/89HWPoGWPJ3RXaiW7z89N5gU5NFNFelxNPOpH+/n68zXDOEUVBM7NdPmisUuW+e+8HrVrKBgCZSznsiAX86tofU6tZxJW48847mbVsLuXSLIaHMwqlMt4mKHHgM7QtodM+tIoR06DcD29+00XMWzSbKC7yza9dy4bNW6inNUo9Ec875XiOe+7JlKJ+fnP3A/z69vtpJGMgGV5SErYxb36RN7z+IubN76MyVuPG7/2MbesSUipgakQlS6NRI4pKPPDg/Zx51otZsHAWG9dvYO5izTnLzuHwZz+H8bEqt956Kw+ufICzz34lSxYdxte+dC2iNX/85xfw2GOPcddP/0BSzfjQ/3w3t992Fw/fO0JSHaSeDqONI44Nhz77j9i4ZgyfRcHC5wzK96B8Hew4kikk1cFaaftyDdUahxw2n+9eeRX1dBRNiTtuv53zX/MqilFM2qjhXMYRRx7KxZe8kP7+Pu773cP8+Np7GeifS4OEd7/nUkwZioUyP7z2FlatWkVff8Q/fOhv+eUvf8nzn/cyvvmFH7Fl6wZKc8d505vOZ2D2bMbHUn5yw51sWrcdT8TiQwe4+C2vQ3pqrNm8gigGUQ6nwEkVpTNs6hAH6zau4cFHlnPo4QtYctRpPPcFAyR14R8++j4+/S9f5r0ffCd3/PwuXvq8V/HDq29n0+oxrB3BRQ0ayRilQpnZ/XPZtqWO1ylWRpGoFiTCTASpRlxEJJrMR/isDlnwYxVbRJIy2nsSu5EPf+x/cPUVP2br9k18+MN/xs0/uY5XnHYuxUIPt/z0FjZv2cSrl72FgYF53H3nr7nztl9BVmTevNm88XUXMnt+L9VqlRu//zMG1zVoZHWsy/DKk1jLP/3jP3DNt3/I5m2beN8//QXf+8GVnLP01fSWZ7Fq+UpuvP4naOmlWC7w+jedx9yF/YyNVvnR929n02NVaukYUW9GoS/4v2oX4TBUqxV6ZmfMWVBk2evfRN9seHjtPSjlEauCv27ai9ISFDucB1tCpT0ohGLZ84H/8Zfc8Yuf8oJjz+bqb9/I9i0jLF4ylzOWnsWCJb1YSbj5+ltZu6LKeHWQJUeXOe81r2PugoWMDNX56Q138egTKxHtSahizThj6QZesfRlnHLyaXz509+nZ3YfVlVpNCp4r0nrgvY92IYQxzFJkhLFmp7+CCujNGyVakNhdIlYykiq0M5Qq9ZQkcFaGxQ0pvGwOpCCd7s4+NAdf9PDwdB/Mz4SayqBbaKlkbqbbGXi1V69JqL/J+tx7gmamZPa61iv18FZjBIKkcGmCeViAZelLfmmanU8WGqcZyL7kkZT5Hd3PcS5Z7+aI04aoH9hRn3Uc8Xnb6A26oijYlCfzVUPNAUkF+T1+VLnn/7Z29i0eS2X/fvnuP6a7/HO916E6qtSKMPQ0Bi9hQEu/8JX+OFN3+PUV5zIHz13AF2sIMZiTYXSwgoXXfoStmx5gk996lP88r4fcel7zsPqUYolTWIr1N0o8ewMKY0xf6EhLghbt62n2Ou4+E+WMm638Ol/vYyf/fgOlr3xVBYe43l82++Zf3gPUqhg+kcZOLzCc0/tpeI3MfdZJUyv47H1KxkZX4s1W+g7ZJTnnz2fP/v7V3P08+ZhpU5kCnmyAptLapn8pVuvKIqIoiLZeIH77/kDr7zgJTz3lAUQ16jVKlz11ZvwY/0UdQEtEQM9i/j65VfyjW9+lReddgInnnI428fX8ud/83aWr/gdl33qP7nhumt5/dtewcBhDXzvMDW3HaNi/vPfP8/o2CCFnoyL//RM1g8t53Of/y9WPLCcS/5kKfGiIXzfOi5++1k89OAqvvTZr/CHFY8xe9acVkY1E3kyxnDxGKkMoWJPX18fSUVz/dV387vfrOKJxzfzf//3ZykWy8SzHP3zYi7/0td54rF1NNwoddkAfWt48bkL+dv/9WZedu5xYNKwbF7MqLltJIVxxtiAjQbJ1DhparGZQojQKsaYInFUxnkh9Q5T1KR6HCmO44vbcfF25i3u4QuXfZkf33wLZ7/6JM581fF87UtXcOU3vssZ5xzPs4739D1rOxdd+lI2b13Npz79GX75+1u49M8uIFUjlMptyRnKkOhhJG7gzShZvJVDj5rHVz/3bb7z1Wt47vPmccxLy8jAZt7+5+ewfWgdl33uMzzwyF284y+XURxIKPalEI3iC0P0PatGPH+Y3vkJvfMb1M3jvP7tZ7Jh3Wq+8LmvsPqxDcydu4CgvSsoF4MrBncDFMrFiA9E0asEXxil0GP5r898ke0bx/BkXPKGC9m0YQuf/exnufUXP+CNf7IUikPMWug575JTeXTdA1z2qcu579crufD159I3T6jWa8RlR03W8ZxTZrN02WncdPMPyGyC0zXe+f7zOeN1hxEt2ITr3cR4tpG47Kg3KvT0lrA2IyplvO+jb+TlFx7J7COr1PVaRiubSLI6DVujp78HYwzlcnnGW+O66KKLLnaFGW/J3R2J3dE2uyK/+xuT3RQ88+fPb5UtIjz88MPERtM/qw/1/7P33lF2VHe+72fvXVUndu5WJohoRDIiiQwCg8HgMMbxjvO9M+PlCfbMm/Rm7qx318y979r3zvOMx9czDmMzNjY2OGHAGAwYgwADFghlqYVy7Nx9UoUd3h91TndLSEggQAjqs9ZZLZ1TVXvXrnB+51e//f068KQiaoT4uYBYayoTVfr7+5k1azZGO3YPDqTGBDoBX/HEw8vZMzSLKy9bTGdHH889tYYnH10DNUiagu/ONl2smmURk5llofnnr3wekUuQ5BgZ28NYfSvHnlxk25Y6HeUunnzsLpQr0t+/mfXr17LgrBPYsnsNUVLHioSeedAxU/DL+59jxox2JibGiHSD0045lRVrnsH3FYsXX8meYxQzembSNiPirrvuZKwa0jWzm97ZHfz7f3wXP5nDutX9HLtac/YFJ/DAPeuwImTGcR49s4r0b17OzFmzmHuiT29HnqGxAcbGRpgz/zhOW3ACCy6Yy57hndx974/ZvSnGmB7qYZ3A8ycz91NGaFM/UOI4RscOlVM8eN8jnDY6h8svuYb33jiH1c9t5P67f0M9rlJsusgtf3Y94yMR1m+wc/d2cm2Oco/gf37x83R1K3JFj8GRXSRqhEKPoTIBuZLHc8tWEdUteT+hbUaOGfNK3L9kOd3d3WzevJFr2y+lszdAzJAUuxyP/Opx4tjj+XXbGTh/FEw6MVCbiJNOOp5OWULoArOP66a3bQbf/f6deC6HEiVq1ZhSvotatUGtMcFvn3makcESXcV5BKUG5116PgsunM3mLRu47Y5b2LByGBo9+J5Ga8373vdekqvmkjczsQ3BD779M/Zsj0mYMtuIwphGo0Egu8HGGBJQGiNqaFdF+pblK1ZQHResXbWRK3/nZFate4ZGNWFXMsSmnavpPU4h8o72WY61D65gxsw2xisjRLrBqaeewsrVK5AShDRYAcLXaFfFuhoy0Dy3YhlJo4s9O4aoNAbIddSYfSK0zbQsu+tpuro62LCxn3MXLqKrp5M9w+M4Z7nyyitx587GVNqxjRzf/d4tHHPybPJthseW/IbamGHF8q2cf95IUw1CTk3Y2+viTnWq83lJouusWb+WsOFTVJKIcf71G/8fYdyg2OWzbc92JqJdHH9qH4ODI/TO6uC223+La8xk6eOr6egspRrI7YJQVzj2Ld1cdMGl3PGT2+lfvx0Zz6bmatx5z0848fRePvmH72PDqm30PzvM5lWjtHX2MjE2QT6fZ3xsjK//+9c5/YJj+cBH387grirPPrKNnRvGkbaN6kQVKT1qtRqlUturfxPMyMjIOEIc9UHuIfM6lQ9LjGP12nWcseA02kpFjDUo36MRxURJzKo1axE0DRgEzcxWghd4WOFRn4DVT29n5eNDdHTnuPKdZ/KhT1/Nd774ENLvatr2ylS3llT4X1qLlAZUzLmXvIVzL30LtRGJkA4v7xgZrZMvQq0RYmKf+miEX2pjYjhi9uwujIBc3kN5UCjlMarBxVdeSFhxqMBnx8YqE6MhgV8kCh0P/eJxdq3METVizr1mFjfceAP/tvJHzJzdy9CeMZRTaOMjVZ6xsTFmHdNGOAHbtu7g+LPamD2nmw2rt1MZFpx2zkx85bNuVT82Vhz3lj7OveIUfvmru1m1cgd2IoepdJAnR1DIoRMAg5Ua0DjMNJkzUEISFH0iO441imUPD7HuqcfIlQ3XveMKPvqZm/jmrV8jxIHnE4WOfNBBdWKUei2ivbdIJR7jksUnceZbFxCOg5/30a6O9KDWgFo9REeSjnInw8MDvPWkM6jXQxZddCE5PQ8b5li/chs2ztM52zAyvhsd+xAXMbFFuTLC+pg4dd+K4xid5HE1xbqlg/yifyk2KRNSQxif9o4yg0Nr6eueTbHQgaJIR3EG42MVbrz+LE46q4dfPnQPq1fsIR930ZGfQ6I9kAkYjx/fdi+bnvKQYQ++zGETj7gucX6C1/yBlC/kUtOCqk21hKXDNjWVfS9PvWrAFPFdnlolJqwLahWL73egjcHPS4QXUe72wAu5+LJzieoCqRQ7NlapjKYawNomKF9ggERHCOFQvkdUc5jYJ4lT9YSxygQqgHwHhHaEq665BGFKCKkYHwDPljCRj0vy3PeLR1mzpAFhD3lZJJaauZ5PtVohrgdI00Ne1TCJB6j0fJEJQqQT9ERL6k5YdBIzPlqhmGunUdF0dc6lMhaR77ScccF8LrjwIgbGtkJhjGJbwPD4Do497gSGBkdpTDi8qIBPmTt/8BAdswskYUyu4HPRFeeQl5Ltm3dR8DpRfhvWWlY+8TybNm3iF/c/wY03XcA7P3gZP/v+Y6xfOkpHeS5JGIHIM7qjwQN3PsVjjz/BJZe+ld/5yDX86DsP8PxzI5TLs0kiTVdXD3Ecv+b3vIyMjIzXijdPkHuESLPGU38HBwYn35cyDUBjbVmxajVvPetMSoUCxliMs6xcuZrEpIoB6WSRqUlq2sT0zurmmnddydf/4yvklc+Owe384lfb+bM/+WNmzOlmV3+Ep/I4zJR8kJQgBRbL3Hl9XHPDOfzTV/+VylD60V/+7Yfp6IShAQjyChkYgpKjmlQotKXC/55IM6DWQm0iJAgKfP/227EJKAmNMegLTiKODfmgQLHQwcieMdqLnSxbuoHFi6/hmOPmsWdgJ7NmXUEjNniqQqxrdHUdgzQBIoaN6zZz/MI+5h47h7u+v4rqMZLF7zwVQZ4Hn9qMSMqsXbGJKGqwaNE1nHs6LPvNJvpX7MZUJVEUoWSrtrkpudSSUGpO+BNC0GjUOO4tszl74Wncd+8SJiqj5GXCnffewZ/8+Wcod3gYlWCMoVhoY2DXOH5bgOcFNMIqJ5zcyzU3XMJXv/EfjO6BWMPf/rcPg3C0tYESHm3FdjZvGaS9vYvNG3dweflUfvRvdxBXnkQmILXCSUPXjBl0dHTg5TWhi0A1MCLV6FUKjLFs376bNU9uxo9no2wOJbqIGjGqWEKpgPHxcUrlHE4mNBoNdOKoTIR0d8/g1w8/QSWez6XnX8eisyTLn9rKM4+vBw1GawQBhaALZRye7SRpxCgVkM/lMJ7GOIcmrbGOtcZzDqUESdNRDgArUrMPPHQi8IMCpWIXnioSR6lTXKNRw/cVwwMRuaDI9++4Axun5099Anpz84nDNGhGSVpqAmkwDUr5+DJP3i8ifEMul0tNTWIAya233YOJ0vJZXYN80odXSK2Qg8BDKEm+kCOsN9C2ge93UCqVCJMJrBBM1KvkCy1HtaZKgdBMSvs1ndWs1XR2dlIfVqPaAAAgAElEQVSthHR19LDyuWHa2jro6Ctx/bsW88V/+mdGKw6vDJ/741kUCgXGx8eZNWMG+YIiqk0gnOOc885m065l5PMB9WrID2+/jwsXLuL6G67lW1/+KZ2qjCfzHH/cCZxwRi8XXH4KI6MDPPzAozy/YQvt5flUxmoUi3mU72NUjssvvpoF587GCyS/fnAJu3cNUSz0UK+GSATj46MUCqXX8G6YkZGR8dry+kxvvgyapaava1oi8i2mT0TTFlatWUsjiUmcZdWqNcRaN4PhqWVbEkUKj4nKMF1zFde/fyGyZ4T22XDGWcdRHa9THasjUXup0qeSQwaERnkO5TlQMbkyFDvgbdeeiVSWeh20g2o0wnlXHo/srDD/7ICTzphB/9qNEEukC1B47N4AE3s0V1x5Bm09EJTgiqvPox42kCJHGEY06gndXbMwSYBvi1THNfl8kYHh3QyO7OKq6xegekY45ZwOTj/1XJ569HkKsov+tds49aTT2bl1CFOT7NpUJZfL09vVza5t4wTJDBo7u1j3RMS3vvgATz3cz7kXnMWVbz8PK2KCfNDUBbVpDbKYKtVAGIS0IKFQKjA0upsTF8xg0dvn0HXiOKqjzlkL56MjzcRwQlKHQq5IGMbkcqlbG1aQDzwcCYmrkzjIl+D6mxYQJTWsgFoFfD8gjmNKpTJRTRFWYPe2YS679Hg6OqGnz+fCRecjkaxbPoBNPM65dB7BjAqnLCzTN08QUWlqrOZwSQ7PdkBUwlcd1GsGKQKU8pkYD5kzbx4yF6LlGPmCIpf3aWsvkdQEQTiHR+/awi1ffIDHH1jDhYsW8p4PvQ281J4XJ4lCQxxCo25QspCaO0QJcaSRKj0Hc7kcykvPzZbFbssW1w8UAocSoKRAKYGzUKvWaS93YWJHPijgdI4d/TC2Kz1/2nvAK8CVi8+nEdZQ0kcJDx0leAKkaAWpwZRlsxVI65E0NNLm6F8OplrgyqtPp30mzD5WcM3bL0jtpX2BUzUiMYxoC6n7m7HlnRS7DKue3QJGsOi648nPrXLG+SV6Z3tYGe1zFad6zlZYnDBYDNVqlfb2diYmJpg1axZRFFEqF6mHFaTnKHfCpVfMTM89l2Pzxl3s3LWFRVecTH7mMPPPFbzrwxcj8iFhGJMX3TA6k4fuWsHc+T1ce/O5aDWKKoZ84jPvZcGCU7nz1sf5/ld+w9IHduNHs4nqjnK5iHURQcHy2b/6OMfOn8WS+9bw9c/fx28fHCQe6cDEAcV8gVzOp1DIpVbTGRkZGW9Qskzua4BzrRrcpgrstElx1lo8L3WVakQJK1aswlqLtiClNxkYt4LcVrZMCIhCzQ++9xMuueZsPvMHn0Ypn23btnDbv99HvRIQ+EW0tkhbRMbdyKiKsg0ECmcF27cOsvzJzXzk3R9CuQ4euv9XcFYPHd4sjK2SM73s3Pwkv/epj+MXAp5bup41y3YiRC85PY9cNA9RG+bu7z3B4usv4ryPXUGSGDavHSKn6linKTCPNjWPuDJBXnVgaiH1gYDZ3afyTH0dP771Qd72jss59w8uw8SCh+5+lp1rI3J00BiuUxtoZ8cahxf1kfNybF4Z0dsVI+MOhOsgkHl0IybwNf3Lh1i/7oeUy23gcpiW7bBzCOeQNocyHXi6C6VrCFMgiQzItIzhW9/8PlffsIjP/MFnUUqwY8sAt37tTlytSL6Yg1qZHB3oWg1VbKNAHzKZYNfzNdYuHeTj7/sIeb+de++9j/PPmkc7c6i4UUS9nYLfxVA0QqBK1EfH+eVPn+ayaxZy4SduIud1sPTxtbQHO6hXxvnZbb/muhsv58ILL2Tj9rWsW7ELT3cg4yJeNJuCPQalKyjZhokFpWI7YaOBiwO2rqlw5qlz+NRHP8Mtt9yCjDqhXqZR1ZRVgI09uvLHE9ar9K8YYEP/dygUUrk1ofMEdiY5N5tSPgHacDZ1FJO+h/XyKF1Gxm3ocBwX5sApikE7SVjH0134th0TNsibXjzdCTrCSkWB2ZTkXPbUY9A5CnYehWQQVY/42W1P8LbrF3HBJxcThZrN6wbJe+NoE6GiXkr2WERjO37Sge+6MI2QwPXhJx3oSJEPCuTcHMpuAq82yh3f+hU3vHsxi37vOqJ6gzXLtuKJQVwSUhBz+U/v/n3MtR3YKI90Pju27uTfv/5Nfv6jJ7j0mnO45KKLWbVqBWuf3YrSbUhTwOIhTAE/noFKQqRppPJqKkfBz+HCMkU5k6GxOp7Is33jEGuf3cnvf+xPqYajPPH0A8iwj5I6Bt9q7v/pb3j7u67k3E9fRWUs4vYf/Ii4Juku9eHHs8nHxzA4uIWffP8Bbr75ZrY9axgdqvPdb9/B7l0DlNxMRL2XvMhjI4FSPlprhCexFm755q0MDQ0gom4CMxtJgENhXfqjJHUgdCjlvylmWGdkZLw5EQvOueRl3+GO7MzcQ7ezFEIwo7cbgD2Dw/tIiL3cZHbLu/7gw3eg9g91/Pa/vsPJBK2qOJHstSzWQ+kSwvogBU5GWFVNP9elpii9BBWTiNHUZcx6aVZMtRQ2Fc5YZGvSnAKcjzKFNNBWdZwEX+aRwkNIgyNVMhAEELUjPDDeGM45vKQzrS1WE4BD0rSLlQmxCckVfMJ6RLnQQbUSkc+VQWg0NQB82nEYjKykY5e0IWyuqXhBU9LMpY+UnQSXyodZa9Fao5RACIdVCdbFYA1K5UAHSF+gXRU/gFqtRqGQI04iPOVjEy8dQxUDEqXbwKbmBULaNEgQGiuTVL3UKcDhpG6aFPhI6yNsAKjUFEForFdNzQXSzpM0oFwu0wir5PMBYVRD+hInUjtmz6Yz4bVr9aN5fJE4YRGOdN9UDScMyqY/qIw0qbKGaS1vm4/awYlUGQBI+ycsRqXjrXQ6vtPNA5zUIBqp3a1LXbWEzU2ZOTSdvlJHurSfwpSa2200t9v6fxVEmn1NjQmStPbVSaTzm22nxiRC2lQT1kmcVdA0B1EopC2n+6IqWGmQNnX6ssI0Hc8EwngIWwA0xpvASZP226bmHNPNcq1MmLKX9pCmMGnigNA4mWbop8YTrIhT8wnkZH+snHZ8hcWJJHWl08Wm+1iMU82xdRLpWv1Oj7cyudQEpWmSoUwe8CavdWFzqSPgpKX2lNmDk8mkuYawweR5sve97tBNZ16vHGmd0TeCMsXRvv9Huv9Hc/uHy+vh+B9KHJhlcl/3SFK7JjkZnLQQ1kfZ7gOsJZq+biLV+TSpA9fU43oQpkDBpUGrFbK5zZYdssRYjXRpm9LkMM3aRIlFuk6EFUgkztI0GjMIkaRBL3lsbFEmDbZkMyCQrqP5V0xOBlTOYbQmLwQy9Mm7GKnTADWnuhDWoZ1OM0+inAYucp8L3AXNvu/9RS6EwPO8ZnsgTICwhabmKVjnUlvjBHAebaoHkQiETkCDh4dwAuvMpIWwEgJcEUyapRdOIEXTXrh5nKxolpc0g00rzdR+Wx9sDikc1lqUEuASiHP4NoeuOfKiHa1pWu4yGcx702f5N2uLW59Jk5sMDpvNT1pCi8mhkpPjLpw3uXwLzxRecCZNNmc9oK3l2rxXN1oBH+zfZ2Xf7b6wnf2HW/5+lgNQ0/4thEjdyw6wrenniWfa9nlvbyewF/Zh+uc+whSa70y9L52HM4W9bvrKdu3Vx/2iX/jW9PbTs3lv9QPB1Hik+7Bvj2X642+f4/riLWVkZGS8McnudEctL67TO5ktdq0AJ81OCZcGwOl7EmsFSgV4nodSCk8opEvLIzzPQ6YJSETTWUn64AVpVhTAaAvIpt6sD00dX63jNKu73197U8G6FRCbmHw+nzpaodLsmvRQKlWVsAIClSfn5VJ3J+ewiQHjUg1TJ/ayxG1FYbLZlpSgpI8UHlK51AWsGQD7SqGQeMLDlz5xpFNtYQm5nD+ZcXeWyYmCToKTAicF0qqpo9CKJJ1kKhu474HZ+5gFykMh8IREIUiSJHUGM2n2+aUd9YwXY/q5eOAsxMFGeP+fv1hGZX9a3lmJQEZGRsarT5bJPVoQL56WfymuRdOX830f4xzOOhyONFkpSINAkL6XZj2NQFqHdQ7nLKL5Rd+qK451+nhY+h5SgK8CrHMY9pYoSoMLMc0e2ZLP56lWqxTyRbTWzSAvbCpJpBnd2KSPX6XvoYRENuuYrU2DYJyd3F6zpfSBs+chHRiTmqG2jDSkTPNkTlviOEbKNMBMBfUNKvCJkoR8rtA0kiDN5mLTsXIOKabn6tJgf1+ssGl214lWynOvQFfrGOUJfD+tqSwUCs2SibQf6aPt1oETL6FIJ6PFq23fOanDvB8nxf05LWYBbkZGRsZrQxbkvu6x7P8B8N5MKjU0F5UyDQKFe7HaO0tim8GjDBDCw6TCsumMeAEmTms+naunJQ4EaSmE0DinQSkEMnVVEyq1JwaMSdJJdUHT5a0ZpAvrpvZHWIQVkwGjtakKQmxCpGplRV1qCOClygg2TpdJTOrQlWY7bVNDOM0Cp7W+ptmEj7EGo+J0wp328aTC2iStawY8L5XvMsaQJOGUG56CSIc4J5rjapv98Wjlbw37n50unZosWbCCNNClWcYgzGT5hPOaqqvOYnEIY9KJiNrgSDPmohUkAw77IlnIjNeO7OdGRkZGxuudLMh9g9EsDT20bJHQ6SQVoTGylqqNSYlEoYVL9XU9h0XjiBFCgguQzkPa1D5MegJnBcYECOvhNfV8hQLPaz2231/tYIpUIDyBiEitgl0d4TusTpUkPD8AKzA2nUCk/ACsbQbVcq8gM62ZnbbfQqNdglURxg8BhxMB1vkIQBEg8YmNTuWlZIhREbGNCPwCUazTyV/T6jeFkyjrgyswdflMC3gmM+6tolgHzmIn49L0c9sKmrEIz6BFmNYgizZ0wyJyBdCpskG63JQyx4GyxhlHhpeand1fxjcjIyMj45Un+6Y8TJyY9jj5CNCquZXNSWFCCCQCrJmWxZ2OnHyls+JrGH8YW96B69iFLY7gchPYYJwkN4Lt3IXr2Y7t2Ilp347r2Yrr3gX5OgQhf/5f/wvHnNwGsgHopr0raJeqJlipcSp1GbNiqpYVmu5taBJbx8kYrSro8m7+4n98gnmntOGCCf6vv/sUc09uw8konW0uNCiHQRPpCOkU0vlI15xB3syUppOxDK4wii7vwrXtwbRvx/ZuwfXsQBeGsV4Fp9Ig2RhDIib43c8t5uxr24nKG9P97dyJ7tyG7dmO7d6BK+/CFUbAqyOEYSrglEgHVpjmK3VYS7PMZq9a4ZaxgJOpFa7fHvHXX/go3SdGxGoc51mM01NZ6taxnpSeUwc86aZqsDNeKw4U4B7o/SzAzcjIyHhtyDK5bxCccy2ZetJg7xBKHGRIrqfB4ndcwoknnQQoNq3bzAP3PcLEqOYTn/woc07sJJETCFXHOA26jG+6WfbIBn553wP8/Rf+GgDf70Eq3azZdbicQEiXTiB3sql8oFJJIyewyoFKJmWWlPJJXBWTmyBRQ4hchPEa/MP/+r/TiWheB0LqVNvBarycRDmFTdIA04oYRIwTBhBIV8CpBtob5U/+6r/gF9L1nPVQrsi2tSP88Lt3Y6ngfIeRMaJUIfJ3YHJDfOij7+a4uafgvCQNro0B4+PFJZ5+fBW/vvfpVDZNNks1bIB14KSelBTDSaTNIZwHiLRvIp6Ut5IOEArhGxJ/BJsfJRY5ckEO5zQWH4dC2DR4F26qcMVkkSzw0gLG17IeNqu7zcjIyDjyHNVB7pGexJE6GB1a+/s6nb3UL+fpurqp61nz/aa0lWhKgKXmElOTYIwxOCkwrrl8U/fWOYdRdW786HnsGd3Gv3zxEWysWPzOt/LBT97ILV/8Od/+6o8RyuEKw9z8++exdetWHr9rJ7LeS0AZ6fskaPASRDBBpTJIoeQT6xjPkxjjwKS1tNITmNgnn8zA8wNiMU7MBKrgsMaDRhlDTOA76mEVQ4K2MUJGaTBedtRrEblcLlVu8AUuDsB040sfkW9QTYbJFxVJLPCSdvAs2q8RmTp3//ABNqzaTlItoUwR5QKEFKhilciMpjq3QQP8BtJJbvvG3cQNiShV+PBHPsDA1gEefei30OhEWB/hxyRyAuMSlMzjJZ1IJ9GyjsglCC8CPJJKgUB14BIFXkJD7QIvxsUOZXMUVS/OGaIkRIsEQ0ziUgWJfFDG2TYE3qSbn3NustQhPf8Pcu68ipdH2v7hZiUPr7b10NsXpD4q0xUW9i5F2ZtD/f/+a6Rf7Pp+pTK5h3L8D7Z+xsvncMtOjvT315udN3vZ0Jtl3494kPvyL/JX5uZwuO23TpQXO132lS6Scspe9mAn2pTDWXOCVqvmtfn/M04/nfb29nTSltH4vk8URan1KQCSSq3Ks8+tSKs7p5UwaBMyd/5MHn/2AWqhQekCjz76KB1v76JU6GBkNKFYymNdiBBpctgzBZTuRAgf5yf85X/9HN+5/d8YHqjw13/xOR64/0EuuWwRQVHw6KOPsmPTIO9613to6y7x5GPP8PCdy4i1T7Ev5OYPvoO+vj7GRhrc97PH2LZjEO3iVMrM87Ak/NXffY5bb/smQ0Mj/OVffpa7f/oLFi++Er8AK59dy8P3rMAqH9U2zsc+cAPtnd24xOOeHz/A85s3EuRirIoQvkabOo58KhGGj1Qhs44vsPj6xXR39bF243OAwTmBCT3yooNIRyirUOTwXQlrSlgM+S7HH/3ZH/LII49y0cKruPVrd1Ot1iiWfd753uvp7G2jXm/wxCPLePaZ1fhBkfaOIh/84AfomdHG+NgID/1iCZtXjVPwyyS6hsqFJIFm8dWXsfDMi/iPr91OPUz7k56mDprqx0f+/G9xeDfKw2//6A4SjvT4H+0c6SDxSLd/tHOkx+9It5/x6pPV5B4mr3YNpFJqrwuxFeC2CMMQrEMJyPkeJokpFfJYnaCaGb9Go4Zsid03dWydE3iiwNIl67j26hs44YwOSjNjwnG49Wv3UB835JryWc6JVOzfeM3/tyaSGbQaR7RX8DojElVh9uzZfOUrX+GXv76LK95+Phdedi7/+o1/4dYffJ0LLjuDY9/Sjt85xod+/yq2DS7ly//ni6xcsZT3fvwKCjPrxE6jZEAYhliZYIIKor2G1xkRyyrzTzyJr3/9m9x2+39wzqJTOOn0Xqy/h/d/6iq2DD7HV//1yyxZ8gAf+NR1lGfHxNLi/IhcZ0LPCYrekxI650fIQo2IMd754avYPtTP//mnb7Bh+Q5m9MzGWkc+X0InoPARwk/rYIVIJc2EQRRrmKACzuML/++XGB+pUq1W+U+/ezODgzv46pe+xlOPPcE17zmXtuNrmM5tfPD3rmb71s189ctf57dLn+DmD9xIsS1PrEO8gqZuNacuynPOFcdy189/Sm08RjofhZx2jk136ns9vA6XI93+4XK0j39GRkbGG5cjnsnNeHFaQW3rb19f32SQ65yjv7+fwPNpby+DAE8qokZIEAQkWjNeqdLf38+MGTNxVrBnaBApJVprnJM8/qtnGRqZyxWXXUVHex/Lf7uGpx9ZjaiCThzprP69v1DTJ8RNaTE/oa4jCADP8szS56hXDGvXb+LqazVr165FKZ/t24fZM7iDmfPa0N4Aua6E/u2r6O7uYtvObVxdvozuvnbCbcNordNstzRYL6aqJ9JuqISlTy1lYjzE+gm79myn2OU49rQuSn2w8fE1tHcXmahUaEQ1emZ2EO8ZJkkSLr30ckZOGUeYEkXRy0++80uOndlDR3eeJUuWENa66V+7nZ07ZlMsFomjMaTMo+1U5tsYm2ocSIeWIU7GrFvdT8FvJ6kbcnmPr33rS0S2Rkehmw2bVnNN6Txy3SE98/KoQo0nljxFbcKwdsUm2oKlYAVSWWJT5fSzi5x4wmksefpB+tcPUpbH47SaNuaZcFVGRkZGRsahkgW5r3OmyiFU07DB4FxTExbQFlavXcMZC06jVCohsSjfoxFFREnC6rXrsEh0M0hO63QTVCBQUhFXJGuf3sGKJYO09RRYfNOZfPjT1/LtLz6E73emRgiQ6uJKnZobAKnmK2ibkC/CyAD4XoGkLikFPdRHhzH1HNWRmPpYgiqDsx7Ci+iZU0L4kgsuXoSqz8RL2ln5zGaoFdKSCN8hhMMYjbYJpVKOHQMRvgqIG45irp3axDBJ7Ch0CCZcg9jVeOt5Z+Em+ij7MxnYPo6u+ER1KPhd3P+zh9i4Zjcy7iCpOZQn6J3TzuCeMaI62CTAV+l4h2EDpRTCKVyQup9Za1FCoo3BeWkdtLOKuAGNaoLnwNo6p583n8uvvYCBzWMUygEEMV4OggI0wirW+Pi2DTOh+fW9Kyjl2lFlS6GoOOkt8+nu7OGOZUvxvVnYyEc0c/Buv48LMimxjIyMjIyMA5EFuUcJg4ODAGinJ2WkWjW6sTasXL2Gt551ZmqPaywWWLl6TTMTKSfLHlrrGKPpm93NNe+5im/c8q/kg152Dmzlnl9t4S8++6fMnNPNng0hnigwKYM1Wf/YzCcKi5OCMIb2dojqEYVCG7u2D+N3B/hembZSL4E/iDYNjEldxibGqzin+MlPfkM4Ar4GEQcgLPlOSawTcoHX7LMhDCPayqBDTbHYxp4do+TaA5QK0vpZY8jni9zzi2XUdkNeQDQOpVKeIAdhVEcpSaUyjm8VuAAMOGJ6+rrRDowYR0twJBQKOeK4jo9NLYptgmzq1Hq+xInm5D8raCt2EOdiTBLTM6eLd958HV/4l38kGodGA/7mHz6MM5BElra2DrSsE4kQJQRvOf0Utj8/RD7IUZmIuP++VVxwtuN9772RH3z5MfwgxsUKYRT7JwtwMzIyMjIyDkT2LXkUMOlmto99qHMOoZrOW06was1aYp1gnGXl6jUkxjQDYocExOR6Ak/4TFTH6JiruPaD50LXIOXZjrMXnkClUmdioprOXBepYUHavkFIt5fSgycknoTxCeju7aVebVAut2NcaqPbaER4wmtq9wryXhfbNlWYGKpzxWUn09YFHX0+iy4+B+c0Wluk9IjCBOccvufheYpaDTo7u6lX6un2jUm1caMiW9ZWCCfgnDNm090LhRJcdtmidFws5IqOJLeH0jyD6hvE6x3G5Sps3LKaRjLERVcdS25Gg/lnl5hzfA+NRoMgCDCJxloQ+DjnJoNuKxxYhycVcUMTh6kMWi6vGB3fTbEMKoB3vucctA7J+YKNK2JckuP8q07EnzfC/AsF7/joBRQ6BZWJkLbCLKJRuPdHq+kpzeDyt51JEuzEijp2uqVzS5j5SIozZ2RkZGRkHAVkmdyjgFSqjBcoMkgpMdbiBT5YRxhrVq5cjXOOuBksprW8UxncqfUdcaj5wffu5KLFZ/JHn/4MUko2b9vK975xN+F4nrxfSoNJm8OLe/CTKtLEpL+NLNL6+Ekv+aSPkqtiqkVKXjejtZ14be3kXBclbwZxdTf5ti5Krg/XGMNrdPHzHzzF29+xmAs+dRNO+6xZupmi2gja4sXd+KITpdvJxTPJR7Mo23FcvUw56GO8uhMvaCdv+yiJEFlv52fffpwrFl/Etf/5RKKaY/PaUZabTfh+gIzaed+NHyNKYqTLI0yRoU01bv3eLdx5+8MsvvZiLjnrRvr7+9m4fAw/mYXUQwSqgE7KyKgdz8VIW0CRQxmNjDvwky7ysh3FBMIZtmzYzbZ18/jY73wSYQrce+99nLNgNh3iJKhs4qffeZDLrjuPSy65hF27d3Dnj+6mMpbQ2TUDJvooxDOYGBnh3h8+wQc/+H62rJ5gV7/e52RoaYllQW5GRkZGRsaLIRacc8nL1gZ4JXTWXr6Ex/71KfeHEIIZPb0A7Bka3Esf7+XrfL4y7R/OGB7q2B2ofScjjF/HiHiv5aVTKF1COD9tRyQYrwqI9H2bQziJkxGRHMMpnT5SNwG+K6X1tKqBcRrflQCJdSFKSZxJXbysF6exslMI5yGdAicns5bSSRAWI0KQFuEE0nkIm8NZkU5Km7T0deBZnNPNffMQJmg6qsUg9NTxFg6cwjMFABJRQbsQiUA6ia8CktgiRQGBj2xmwhE6bdfkcdLh/Fo6tqaQKk+QjofxJnAyTksiEAhhm+oUOaSj6bBmmsdO4dki1lqsF2IxCOtN1jw766EoIez+fou+Mg9hDkdC58he/4fP60En8s2+/4fL0SwB9XoY/zfz9X+kOdLj93o4/w6fg0/FzjK5b3gkB9LSFDaHinPsXfHZ1OV1aRDlhEW4Al5coJXBnb5+3s7ENmNk5xyeUAgB0gUoa4G0thZTRDqJ1QahJDY0COVNypG1zA6s2LsfnuvEYZByH+F0K9J+q+b7jabJhUwvXuUCrNUImTS3E6TGxzK14pXWb26ohIcFNAqFCBWBUlT1BIVCARcrFAKnNEiHcwqswkU5XCvOdGmtsTAKzzZrmJH7zbYqPaWMke6GQziDMqW9joM4qC5d6zhkFUcZGRkZGRn74w3/DSkdkwHU/v7/pkIcigDVvvqb0/9tX6gLbMCXHoHy8aWCpqMaRuLLHJ4HxjQnblnRdBs2eJ4Hk/Jc9oB9s0LihEK7VM1B4CGaYalxDmPSbK7nefi+jxAG5wwm0c32XLp9LILWsU+zxAiLrySBknhNk418Pk9sNMV8Hqt1qrIgFNYARmFbJiAopFVMemsIM21g0slpKCbfky61/zXOYQ7p13emg5qRkZGRkXE4ZJncNwUHDiIPF9/3SS1TLSBQquXI1rIZbrq1YVMjCg1Ses2yglb5QDPjKVqSWNP72swsN7O900s9pJQ4LNZa4mawK32FlAKv2UaCRAg7zRgrrUduvRHHCVKmbft+QJjEFMsFwqRGrlDCRuCkw5c+2hqUVDiXtmlpPvIRDiemZcCdeHUdQjIyMjIyMjIOyhs+yLVNO9pWkGfTOVyvvRnmqxRkHvyxdRp8vnSak9Qm5zntv/G9vqgAACAASURBVP+JTXBOoGQAApJm7YKUDodEGh/RNE+IjaHotWEtWBo4IVKFhOm1uK39aZVLyOakuVZtgLBYZ1FSYYxBKQlCIPzUKllrjcMRuxDnDEo162Wb7m+TuWORZnVzuRzYdCeNtTjPUY9qCAX1sIZPDokgsVFTmcJP1SW8NFF7oKSscNM+FG5ay832D/EoHJgsy5uRkZGRkfFiHMVBruTI+tYf6fZfD1icTLAiIWnG0Uo0g03nEEIhnY/FIXBIKdBCY0jAS4Nha+Q+W9w7fHOuVR9hcc7ihAEBBgfKYv0wXUYH4Dw8JdHOAgYpZBq/HiCzamWM9RLiOKTglzDWELsQlQcUOO0wJod1XjPo9hDNbLLDTevtPgHn/rK40zPWey23/3B3esY6IyMjIyMj46Vz9KWD9goU5KTBgWXvV+v91mty9X2Wf9F29qe8sE/7+7b7gn6IF86AnP7Z4fPK1G62am2nNHDtPq8UJyROpG06aXBBDV0YxHXugK6d6PIAOjcK+QrWHycOBiBXQwofQYBRVWx+Au1VsV6Ik0m6HekmX1Y4rDTN7G5TB1hFuKCB9RpYFYEyWK/B5/7uk8w6uYBRdSwJhgQp03KCJEloGVk413y1dH+dwKqIuLyHv/zfn2TWqQGuPIJp20Xcvo2kfSumfSdhbifaH0NIk9bVNrPiaWZZTo6PcDJVnGhuf6r2e9r4TQ9+9wlwXxjQ7j3uL+Rgn2dkZGRkZLy5OTozudMyc5PBwb5JshdZPa2jbC5xmMnYl5pt29fY4bXhwMGQZG/VgsnyhH2W218i0smQoLvOde+4jBNOmg9INq3bwoP3P0J9vM7N738fTkb86PZ7cIkHQmKDcRZd8lYWLryAL//z11AqnaHVqs1VNt9sW6clHtLD2AghLMarceLpx+BLxfrndgKW//G//gaQeGoGAoVWGutilPTx8CZtiS0JVuq0PheFMnmMjND+GJEaxHpVEjHKZ//6ExQ6cggT0KhGjAyN8/DPn2DP+jrOKqQH1mqMSFUbBP7eg4IHDoxI9W2l83F22g+RyUB372PSMvfIyMjIyMjIeGXwDlendboD16vB1LZb2bD9Zy1fbJ5PKzu5V3/d5If7LG33eX9/0bOYXPZQ5hft275sGTs4cAetlz1Ytu7QanLT9tNsZtofOdUnO2UUYUySKgpIMVXj2nRJI1X7wllwzmJUyE0fWcSe0W186Yu/hMTn6ndcwAc/fiP//i+3sfS5Jdz80Xfg31cn1sNIqTD5Qc688HiWPfMbrKijioZYN6BgcYkir3vRkcYrxlQaI5TaSkRRhCd8QjnMsYtmoZRm1fPb8JI2EheSU0WQGuFHVPUu8BMwEs+VyLketLZQbKBFBecn+DJPVMmTyyuU57A2te81IqLuRvjJHQ/Q/9thAhVwyQ1n8q6PXsU3/udd6AmNIcb4EbKYYC2oqCsdGxUShjFdxTnoOEF74yRJQt704InyPr8aXhjgWqtf8N7rlVfqun+5P/heKZ3pI83Rvv+vxf3/YO1P78dLWe+V1Cl/ufu///X2vd+/ug9bX+/f/y/WLhz91/+Rvn6O9Pl3OLQmrx+MwwpyWw0dDgdrfyrAnQo698o8HkL/p9vQvvDi2Hf9A72/L4c+oevF2rf2YOP34p8fbPen/0gQQiCbUlmQBndnn3Em7e3tWJNgrcX3feI4bqompAoGE9UKy55djpMKZ9IKWykEiYuYd8IsHvnhz6mHDZQp8uivl9Bx/Q2UC+2sXr2aenIxJ581l1VLhnBC0DXbo3Omz8qVy9E2xi9HvOfdb+Okk05ifLTGXXc8zM7tg1AM+fv//uc8+OCvufDci/nW13/ATddfzrELDUZr/vTP/4R//Puv8Lf/8Bd885vfZPeWYdqLnXziAx+kd1YXQ0MDPHzfk2xfVaWto4OGHONT//nDFNo8fD/HXT+8n7X9q1FEqcSZJC1r8COEH6KUIDYhS5c/wcWXnIMKErwOD5fXvPPmG+nu66Fea/Dor55k1arVnLbgFH7nXe/lHz//JShbLr78rSw45Ry+9U8/w0VTphDNo9b8a4/4zfrltvtK9/ulbudIj9srzdG6/y/1/r/vvfuNcv68Vsfh1Rq/l8ur/f1/sPWO9P4fLkdq/F4ur7fz71AexasZc475f6YklV77VzpGB1tuOtMDhEMPcsulIgC1emPyvRSHc3ZaP5h8/0CvdPlDP7gHaj89YQ62HbHPa+/xmOrG1LhM72srQ1suFXHOUalVJpPhQkB7e5lSoYAnSSdtJTGFfA6dxHhK4nCMT0wwPDQCQqKUwtpUrsupEL894vyLz2FweCdOJEQVxbLHNyCTEihB0BNy8qnzWfZEP0IYFl55PIaIZx/dhHWGj372OvZU1nPrt36I0RHXv/dKHl/xEKUeydlvPZORPXXu+PbdmEbAytUraOtz1Mc13/3SLxE2YOFVx7N6+5OM1ib4xO99gC0bt/LjH/6IyNS56cabWPPcBkbGhvjMn32SZ5c/yY9/8FOGhgb4nd+9jhUbn8KqhMsuuZJ1yzYwMrGbsy87jh0DG5kYahAULBdfdRrDgyOsf3YHcRLzkT9+F9t3b+Tu7z/IwM5Bbvzdi3l+5zK2bd7OjDk9HHdmmR1jq7jpPW/ntu/+kGgkhzBFnHAIBDiFQqUT14TgcO8Rzu19vF+d629/67Usol/L+8ALl3+5/X+9vY7e/d9fJujQlk+/JN8Y4/dyt/PC63dfXpvxO1Kv18v952h9He75e/SffwfnsGtyX7t0+77z7l/aumlAeaQm6hy8/UMfv32Xe/EDbZuGC8Y4pIS+vr5mqUQ6aa+/v5/A82lrK6GEwJOKqBESBAGJ1kxU6/T399PX1wdI9gwNIqXEmAThJE/8+jkGR2dy1RXX0N0+k+eeXsfTj6xAhgGJ9Vm1bAMXXngh5R5FGFVZcMapLPn1k4DkmOPn0jEz4JmHltEzs8TugV04GXHcCX3s3DOICgTPLV2FTXzimkZ25HHaJ2oYcl4H9bgOQUyDKsedkUcUI5b8+gkaFcvqZRspeU8TRSFtXXm+8M//nY5uj1wxYHB0J5EaId+lGdgIlUplcpyCwOOccxZy1twunFaUZsRs27wDIyosWHgWXinhyWefJKx2sHFsK8vX/YYzzjuOe9eu4r777+HDf7yY6+dexNPPPMHY8ASKjjR7PmlBTJrR3c/hnrKaPrSLd/o6GRlHghfe/w/+oz2rPZ/ipV+/r6/xO5KP298IHOnxO9rPv0PhKJp4tm+A27KrPdwBb0mBHep2XuryB2PSMutlrrcve49Teg43jRicwzUDbpH6f6EtrF6zjjNOP422YgkrwPdzhFFMmMSsXrMOnNfcVnoxGpPgBQojfaIxx+ond7DqkQE6+kpcedPZfOgP3sZ3/vk+pAsY3Vln19YxFpw3i+HxAZz2WL9iG9Z10dXbRi2qccXiCxHjveRtJ1v7BxjdVUMARoPVQAK+X0DrGsYYyuUy4+Oj5Ap5hOfAB+lrKpUKypTIJTloOJbct5yOchuV+h4uvuEsTjt7PtE4BHmFFjVkYCmWoL29PS3lQJE0FE8/upb+x0KUySHbx/jdj7+Ly29QDI4MUqvVGBsKiScKFMo5xsZGmXfcTMpBmepEwsr1z3D2uWfwo68+jq30ohBYzJRJBGCFnqauMHXcj46bRyadl7E/DjWBkGaOhFAHXTLjwLx5g8rs/vN64Gg6/46iIDfj5SMZGBhIJ5I53czkpodeKZ9Ya1auWsNbzz6TUr6ANgaDY+WqNRjjcJJmmUIaICulSHTEjNndXPXuK7nl1n/Dl51s37WFn/9qC5/9oz9k5qwZ7N40gYpLLF+6ioXXHMe2HY6N67eRVIt4pkCtGlHwS3zn20+ST0DFYCMolfOIApMmEL5XIKxprHQUggLj42OUOwJqYQXjYqwGpzy6O7qJqRLLCBNbTlnwFnZu2s78U45j8dsv5d9u+QqjuyCO4W/+4cNYDHEMYa2eyspZi/QEWmqctFjr0LFmw8bnOe6YeWzetpm2thJCGkpdkkYyRk/P8YyPVAlNg0IxYOGZFzA8MMill13EY/esh4YhlSxTvNDNLSMjIyMjI+PV4vU7de4140jrjb5cnVu5z+vApJlbtddszlZmt1U8bhCsWr2Who6JnWkGuKkSg2JKb3hyfaeYqI7QcSwsfv/ZiO5hSrPg9HOOoVqtUxs3iLiIpwusX7Oe9hk5TjztOFY9uwk7UUbFnezaOE5l1HDNVfMJitDWpbj08osZnwjxPAXW4XkeUSOkEBRQwmN8pMbxxxyLFhPIoAHOUPQF/c+G2EhwwdXHExwzyMmX5nnXxxahyhpjI7RpEMWQy8MN7ziDRDcQHgR5yBULSCkRypGoMWR5FF2uocvDzDxFcuKp8xjdadi8coxqtcql1yxA9g4w/+wyC045i/WrtyBKhne+/1qeXzrMz77zKGcvOpWZp/hYP0RIB8KhXiDFkV1+h3/+H+0c7fv/cu+fr9R992gfvwNxoPE50t9XGW8O3jjn35skkyv3+bs3L0+C5pVr/9WmJVcmUM2/zd5IiTEGz/NwzhEmmpUrVuOcIzYWoby0ZoCpwLi1H0JAGCb88Hs/4+Krz+KPPv2HICVbdm3g9m/dTzjRTt5vx5o64YTPlpVj5HIFxnYavLgNLyhiQ8vd313CFTeey2W//26UybPymQ0UZTte6NPmzcY0AnKBIqwkUMixfc0EZ54yiz/5zF/w+f/9eUp2LrnGXFRlFz/57gNcdf15LLr4UnbuGuQnP76bRjVhR22Ytc/s4lMf+DgBZX7+859z/jlz6eA4do9vw1QLCF1C6XYKZhbvv/5TyCt6wCgSJnjmN8t57uFdmIl2Hrrrt5x30QI+90fXMrh7lId+9gzb1tRYeO5Cjp11Kt/80q1EUZlnH1vLTTe8l++s/xWukRaHmJacm+SAdsAZGRkZGRkZrwzizPMufclft61sXmuyTuu914pW7eKhSlgIIejt7QVgcHDwNS/0PlD7093YXuv+tI7fwWrjWv16Yf8dqBjtV3BKY03zeEiHMB6B6cJpAcpiVAPjVQDwk3aELYAROGkIGcWo5P9n783j7KjKhP/vOafqLr1n34BEAUEI+yYIKvsiEHRGlHEWEcdxmxk+6jjD6MzPn/rqjLMIjowOKgivwERABAQBQZbIHraEhCSsErJ2p/e+S1Wdc94/qur27U463enbSfVN1zef+6nc27fqOec5p+o+9dRzngeJQOEgTHjfFRgfjECaLEpkMRqksviqF6kswnfRaNxclErGhCnPwjLD0by0LkpnQYQ5fa0IEDa+r4sW5HkGR+RxhIvWHjo7gLaaDA1YCyKquqZ0mB3DyDLIAGsFxtiw0hkqqnQGUjsYYbGyjMBB6eZK20KGhizIXY7FTp5dPf+GM/T6ISufhYzmJZDD5Nff3UK99z/p9k8u+YOf7SlqPf9qZar3v1aS1l+tJK3/ofbL6PLH5cmtjwUyozOYxmtqsSt93tkNgTBZMl4OAG3DE1ZFRSbiUAdrJNI04/gt28kXRpJlFhgIggClwhAFKSUZITA2zEkgEEgMCoUMMkgURCEUsjx0CsfG5nBU0Dy07XbQqx6fLEJr3KCNrJQj9lnSvN1+28kaskOcSSFu19A0LFNxDcVUPOeqqff+J93+qS4/aaZ6/2sl1V9t7Kr+agpXqAcjcSQjbeK9uTs2rkI5ctj3QkNHiIl4bD1axbORvzeW/u/UyK363JGqMhe01oMxv3H/RhBltcFxHNxsLtxfMWSBm4x0J53IqJUZtNZYwsVw1g6rHlbR51gqwYEQKpQjZWVbLpcrfXeckU+R6v7LSK6pfDRS1oz6qSizuwmvH7uaXSQ+f+J96scDMpx673/S7Z8c8if379/uZKr3v1ZS/dXGWO03R1g9+rdGwlYVpd2TYxV7AqN/gzl0t98KJMJqwn6acGs1QiiEtVgz2uOtHTNUwSMfQwoRyrN+uJ/Vkd6ix+yR3sS4LrbVcuNx3LEedvg9awff2x0YW8KEj+OtRhiNRSOtQRsfISXCVpcDDgYXpQE28uRWDjXEezk4WRrzWSD05NrIuI3nlbCWfD6LsBbf98GAH3hYY0JDWIjQ+7sDhDVRxq5orthKBq8hKBka5YEf9hfpkstIAt+ElqvR4edWbr9FD3sf6osqb7I1w4SK4UZ5HV7ktjv/xn+ccV0/Jkp+0tR7/5Nuf73Kr5V6H/8JkAuToP+1kpT+amWy6H+Mv51O+6b1NchIPgm0EGJkIyTaCmlxMCAMHZu3YNHhIixGd32P1ZM5WhudyNDs2LypcsyxxpSMLqDKcBpJD8Oxcljfd+RRDI1kISL9YWjfvAVrBw1YIapLBbNdv6rvVke6c7XWIl0nDHEwgxkf4uMOH4Pq9zq6Ogz3pMoqMUaM/F5WQhPCfmptMSYIU6dZjetmGekmylq9w8+rbyqSPj8mM5Ph+pEk9d7/pNs/1eUnzVTvf62k+quNserPoQZPbpWjLEFs1AaNNTtujEAiCDDagPXBWkycL3aUx8U762Nor+38sXj82F0QhIZg5Mm1dqL0Z4YdQ1f0MXQ7HB2W0qi4N6s9wdFxK5+LSvsFAbHO46wN1phBj3gUg2FtbNQOShzxfsJaTGAwWqOERGuDUgptqCzOizNBKKWGhkOoqL0VjzhD3lsRectHem9MWNqjKp2akiCihPU28sAP6mdwG+ovNvhN1JXB8ynWT8qOmRzXj+So9/4n3f6pLj9ppnr/ayXVX22MVX97VUBgaKSo7TIG7CiDgZTOqJkFxi4zXKUbVwSrfh+W9NVV8k3lNTlXhm+fB6/a0IzZvt9h2eA4tnUs3m8hBMp1wpdSZLNZlOuQzeeQjkIoSSaXxc1mUEqRy+VQrhN+5rq4rouw1XG47PL7Bx98kE9/+tNDMl5AGBfsed6uqy8lJSUlJSVlUrBXGbnVDBphYoePyffUYwIp5XbG4Z6UPxFU67A67Vk173vf+zjssMN2+PfqcRjOnDlzuOaaa1i9ejWrVq3iRz/6EbNmzaoY1atXr+atP7zF+vXrWbNmDbfddhtHHnkkQRAMScEyXmKDPI7trS6SMVK8b0pKSkpKSsrkx0nS2JqY1YUjtV8O+051QYaJyU+78/YPyrdWRGEB8VZW2l2L+kP5tY7f2PU//MYBqPQrn28kn28kk8nx/PPPA6HBGARB1Xe31/n//PBHvPrqq7zn+BMolUp861vf4palv+C0006jVCqh/YA///Sf8cADD5DJZPjKV77C/73+Bo499lja29tpbGxEa43neWQyGRobG/F9n2w2y7Zt22htbaVYLJLP5xkYGMB1VRRC4mKtpVAqYqL5kM1m6e7tIp/PY7WtxAXncjk6OzuYMWMG/f2FIX0YPn9Gez/8b+nq2uSod/3Xe/uTJmn9JS0/aeq9/0m3P2n5tbKn2l+zJ7fauzeeV9Ik3f6k5Y+F4Ubq8DYopfB9H2stbW1tHH/88SilKovGtNaV/w8/zjHHHMOvf/1rOjo66Ovr45vf/CZvvPEGLS0t9PX10dDQwPTp02lvbwfg2muvpa2tjebmZoQQzJs3jxtvvJGNGzfy5JNPcsYZZxAEAa7r0tXVxWc/+1nWrFnDwoULaWpq4ogjjuDBBx9kxYoVfO9732PBggX09/fjOA65XI7f/va3rFy5kt/85jcceuihCCFobW2lvb2dT33qUzz77LMcfvjh24VvjMRkGL/dSa3zN+lX0iTd/qT1n/Qraf3VO/Xe/6TbX+/yk27/WNhrwxVSJhZr7XZ3XuEjfRfPC5DKJdDhYq3Gxmbe856TyOXCKmHVxuDwyf3Tn/6Uf/3Xf+XUU09l7ty5lApFllxwIdu2baOpqYn+3j60H3DkkUfS0tLC3//dV7jrjjtp37qZluZGfv7zG+jo2Mrhhx/ON7/5TX7w3//F4UceRltbG9ZaWqe1cNgRi3n77bcJgoAf/s+PWPvKOk455b3ce+89SAltbS2UfY9f33M3Tz75JCeddBJLl97Mrbf+gqamBjIZB6Rgzry5HHXUEaxc+SJgGIONm5KSkpKSkpIQNRWDSNn7GW7czps3b8ij+g0bNkVFGUKProny42azWU444QSWLXsEz/MGc+hGKbvi41155ZW88sor/OM//iPz58/nf2+6mR/84Ad4gY/v+7RNm8aXv/xlnnjqSVpaWnjnonfw5JNPkslkOOCAAzj44IM588wzcd0s99xzD7fffjuf/exn+cbXv4m1luuvvx4hBFu3bmXJkiXMmzePJUuWEAQB99xzD1/+yt/R2dnJ+eefT1tbG08//TTz589n5cqVNDQ0cOCBB9LZ2Um5XOamm26iVCrR1tZGT08PuVyOIKg9LjglJSUlJSVl4kmN3JRxMhhXDDvONxwbyPFiruH5dIUQdHZ2csstt3DDDTewaNEivv71r3PX3b/m1FNPxXEctnVu41vf/j/cf//9lYpkN910E3//D//AqlWrWLNmDfl8nr6+AVpbW3n99Tc59thjK/KUcgFJPp9n5syZvPnmm/i+z8aNm5k9ezZaaxobG+nvHUAiuOyyyyiXyzhSce+99yKEoqenj3w2R09XN3NmzWXz5s1MnzmNvr4+MpncHtJ3SkpKSkpKyq6QGrkpO6XaayuEYOPGjdH7wawEQRAM5rGNDNpyucyzzz5bKZFbnbUg5uCDD+Zb3/oW5513Hi0tLaxYsYIvfelLrFy5ksWLF7N8+XLy+TxKKcrlMgMDA8ydO5dHH32UU099P7feeivvfve7aW9vp7V1Gtu2bePAAw8Mq6fZsEpa3O5CoUBPTw/7778/HR0dLFiwgC1bttDS0oLneThOmMbsE5/4BF1dXUhExUg++OCD6e/vZ/bs2Ty3/HkWLFhAT08306ZNo1RK04ylpKSkpKRMRtKowpQxEYcYDK88prVPJuNgtMaJwhYGBgZ48sknKZVKQ9KPDV/AtmHDBg488ECuuuoqslmXuXNnc9lll9HX18emTZvCXLWlMlaHFdRmzpzJov0W8rGLP8oLL7zAyy+/zKuvv8a//+d/oJTiggsu4KILl/A/P/wRDQ0NCCFozDfQ19NLW1sbDz/8MF1dXVxxxRX4OuDij32U6dOn09TUxK9+9Sv6+/u5/PLLmTt3Lvvuuy+f//znUUpRLBZpbG5i05bNvPOAd7C1Ywutra309/ePW59W7LjMcEpKSkpKSsrEkBq5KaMSG6VDvbpxsQsIggDHCR8KdHV18dRTT4UlekfIUxx/1t/fzyWXXMI+++zD8uXLWbHiJY464mguuujDdHZ20NzcSGNjM9f8+Mds3ryRl19exR133MX99z/At7/1HYLA8MlPXMbBBx/CqlWr+Pa3v80///M/8+STT2KtxXGcSqywtZaenh7+4StXcPbZ57Jm9cucddZZ/P73j2OMIQgCLrvsMo466ihWrFjBb3/7Ww488EBc160snGtra2Pr1q00NTVRLpfJZDJ7chhSUlJSUlJSdgExb968mvI41JIGYk/l6BVCMH/eHKy1bNy0JYzXJDS0tB3/wqGxtj9p+TujYsDa0JCzYnh7TCVVl7WWTVH7h3toT3nvyXR3d7PipZWjHK/6uKoq24JBWAdlM1hpCegPDVUTZmgwTik0WHUOISRWGrQ1OCoDwkQxuINliitV5iyAHGyHDY1xUWlbbQvH6mH+704mQxqg8TIZ9J/0/Knn8auVpPU3GeZfrdR7/5Nufz3Lr5U9Nf5TIiY36Qt50vJrZeT2G4QIjdlly5aFHw2btyNPZFUpZiEEGGORQmCNQFpRKdYgTFh1TFgJVR5li0TFh7YS0BhDGAMwxLCWQ/4f1rsWQ2v7pqSkpKSkpOx17LVGbhzvKOxQQyv2PhrsiLXSJpqk5Y+FkT2uMmq/xFpDaDTqyPAVIOMsCtGWqPwvUbjCTnpprQAdLvCS0UwU0qC1BaOQQoATGqMueSwW68bHDz3MWBvWbKsSI6ysineNjdzYaxt5mIf0PbV5U1JSUlJS9jYchKrxEDVYB7vRXW2FBAwCGRpEMoM1BouEqrK0u6/9oXwSkz9WRpcfGpEKISXhfIkNX4O2FikVGFvVHFvJprDjo8uo+ZJMLoO1OjRBjSF0xkqUlCAFGSf06BqjQ4PWWIy1WCGxFpSQIMBEwlXk+UXoSJaK2h+FMcRxxVZghcAIRThPxkvS45c0dXx3MCn0n/T8qePxq5Wk9Tcp5l+t1Hv/k25/HcuvlT0VrjBrzj41HcDUoCQhRM0etBFXqFsJwiAJjZhp02ZhBHhWDYkpjfO2joedxpQMk986fRYw8fJr0V91GMJoK/3bps8AwDODqcCklJXct3E/hufGHa39IabiLUZnAAMqSs0VNGDxsZn+KCa3EWlUGKEgDMbacCsMWIljXUBghcaio1CGwRhhVGT8GhFJ1lghRl2BqeN+Dfu81pgqSX3XH6/l/E+aibj+1EoS18/qLCf1PH61krT+JsP8q5V67H/S45e0/GqSPP93q/1XRc2e3JF8dWNC7Oxh9hjli+rH0VB5PC0AFNaGOV2tjGI7cTHCxnEMFc/euIgNszHIj/VshRvqbILkj2fvOGTCVi16G9nUjiqURZEt1e23QhKYUAdC2dDQFeG9oUFEOhhBPxB6Wx0Pg4+WGoxAiTwgops8g80OYGQJ7fRirSUTWESQQ1kXawVWRkUphEBIgYlyc9kh4yAR8YK06LgiHo/oszh4ZHgmicG2RuNVNd2ttdvFIO8SQlT6Wq+Gbk3nf9IIEYbERCQxBrVeP8fV/qqnSHU9frWStP4mwfyrlaR//8crNySh8ZtA+TXbTwl7cmu3/0b/zl4UkzuyL25Haaxgoi8qO5cvhQi9jrtN/ngZxYdpxQ4NOWtFJZMBEMbRMpgyzBhTSb01RE5VAKwRAcYZIHB7IVNGSIsu5XCDJkTQ3/4PKgAAIABJREFUiBEa09pFoHoJgjLCKvALuEEz0p8OQQ5stfFsMfhRc6vLB5vYcVu5MYmbPnwEKrHcO9fKpKHWFaqTYw4mT73rod7bnzRJ6y9p+Sm1kY7f5GUvMnJHxpigMgmNYI+HoVTLT5JBD25VloLRmiWiBWbEBpUhNmYhDk+wlS2IMFOClFirq4wwWXW8EOOUyc0qc9oH38/CRYsQwBuv/oEH73kCr6OEcTw++3cfI9OsEV4W7cGmTRt49P5naF/bjyMkVgYYGWBFVGzCgIxDFIQAHXlspUeYXSEbZWwY9MKHC9gGdRTuMA4FJ8BkmFcpKSkpKSmTEUfX6LOq7TdWoEf/0igN2PkRNKHhoo0hzKdalRkAhngjdx0RSUhO/i7pb7s0BAIxiv5iOYjB6J2wEER4QEcILAalFIiwqEI2KpIghMT3/bDkb1VoRGyY+aKfi/7kWDZ3vs4d37sXPIfTzj+ej37iAq678g4CO4AWvdz8v7fxxovdKOVw0tmHseTjp3P9t++j0NWF0xZQtL1Y10daB8drRqGwyqNUKNOSm4nWGrIFymWfJjkXU8pgAokxoNxhscM7mc/DDcpaY4qMMTWFqwyvQLerDKZwG39c8Hh2q77JEjUoMDzO+OvZWLuzrCKjE+uvNmrrfzCe/atj8cfR/okav6RJSn/Vh0l+/tVG4r//48lznvT4TZD8idBf0tdvXWs9sjHUGZgSnlwAariY7BXyR2CwitmO/169kAyoLDSL9z3ssENpbW6JFp8FuK6L53m4rhvuL6C/v5/nX1yJEApjzGAaNRswf9FMHnn+HgZKRaRu4OGHHuXC86fT0JCjo3srIuuTadQUigFNTfDMymc4+X3vwWkw2IEy7vSAD154Bvss2I9ywed39z3Gyy+t4l0HvYuPfuQj/Pd//QgTeJx82vEc8I7F/OS7tyB8gSMyE7K4M+mE5rV7cvd8+6sr59Vi5I3pScQo1KP+qkmi/RM1fpOBpMc/afn1TtL6S1p+EtTb+V+zkTvaj/xIXqKJesw60kKhoY/k03irkTCjnGPVcbVhKi8zRNelUomWpkYcKRDKIQh8GnJZyuUyruuisRSLxUouXcdx8H0fIRQCl+WPvcxZp5/HvX0P0bmpQLlHcPOP76JRziKTyVEIugly/cxe6OD7Ae95/8G88PKT9BS3IRsy/NGlZ/PWhje486p7WLjvIpb8yRn03Pgab65fzdo3XuTEDx7IY08v49ATF3HztUuxRpFVObTWZLM5fB2MS28iXnNWf9eoCWU8Rv7Q82F8d/ITkoIPsLYWT8JEDH6tldVr639S4zd52PP6GyI98flXG0n//tc6/5Idv+T1NxXOfzV73n5fr+UAoyl7Z3+fCC+YEDs+TrwAKv5/Y0MegIFCcZjs2h73juUiuXvl18rYxq8hn0MIQb6hkYaGBhobG2nKN7B+/Vu0NDeTy2axWiOFwPd8Mm6GQAf09PWzZs0aZs+ZSz7fQG9vbxi+oAOsKrOx6w0GCgVOOv4UTjrxFBpyDWzd0omjs5QZ4H0XHcq0mW3Mangn737XYUyfk2fbtm7eenUz0+e2cPwZh3DTTbdj+hro6ewjM6uPBYtmsW7lRtZv+AMf+NDhzFrUwuuvbmD102/glKdhyi5SCrQOwty/40AwdI7VI6KS3aG2kIna5NfGVChLOVmZ6v1Pmsmg/6R///d2drf+kr5+187o7Z/8ZvguI4e9ppr8iaVyo4DCVrl9hQknlw4sq9espaevr1LQwXEcSp5H30CBVateDtOOaY0wFkdItNa4GYEjXcqdgnXPbOXmHzzIjT+5g9YFGT76uTPwVDdSGfp7fJY98AL33f4M9yx9ipt/9ADzpy3ilLOOYdp+Lu3t7WEkiNcIJktvfze5vIMpZ+nrCXhhzdPMf+dMHr73CdyglSAwZBvCBxium92+v5a6z12ZkpKSkpKSsjdYYSm7lfhOr729nY6OjiHb9vZ2hKMoeQErV62mUCqBlATGEBjDqpfX4GtLEARIERqWcbhDEATMmDWdj//5xxgo9iJd2Lj5Le5+8C7m7tvK7PkzCUyAm3XAtXi2TG+xDwG8+eZbzJ0/ny3tm5m7YA4lDwJ3gJLtY9q0afieRShDvinP4kOOpGNjJ6ee+n4KXh/5piz9hX6UUpTL5QQ1m5KSkpKSkrI72euM3KgWQOU11eTvKlbIqoIaMNwDXVkkJiRGDOaetVKgo/K9Qgh8bVn18hpKnoevNS+tWosXmMqitcpjESWjjUt3/zaaFwjOuORIgmmbaZhvOOzYRQwMlOjvLmONpCy7CRp78FpKZOYO0LwfvPuoA9j2dj+db3ts3dLByeccBDO6WXREE4ccfDjPPPkioqXAORe8l9eWd3LXDb/nqBMOYP8jWynqLhoacnheQCaT23OKTklJSUlJSdmjiEOPPrmmh7PJx3QMzVow1GADYUNDa/bM6QBsad82JPVSLSk8BvPGJim/NirFD+zwimRD+yWEqhRWqJYfF32I8+/msy7W2sjAVRgTIKVkVlQWeEtHOwaLxOJnO2l6V4GTTj+chfMXoZTijbdf5/EHV9CzLod1SvzVv5yN0+zjlmZRLlgC28vq59fy+zvXorVh2jsFp557EvPmzKfc7/P0shd47rkXOOKYQznrtHO49gc30l/s5uTzjuSgAw7nxv/4HbavCWGcwfRZVZkv4vK/g5/tuGJbPK6iUjFwePaMnVR6wwBhHuGxEuf+DSNGBksoSzt88eBIcrdvR3XM+vhTiKUxuUky1ftfK5N5UfBoTAb9T+XzP2mS1t9kmH9jSSFXx0bu2FNyTYyRub3RMNb2T04jd0+lNAs9vbNnRP3vaK/038oygTOAkf7QPYyL0o0gArxMN1ZohMkirMSKAGEdlA69sEaU0AQIBcI6CJ1BCIGnCzhS4tpGrNX4mQEkCjHQTIZGAqtxHKcyf0ODUyKi8bUyNEAFYTaIXN6lVCqRcfMEno9UoYdaWhFqUtjQMDbhcVSUuMSIsG/SumAlRhgQFmkF1prwfaSnEBPGNYvQo24ESEtUllhGxnfcZotf9hBKIl2J5wWoSN8mCizOKDdqR5RtxABWgmJo8PEY52GllWKwDeMl6Yt0rUyGi/xU73+t1LORNBn0P5XP/6RJWn+TYf6NxY6ZInlyzbDtVJOfNDvutzBZXG/7xV+DZMkFjTs9sjAtAATWQwiFshlQEkd4EFisL8m4LtbPR7l7JViJE1VpkzZsX+xTldaJDM/QOLUacpk8hUIv+XwW4xuUchHSoLVGSgcJGCsQyEot8NAgr+p3nGpmyKo2gYwM30FvqowSbA+PJJJD9hPWggXlOpVKb0IIlFRhejQ3gxeElfaiGnVh4ePYe60tqIobf6c6TklJSUlJqUf2upjc3cfekS1hz1Nl6I2rIMbO9C4BgZSKjOPgKoFUIKxG2NCjmckqtPHIiBwiCEMLpLIopSoZIgabZxFWIi1YNBaNQuEVA1qamikWi4N5fpE4jkMQVbBTxkEaNTR1na1quzBR/4PoVakfh0IhDEgrkFZUvMCx/oww2OgVU4n5VhIrBUopGrI5UJZMxiXwDdJKrIQwgkZizWB1MyFUVN44PFglH4iVkTE8NM1E/HcTveK2pqSkpKSkTFamiCc3JXF2U8U3N5tFa40ljBkWUWxwbBZbLEqF01wpRRAEwAgJtqWAuJqbiSq8IWjIZenr66KpsZFSqUQ+nwszM4jQWB5M1TfcGK8ORbA7/I61puJdjQlzPyusNVUxt1EpaCuH6FIIgdYaD4O1lmw2G27dTBimEXhRf8JFghYdVnobqRxidGwxhvu50BAe/XspKSkpKSlJkBq5Y2ZHC4hSdp9edrwAbrhszy9iBZEBJ7EahJBYpQGBCDJYYTBugXIQkJetWA2BLWFlHBYgiK01rcIwBYGLtBDYMr5vyGfylMs+juPiBx4ZRwzuJwRWBFFLQ3+nIaykFocjxIvDpFWVUIY4PlchMToydIUPwmJMfGrKiqEbhlZIhAUrNGBQMht5Z32klPieQTqKkteNEALHZlEorLAENkAqEcYfiyguvOKNtZFGq61WM2jtVgz5amO8Pso6pqSkpKRMTVIjdw8wlYPjdydWGKz0CYSPlQZrwc1kEFaF3koExtFoa1ChLYolwBcanDLaBkjbMDR+VoQLvERkWAoBSkkCG4TyHA9rAoxwMIFBigxDDfJ4wVi0cK3ioTWV71mihVuRNzWwAY5yw4VoMgpl2C4uV2KERdo4bMGgVZmi0w1SIwKJwMHkJEiLNgUcmcV6YIIMVoiw/5W5GEbqEqWFM6Nk14iNdCssIja003mdkpKSkjKJSd2SY2Z4bGgaoxsysRXeBvMLx9GfO5ZnhcRKjc4MoBs68aZtIpixEa9pM6ahB6N8tFOi1LQZ09yBRODaPL4oYnN9lDLbMA0FUF7oIo1fUR+MDLAiACXxjSawZch4FGQHX/nGF5i3cAY4GiN8DPFLV9othAIpsDLAyiD6PMAIjZF+FGMb9lUoSSACtPQx0qKFj1YFjCpilI+RgzG5RvrhMQR4bh9/829/xJzjynhNnfgNXQSzNlCe+QbFpg14bjuB04txyli8igaFUGHsrZVV7RUgRZUuwvdCgVAMvhciMsDjV0pKSkpKyuQk9eTuYaam92sX0r1VqWf7HLBD0bJEZlaJs88/mX0W7gfAhjc28ODdv8drF1ip+fzf/wn33/8Arz/WR1a2IpyAafMb+dPP/Bn//u//ifZdFOCrMggTLh6zkvjU0BQhYxAE+NLDqgH+/+9cQcY0I5SDVrbiBRZW4pgc0jpgJFZoArcEBOHCNKvAZkKNSA9DEPbPSpRRGBFgMmUOOHghSM0rq19H+q1IkwHhhSEGNgp5MFmMKlNyNlPMbWTA9fn7y79GtsViCTAlaN/Qw6P3Pc2mNzpRXjMKgxEBFh8rBK5SYb5gwKhKfolw4V2UsixcnCaH5A+WiLAwyFScyikpKSkpdUPNRm4tudIq+VKr8sbu6djXsbd//O2KV9xbu33i/YnX355mNAM2eixe+b+JFlaFj8lFlJ0gLvurjY/ruhWjytdetKes6BArEFi0U+CcPz2Grd1/4O7vPYgJJB+48Bg+8onz+PmVd6NNmSDbQ1l1Us4WkFohsTjZHAWnC91QwA5k8HQJk+nDuj4msDTKVsxAA8YEmMZeZE5THvBwHAflCErFAFdlKJge/Fw/mRaFX/bIikaKPQ7N7kzKfRo3K/AznXgUcIyD8LO4wTRyuQwDegOyUeNLH2VzeL1ZUAFmWg+zj5lPNuuyatMWMp0Ka7IU5FbcnEX6DqagaJRzwny70sHHRzRDSfRw902PsGblWhzH4YSTj+eCP30/1/7oJvQ2F9B4qoNAFtC+IUMDjczAGEOf306uMYcuCXLZPMVCmbzbhPLDwhlhJoUwHZmNvLhWhKnJdi01npyw+Roex+7y8YZ+v36fxtR7/5O+fiWtv/HKrzrCDuSPVJRm95D075fY5Tvtibv+JE0y+hvSApKcf2G/R/+ek/RgJ+3ZHFv/qw214d8fff/QqAsXKVVXmRrr/jsjaf2NRnwChhfzwSpp8aPuwxYvprW5Jcp6AK7r4nkeWcetlA/uG+jnhedXYOPywBakFASBx/xFs1l2+30UPB8ZNPDow8toPXc6uVyO9p5taLcPP99NkC1SKFmyrsBzDL7qJ8j0EzgB82bvwxnnXcjMOS0UvSKPPvg4b63qJpd3+MwVl/HAw/fxvqPP4dabf8mG9j/wD/98Bbf//G6crMMFHz+XkuhGZMtYT+BtyXPlv/yQtrbpZBolFyw5jzkLptPf38/Tj7/IuuXrMY0ZvviVT/HLXy/lfaecSaPbyuoX1nDfQ3dzwYc+wIGLFwGG/eZ9nGu+dRczWhv5i09einWL5LIudy79LV2veWhbDmOFJQQKrOvhuBbHBW1LrF77Ah/44LEE2X7KjqYp38afXHIRM+Y00dvfw+OPPM1rz23loEMO5Kw//jBXXv2f0OBw+JGLOf6wk7jmqv+LtBZpqgzbeL5aBhev1UDt15/a5n/S17/aqe/+7+r1a7iDoP7nz569fk+8/moj6d+vpPtfK0nrb1dJ4vx1ki1QEKVForrz8XakkqdyyPdqV9Ku9H+wnOrEnRymxjv5WH9jLRE70fobzlB9Sjm0jKyxAUKKaNGVoFgs0tzYREaFRQ18z6chm6NcKqFcibVQKhTDPAYWrJRorTFaopwszz22hrNOP5/7eh+ha9MApV7B/17za1rELLLZLAW6MU39BA0lMnkJmYCgWUPGo4wmM2uAsy8+kY43Orj1lqXMXdTGRy/5GD//yS/oL3fi5TvItSl+cOV1BEVLbm4OX/XjZBVrVrzOa2t+TNntom3/EpdddhkPLltO68wWimoLl37ur3hl5TpuvW0pCw/elyVLltDV/Qt6S9sYaNjMrHe28ovrfklr03Qu/qszea1/Brff8hAXlU5DOYJ77/gdufwsPv6JP+bp5x7jyRceYp9D2/jIZR/nf/6/W5A2wM2Dkw0LmGl8aBnAnVXGsbD4uHey8qUX6S8OoFoLfOyTF/PW2re57dZHmbFPI3/8Rx/jF51389Iby9lvawMnXbSYxx97lpM/dCQ//+4tCHJg1eDICsZcGW2882XXmIgLfD0XaKn3/u/o+j9ae0bzHO2q/FpJVv7o1/3hf59I/dXKYFz/eG21Pfv7P9lIXn/Jzr+xdTrxmNzt3e2jKX1iPKC7Tm0nw+6649r1xxV7Vn/GmIr3VgjBrFmzIumh8fTKK6+QcVzamlsQGBzlUi6VyGQcvMCnb6DIK6+8wuzZszFWsKWjHSklxhgULssffomOjq2c9oEzaG2awcpn1/LMshXIfoFGk8lnOebYozhun30x/S5u3iPTBL7vIx2YNT9Hy2zF//74d+girF+/kWeee4YT3380d97/K7Rb4tkVz0KwAIykFHQhc+AFZYSAhnwe5Zb44LlnsHrlWla/uJayHzDn0Bw2N8AjDy0jp5pZt/oVXjt8HYcevT+PPv0HinTzwksv0r+1gaC/i/Udr9I4XZLJgAwy4FsUDj69/McPvkVLWzO+COgsdVAQ29jnnXN4ed3LFIr9lMvgRevnjjjiCN71jgPBusyZO5u1r79EGdj/XQ2IhgGeeOxJCt0BHltZt24Nhx19EG/dv477HrqXj152Pi3zTuR3j99Le2cXypuOE4WN1PNPQcrkZTzX/3rzXu1Odt1ImVz6Sz7crr5JWn/1MP8SN3IHGevPaFI/t7JqW88ry3e3/obeqYl4UZYIizXYivyw6pa2gtUvr+XQQw6mpbEJtI/jKIolj5LvsWr1GiwOxlpktLrfmADpCJRwKHUL1i3fwpplD9A8K8d7LziEiz97Oj//z98gJZT7Nc8+uoa3HltDC3Mwqp/p++a46JPn4hvItTh0DXQhyGDK4OQFhd4yM6cLhATf17hOAyVfI4VCOQ6FQgHXVRinRLvfzntOPJppjXNY+pPfkJfzwelj/n5taOvhFSReUZOf3sbmt7ay8IB5BBZybhNSZ8hnWvEKJWwQ3gj5PniBT0OuiXLgg/J537kncPDhi2nv30DRbccon/5SL25G0dTUhOtCNgtWK1Y98Rarnn0FqfOURDcf+ZuT+cCS+Wzd2kGh3I0NXKTfhC5YNry1hYMPPgTPGHQ3rH1+DSe8/0juuflWZGkfsmQrY1XxuMnoCcDOVgTuUcZ7Pg59olG/7C3935Xrf3jtmBj2Fv3tGqlRmZIke3L+1e+qi5S6YuvWrXR0dFS27e3baG9vR0oHTxtWrV5D0SuDFARGo7G8tOpltA4L7CoVGck2rNyltWb6zGlc8mcfoVDqAwVvb/4Dv3n0bmYuambWvGlorWnItiCCHI7fTLFTYAoZTNnFaoFSUOgLmDNzDkW/Fxo8iraPprZGbADag4zKh09crEIpl5JXprW1mf5SH4EzwPzFDZyy5AhuvvVGQFDwBpAZQfvmdhypwPXJz1D0lLuYNW8m/d1FXOviFy3KZvGKBkflAMKFbTLMbKCljydhzqJm3vOBo/j5bddy8+338qu7n8XJStysxJiAQqGAMeBHaXjLfoHAeKHOMoo/rH+dWbNmYEowrXUmZdOP5/TiiwEW7DeH7u5umnIZpIRjjjqejX/YwnFHHI6TtWjhgQgGBzEt45uSkpKSUkekRm7ijDe/7GTJ0ztaO2RYtjYquyujxWPxNg4+11hWvbyakufh69jA1QghkNZgjKmEPFgrEFbSM9BJyz6SUy8+DDNjE/n5hkOOWER/X4FCr4fQilKpFGYGMJKmhlaUVThO+ABD+LD11RLb3u7j1IuOQc7rY+6hDocdvz/PPPYiWd2CCSQZJ4sJLEJIcrkM/YVeGlscbN7jjEuO5NfPXEe730tJFXBay2iKtK/vpdjr8b4LDqe/eSsHvKeVufu38vKLr6G8VjIyjxIS18ngOA7GGDzPQwQQBAGqxaN5HsgGjVEBCEs2B8efOB3pSKywFP0yuYYGhATHAeOU8Ju3YWaVKLdtJTvH413vOpjuTYY3XvDw+gTHnXEQmX0LzD0sw36HzGT16jWUC5YPf+RsXnzpRe68dRknHfd+Zu/biGjui/Ly7niEZX06sVImFSPlw95d+00VRtJPqreUPcHkmX+TKFxhdyKHbWtjrKkrxip/149XX4TlY+OtrETdVWJrlQIMJS9g5arVWGvxAoNQDuigsngt/N7gMculgFtvupP3nH4Yn//MF5BS8uamP3DrtfdT6nFoVNNpFfvQEMwiYwK0Z5CZHI7XRM6bQaPfRtAD9/7iMU497zj+5jNH0dG1hUfufYa3X+mmrW0WjeV50N9IRuSQgYsZaKAtO59yr+DIdx/FjNwCzjzxQ5x/xFyamY/XDVf9+39hChnuvvkRTrvgZP72C0dSKPTz+G+fZ+OrfbQ0zaTZX0C2PI2eksUVLnk9h2ksQhYKrHr6dT707rO49KOX8sPvX8fa5zbyV5d8gUAUueeRu8gcNoMGZyatmV7obSFXmIns78AptfCRC/8Me4EFrSgN+Ly8ZhXPP/QH6Mrxm6WPc9QpB/Glv72cDZvX8+h9y9n4Wi/HH3YaC1oP4r47H6XcIXn+0VdZcu4fccM1t2z3MHb7jDPpD2ZKSkpKyuREHHbsyXvcHxMHS4eppAY/253yZsyYgRCC9vb2IYHaeyI2RAjBzJkzAbaTXwt7Sn8TQ7UxNLxy3I6+NzQrw47Gz6gyWvVhnACrIx1Iiw0EWdOMtZbALQASx29CGBchNVb4aFVGownKBiHCR/ODsb4ZhJ8JPaq50HOc0U1IKSmZXlAGqRXKBZ0pYoRB6SxKZxE2rCZmhAmLQVgP4URhFtZBBmFognG8MK7VyyEl6MwAxvoonUVKiUcprDZmB/UQVj0LENbBCfKAoCwGKPsFXJXDGnAzkmKxiONkUCiUI5FCIUyYks0IDys1SglMIHBMHqxEqzJWGISVSOsgrEAaB2GyCDvyvfB48izGCw/Gm0Jm6PVDVj4LGX11/lD59eeOrvf+J93+ySV/8LM9Ra3nX61M9f7XStL6q5WJvP6PZf9EPLlJrO5MchJMdH+rV1ROppWyY2M0b/qO/76j8ZM6i9QueNufOMYYpBBkdH7ocbVE4OIEORwgYy060JX9pZYVj7FvfShCNpslMAGOdMIKYTo0Wl3hYv2h7Yof4cfrsjJCYLx48Z1AWxN6pkthyIZ0QGsNAy5uVbq1Jmc6fsmvtGX4OMf6kLqRBiHAhJ/5fT7TXZeB3gFaWlrwiz5Sysr3q+dN6EkPj+cEzSPrfKenzp6ff/U35yeWeu9/0u2f6vKTZqr3v1amuv52tf+JhivsHiNtqCdwZK9pfBewe43fwcfx2zPe/tfnJB9fqMjOvN6h/sLjSjloxBljUcqtLFTbGVprXNethE5AGBMrhCCbDb2qpVIJpVTl747jhN5Wz0Mpd8e9jcRaMRiWYa0NF6NFnxtjCIIA13XJ5XIV2caYMJZYjq6zTCYqE2wM5XKZtrY2uru7aW1tpVgsks/n0VoPuQkAqvqzM/1Mbu9AOP7x+b4rlQvjPu/+8393Uu/9T7r9k0N+PV7LJ4ap3v9amer6G6vj0hFjLiKwG7B28BIxYWM1mKIKosuQtcT9FFZHci2C6ovcrjFWBSsRytxefvjPml2XX5G9W/S3p4nmn5UgzHZbYWWoP6PD90YDGmEVQlokCovG6ij8JHrZwIAwSBQIgzUi3D96D6FBnM9GxrAJMEGAUgolLNYahBX45TJKgMTgOi6eF6CEBKtRwiKsv337iR+DmtBzLG0oUhjQYbuFDT/X1hJ4BbS2gCGXa0ApSy6Tw5gg9PJioswGg8eN8wwX+gfCMshC0NSQo7+3m5nT2ygWi8yaMY2BgYGwndFNQGxsa9/f6Q1Y2Kfd9AQkNrijf7UcZ1zzf6LkJ0299z/p9ter/Fqp9/GfALkwCfpfK/X6+z+B589YcNo3rR+/kBrZU0mMhRA4hKmQOjZvCh9lj8FLBqN7Escq3xWhN61j86Yhx5zKd2JDGWYcVm2FsDjRqsyOLVvC2FnpEFaLE8go7VY14V2u3slxh6KUChezlcvhfHHCCmxa64onNggCGhoa0FqHxSSGzKEdywnzA2uMIYyDNWEcq5QOWofhCBaNFA4IQ8+2drTxsSasDpfN5IcY6RXjPzJyM5kMhSBcnOf7Po7j0NW+CQgLXsQGcOyFrk7FBtV623Es9GReWDbVk8jXe/+Tbv9Ul580U73/tTLV9TfW/jsk6MkVsIfuQASCMAUVViOw2DEGLe+sjWO1T4UMPX82kk/0SH0s8qfORNY72QoEQTR+fjR+Xhh/C8TO+FBXoRE3mAZgpONW7yMI/CgfbFRu2OhBQzDQYZ5egUEHHkEQIIXAmqBqbHYsJy57GLZZICOD01h5INAiAAAgAElEQVQdzS0D1hKY0Gh2lERJFbUrgzF+6FGFaB6awS2gAygWCrS0tBBgKJcKZDKZ0LCVIDBYE97xhx5rWzFyQ/3FRu32xmz4pCPBJz2jsOeuH5OTeu9/0u2f6vKTZqr3v1amuv7G2v/JkGi1Rsyw1/Z/D3+ow1X0g/+fmJWVQthRX9Xy43bGfxv9+JPdwB2u/119jU51POmOVmZWL8QLvaRjb33s6Yy9t5lMphJzG3tqY69uXISi+vOxEO87tJ1h2998801OPPHEite4YlgHAcVicUy62bZtGyeddBL5fH6IjmKvbXUc7hADt+KpNVXH05XPJrOBm5KSkpKSMhp7gZE7OtWGYlIpU8byWcqOGcv4nXLKKRx22GFDHsWPRcczZszghz/8IWvXrmXVqlVcffXVzJo1C2MM1157LT/5yU+w1uJ5XrhwzHH43Oc+x9NPP43v+6MePzaM42IWZ599NhdccEGlbQsXLuTJJ5+sGNlxahSlFPl8fpSjh/hRfK3nebz88sts2LCB9evXs3btWu68806OO+64ivGrlKoYu0EQbHespM+VlJSUlJSUicKp5x+y8Id7tPar6MdaIgSENc8nMk/uWPaP2xm2I/Sxx/JrFF8DE7M6M+7AaPdL28d8wugxyXEbq78XeyHjWFMhBE1NTTQ1NZHLNfD8889XUmQFgTfkOMO55pprWLduHccddxzlcplvfvOb3HLLLZxxxhlcf/313HjjjbS2ttLZ3YVSisBo/uRPP87SpUvRWpPLZCkUCrjZDOVymcbGRorFIg0NDXR2djJz5kzK5XKYhiwIOPfsc8jlctxzzz04joPneeTzOTzPw3UzdHZ2kslkKnHjSinK5XIlS4Ixhnw+T7FYpLm5ueIBjv9WLBb51Kc+xV133UU2m+WrX/0q1113Hccddxw9PT3hojkAGe6XzWYr+/b09LBgwQJKpRLGGAqFAg0NDaOM69Sl3lc313v7kyZp/SUtP2nqvf9Jtz9p+bUy1vYn7smNDZjxvpIm6bYnrb/dLT9+tD50sZSteDxjD6jv+1hraWtr4/jjj8d13R3KGh7icNxxx3Hfffexbds2BgYG+M53vsNbb71FS0sLd999Nz09PVx44YWVYxxyyCEsWriI2267Dd/3aWpq4uc//zmvvfYaTzzxBIceemgYW+s49PT08LnPfY61a9eyaNEifvrTn/KRj3yEs88+mzVr1lAsFtm0aROLFy8GoK2tjQcffJDXXnuNhx9+mJNPPhnf95k3bx4NDQ08/PDDrFixgpdeeolzzjmH/v5+PM+jXC5XsiS4rotSikwmg+d5XHPNNUybNo3GxkZmzpzJnDlz+OUvf8lzzz3H448/znnnnYcxhvPOO4/+/n6MMTQ0NHDFFVfw7LPPDsm+sDvOt1rnT9KvpEm6/UnrP+lX0vqrd+q9/0m3v97l74n2J27kptQ7krFNo7F+b+cMr/KilIvva5Ry0To0iBsbGznhhBPI5XKVeNiY6pNDSslPr7uW7/77v3HaGaczb8F8+gsDXHjREtrb28nn89xy261c/LGPEgQB1lo+9KEP8dTTT7FhwwYcx+H222+ns7OTgw58Fz+79jqW3vy/KCGZNWMmftljxrTpHHXEkWzcuJG//Mu/ZOnSpSxbtozFixfjui4lr0zb9GlYa/n1r3/Ns88/x4nvPYmf3XA9113/M+bPn8/69et5+NFHuPWXt3H0scfw13/7N/zshuvZ/8ADaG1tpbW1FVc5OFLhlz0a8w00NjYya9YsvvzFL/HLW2+ju7ubzs5O7rjjDl5//XXOPvtsvvrVr/JfP/hvjj7mOB586Hfc/8Bvuer7P2Da9Jl87guf5zOf++x2IQ1WgGHwZiMlJSUlJWWykmgxiL2Jeg77mMxYO+jJFUIwf/58YDBkYePGzZUYU6UUWutKIYcTTjiBZcsewfO8IR7cas/wlVdeyauvvsoVV1zBPvvsw4033sjVV1+NX/YYGBjghhtu4FOXfYqFCxeybds2lixZwne/+12CIODEE0/kwAMP5PLLL+eQQw5h5cqVAJx55pk888wzZDIZbrjhBjzPo9jXS2NjI9Zaent7yeVyYZiD69Lb28v5559PQ0MDV155JVu3bmXp0qWVgg4LFizgoIMO4p3vfCctLS28+uqrGGOYO3cu69asZcuWLXiehzGG5uZmPv3pT3PBkgsJgoB95i/giSeewPM8PvzhD9Pa2srVV19Nd3c3Dz30ELfffjuXXHIJn/v8I3z1q1/lgd/+jp/85Cf87Gc/Y926dZX0aRW9RTrcbTl0U1JSUlJSJojUyE2pG6qN3UHClF87Q0pZ2S/2BMdG27Zt21i6dCnXX389Cxcu5Bvf+AZ33303H3jf+3FdlzfffJPnX3ieJUuW8MYbb2CM4d5778Vayzve8Q66urr4+te/XjFcH3rkYda9+gpIQWB0JWNCHJPreR5z585l06ZNtLS0IKUkl8uhlGLTpk0IC65yUErx3e9+l1kzZtLZ2ck/fOXv+fCHP8y2rk6ampoIPJ98Nsfs2bOZM2dOZUFZf38/V111Fb/81e0ANDc2cfvtt/ONb3yD1atX09HRwcaNG2lvb2f69Ols3LiRo48+mult0+ja1sktt9zCJz/5SS6++GIKAyVcRw7R9xgSgqSkpKSkpEwKUiM3ZVIzfIHgpk2bKu/DcIVB722c3staS7lc5tlnn8XzwoVn8efx1lrLu9/9br75f77F+eefT1NTEytWrOCLX/wiK15cweLFi3n22WfJqTw33ngjX/jCF3jqqad44IEH6OzsxFUO7e3ttLS0cOaZZzJ9+nS01hRKRWbPnj2k3blcjs7uLjKZDK3NzWzYsIF5c+ayrasTa23FC7to0SKKxWIYZ+t7nHvuuTzx2OOcfvrpfO1rX+P000/ntTdep6+vj23tHWit6evro7e3t7J4LE53Fpft7evr43e/+x3HnXA8jz76KPPmzUMpxdy5c+nv72e//fZj/fr1lEolWlpa+Iu/+AveeOMN/vqv/5p/+Zd/IfDLCYx6SkpKSkpK7aQxuSl1QezFHR5fq7XGdV201pWwhYGBAZ566ilKpdKQ8ITheXY3bNjAQQcdxPe+9z1yuRxz587lk5/8JP0D/WzevLmSIuzuu+9m33335ZxzzuG2226jXA4Nv+XLl7Nhwwb+7d/+DTebYc68uXzxi1/k7bffJpvNViqOdXV10dbWhlKKt99+m+OPP55SqYTjOBhjKovc+vr6+JvL/5bpM2ewZMkSfvzjH9PS0oLWmsBounq6aW5u5qqrrsLXAcp1aG5upqWlpWLcBkFQ8VhbazniiCM49dRTWbduHffffz/t7e18+ctfJp/Pc9ZZZ/HB88/lzrt+BVLw0+uu5Y477uDSSy/l0k/+BUcdfcR242BFVGE4JSUlJSVlkpMauSmTnmrDNDZWqwsqBEFQKczQ1dXF008/XTH2hsfgVtPf38/FF1/MggULWL58OS+++CJHH3EcF134IbZt20ZraytKOHR39vDggw+ydu3LrFvzCto3SBmm/7r00ktZvHgxK1a8xLJlj7HvvvvS2toapvrK5iiXfVpbp9HV1YXWmt/cdx+O47B8+fKwDK8MU9wVi0Uuu+wy3vOe97B27Vq+8IUv8JnPfIbOzk6eeuop7vzVXfz2vgd47LHHeOqpp3CVy7TW6fT29tLX11cJw8jn81x99dVs3ryZzZs3c9ddd/HEE0/w/e9/n0KhwOWXX87+++/Piy++yD/90z/xta99jUcffZQ///M/56ijjuI73/kOb7/9Nj/+8Y/5/ve/v8NcvWksbkpKSkpKPSDmzZuXaJRdLSu0x/pjK4Rg/rw5WGvZuGlL6BEkyrM6AXXxto8T3Z55c2cDVOQrISdE/p7Q3+6SD6FXMIzzlAgLVgyvghYuepo3bx7WWjZt2hSOX2UhVKjH9773vXR3d/PSSy/tkvzYOAzbIXFMDjAEshDKCXJYKbBOCWs1yuZR1iHABwzSiVJsmViXZsh8UKjozyb0gJoqfUmB1n60aM6NcuMOlicGEEJHunGi+eJH89eN2j32ynGTkXrO0DAZjP16P//rmaT1NxnmX63Ue/+Tbn89y6+VOPRwNKZETG5SA1HtQaz3xMtJskO9WYmtOkmXLVtWCWXYFV3HxiRWD4mjrV6sJhEERqCkUzFmlVKDpqWVVUU9FDB4rMF7GElosA/mncUalIqMVROWJAaNlAps/L2wzK60IrSPpUQIUzlueGMwpq6mpKSkpKTsFYz1N36vMXKH/9BXrwIfXqrUYDHWjqlW2ahyd6Do4Y/HY/nV340rWk1II+qYwXEyIxhr8ep+ibWGuGKcQSBs5I2P0lkZY5AorLFQid0d7uUcFqGjozy6KhofR6ONwdowjEC4ocwsOay1GAUGg60yZAWDtqywAikdDH4kPZQ3ZJbEHRWy0j4nMpoNBm0MUgus1YiMCaeIlUgkxtqEjdrhEU7160VOSUlJSdm7caj2LCVCDd7NKuPVVgyGyGPG4HuLQcgM1hgsoQdQCsXE/EBHifGr5VlDWE7YRu81CBchLcRlhaWYoJq+E6O/ROTvigShEFKCcKkuy6xF+NgCY8Pu2HAPUXmUMXycq400QTafxRiDAawxUUEJSVQDmkwmGy3iMlgTelBNxdgODe1K7lgAIaP2Qmi4h2EY4XuJtSIce8K/x+3UxoJUCMB1HCwKhMJGdwFGhbIQDgJTuTkKvdkTMY6DBvfo36umVtl1/HRjEjwunQrn/6Qlaf1NivlXK/Xe/6TbX8fya2WM7XdmzdlnN7dke6o9m7XEpA6JKbEShNluK1AgDK3TZwHg2XAFvkAhZO2l7Sr7jyAfKxHS0jZjxlD5VY/Ex9PveL9aY3LGk/d0osYPBj25o3kn26ZH+jNyiP6kcIZ4zSse8iFCdmC8WTnkb1ZapJUI3w1vSjI+IJBBDiMMOtMHgPKaUDgYoREyzO4g7VB5NvbkCxPOQSEQJnxoYq2tfAYGZBwS4WLN4BOAwISeYEfFipGVdlt09NEEXmDi+bqLJD1/kmS8589EyIWJuX7W2v56Hr9aSVp/Sc2/WplM87dWkm5/EvIny/V7rDHFyXhyK42z2JrvRGJjBUBttw19eQohwv8LXIywFU9dxWAYJ5WghxHkIwgtAeGCMFjhhn0WFivk+PovBIioRG2N+pPV3vCxGswTNX6hUGDnPkQhROSpBytUpL/wM40IPbzEBqQM/elDbiB24M0V0aItpfEpYZVBWokSudBjKsPwCaOKWFkicHuxVpARIIMcEoUwoWe1suaMissWhEAgMPE8UyK0IavmpXV9vEw31lpcvw1FA8KE/ZEq8lYPHrzyX2sV0sZe3FqfRgw7f3bxeOPyBUzk/EmSqvNnj8bbT+D1czztr/6Rq+vxq5Wk9ZfU/KuV3TB/Yc/pIOnx2x3yd6kNk+T6PeQJ6k7Ya2Jyh1Pt5Bp8PDwUa23NzrCxmsih93Fi5FemmB27/NFI7iI5lix2w9smsZbw0X9s7Fct8IsLQ1SnGRsiJ3IbWxmgs0U8pwebKwKgSlmcoBHlNRI4Pn5LN77qxWgPhyzWL+H6TbjFFoTOY4ytShExGC4TMyg/wEoJOvxMo/HdHj76pffzwosvsvqBTnJlF+VIjBVYbSvZFkAirYrO6kr0b7gYTYw1zGCspDG342G8K5Uni3EyUvt3tJ4gZXuS1l+9z79aGW8/RtNb0uO3p+TvLfNgR+y1Rm411g6agqZ6lVCN7MqxRMWaHb0M7e6QvzvY0/KHLyCE+ObBonVsEAqMiSubhbHRQ6iKi9CqjDuzyBnnncLCdyzCWsv619fz0G8ex9tSwroBn/nKJaiWAFXOY8qGzZs38vv7nqFjzQBZHAIZYEWAiR71u9oBJFZqDDpcW2YFymRC8VKH31WGUq6TUsNWSvmtBK6H0SUCocOwgf/H3pvF2JWkB3pfxNnvkntyJ4usrbt2Vqm6FtbW3VWspbdSL+OxbA1sYObJMmR54AH84AdhYMyDYQzGkDVexjbGGIwAjQV5LHkkS61Rq6WuXtTqVndX176wuBbJTGbm3c8WEX6Ic9e8uZFJZrKaP5C8PPe/Ef/+/3HixInI7SyuK3xAkouO7U8YHO2i8xDnFyN8bwq42YvEWvyv9WIt7Hz+2U2w0/q7Gf1vN/jPRnrbafvt5vjbCfpXs0uVq3ZCSwNMXnNwSj3UT3eia3CGUyDQxVpIYxQagywGO9c0E1q85LTeelJhrLjd/ViheEwuxNVP9o/o72rfthdcpf63ib7dq7iwW+9FqnH0+rRE8XaZEBLHcUDlGKMIXBeEtiegFQdDCCHJM4UWIIRj1w8NLELK3TZf/I8e5eLKR/zR//BNTCr47Bef4Bu/+kX+1W/9PyjTQYk6/+Z3/i/O/qyB5wY8/uI9fPE//jz/+p/8Kc3lJWQpI3GbKJnhSQ+ySXQukJGiHi8RRD46FVT0PHmSk4dNctlG+pAEyzRNDSUVSqTkQZuWXsANBCoFT5Ugn8TxHRqcJ6hI0rbGz6sEehKpStsQvdf2LOCqWo+J/96GEyNrtNe7tss5rnFN/bXcbxrDtezRctXbCm5T/rSxexX8b1f+2Qb77STstP52zP+uFXa6fl0r7LT9dlp/Oxj/V8PvTT8VtJmDGAAQeuyD12sfZK+mPdinKJzYbl025nfXuqR1eyaFd4S+EcW8tl1zMIwr7Kq1xnGc3pG9g4lZ65yHHryPiYkJdK7QOsf3fdLcniQGEqSg1Wrxo7/9KUI6A7bRZCZh39FZ/uL3/x31dhtflfmLb32LV7/4y1SiEhdrixDEBFVBu5MxMSH4mzd+yFPPPo5XNjQabUrz8MqXX+Do0dupLzf5zre+x1tvvYVXEfzXv/kb/OWf/xUnHv4sv/e//RHLtSWmD/u89OqLTJfnePPM3zIx5dNRDbKojY/P3/vVrzM5V2ZlaZlv/uFf0jzTIpqo8A//0d/nL1/7c5645yR/+K//PUsfJVev+E8QXOuG5te6pmynZ9CuWf5rffH2GvPPbtjQ/1pgp/W30/53rbDj9esmt9+O6+8miP9PxLG+g45iRP8PKdY0Qu8328jD4Fv+ve/GrMO9BX0YdPIhXRW2c5zh5QbG2KUIQtj1zJ1OB61zHEfg+S5ZnhIGPkblxelhina7TfdQh+532ggc4/Gj77zByydf4eh9s0TzGh1Lfvdf/AHxiiL0QjqmjgrrzN8mccopjz1zFz978/vU2ot4ZcUv/6efZyn/mN/67/9H/uLPvsWLf/dxJu9VyPkWiWwQ+RH//J/+T9TrdRLZ4gu/8nku1M7wP//2v+TUmxeROLgVRVLN+Lu/9hKnP36bf/6//jP+5t2/4Ot//0VEtYOJGiTBCsGUw2//s3/BwpkWwnhIedPfo66Kw61e34JbcAtuwS24BWvBzV8l14HRR6HXE8bdkfTWjYrh736h30gegY1spLXdbisvPmfn5xBC4BTT4u+//z6e5zA1MYnE4DgOcRzj+z55llNvNnjnvffYs8ce63zx8iWklCijkbj88K9eZ2l5H88/+xIT5Wne+Nt3+OFfvY5sShSKqFLm8SefYmVCEvklwvmYC2cuYoIOk9MVpg+U+T9+59tE2QzvvvMhB97zue/EEb7zrXfQTsbPfvQ6jnZpdOrc8dAhSlMhf/G738bN9vLeG2d4sL6XVtrk8D0SZyLmw7PvUq2WuXhlAeFLpueqtJM2qYn5+VtvkscBviiTJoowktv35uEtuAW34BbcglvwCYNP3CC3e2zq4GPpGwtrnbR1feBa9tnbjrH/tdJfa3Db30SgvzuC1qa/dZqxNwyZMrzx1js8eO89lMtlBArXdUnilCRLeeOt94q2emhvYscxaOESL0s+/OECb3/7z6jMBTz16n38nV97kd/5p3+EFNCp5Xzvmz/lwl8bAlGmFZznP/h7X+KpF6uc+/gcH1+6hNCgMp8w8rmyssDcTGS3rpMe3eN5XS+nVAqpLTTQHY/mSk5pqoxR4PmS1NMot8OjTzyCSTxwPU69uQAqJIsbRN4EcUtRqUzSuRxTLk3QbLfx/Zs7hNfaJ3l0De71pn8Lrg52Ov/c7PCL7n83u//stP12Wn87TX8zcHNXyFvwCwFCCBYWFgDsDGzvhDOBcCR5rnj9jTc5fvxBoigiV/bg3dffeItc263EHMcpTi4zvS3GZvdN89mvfpb//V/9L4TODB9fOssff/s0v/Hr/zlz+2Y4d+4sri8wjiLTGXEnx48kp06d5q6jd/LTN3/C/v37aXVgIkpo5k3m5h7A5DESyLMMKV2kEGRpShIrZubnaMYdpmanqMeL9sW03OBqiSMc/s3v/zFJEzDg5y6lZJrZfRN02hlRVOHiUoP9pb0k7ZhSqUyepztqm1twC27BLbgFt2C3widiTe4gmOKve9jDjvGx5tpBza29R/sghD2+1rqiRAinNxvfBaVUb41udyZWOBJdHO+rMSgjeOOtd0jyjNxoXn/jLTLV17PWujeba4xBGEmtvUR0SPO5X3mIdO4S/kHNvY8cpVFv0VrJEUaQyBpqok481UEeaFI5rLn/4btYONPiytmMhSuLfO7V+0gnlzn68CT3ffohfvzaO3gSBA6BFxK3Myr+PKfeP08jXuIzJ2+nVfmYu56cIawISm6F936sMY2Qx576FKU5qOyBzzz9oB2QZ1Aul2m328xOz9FqtAnDEln8yXn5TAxvfLHqevT7tfC34BbcgltwC25BF5x9+w7/phEaaYpBRLG3vf3sfj/ms9gAq/e51u+u4yfCUJwrVXwWY1tM/8/Y60q5jACarSYYu3GH6J1QdRX0C7m7/dg/0fs/YPkyAikM5VIJgabV7oAppurNNdDfJv2tsuMNtGf35DZrp64OC7sYenaVwmBfG7POaX8nkcJgtMF1JEJAnudcWVrk4sWLpGmGFAKjNVIIylGIU+y0QLGrRUabDy6+zt2fvp2XPvsiTz72ODL3+ebvv0Zy3sOXHideOM59997P84+f5PGHH+eh++/n/Z+c4Xt//CYiDvnozEccf+AhXvr857nz8N1895uvc+rnH1NxKzz36Ele/84p4iXwjUeSt1lpL/Dw8Yc5+eznkUrQaSS0L8Hiu0tc+qDG8Qce5aXPvcDxex9B1T0+fmuFslfl4ceO8/aPP6B5VhMyAcrgOFYnNl4lRgik6V5TxIMu9Ov0/VNYvzRCDv1+9KbM9iFtO6GKfgbzhB7xF7C3HuOvReHt3b9xeWY4nld/DsYLYmfyzrbG3y7g4xMp/y6oT7v9c7X+d0f97+anfp5ah/8drF83++dO62/d+N8EP0N+MjjmG/174PjjRpkcz7FbLwWe/fQcF2VyhJH08QmBF5LmSYHXCGMfIa/G+0PtXemRqXQIn+tsnf79sfR9NyBTaR8vHJTK8LyALMvwfZ8sy4otp1QxawcH9u0jTVPqzSZJkiBdp9i7VqL1avqu9Ozm++vI3937VmuN67pkmerT91y0ztEaJIaD+/eTpgkr9QZpmiLd7pZYBf+blP9q8LnO8N1gLF4iCvu5I/bfuP+rsd8wXve2CbP669vPda3+uvZxXZ8sS/D9kCxLcF1/CO+7nm3nF/24vp29LW449u3dQ5Zl1Ar9O46DEinKa5GbTs9/3MBFJYJQVzHkZP4KGTGerJKlBj+QqFQRiCoqN6QyITcxnivIc4PvzJBlKZ7XwiiBk82jMwc/zEhUGxG5Vn7XoHSCcARGCXxRJk8VTuha+TwHcgc3r6C1grBDlieUmUclEs/x7Pcit/aTkbWfL6z9ZIg2OUa17clwskyea/zAkOcpUoQoY3CEINcZYeDRSWKisEq73SYIHYzSGO0jhMH1FEka47tVMpXjOsbGBwalDZ4TkmYZQSBIswzPiVBaI+jyVyLPczxfFPb1yZVCoIfjew37jtq/77/Opvxvu/LP9sff5vi/Vvwvnvxbq0+7WX/XEz+s/91R/0fjf/fWr5sDv5v1t3b8b+xfw/Vh3PjBjs+kUlawTqdFpVSm0WgQ+gFxHFsFrMLXRvBqDXx7qH0ct8fitc43he/232zWh/F5Zq/bLSqliGa9Ruh7pHHHzv0pjR94dDodyuUSzXrdKiJJe+3H8Z8knQ3lF9I+Svd9v+g/otWoEQQecbuFRIBWeJ5HHMeUy2VajcYQfZWlm9LfteBDP1gH37VfZ8T+20N/1H7DeFPo311lv6TTLuxX+Ee7RTkqFfigh+/br0O5UqLVbBL6obVPMYD2fY8kSSiXyzQaffu72sdvTzCtj8CVMjPiNvKLERN6L1nL4OQl/Po8M8mdsFhlVt5GfrHMhDpIXnPwVJWgPcO0OgpLE8zJ28kXAqY5iKxPEmVzOFlIyS+TtHImg3nyBZ8ZfRtyZYpycpCwvp/J/DbMcplp7wjqcolpfQS5NEmUzCISn5KcwqwEzDoHadfaPf9DSpQy+F5IHKdUSlUajVZh7xSMBKEJI9fiyxPWvmFIkiQ4wr7MF4YlWq0W1WqVRr1NFFbIkrR4GuHguRGtVqvQXwPfD0gzewOZK239v50U9BuEQUDcSW0C0zmB79Hp2DXEjUbDxkcXP5I/VtvX4pNOewi/Vf9cK79sR3xdW/xdf/q/mPJvrT7tZv3dWP5vbP0f138QWLx9d2Jn69cnAb8b9Lf1+NnYv7r+0R9/detL0Kv/xgikdD2a7Q7l6gQLVxaZnp2h3mwQlUukuWIYv8T07Bz1ZouoXLlqfK3R7OGF49JsdyhVquviy9UJLi9eGcInWY7j+bQ6MZWJyVX4NFcW3+4QVqosLi0zMTVDvdkiiEpkSg/xN9g+LJVX8b+q/wH6XfzUjMWXKtWCvks77uCXIi4vLVGd7tPfsP/roP+pmdmr7r/L3zj81dhvsH1lYnJse6TTa7+4tLyK/67+S5UylxcWmSr0G5bKJHHlG+QAACAASURBVFmOlC7NZouoVObK0jLT0zPUm+2e/ZEutVab0gj9UqVKpjTCC6i3Y8qVKS4vrjAzO9+TP0sVOC7NdkK1MseVxRqzcxOsNJcJwxmyzEF6Oc24RqW6nytLKTNzc9RaK4SlKlkukY5PvdWmXK1weXGR6ZkZ6o0WUblMmudIx6HZblCuFPaZmbPxWaqQZArHiWi2M0rlSS4vXGF6Zo5avU2pPEmWG4TjUG82qU5MsLRSY3ZuH7VGk8pElVwrpONRazSZmKpy8fJlpmb2UGt0iMollNEYIWnHCRNT0ywsLzM1N0et0cLxQtIchBPQaCWUK5MsXLnC9Mws9UaTqFQlzbTlv9Wy/C8uMT07Q61RJyqXyJSlv57/DOK3Kz7GtV+T/i6Kv+uRf38R5b+Z9Xe1+M3Fz42v/1utfze6fu0W++2G+LsW/W1n/t4sPs4VSkjEHY++aKTrkMYZpUpEs144eJzhuC4YhcUnlCrlAXyC47mgzZbxYSmyM5muY9+SdyRZkm65veO5vTfnuzOljUaDUqlEHMe4rsW7rmSiUiWKIk6dOm3bF0salFI4jrMF+i2iUok06Vg89OmXqjSaNUqlEkmc4XoSsI/iq9UqpTDi1KlTRFGZNO9PqUs5Tv4M6TgI9HXTv+O5CAPj7T/afrV/SMcBo9awX4breRidr0sf7MtkaZpSLpep1+uUy2WSJMF13WK7L2dgJtbat4sf0n+5TLPZtPbvpLiefUnNdSVTkxNEUcSHpz6y+k/TXnspJZ0kK2ba+/aTA/xlcUZUsXeSpZJ96ctxHIx0cF2XuNUmigJarQ5RFJGmKZ7nAbrgLycMQxpty3+e5D37W/m6d6ItSlGZJLX+azQ4rizwUSF/hSTJcB0PRKGfWFt8c4lyVCKJwfEkiAau69JuQrlUpdlaplINyTKF4/qkiSIIfZqtJaqVSRr1nEqlRCdZwnEEwpSQ0iVOagSlgE5bUSqVrP48ickzHMcjiXPKlRKN5hWrvw6WfxHjOIIkFpRLFRqtxUK/qngkmSId1vEfjXTFJvx3+/OP63sYdaPib/v6/8WSXyAdhzTp/MLob3P40fqdUSqXaTZqm8z/O1P/W40mYSnaBfVrp+13/f13N9R/YeQa8bs5/xsdH3TxSZwhvJBE+DifeuU/+83HXngVFc3xwFMv4kwe5Pizr5CHczz58teo6xKPvfBlVLTH4qf2c/yZl8nDeZ586evUdRnbfn4A/wXb/qWvU1MlHnvhlwv8S0X/Fn/i5a8X/f/ymu27/efhnG0/tb/gb54TL3+Duol47PmvkJX38sBTL+FOHubhZ79AGu3hxCtfp6EjnnjhK5T3HeWex54jCWY5/uwrJFHRXpd4fB36lv+v9OWfPMDxZ18u+P8GNR3yxMlfJi3t4YGnX8SdPFTQn+fJl79OQ5d44oWvUNlr6af+DMef+wJpOM+Tr3yDulqb/lOvfGML+t+z2n5r2WdQfz38GPv32n+5r//Jgxx/9qVC/q9tYL/x/vPwc18gCyz9BhWeOPlV8mieB596CWfqAI889yWycI4TL32duilb/ZT2FPhDPPLcK2Th/BA+C+d48KmXkZOHePjZL5JFs338yS9T3nuMTz36HEk4y4PPvEIaznPilW9QV2Ueff6XyUp7uf/EC8ipgzz07CskgW1f0yUee/5VVGmO+0+cRE4e5Pgzr5BGczzx0tdo6JDPfO5lTHWaB58+CeVjPPLcl8ijMk+9/FVq+T4ee/6r5BXDQ889DZVjPPzMV8ijCU68/FVqusJjz79KXprhgaeK/p99qZDva9SNpZ9Hczxw4iXk5CGOP/MKeTjLiZdepYHL4y98iSyc5YETJ5ET8732T770VRp6gsdf+FrB/+fxZg7ywIkXyaJpnnjhVWqmwqOfexUVzvDQUy/BxB6OP/siaTjFUy9/g5oJeeyFL6FL+zj+9BcQ1X0cf+YkHW+Cx57/Ci1R4bEXvmL5e+r5nn669qupCo8//9UC/wJy8jDHn/ligf8qNRPx+Jr542vUdbRJ/50f67/D+We0/Ub552s9/7/a/LeqfS//9fPPxvG7Vfp9fE2HY/rfbP69kfKPt99G8tn2X9lm/XX5/wY1Fd0g/7kO/Pfy86h+X95c/r+h9d/2Lyd2W/26Hv7/yoj/btT+1RH9jdPPbq7/6/lfN37X89/x+j/x4tepm4jHn/+K5f/ESZypfTz8jOX/0Zd/lfPiNsTdv/b7RjgSleV4gV375gUhKssRjrS7EzgM4GO8wEdlegC/dvvuncDq9n381dKXrj2m1c4E5gRBZE+78kJSlSMdkEbjO7BndgrP8/jgo/O4QUiS2xlclMYRkjzP8X23OC0rJM9zux8rICUFPuyfppXbY2OFNAgp7Us9Bd7zPFRukA4Io3Ed06N/6sx5pOuhtOwfTNCjb9eu2P51Qd9+2v7H4Snw3faD/I3y38dnmerNZG5G/3ma4YfBKvuPs58fRuRpNmI/PdB/136OPRXOkegsxw18sjjBDXx0loMjkfZUBVSaDeFVmoEjcTDguKg0K9amxviB25upB43rCPbOTuJ5Hh+euYD0A/LczqAKZennucL3PeKkTej5pIV+penr1w2G9SukQpomwu2gaeC5AUmrgu9VUDoB4yIoIZw2Wp7CDQztRpXAm0XlEilCMI7tXyV2bXKc9uwrVtk36NFXWY50TM8/slzg+z5J3CpOezMIx8UYheMkaBZx/Yw0beP5LloJ0GW0msV1yqRJmyDSdJLLRCWfLNXFdm4GITzy1MMP7B205wWkmbH+o1WxV7H1z6598wykdHr8q9yunYo7SeFfKUiBQPX8p+vfQRCQZWrEf9fwn7H5xx+Tf8a0L+JvOH7aBIF90jNKf3PxNw6/On90X05dzf9wflwvftbOv4PxqUbk7/e/O+W/1vqzHfpbq365w/Vnm/S3Of6vrv6O14+7QfzcmPo/Xn83rn7tpP8Py7dR+430s9vr/3b43/j83R8fFfIlbXwvJM81qTvBipxDTP763xgNuBKSPCPyI9I8x5USZezWTlpoXCELfECaa1wJCoPQdmOfddsDrpSkeU7o+wUecqMR2qAFuEKSqpzQC9ekb/E+SZ7hComRdjshsO27jpjnGqSDMRphFJ5UHN47S57nfLzcJM4NUtipbqOy3iPvrqK6DmZP1jJFoRcD+H6AdukPDkTzPO/v9aot/UN7Z8jznIvLDZLcDhy6C6dX08+H6PcemWcZQRCM4MUGeLPKESx/AyeJbdL+Xf137W/t17f/mvYbwAduQJrneI5AC8BIjABXOr23OzOV40rH7oygDRqDKx0yVeyiUOCV0aDtFliDNwpD8qPwpeHQ3ulC/03izCClixASo+xhEaLX3huxrygSobD0fatfR0iMrOE4H2PcizjuInmeEzgHSeNZUPsBF+RlcC/jestkqonnT5G2J5HqLoSetnsAo5ESsjwh8KNV9tMCpPBRXftmCildjBEYXdjRkeg8xfdde0CEIzHkIDKk+zFO9A7KnKFUMmRZjsM0Kj1I2v4UOp1BOhlaXCSsnOO5536Jj04t8eEH5/nyl7/Ma9/7GxYvxajMJ/CnyBKJMREgETK3XiQ8klwRBdaPpfBRRiBMVvinHXj7vk+qclzholCgs55/rbaf6Pm/EIZMK+t/KscVEoVBmjH+q9IeXmiDRo71T3s4iBopFOEa8cc68bVRfI6PP41EFhnElZIky4iCYM346eXfAfnXzr+r8/Ow/PQOR9kd8m+h/nTlN2KovmxOf2vrZ/36RT//FfS3R39iY/7Xkn8L/DtCkCk1VH/XjJ8bVP/t3uVsov5dn/pl7Sd69rne/r+59pHd/WZsfU9u2vp/Tf63Dr57sK2UYkR+B20cUhEh3N/4wOAIdJbjRyFxs40XhegsQ7gOKFPMtGUFvlXgc4TroHX3TigjDEPiVhsvLAYCThcvyLOMMIoKfEie2zul7ppUlec9vBsE5MWaVaW6+Iwg9EnacYHPe2s2pbQzgWEY0mq17NvjBX2hNYFU7J+bIAgC3jp1DtevWAMJgclVMZOWEoYhnVaMH1j+hvgfwvflMyj7lnuWEQYlOu02QRiS58oO1LTCdxT7Z6uEYcjbH55DBhWUUkPyZyonCEOSVrvXv9X/gINGIUmzhR+GA/hh/Xda7QI/yL/FR6WAdrMzzL8xvZnU9eyv0pSgFPXs27W/ydVQ+6TVwQ39Ht62t/4VlCLiZruHl56LGZgpDcOQTtvKP6ofpRRhGNJutVbhhSNQmSIMg177vv9Z+x+cncAPA97+6DzSK6O1wQEcneAUCc76T5Ow0G9Xf0b6pAqCUqlHP89zXP8y0eRbPPRLe5ierBKGJU6fush77zapLxxCOCDDd7nvwXn27dtHuRxxeeE85860Of1OCSnmUcqeipanDlEpoNVaIIycHn2ldTFAFIRBmXarRRBUyDMHx/FQum0LRCYII5dO5zJBaGd2hRPYJxXBOU6+GjA916ZZV5TDfaRxyOKFkL/81hJSTJLry4SVS6Tmp7zyhc/ywTttPvjgEgabMLMUjt52F522YnnRkLbncZ0yWiwhHUWeOQTBJO1GThD55LqJ4xiMAiki8qREGE3RanZ6ichxi5u8wj8G7T+cPwb8ewAvPbcfn4X9hvOPQGt7lHOepSP5J0dKMRRftv8OfuCvzl9dfKsff13/GorfdeIzKAXEA/EnXGfA/zfInz35Wj3+x+M3k3/7hXB3yj8m/+Zpge+MkX+wPm1H/RpDP0sK/XUG/Gc79Ffk1zzr5X93TP7u1b9Wp8CPlz9ptnFXyS/G5mfpuaD0pvL/9ar/g/7R5c8v6v9G/nOt9cu+k6NH8sv1838/8kmanRH8aPs2fjha/52+fnZd/ddr+tfm/G8Yv7H/tUf8TyOFa+0T+f38mOmefEL8Fx+aYl9e7KcsPvUa13aTaIE9WWz0dKph6N8p2TsHuy8t0LuDWQ3dQ9j0GtcMXBePe4wc+R6QxVS4UTjkHNk7CcBHl1bIjQvFLPCqQ8mG+hoAsfqUMjPA3+jpS1299OlPA3D64hIZXfpjyBT67sqx+ppV+GHYpP4G5DHILdp/jB90P3u/L/AbXa/rP5uDbr/jTpITgEvObfumUBjOXKyjhQ+ALzKirI6n7XYkNhnYF8Zs8nJJckPmhMSySmq8AT8G6b3Ns6+s0Oic5Y0fS3RW5v6H5piZOcRf/OlFlO7wwGcy9uwr86MfLFGvdTh4JOTBBx/mxz+4xPnTV+xhb7oM2QGEMDjReTJ9Bc/zevvBZhn43hxp5uA6PnkqccQchgQtP0K6Ep3M4zoK7byDdFOEmUWoedJkGi/8mJe/nvKzn/+A8+8eRidHMNoHQiQTKLEC/ntI/yNkcJrPff4lPno74L13L4NTxwsSjF7hkUc/jRExP/rBRUTnOYwqI4NTaOoYFUI+i8kP4geSlHdw/QR0BZPNQ3YAraYwxhmYRdCF/dY+vaw/kzsmXgae5PR/X8R1YSdjijgcIdCd4Vg3/oVe+7qIH8Nw/Fn/1iPXfVlXxe8G+XP4UMrB69H4Hv/79fPvbpR/UL5B/s0QvjsDP5h/N85fY/LVNdK/Fv0N1o/x9MddMxY/nJfX+hyTf7ma/L999b/vD4VaNlH/eros4Grr1yr7jMIN8P9R+6/Wx8bXw3CD6/9W6/2611dhP8Bo0asPdlAren5pjMLtKswI2RMYdP96FC+so1oHF6uMvErh3fZDCmdMdhg1kljjugtOcXKV5cUehmRAuFZ4Lez3RiBN8egTMFqCEMWxLpJVY22xljzjBlGy99nrRgw7lz2bq3s2GhicgoZg/LHDsjgNSoy/Ft0E7YwP0t71CH4VLbtetZtshuw/EEirrnuffT+wv2O4n7X8ZvTarOkIG4L1vwE+Bb29YbtgtAEhyTWAsMFichAOQud85sG72VcWCJVhdIrre6Rpiu96KOGSi4DLLcNf/ew0jgzsEonClkqnTO9xeeeHbxFnhyF3eePNt3jkl2ZwPU2WNzl65zw/+OH3WVq8DfR+zp9dYma6zczcHq6sXOHFLzzMN//kNTpXJjEm57nPH+HS0hKnTr3HK89/ifffXeC2Qw/yve++w92HDjE5Y3jtO99Hqw5RyecLrz7Hv/ujf0ssWrie4annPkW5KmnWFT/50WWWLkoQHbSoYeQyRhxAGxfpTBSF9gIzc4oHH3mIsHqIK7UKRiYY4YGT8urfeY7XXvt/ufPOO9m7NwJXsP/AL/EHv/sBleoBHnj4LqanPbIk5b13Fzn9wWVkAF959VO8/8GbHNl7gr/+7iJLl4qYK06hGzAixQF3ww4G3Uxmvx43CNY2hns/EKKILQfTLag9vx5N8hS8jN6dDhYFuc51t3CvHqQInIFCt378mvWK7JoDoHG4NX6/Xv7dlfKP1oiu/UZAFHGuDTavdOUck78G6xl9fYyvXyM6HtLfavrXqr+16TsMDgrH1r+izsG4/Dz6uUb+pYvfofrf84d+G+svfflH/acn/zbUr7Xr/Y3x/1X1e1Qfm7geghtd/zeq71u+tjJslr4w3eFccbPHQD+2A9xVRhozYzkMg0a+tkGKhfF3NOteD96+GACBkLYg2oHtcKIyQvUGmUIUg8vuQHcjGBo0rQ4IgdP9TwEO/S+GE6AWFLNP3QHu6v76LMnx17anHm+DycGSHaQrB/gapDUoz2iSXvuObxjWSA5r6msj+24dhBADNzo2GLoz29YtihPVKNbgGgVG2fVsSiPJydtN3MijRAPXyVFxzkwQECcZxivTEZqsleCojFwoHOGglEFK0CLg/ffO88CDj6CzC9SWFkmTCt/9q3cQ+gBTszM4juHKYh1pDmOyo+Sqxk9+kGFUg3CiDO4l3NIFRO0A0jGI8BTG+7n9zr+E54b86Z/8DSqpAOe4494JKrMf0G6ssP/IfSxcPkOWLSKCFZ47+TkunLvE+3/9BodvC3jm+Sf5o3+7hJE13KBOeWqJyp63MYkm7RwgjZs44Rkee/pZzpyp8e733mL+QIP9+z6NMSnSS0FeIIjq/PUPFnj4oRM4Xokf//i7uBV44tl7uHQ248c//Dnz+zIeefRhmu2PiNMruGET11/i33/zB6jOvUiq6O6sTzGrYzfrZiQOB24mN4pPwUjy3qy/9eNnzPBlE+3ttc1/IzN8W4zf7YiDqwbT+2cM7AL518SvY79189ewD/T8b+j7bv5czy7Xz3+G68Za/rwZ+lvlp0v+xtZ/M1L/zUj9Wtd/rkf9WhN/Y/x/1JobX4/U2h2r/9t4PUhzI/q9JwnFkx3ZfRfK9K7d3qBkrc9RGMAbLVbfSWwZribJy2JwA4MMjA13Y2fydI+OLJxLbCjf0HewWj+A6L2gNEi9f5tqMJgufTPQ39hZ3M3CyN3lKlg9wF6z/Ub238pnF0Ye6fS+2y46g/7X1fXQrE9B31C8uOWgtMCRDof2HyDHnoQSmJQ33n2Pyr2HOFTRoNuEriBtdwj9iEaes9Bq8ub75zl46C7a2uf8pSvWn0wGxuOtN1aoNQ2f+vQvEYXTnPnoMu++vYCJFa5rk7TKBToP8OQEWaoQvgaRIpxlHKdpZ1idDkZoFAu40RJKLCDdDh+dqaHVfmCS2srHNDsN5vfHnEneY++he7hw7iJ5ajhyN/iVyywuXSSKApZXLiLchKjk0uykxGmHY8eOcWD20+j4Lnznbr77/W9SnU3wysu8+/YKeTbJwsXzrCwleEEJrWMct0muazhyhjyrorRLrgWz8x3K1RZvvbmEK2e5cOHnHFo4z+GjEe9/eIncwJkz74P+NCavYihe9BuYxTVaDySpUf/cqNgWRbbf24a/H+6f8TS2kA9XD1C2Sv96wMAUxmb4MGZrcToA11f+9X4zmGsG5NxK/qA7QLvG/DkK26K/bcjfW+VrV9X/HapfW60/ZqOboa3IfLWwS/U3ClczjuiJs0a/RiJk8XLy6BPc7rDASFwx9Oh8zOcqgn28fVyxleKyTdAd3HZn8mBoptYuy+uP5O3M7+Cdgix+J1avaRmSfxRG9TOYqArWisenoqAvhF2jYwqaGLdo3x2IraW/7vfrZRG5Dn4z2afgaT37b+lzlPeBAcy20un7nx7xP+vcxXe9RzAChV/sZCHt1idGkMuQZVPltTcv8Ox9e9kTRqgsxvVDVnKXldTl+29fpCOqRLlByCKIhLYvLTklss4Bzr7f5sw7LaLSFe57VPDM8/N8+08XyXQZKaYIojJxOyFLFiFso50U8hhkA0Op4FeB1Bgy0jTBkR5aeaQJmDwCyiBCPvzgbY7dfZDLC99n7374wV8uIcQ8ufkYxWXuuHsOpap47u1c/Fjge7OITh3fc/n5z89y9q06Jk1Q8YcQBkzsd4mzGJWXQPkYMwmiTJwohJQoneC4kCUGV5bByREyZ2LKo9Wpo1SJvFNBludZXk6Ym49Quonr3AaUyJVjH80Vy4eEtNua9dxfS8Y/MtxorXZ3NgTGx+pmQK6Oko38bvCndPPfevQ3E8fXAzZDzxTxv4U4HaKw8/IPr9XeQv6gy/+aPW+C+vX0n2vM31vla9fV/52oX1usP2zmVnI3x/911N8qdrbSfows4/oV2PovbCzZJaxdVPe3BndYIWt9jiFKMcC70bbbAIYfD4w+FtC9WT77u74ihgVZX+51k5LuGsQM0JPFnd8Ab0bSm2Jfl9Z6cK3K38juW/3ciK/tpTc6wB2i039DAYHDuYuXcYTpb6viFDbwKjRzwWuvn+Wph44xXwppakVHVPnOz9+jKSbJRIDj+WilkAa0cNAmp1wu88Bjn+H73/1jpIxodxb42Zs/4wuvfIWJiQr1WkymoDrpEtfPgGjieB0eeOAhdDbBm2+fRcgA1+mAexHpG4TTwfWKCTZ8XMcHEyJEhEl8Fi4rHnhkD0fv2M/HF89g1D6MquLJvTiyxPd++G1U7oPxITsAneM4gUeeN8h1Qq4yyNuIQCK8HKU8XC8C55Kd+XbraBHjeSV72prjkGcG15skUyDdGkY0aTYCKuVZcM7iRAqlr1CZ3Ee7o5Bygjx3wXj2D1ns+duffTd5dw3tGibcECRrlpju+twNYaP4X+uzuLHeFJ1dliCH4JMm/9byh9lofL5petdTf5uhv7W6ffV5fbifna//212/rof/3Azxf70+r5YejF9esVa8DUJ32Wox2YjGXX/h+Dg+BwaO1xSg2wDdIBtMFr0lAaI/1hH9N1l7d/5agDT9we66L4AMwKqp+PFv53bvcIXpz1RpAUYKy1v3UceoDkcfHV5nMGJkoD261OAG8HD1UOiup7Mxzi8EWiu7DZfJcaQslpA4gEEYyGREXczynXeWeOr4HUhH8p2ffEjDmSEVAd09PaHYzscYwCVVK0zOJTx4IuaN17+PIxKO3jVFnGQ0mxV0GvDRR+e4/6FD/E38Ps1WzJ59JQ7deYTv/dkyeRqQxjGHjgSs1F5nz8F55vZNsLCc47ghyjhondh7IiXBmaO5PMXSlSqHj9zLmz9dRud34ohpTr97mk99+hB33r3EqY/exndh//wBPvipg5DgBA1kdBo52UGnC5gswghYvJyhsoA77u9w5uwbTM8rpucSzp9WIAS5EjhOlVyVEI7PxEwHN2izsjTD8rLhvkcFb73z5xzYGzG/V/Oj76eo/BBQRTo+Qjggui84KRsLQiKK+2tjthB7q8xf2HvV0xjsLNOaT0m6v9P9mbSt8ND1NzGm3U0RNwV8AuRfM39tBEKP538rsAv0d8OfpO6m+s8O169x8t9M8c8uqv+r6A1MUjLC02CNF6K/ycBQP4AxGAnumgt7x62rHGGqvx51Hdjsmo2twmB/slgTawy9QecoDdF/1Gxl0wzdGWwLTwP9GJtEDQpp7HfCKLv1jJDDb4avo+Prpr8ez91/RgeMjL/eTTB2icSYpfrSbjiNcPv3RXYkhMEgnIDUuKzkMd/+ySkM0DIlMhkA4JjcbgUn7OES9s1VhywxfP+1n/OpB/bw0slHAcNy7QyvfesiefwoDj4//9vTfOq+Mk+feBkpDc32Aj947Q2uLNyJMPP86Ptv89CjT3PHbQc4d+40l87U0J0HUK0mjroDnV2ws7gZCFkGdZQz7yoe+szDXDj9PYSeQesJ4G5+8Jd17nnwM9z9+WfIU8Wl8x4ogckMeUvwS/f9hzx01wGMmsMTVRYX2/zVt3/E336/wf0P3c9dd9zJ5UunuXwuxKQzkMdI9WnixjIyP8IHb7d56sAdvPDsMf6///t9fvjdFY4/eoiXnz9IrmLe+tkSVy7swfNnIDtIHtcxeQVhXJC6eHwi1vfhq7nJE3rV7K3ZaryMWe819vvBJgJW7dow2t9Ga8424u16x/9afNwo+TegsSH08tfW+7KP27dJl1elv3Xob1qO6zTI3e31v9d/958bX7/Wlf9mif9dU/+76wz00OVq+iPvPq01nS50XyT5X10wWik8V5IlCUFYJkmSYqN1u1FxDx/HhOUycRwjXYt3HA+l7BG5Kk3xo4i0wNuDGhyUynEcF5Um+FGJNImRxUa93Y3+PemQpcWG7XHcO+hBCFHQsXi/1O3fQ2uFg7SfjkOepgRRiSRJEK49CEIKgVAxxw7PEccxiysJ7dTguHarMSMEWilc6ZGnKWGp335IfsclSxLCUok4jouNzK18PXzBf7e9MQZpDNIk3H5wD3HSZqGW0E5McRDC2vL38VZ/nnTJ0oQwKpEkg/Q3ar8av1q+zO7HmiQEBX6V/Qv5dxo/ah+7obfCcwRZmhKEIWmaIgY26tZa4zkj8jteD29ye8RhlraphD5xmoAbooq1L46KufvwHjqdDpdrCa1MWf8WTYS/iNZNXBmQpzFh2SPpCByz327E7TVQpmn7TzqE5ZCkA47Zi9YanEto08F1ytb/QockbeMEASoLEWoWnQV4bkSWJ/iBIlUrCB1JZQAAIABJREFUSK8NxkXq/ahc4nkZabZMUIYkbdiDVHIfoafRJsGPLpPmdYJgiiQ2ODJEK4nREoHG8zVp0iAoeaSJQJoZ+465W0NrjavnSJOEcDImSTo4zKI1CFFHqRZe4JAlDpF7iE6ziVtpo3GR6X6MinACSNOU0C2TJBmOL1Cme9CLxnMDq5+SPfrSbmROL7+4RX7qxp907RY4wh3v39Lzihn8bvxs4P+uu7n8V6oSJ+1V+e9a43e78+eW4/8a5b/Z+b+56W9Dft1l9f+G16/Nyl+qFvzJGyT/J73+U+h3E/Ez2N510Zpip6SifhcHRqRJguO6KJXhCIGo/pevm+5+ad0fOsUAwAhRTBSP4q2Cuo/+hbAKdxynh+8fidvfqLd79Nw4fLd9nma2gBXHuUoESEH3DOzBM6W7d0VCCLSyJ6SlmRo46UKAUXhCc2DPBK7r8uGZy+AGvQLbnRLXGjzP7pHqFgGsscfRdQfaXfm79DUgjVwT372jcIXm8J5JXNflvTOXEG6AVhTbnjFW/rX0txZ+7famwItV+MFHuuPs27f/7savJb+GNfGj7bUC1+vrVxWHCkjAR3Nw3vrPB2et/+RaDdm5y1+axj3/6e6jaP0jL/ApjuP1bVfsAGGMwBEOWarwAxcjsuLYYgfX8VB5ThAEtDsJnueQqwzHEcWqHAejRJ++Z+XruWAhv+c5xHGM53koZek7joPRkKcKz3dIsgTP85DGRxmNkQkSgckdfMcnUW2r37yIC5MjhEZjE1Xa1ASBR6zbBEGASX2EECjH8pt3iqOvTW5n0rtxqgWuJ0nTxNqn4M9u/QZKZz39ua5LXhQWI9WQfbMkxfFcjC76lmZN/+j7//blv2uN3+3Kn1uL/92X/28c//ITQP9a8+vNbv9Psvyf4PovDcUQ6Cr0TzG+k7065LouSYFHa1yh8HSMuOPX/8BorfE8jyRJCIuZMNfxyY1GonsDuDRNiYqRdHemtcug4zg9vC3k/UK7FXwpjEiyFFc6RZHXaAye45Fkw+3zrDtA7fPX5b87kDBGIVAcPbyXJElYWGqSZJl9oQdAaLRWuK431H5Q/lH+u/LnWtuzl8fQd13fGsooHKO4raC/uNSkkw/THyf/RvrZPN4U/HlD+MGzrcfavytfod+dxq/Wr1uc/2GG7ROEVn7p2XcAjRq6AQn9wPpX0b8o5Hcd3x7dXOAd6fX0K3XOsUPWfpeXm8RZhuP61v+FJtca1/UL/fp9/orlTlprpGcHoKUB/9Ja22NvJcVMb0IYlHozBQDChSTOKDll0jTFK3mkeYZf2FO4Nj59x/plFAU9/9SFfyoMjiOI04SJqEqSJPaoRmP9UwgH3wlJswQZGNJOimci6xtBijaKkqiSxBle5JJlCb4ToLUCBxQpwpXErQ57JvazvLxEUHVJkoRAlG1CcgxJnhCGJVSaDflvbro3ADFhWBq60QTs0cSOlTcoBfawDsfq30iFFmq1/3ftNxLfm/b/q8x/1xq/25U/rzn+dzj/7xT/nxj615p/b3b7f2Lk/0Wo/wrP8zep/7DQv4cydnJIF/U3yzKCoHuYk8TLm0zqBeTJeyfYp89w4qjHEfcSjx8WHOA8T9/hMdN+h5P3TLJPn+GpYz5H3Es8dggOcI6nbw+Yab/Pi/dOsV+f4emjPrc5lzhxSHDAnOXZ20NmOx/w4n2Tq/AHOcczxwKmW++twj952LZ/7g7b/uX7pzlgzvHMseH2z94eMpO8xwv3TbLPnOWp232OeJd4/IjkgDjP07cHTMfvcvL+KfaZsxzfCwflAk/c5rDfnOOZO237F++dYr8515OvK/8zd/rMdt7l5D2T7FWnefr2YJX8s533OXlvlX3mNE/d7nLE+5jHj8ABcZ5nbveY6bzLyXstf4/sMxxyL1v+9DmeuzNiNn6vp79nR+T/bKG/l++dXIU/yDmeW0N/jx8Z1f8UB8y5IXxPf+336dr/qdus/Z84LDhQ2Gem/d4Nww/7X9e/rHyD/rcKf+8U+9XZnnxPHHE4xAWeuzPo+W9XP0fkRZ64TXJInOeZY4X97pnkgD7Hs3dY/OOHJQfNeZ65PWCmsO9+zvHQAcMB73LPf6z9PuDFe6c4oM/y9FGH25wLPH5Y2vi5PWKy/S7P3zvBXn2m8N+Lffwdtv+XH5ou2gcckpf4zCHNQXmOz94ZMZN8wGfvLHHAnOPEHQ5Hg4s8cUhwSNh4mMs+sPKps5w45nDE+5jHDgsOiPM8e3vAXOd9XrhnggP6LM8c87ndvcxnDsF+zvHcHSHz6SlO3ltlLnmfzxxQ7MlP88QhwWH3Ai/cV2Wv/oiT90xwQJ3jyaMOh90LPHlYctCc4+k7fKbj93n6Do+59DRPHHG5s1Tj/vkOd1drvXh54d5J9pszPHNnyO3+AieOCBsvRz2mWu9y8t4qB/Rpnr3D4Zh/kRNHBIfFBZ67w8bnS/dNsJ8zPHN7wDF/gRNHHA5h7TMbv8dL90+syh8HzXmevcO38XXf5JD/d+Nn1P+3K/+Nxl83fkfjb638d63582rjf7vkf+Lw+vI/cXh383+z0t/e/Ltz9f9ml3+r/j8uP1xL/rg56//ZEXwxfhrQ/9NHi/p/SLDfdPl/jxfvnSzqm8ttTr8+PXPM1tfnP11BVI88aDJlH4W2Wi2q1Srttn3UqJRCIuji2+02lUqlwEfo3D6az/M+vlqp0BpojzAopQj8cBW+N5Mzpn0YBORKIQVkKif0Q1pD7SMylQ+090b4jyz/UpJlCceOHaXdblOr1Wm3Y4LAzvR25fN9n06n05MvDEPyPMcRkjTPxspv9WPG6Ccm9IMe/TxPOXrbEdpxi9pKk06n09dvob8wCIbk68ovMORarZI/DALUGP31+bP9C1ngC/0P4vM8RwhR6Deg2W4xUanS6rQJ/eKRPDcGv3X/s3hHdP0vot1uDstX9J/nOWEY0mq1huyXqRxHYO8AQ59OO6ZcLvf8o2sfpRRHbjtMp9OhtlInjmN8PyQvpmqV6vtHuVym00n6/o+2/r+G/whhUJkmCieJ2x3CyKUdt4iiyPqfdsl0howMjUaD+Yl9tNsxjqfJdY4jPPLcLhFodWz/nVbX/zKENOR5ju/ZGeJyJaDd6RAE5WJpjSbPc6KoSrsVE5UCWq0GfhjYNU5u0b8fWftMlIf0313iE4QhjUaDicokrVYLN3LsnbkT2TXvIXQ6HSZKE7TbMV7g9uIrz3OC0MZvpTxBqxMThr7Vj4E810R+QLPTplwtWfpeaGehnfH5Yy3/H8QP+v925b9V8VfE77j4Wy//XW3+vNr43y3y7zr+bxL6Nz7/Xp/6f7PLv1X/F0C2C+Jnp+v/ZvCtTptquVLg+/Uzz3P8sPC/cl8+VIxnOjhlX/xmxdUktQXmJkIaC+eZKXukjQUikUJap+Iqktoic9VgAL9IKDNIGlQd236+GlC/fI6ZkktaXySQCTJuUHEUSe0y89VwCO+L1OLd8e0jkUBSpyzzMe0XCGWKSBtUPE1SX2TPhE9j4QKzZY+s4E8kdSo+eDphtuJz8fR7TEcS1V4hFBmkBf36iHz1RSJh5evppxrQXLxg6TcWiUSKSepUvK58PvWFC8yUXfL6IoFMIalT8Qye6TBT9vn49DtMRoK8tUKJDFH0H68hv0is/uIx+gtJEUmDkqdJVxaYnQhoXD7HVNkl6+m/TslVpCuXmZ0IR/B9+eP6AvMTIfWefa9Y+W8QfrX/jcEP2CepLxLJHJIGZVcX8o3ILzJkbPWTrMJb/7H4nHRlgflq139cssYVQifFJA3KXo6nY2bKnrVf6KCbSwTC+l95hL/psmv9T6TItLkKP1P2yJpXCGSMyhYIw4RG8ywTk4ra4immKoZ24wIebUTWJHIz4uZF5isenSuXqIQZcfwxoRMj4zZVV9Ep/Ke2cI6ZkkNWv0JJpIX+cpL6IrMVh9rSR0yWIG0sEToxWl0h8lPipQXmyz7x8iWmSpKksUDVNxDXqTqGTv0i8xMetctnmCm7qOYivozJ9SWErKHjBSYrmoUr7zM1o2nG5/C9JiJbpuynJLXLzJV9mosfMxNJOo3LVv9po4ifS8xPRDQWzzFbdsiK+BJp0+Lrl5mf9KlfPsdcxSVrXiGSaS9+1s4/9TXzz6D/X23+G8xfXf8aF79JrR9/o/G7Pv8b58/tiP+dlH8n+e/nj5ub/vbn3xtX/3dD/dop/x8cX+xk/Ox0/R+PTyBtUnFz4vqi9a8h/afIZKB9NaBx6RyzZY+keYVI5JAliL37Dpg0TalUKizVVpibnqFWq1Eqh721J2maUi5VWaqtMD8za/GlUm9tSVa0r9VqTE9PU6vVKJfLJGmKIyXpGHypVCJJU9xiLcm49mma2juNLBvCr4zQTzM7A1er1ZiZnuv1H2cpnnRIVc6xY8eo1+skSUJ9eYVSqUSe58iCv3K5zHK91pd/sP9N4mu1GjMzFl8u5HMchzzPuf3226k3VojjmJWVFUpRBTVAfy3518IP0k/SlGqlwkqtxkyhn8qA/uMkYaJaHcKXooi0WKTd7X9lZaXHf6nYxaBr/xuBH/K/EXxX/13/G1zblKYplXKZWr3ek6884F/j9DOEz2Iqpa79+v6T5glSuOQqtfar14vZ3AblUom0eMkwyTOqpb5/LNdrVKK+/8VZSrVUXhU/HdWAak5dNZk8GNBJEvzEJ66lREGJLNNI4WJSwYyco7ayQnk+pNZeJCh5qNTgqTKqQ8//pmZnqNWWqUQVsiTHlS6pigkqPsvNK0zMTNCo1ZksTdPO2vy3v/2P+a3f+i2WP2zQXkqYnZ2lXq/j+3aXg8gv1nKVKtTrK0zNztBYqVGOqjTNCs6RnH/03/xDfu9f/h4//cmbVOZCGllMWAYyyGog2x5TzjztKx1mpmb7+SGLEUKQZjHVyiTLy8vMzhX+H1VIkxzpisL+1V581WvLlKIKWZ4MxW+9Xmd6epp6vd7LL46UJElCtVodip9ojP9fTf4bzF9d/1orfgfxo/njWvLndsX/Tsm/k/x3238S6G9r/r2B9X+31K+djv+djp+drv+r8GkH1/Ht+K7Uz/9rjQ9WVlaYnR3xT4kd5EopyVVqFwfHmX37WaW9t8e7U/Kea19q8X2/N0AUBV6pDM/ziOMU3/d7j3qNGdjGwvOKR70+ed7tX15V+6ygb49YlagsLxY3W/6zLv/F23fze2ZxXZezZ8/a7ZW6b2drQVd+3/eJO+mQfEPyF4unu/wJIXry53k6RL8rnynk69I/c+aMfakm7+4CIa6r/sC+hdht310q0ZXPdPkftf8G8q/CX+f2WWa/3z7/G+yfAf7s0oMsswMoI2z/e+bme/bzPM8+anccdGG/PM/t7gRryZfpIfmzLCMvtRD7O3zpV17k2F13E7gBr//45/zpH/4JjQXFP/gH/wmpSfjd//P3kEsV+8jeW+TzrzzDE595kn/yj/87vDxAFksWfNcjjRWB69klDq5jd28QmpQYAsVt9++nVKrwxnffQwiHvBIDAn+lTMmp0MladvuWTONKD1c5CPH/s/fmcXZUZcL/95xTdbfe09kT9i1AEGUJAdkENBh8g/sEBH0RlRnX37gNjuMCOqPozMuLrwzKooIKKAw7akBEQAjZSEggwUBIgJDO2vtdajvn90fdun2705100gndnZxvPpXbdW+dverUU08953kEnvZQaUXRL5JxU+AJ/FSR6MAi37jqq9z2k1tZt24L/3z1p6kfV4cKFaWuEls3beWR/3mcTcvaqBGNeIGHSilKYQkpJQ4OUjqV/g9Kcf/4kY+UDkoLHJGKvU6kMvhesdK/ySrlwZ3/Qfn898rnf+/rc7TNf3v9+h8h7R/u+o/a8oc6/4728d9H2j9q+29PpC+HPBio/6vn/yT/UqnUq30CjZg0eeqA3pwHEzVoRzFPBhV1aDfT70quQggmTpwIQMvGN2P3GdtFKttx+Ykbj7716R07vU8dy8dKKZk4aXxc/oZNvdx3VAeq65Vvn/Lp0xeDiTWzXf9VO6IuO1neUT/2bf+ujuXeHP/tju2zb6rSG2OQfcZpZxHFkzFK6jF58mS01rS0tFS+SyahxJ+fEKJysSXpY7tc0D3xpjEmQgpBV24LH736HN7Ytp6//nYFxoP3zT2Hww89kOu+/yuOPPIAPv6Fi/net69Br08BAtPs8YWvXMEL8//Onx/+K64rKUWaXGMGAnA60wReiGyA7iBPTV2KKAzRnqbowvmfOxbHcfjDT58nFUh8R5OWCqczgxIOXqoL4UIUaJwoTTqfxfdDRAN4TgGVk6RlitKWALdGEYwtceW3vsId1/+av7+6mS/84CIe/uOfePUvbeDCOR+ZzqknzOSnX7uVqF1gHEPgBLgNCmkkdCrQEpMKifyIOqeBIAjQuTC2Bc5nSUcZMKmKwD5gUIFhYLDz34i4fvq5/is/9U3bN/2emH92kT05fw14zBDLr/zUT777w/z9lt7/9+P275H6j8D+G2z6gfISJO2oCl7Sp53Ojgrob3/QQsdwpB8oQthusCPhdbDHVP8+0CBV3JD0kzYR0Po7fmfl99t/wmC06DVBbye0s72A2KcCPQJiP+VXp++3PlXp+yu/+vjq8nfn/NlZ/zGI/uv1QNKnDlprZs6cSVNTU+xXWete2uak/I6ODubPn4+QTuUNgDGGQHsccNSBPHzbH/FLgA+PPfIXxnzoA9RkHF54/g1aS5s47O2TWdGyASmhZiI0HFDLwv+3AN+AbNB87NL3ccRRR9K+uZt7b32Ades2omrgx/91NX944EHOOvVsfnbtjZz74dOZ8E6J74dc/YPz+NaX/4trrv8u1157LZtWddBUW8tnPnUZ46c2s3XrVv5w1zzeWLqZxuZmutJtfOHLnyVXp0in0/zutv9hxYo1KBkvvBMiDiWncyWCVAFSQAjPLn+BM8+bicyFpFSOIFPgksvmMm78RLyiz5//+CjLnnuZ444/lE9c+r/51pXfRtbCGbNO5x3HnMQN3/olRBIpYncxAtBaIAYbuncnDDX9QOyV65chzp87uP7fkvmnn/rv0vUvdE/9E/+aOyh/T84fA5VfacdO0vfX3pE4f++w/H7Ke0vT74PtH+z539/xI/H8Ger9f1fKr1ZcJem2w0hUfV3tdwWGZJMi1kiJcoZSlJ0RGwNopEhkg/h4+myinD5OHpVvRmCMLv/ek76/TSIRCOKIbb2dHYPulb663nEc+3i1ouj7KaC2rgaEId/VDSb+TvTJY5fbX5UHIt76yzMuvw6AfFdXJW2vfutT/nbtLfdf3/J3uf+liAWSfsoWSf9X2sv27af/9vdNP2D/sf3501//D1j+AOMvTE96qoSfSnptwMTpqeo3CfG4CeLIEaZcp3J+QsaXT319AwCdne2V/hQCmpoaqaurxZEytj/zPLKZNGEQ22sJoK21lU0bWzAYlCqHgpQGXxURjfDOc97Jhq2voJyIwhZY/OhLqJIikprU5JCjjjmcpY+vAQUnvu9IPFNi6aOrMQY+870Lea37JW667mFCvYkPfOJ9PPnCEjLj4fgTp9OxcRu/+n93QF6w5LlV5CZ6lDpK3HLV/SgNJ885hufeWEBXqPn8P3+CV176O7/51R10+tu46OKLWD5/Oa3btvGNf/8qzyz6K7/55X1s3vIycz87l4UvP0Ok4D3nnsmLi59nc2eet71nKmtbXqFjK8g6OO38g9nY0sIrC7ZQ8gOu+PbHWLvhFe66+V7efG09H/7CbP6+cTFrV7cxYWqOg2aOZV33ej586f/iVzf9Bm+jxg3SQKzBFUahhCqPn+7/eqtsgmS4xQDHDnj+Jeev7NkXuzD/9b1++5v/duv63cn8uTvX/8DzD5X5d6D5b2/Vf8D+61P/gebvwc4fQy3/Le+/vT1/D/P9f39tf/X9SyCIRbmq+7/W5fokAt0IPX+Gev/fYfnE0mHcIeV8JHGPJPO7rJrzYxxhoFrjWVH/GlM+sGfCT24y8fGC/jSmvdL3c/zO0leeMvTOyzdVTySVV5lJHqanLgKBMMnf5cGu5LuD+u+o/HIepqr8akT5FEpuj8LEJ2nv8pMTje3Kj3/dcf+J3ep/0af/Ra/0Umi0KZdvzHbtlyg0A5efpB+o/6rT91d+r/b3U/6A50/5dYWk//ob4vRKOEREcf1lcpElY5SMTJyfkAZdjmymdWzjM3XyFLQJ4wVhRKxYvoyUqxg7dizGGNJuikKxm2w2SxB4dHR0sGzZMqZOnkyoNRs3bkRKgR96KCTPPrqIls1vcsF5s5nQOIElTy7j6XkLUN0OQRjwwpIXOeuss6idNI/uPEx/x3Qe/9NfMREcevhYGiZnePZPLzNuCqxfv57I0Uw9PMP6TSVSGcmCvz2D8KHUXcJpACeUhF0B9Y5Lhxdg0j6dBEyarqAu4LF5T+G3wyvLX+cx9y/4QYG6sSm+9YNryDZBpgY2bNlM0enAaYLwDejsaCOKAoggm3I5beZM3nlAHSJQpCaFvLbmVUoC3j5zIk49zF+8iKADXmlvYdHKJzn6lINpWbaO/7n/YS7/3nu54JCTePKZx+jY1oZDfdksJIjH18TnghC6fL1Lkofb5HozgDASI3R5XuiZHyrfV67U/q8/kvPX9OzH52887jub//be9TvU+XfH1/+uXH97pv47KL/f/usn3Z6YP4ah/JE4fw/3/X//a7/Y/v5V3qs+/wyip/5CI/TIPH+Gev/fYfnEQq9OxCYBScTahMp8XfkCHImG6h9M5bft9ysTvkYge+33m34Hxw8q/U7y08mAirhDqN6In3owcXg4UY5cZkyE0KbnCXuH5es+5VM5PhlAXRmD3lJucnOVCIwQYKI4jY4g0VD3k46q3Z4bbv/9J5K0Q+h/g+idXkPSLaK//AzxxTNQ+eX0A45fVfp+y+/V/sG3Z7D1NzrsVX8h4jE05TyUiYWmOC+NAkwUggnQUSxkKSEwOoxfoYcBSxcv4pRTTqG+vp4w8si4Dn6xQLFYZPGCZ1FCEgU+Ukm0CWO/sa4gJRVdm2D1kxtY/cf7qB/v8J5L3sll3/wwN/3b3aQFbFttWL96I0e9cyxbO7biRC5rlrUiBTSOq6NQ7GLWrLejtoylxjSzdvkGtq4t4aTBBCEyEKgIHCdDKSqhg5C6+gbaWgNSOUBolAuoiPb2VrKhJB0IdJvDE/ctoSmnaA8iTv3oNI45cRpRu0c651CigEyDSEFDQwNKiHgBX97w7KNLWPtHHxUBY+FTX7gA5x8MGze30N3dTfcmCDohUw9trZs58OApOAK8Tljy4jOcPPMd3PmDxaiNUG/A4CGIQ2gjwvKA6p7rA400oAU9n+VR7P2pez6TU3eA62/g8zck1grveP6K0+z963eo6Ydy/e2V+WcX+m/n/T/4+gxH+SNy/h5J9//9oP07rn8/6Xel/qPx/r+j8vvkL8rrXLToSS6T/bLwLQCn+kYxOPoev7P0Ozt+98o3aGS5B3RZu0P5F1n+BAEi3pcYDCb+LNsPlsXUHZTf5waIKB9nKns9IlGiTu85VFY+e+paecWRDGSliF3vP1Gpz47qr6s+d5xfUu+qc2Z7KlqwAcrfhfT912Nn7Hr9q+1pe9efyjiZqnHoXT+DlILNG1viB5PyU2pSilKKKIpYtHAhp556KnV1degoJNIhCxctQEcREOG4cfhnoSOUEoShx4QDxnPJJWdy3U9/Tc6BLW+G3PuXJ/jm1y9n6gFNtKxuI+cInnt6ESd84Gheee1lXn5+NaoDnAC8riK16Vruum0ZtIPwwHRBqh6EE08C0kgySuLnA4wL2XSOtrY26sZARx6MCTEhOEIyfkwzBa3RAgI/YvrbD+eNl1/hqKPHcv4Hz+Oa639K4Q0ggn+97uMYBSaEQnceHQYIDY5rMKa8MjaCKISXXlrJYYdNYc3aV6lrrEc7kB4DpRDGN42jfWs7YQTpLJxx4jvZvGUT5717Gk/e+RIm9AEXaVR8rSYPj2b780aWr3lZPt8TQbb3Z8/3UH2uvPXz386v38GUt4ev/52y79R/uMsfkfP3LtS//89dPd62v9fndvXv+/uu1H8U3v93mr7n9+RNuuwjplX2k/meyivz0bX1GArEQooSItYmoek94BphBth2Wo7usyXf9+Tdt/xK3mVNcaw+334TJhF89+am+3zun9tANmBCCEykiU1jDIldtREGZPmJsWxfJ4mPTd4GgIntcokvuigKWbJkMaVSkTAMWfjsAkLfQwiQUiBNfLyjJGiNEpK2ri1kD1ac8+kjCKeAeyQcc9IYOjsK5Lf5uKUUjid58fnXqR+f5Zjjj+CFBc9jNkOulGHT6i10bvGZedZYyEFtM5w162343bFbNB2GOEpQKmhy2VocoG1rFwcecjB5AaIGECF1Ct5YoNEFOPWDB+IcC4e8u5YPfv69qByExsfXnfgGRA7e86FD8KJupAMiA7lcBtdxkAqKso2gXqPHQjQOxh4Nhx93CG3riqxZAJ2drZwyeyriQDjkNMXx009k5bJ1uOPhY586j1eeeoPf/98lnHL2CUw63iVSJQQhGI0ivr4FcSSg7bbyNV35HMQ23Oemvf5Hcv339/KHe9vf22/7b2fbwHN7hCD2bOQkFokVlaIZ/H5sMyHfmvR9qUqvBSgSY/+yHleUpXxk/LeQIMCIWKdb0XnvsL6S7aj+XcS/J88m0sT5xz8LhISyeIQQggjTq/xkqHa3/wZf/6p29On/7VTKgy0//rLqz11PP5jyBeWFWjs7H/oyiPNHE49hZQxM8j0oE4+PIBZ0tSkfKwwIFZ8/BrQ2SKUwaIpeiWfmP4sxhkiHIBVGgxCS0MSLAnS5MEUcxva3t9zJabNP5htfPRNjDK9seJU7//s+Su2QdesJdYnu1m7eWLaNbDZL5zqNW4K0m8MvFLn3pnmc84HTmf2VQ3D8NCvmryFrlpPJIQK3AAAgAElEQVQtCZrVREQhRc7VFLtLmJxg/fPtnHz0ZK76xr/w7e9eQ3M4mcZ8Iy3t7dz53//Dez9yBu8+772sXbuJ3/3mdxS7YMPfO/n706/y/11yMbVRhnvvvZezZkxkgm6mq2Mbos3F9Wpx/DYaw4l8+oMfI/vu8RBIiqKNhU8s4vmHXsZph3l3PMHJZx3PrK/NZtvGNh69429sXAEnzTiUQycezU9+8GdMERY+9jxz338pv1z8W2KvCg5Gl+1vZT+rjvs7303Foqv8e88rruQ7syvXW1V6szvXa9/9nV6/O97f+fy5F6//PVT/HZefLOLqv/6D2R9w/hjU/tDL32fn77fk/r/vt3/vXn8juP8Y3P1/R/fvHbW/WgkqpkyeaBjlVHVVr+9iQ+tYSJk4cTIALS0tvV9fD4U+eQyYoxAVP7kb+/jJHYoLoz3RhtFc/lAZqP79nU9DLafip7nq/AtVgOcWiVSA1OUHJqlRkSLt16G0QouQQHn46W4A0n4dbpRGaoWWEQXZia/iyICOdnCiLEIISqIbiaAmrIFQol3QKiKMinGQiEAhXUWo/HKjU+WpMEQLjREGYRRZP4sf+VCv6fby1KlagiAgcuM2yMhBaYmDIJIhnpsHwPVzgCRSHsJI0n4tAIHjEckAAUgj0MiqxWSxOYjGEAmNQpEOssgojdKxt8PqxaYAnuchFahyIA6BqgTxQBtSKoOUxIsNie16hZEYGfZ631M5D8v5J360+7qgkmVbryS/obBH5qAhsj9f/8PNcPffSDj/hspob/9w139/KN8x/WkrRyHbd5UGU20Jm1jqljWpe0CMEfR4eBBG9lOHquP6Kd+U/w2lBkNldJc/VAau/56tVf/jr6I0uSi945TaJaVd0mHddvUTWlITjqVWCALjoYRERimkFKRUJrYBDiSpVIpimCctsmSCWvDK562WZEz8JiQ5j1XkAhApL94PUtQ5Dp1b2hiXa4KiJAMQCoLAQylVXuwlcdCkSg2AxIliITGSiXAZ7zthDYnXA6AijCoUoMuLAA1CJMFadPm4eKy06D1fOelU/LsGIVM4UhFEIRk3SxiG8VsWIao0AgKkwGgHZJXQXJ5sTWJln5RTmYT7lG/EdgL3rjMCbrL79fU/3Ax3/w3/+TdURnv7h7v++0P5+4aEa7Hso/TyAlKFMVH8lkLHi8tSjouUElWWDUWkUMLBzbj4kY8rspggdj+Da3BcidCmsjI1NkeW5S0W/hIXXYVCiYaGBvLFblTKwfO82F1aukdAV5EqC7Jlu3MjSdzCGEHlby1DjAjLMqdEaVkWcMEYgTQKR7iDfErXCAXSESilyGWyCAWZTArjhygNQmoiEyKNQCamBsagcJBagU5srBP7eoFEgY5ARyh60iS+UytjM0KirlksFoulf+wsbbGMYtLpNNJ1Kq99dJVyUSKIIoMrY6HRdd2K0BwZQ7TdU3QsoBoZC7dJXPT6+nra2zupq6ujWCySrc0RhiGe5/UkFcmivLJQKPtoOYVGC1PW4PZMO/1FpQJQyD6CrgFMr5W0ievAIAgq9XEcB4kgW5Mjk4tNN2RZUI3zi/PRWldME3q3vzcRvU2bTEUp3Ld+FovFYhlpDBjW12KxjGRiu1MvLKIxKKXQmjjiG8SrIKUk5Wdi+9GMT7efp95pJIoifF1CuQ6JaWnyNj8xU0hshCM8uosFarK1eEUf13UJAg8npRDCQYdR2S9thBGJICnRwhA7yo21xFrEfye2tVr0CNRCKEQkMCI2b4htfWXVuoJq4TO24Y1knN6RaZyytlYph8gXSCXp9DoRwuCQQRpZ9oMsMMmiNSdxWVOOi1YWmJM3YIakLcnCo7J0XXmKMFSvm7BYLBbLyMMKuRbLKMWIkEhFhCKIfdZqcKJU7NlDQIRAO8Sv6wEpJaHxCYmI0iERGlen48VUUGVfHucvjURLjeM4RFojpCRyAjQRUoFfClDCASRRRSvaX146FoANQGJr29se1ghTtg0O0dIQGRmbDZQF3CTwizSyIiCHKqDgdMfCdCBQQmEyEhT4xsfFAT/uEwRoE0f8iYXx3os+e/5OtNg9Qq8QuuzhYag2uBaLxWJ5K9mHzRVkn23vkNgxWixDwZioyjZUV/Z7vk9INLWCSEUE6SKF2k7CA7oJD+yiu2kbfm0e7QRErk+puZ2wuQBAyqTwZZEgl6eU7SLIFYiUH7/AF2Ux0jgYnLJWNdayBkFAKSoSpHy6nC6uvu4qJh4yHuNGRFKX7XeT+vUWlLXUaJksHos1tZGMtb9JmBZk7JlBS59IRoTSJ3BLsecJqSsmAkZAqMKKcOyluvjqrVfQdG6K7oZuums7MYflCQ9txxuXJ2jsxkt1EzpFtPQrXsKFkaAVErWdh5PED3KlTB3G/V+xUS5vMl7AZrFYLJaRi9XkWiyjlFB5iIk+H/joLI44aho6gldXr+GPv5+Hv0mDEvzzv3+ee//nPl7/y2ayIguuZuxBTXz6Xz7NN7/xbVTJKecVoIVGGgepZXmRlom1phkwRBSFR5TWfPFfP08mSiEcicGrhNMVRqK0QmkHpRWR1ITKQwsTL/zSTkVrHEkdC7CmvLhLC4yMCNNFjjzuCHANLy79OzWlelSUIlRhuX5xOanQJVQBndlW2mvaCFPwje98lVyzJIh8dEGw5fVt/OWBv7D+pY2k/VqUEYTCKy/aiwVspWNhVotqbXOMNOVFcbELiLd8fC0Wi8UyNJyh+incnxdfDMbfbnLM3tD2DrePyaH6Gx7t9d+Vcqrp6zFBa42UTuw7N4ztXiu+dMvRI0z5U8qyLag2+I7HBz9/Lm9uXc/d35kHJZh18elc+qW53HzVrwkiyKfbyGfbKWS6cUIHjQ9pQ6fTTmqCwusuEfgBujHApEJ0KMiRJdgaC35irMakIgrdIUpJkIbAM6QcSd74pMaAqhF4oSFNis4Wn0anjkJngJtxCOt8PHwIwA1dnHwKN50mr9qgxuDUKIR2KGz0IAWZQ2Dc2WnS6TSrWg3h60V0YAjrS5CGYj7AKTlIUUekI0Rk8AJgMhRFF3f/9/2seq4FUnDWuScy54rZ3HzdL/HX+TgaoqYigSrhF8HVDrkgh9aaLtNNpsYlKISknTRe0Sfn1CK8dNkdmkQY3WODa3rb8O6J82J3GM75V2u9X8//Q2W4+2+0n39Drf++cP8a7vKHs/8GW77V5A6RnQ1U8jo0Oa7v35ahMRpusolQ258N6MyZM2lsjBeDRVFEOu3ieR7pdDr2ACAVnZ2dPP3U38qLy3QlryAKmHrEVB5dPA+/AETwxBN/o+mCJrLZLPn2ImFNgVKuEy8T0VFsQ6U0BdelJPOU0gF+BiZPGcPsj1zI2CnNFP0ijzzwCOuXbsDNuXzlv77EvQ/dz+yZ7+fWm2/l9U0b+ff/+ha/+dlvSKfTfOSyD5EXXUQ5H3yJ3iD50Td/Sn1TClmn+eDc9zHpoAnku4s8+ehTvDR/DdT5fOMHX+Y3d9/KBe+ZQ322gecWPMdDf3iCWe+fwdEnHYESDocfdBQ/+dJtjBtbzyVfvASdDknn0tx58+/pWlUkCiGMYtMCBIROiFA6ntUMLFqxhHM+fDpexqfg+NTnYO6nP0zz5EY6urt4Yt4TvLxwHce9/Tj+12WzueqH1yDq4PRTjueMd7yL/3PVdbik2ZetukbD9bMjRnv9LRbL3sUKuXsZOwlbknMgEU6rNbn5fJ6GhgaUUiil8DyfbLYGz/NwXReNIZ/PVx6OlFKEYYgQBmUcFj66jAvf+xHub32Iro1FujbCbf/5IA0ijcpCF9sIGz1oBOo0pgb8xjxkDL4A9zB439xZbFy9gVt+dQdTp9Vz2Sc/wY3/50a6ghJddVvJjJP88KpriArQcJhDSXaRyiheWPASq5f+kLwb0XACfPazn+SRR56kplkS1Pp89mufZOnC5/j17fdw6PSxzL1kLts6f0lbMU97w0bGTxvDTT/5Bc2NjVz8Lx9heWEhD/56IXgSlVI8eOfTZOoEV3zpU/z12Xk8vngpB56U5eNf/iT/93PXI11wahRuBooRhPiYsRGpQ0EbeNsJR7Fo0RK628GdCp/4zMWseeElfnXrbxh3WA2fuPR/89v2u1jy6goObBnLGXOP4dlnV3L2Re/k5m/egmNcRDmIhRBxUInkjYzez8MYWCwWy2jACrnDSF/tnmXfo1prL4Rg0qRJvYTc5cuX47ouY8aMwRiD67rk83my2SxBENDR0cGK55dzwAEHoLWmpaUFKSGIAhSShY89x+atW5j97gsYWz+WJc8sZf6jCxCdhghIZdPMPO1kspMnIjpcRE2BdJOLH3rgQG4i1E7J8tB/PgEl2LShk2cWzef080/j7oceJ3B9nl+5ChkoRAheGOJkFUHgIyXksllId/P+953P8ude4PnFr2A8aDpC4Wc9/vzIQjIS1qzeyktr/s5xpx3NvKcW02U6eH7VavIbQXe38+qml0k3K3DBjXJE3QFEUBKG7/zHD6lpivtzq1ekW7RyyNEHsmL563QVu/AjIAQpHU486SSOOaobaVJMmjKV5auWgYL6IyS6rsRjjzyF1w6bWvK88PcXecfM41n34KM8/PjjXPSP76X+kAwPPH4PWzZvI+3V9fLLm7htiwf0LTqBLBaLxbLbWCHXYtnL9Pcgkwi9URSxZMkSZsyYQV1dHUEQxGF4i0U8z2Px4sWgDVGgkU4sYQWRj3QVrkrRvcnnpcdfZ9UfXqdhQo6zPjaDS678IL/49j1IB4KuiAV/XELLPE0TNQTpPM2H1HLRFy8FwK132dq+jZQGrxuohUJ7yPimFLjge7HGuFiKSJFGyIhCoYBKufgOtGe6ecc7j6EpM4nf3PYn6sjRrQpMOGgsHh5RHgpd4I6HN9ds5KCjJqIFZNNjMD5k0oKwaCAwCGNAg1fyqcnWEkVAFk57z9s48eQTael8na7sZowT0pHvRKSgvr4ORwJp0D4sf/xFVsx/A8eDQMAHrzqD6R8dw6aNrbR521CRA8UQ0wnrX2nh+OnHgwBvKyxf+CKnn38S8379HJQEtSYLgBARyVRp+rhKs8KuxWKxjFz2XWMzi2UEUG2qANDS0sKGDRtoaWmhpaUFpRRRFLFo0SKKxSKO46B1HD1s4cKFcbAFHfuqrTZZiKKIceOa+dQVl+L7IBVs3VDg4b/9lbGHjWHiAfVoH3LpemSUJuULolaB6BRQdDARICDoDpkwbiKlAEwOfAH1TbXoUIAHWSeHDkEJFykdwhDqGuvoLHZgHGg4RnDuJadzy22/RBjIF4tIB7Ztbou9JihIN0OgYeLUiXS35XE0hEWNMi5+3uDK2G9tKpWKO80YfBlrmsdMVZw5+wxuvP2X3H3PY8ybtwInq0hlHQxQKBRiYTgCpCHvFzCGOFxxGta8tpqJkycQlWBs0xgKhJCCUMJBhx1Aa0crqmx2e+opp/P6K+s58e2Ho9KSQPmx1wVjyuF/400DQr41ixYtFovFsvtYIddieYvY0WrQRKNbKpWIooiFCxcShiFIgVAy9kVrDFJKtAZHKLZ1t1N7aIazPn0M4UHAUXD42ybQ1Vmiu7UQv+4v+gihwLjkMvU4IkXaSceusXzoWG5oX9/O2Zcci3MMNJ4Ax511NE//5RmcIhBA2lGEXogjFW4aOgptZBpdaIJzPzOD2/52I10STD24Yw1awZaXfbzOkLPmTsM7ACacmWLCtHGsXLyKdCH22YsxpNMSx4FIB/ilIngQhh5Oc0jmUHDqNNrx0CmgBo6a0YB24qAReJDNZhEKcCFwffzmPBwJ0cGQPhyOm/52utZ5tM4H0yE5dc401Nug4e1w0DsmsWLZ80Qd8IGLz2Lxcwu479cLOWvGu2k+rAHdWCKShuoXXgKFLI+lIep3LC0Wi8UyMrDmChbLXiYxV6jW6lZ7XFAqDkpQKpWYP38+xhiiKEJKWflMBFwAiUII8PM+t//id8w8/0S++qXTUEqx+vVXufv6+wnaoV45NJvJNAZj6YjaiIoalUujvAw5r56GYop8p88DNz/M+R89i1M+fwqb2rbx57v/wpsvdtLclKOpNI50d46s9BGhIFXMMTEzhagT3jZ9KhMzk/nAu+ZQd8IExjKVcCt8/7s/ICwE3P2z+5k991185UszKHg+f33wKTa82EZtbYYx/lhqS3W0FjqQIk1DMJ7x5iBWd/+d5U+9yNwTPsw/XnQQP/3Rb1j9zBq+/IkrKEmPex65m9zxY2h0xpJLt+Nsy1DXmaLQ5ZPzavnkRz4VR2QLXEp5n6XLl/LCY6/CNrjv5w9zyuzj+eZXz2LdhvX8+b6/sn7lFs486QSmjT2Wx+57ArkZlj66ko9/+OPc8KMbywMoqfjJNQZjBAjrN9disVhGOmLSpElDsiobDa/shBBMnDgRiF8Xv1X+UQdT/mhfeDbcfgZHy/k3adIkADZs2LDL45+cP0KIXudPqAJKbjdaaUykY2FYgIwk6agGbUL8VAmQZL1alHbQIiBSIaGMYu2wb9DCgArQKo7kpYyDLMWCdyB9pHBI+VkkAt8pgmsQoSTAR9eEaAGpwMGJ0iitykJhHN3MlKOYxX5mFanQBeLgExhJVsd2r56bR8sIN0wDEKgAI3TZm0HcV1oatAiRRpLx43QlWURLjdRxvkYEcZ9VpZNG4ugUCEMoSpUoaso4pHQajCBwvHIwCInUDsLE/Ri3yaFvMIjKAjQ9vNfvaPZTuicYDdf/QIyE/hsqo/38G+7712hnuPvP+sm1WPZhnMilNordDlRri4UQZX+6KdJhrlcaZVyUdilbv1bSBcWgYverVOw2S2uNDnQlPyklyndQkaqklZ27afEU9N7NBUmNYmEyjSxruhOTgP7LSZHt83tfDWvfdLl+v0/5OfojjoBmtbYWi8UyGrFCrsUyShjoybfa5CFZtDbYJ2ytNUopstlsZb96gZuUspdpRSLwVpe5Z+kRPuO8h7psoI83hAG+F1YpY7FYLPscVsi1WEYx8UI0HUdHg162u4Mhl8thjCEMw4qQXE1NTQ1aa8IwrHwmxyUC8p6gr8/o/nxI720Tn+oHA/sq0mKxWEY/Vsi1WEYxycK0JNxv9SK1wQhqnudhjOnloizR3iqlKBaLlbyhR6hOpVK9QlQPHU3sdFbuYF8weM3uQOYLvX/fLtyyKHvBGHS9LRaLxTJSsUKuxTKKSYTZvv54Byt8JkJeoqmtFpiro7UBhGFYMVGIomiXtcYWi8VisbyVWCHXYhkl9Gdnmwi4fQXdau3rjpCOQhjZ69hqu9tEwwvgplO9BGCtY68OewbJng0ftrN6JeYd5QVuIi5dGBAIjA1lZrFYLKMeq4axWPYBzjjjDKZPn14RPpPFYjtj/Pjx3HjjjaxatYqVK1dyww03MG7cuIqWduXKlaxbu451a9fx0ksvcc8993D88cdXbHP3Bfas2YXFYrFYRgpDFnKTG8TubkOl2rH+YLbqNEOt//7OcI/9SKjD7p57g/V+0NdsoK+rsGS/pqaGKVOmMGPGDFzXRSmF4zj9ll+dx89v+Bmd7R2cfOJJHHfsdDrbO/j9nb9DCYlf8gj9gI9feilTJk/myMOPYMH8Z7ntV7dSk83R1dGJ4zgEQUCxWKRUKlVseR3HoaOjo7IwzXEcPM8jk8lUFrAVi0VijaouuwrTVfvJ2CTfJe3ve5wob8mYigG2/n+v9LOhV+jenY5L+XjL6GWoc8dovwfsifoPZ/8N1Ufv/jz2e4LR0n/7jSZ3V4WLt4pdFdJH2mbZewxkZ2tMb1dhrutWFqCNGTOGmTNnVhaGVadLxkxKWbG9PfHEE3nooYfYunUr3d3dXH311axdu5aGhga6urrIZDI0NzezefNmhBD84he/oLGxkdraWgDGjRvH73//e9atW8eiRYuYNWsWxWKR008/nW3bttHc3ExDQwPf/va3WbJkCZ2dnQRBQBRF9vxh6Nf/aGd/b/9Q2d/7b7S3f7jv36O9/wbDfiPkWiyjHSFELxdfQsRa0yCIAzmEYYgQgtraWmbOnFnxfVu9OCwRjpP0v/jFzfz4x9dwzjlnM3HieIrFPHPmvI+tWzdTW5uju7sT3y/x9re/jfr6Wr72ta/wwAP3sXnzRurqavj1r3/Nm2++yUknncR3vvMdbrjhBmbMmMHTTz/NY489xr/9278xbtw4Lr30Uj73uc8BkEqlKvW0WCwWi2VvMeSwvkOuwBCfBgaTXog4rKoxpldY1KGqzQdbdyGGN6zw3mJfeGUz0s8/Y2Lb2AkTJlTSJHlKKdmwYQOO43DeeechpeylIQ3DkCeffJIgCCp5JU/giTa4ubmJCy64gLlz5zJlyhRuv/12rr/+eoIgIJ/Ps3nzZl599VWeffZZGhoaOPjgg1mwYAHf+973OPTQQ3n00cc45JBDKgL2NddcQ01NDZ/73OcYP348Tz/9NCtXrmTlypV8/etfRwiB53mkUimiKCKVGtra12qTg91hKOO/p8xdRiujvf3DXf99ofyhMtrHf6js79f/UBlM/1lNrsWyj5NMBIm7sUQbLISgtbWVu+66i9mzZ3PhhRcybdo0HnroIXzfx3VdtmzZwn/8x39w5ZVX8vnPf545c+Zw7LHHcuWVVzJt2jRWr16N67oV92Pr16+ntrYWz/PYsmULt99+OyeccAJXX3115fv6+nq01mQymeHsFovFYrHs41gh12IZoSTa2uRvgA0bNtDS0lLZlFIVe9zk0xiD53ksWLAA3/d7uf1KAj0AHH300dx99920trbiui7Lly/nq1/9KkceeSTHHnssnudRW1uLUqoitEopefLJJznxxBN56aWXOPLII2lvb8cYQ7FY5KCDDsL3fRzHobm5mYsuuoiXX36Zb37zm3R0dDBmzBi2bNmC67p0dnYOW99aLBaLZd/HCrkWyyghEVKr96MownVdgiBAKYXWmnw+z7PPPkuxWOxlnlBt7gCwfv16jjjiCK677jrS6TSTJk3i8ssvp7Ozk02bNlU8ICRC8tixY5k6dSr/8A//wLJly1i5ciWvvfYa3//+98nlcpxzzjnMmTOHG2+8kUwmw49+9CPuu+8+LrvsMi6++GLOO+88uru7aWpqolQqUVNTM3BjhY43i8VisVh2ExsMwmIZofQVTBMNbLWG1xhTWXhmjKGtrY2lS5dWjku2/rwZdHd3M3fuXL7xjW+wePFilHJZtGAxH3z/h9i2bRv19fXU5uq46cZbMEJTLBWJAs3v7riTf//BD4iiiMsuu4wf/vCHLF/2PK2trVx11VU888wzfOITn+C0007jvHPOZfPmzdx6661cc801nHvuuXR0dFQE81QqRewOrHcYXmFkr3AMwpTbK3TvfRu0wWKxWCwDYBee2YVnu81IMDwfKiP5/KvOu7/zp3o7/fTT6ejoYMWKFb2DQZR9ufZdn5WUG5nEFZlBagdHp0BoSqIbIQROkMEI8J1YK+xEGRyhCE2AMRFKuQAoyu2RvbXFsvynFhqkqAin5W+r6hproZEGTIRCYYRAyxBhJErHz+ORDOPykn2i7dq2Kwz3wp3RPA+M9vYPd/33hfKHymgf/6Gyv1//Q2Uw/Wc1uRbLKEZrjVKKJ598smKPm3waYyDxldtPWmMMSjgYIiLTEwZYoHCcVC8b3giFQMT/G7azFcaUNccGdNXEI6g6zgDIsuCr0UJSsb6INIj4eyElIpIIRKzXFboiHAsjK9pci8VisVh2hBVyLZZRTLW9baIVjT8TDe7AT7pCKEQIQrkoJ/Gfq9HGICKBkgrjRAgjyYgMWoNUEKFjgVWqivSsy8VIE2+RLAuiRg1QukQajZFxQsd1CE2IlqBDjdSx+YVQPfkKI4hk7/KGX5dgsVgslpGKXXhmsYxiqk1fdvXVlzDgZtIVe14T9bgWS/LOuJnYblZJhBML0NLEGuTqwBR9tauirLU1RmOMRmhRpcGtOlYaNBFe6JW1zwLHSSGlRCmFMEleYIRBGlnW6lptrsVisVh2jNXkWiyjmERATegRehOBt7eusyIIa4MRGj8sYgQoIZEqjfTBSINxDFIItBfbvfqZEqHRZKMsSiuMo2LBtmzzm5gTaJFocx00YMoaXWniGkkT2+fqsmmCIUIogZQOaIEyLjrSaOMBoEzZ9laF5eZIekRcK+haLBaLZWCskGuxjGKiKALo5W1hoIWN1d8ZAUaEBCpCyxAtDEJLXNLIst1rJCICNySQIX6mEGtviUiFLhKF0QLJ9uUkgm5cTmK2IPuI25rA9Shm8mgMOa+BlEmX7X3BiFiI1n3sEWQ5L0lishDtRq9ZLBaLZX/ACrkWyyhGCFOOYpbsJy7DgvKiseRIWfUZHxyoCC9ToJQqkml2wEgK7Z1kgxxuIYOWIfJAg+8WKJUChIGo1E7k1ZDuzuAGKYzRvfI3JnZVFonELVj8fWKjK8qaWSNCCulu/uHq97N46XOsvvcNGnRT2fYWIm0wOkI6VLwraJHko1HaiR0xYOxCNIvFYrH0ixVyLZZRTBJOV+ueQBGJx4Vqm9keswUDGIyA0PEQk0Mu/PD5HHro4RAJ1ry8lsfueQzfK6FTEVdceRmiAdxSGu1HvLnxTR6/73G6lhcRAiKl0WXBE0CWXXtp2VO2KNvRxqYKQawllgHdOY+O+lY6c60EaY8g8NAiir06GIWJIHZQFuE7cTojNFJLUmHZRMKuPLNYLBbLAFghd4gM1k9q9XHVUaiGwnD7WRxu9oS/4bfCT/JQ8+gbtSzZYldhiVDrIIQgDMOKna7jOPihFwu/FU2vib2KaUPgeMy+4mzWt67jnu//CVOC93zkDD72ubn86vu3UtSagtPNHbf9jrZFHkg48cIj+NAVF/LLr91BR7EDchrPDcnWKxQK0e4QhRpRI8mHBWpq0wgfUt1ZCp6HqY3wHR+nRkEWukUnkRMSCoOf9YlyPqQg6A5JR2lMIWhMFokAACAASURBVIWbVhTr8siMpNhRJBPkIA9ukEJIgejHZGJ32ZVzak+M/1Cv4dF8/Q6VkeCncyTUwbJ/sr/f/wfLkIXc/aGT9gTVK+DtxNiDPX92TLXQlfi/TYiiiJkzZ9DY2EgUxSF+0+k0nueRSsV+bpGGjo4Onvnb/Ip2N3Ez5kcBU46YzGN3PYr2gACefupvjKlpJJvLkG8toHMhbiNQBOpgyZqXOef8M5E1EHb5pCbCR+a+j8MPPYzutm4effgvrHpxLdTDt6+6kj8/PI93n3Iet157B15biZpDMlx80UdoyDXy/OvPUTemhrzphBx4Is+lV1xM/bg6Wlvbefh3fyS/Jk+6qZ4vfu+fmPeXeZwz/d3ce+P9tL/StV1/7An6PpDaa9ViGZj9ff7e39s/VN6K/rMuxCyWEUx10IXqRWWJ8JXPF9EalFKkUik8zyObzRKGYTmtJJ8vVtImgq6U4BiHxX9+ntnvfj9NJ7jUHAbdWwx3XPcg/rYI0tBt2tCNPhwONMEJp09l/vPP0F4qIerho1/8AJvD9fzg6ut4+OGHmPXpc6k7FdRh0KnayGXS/Pt3f0x7ezueLHHh5bNZ2/oKP/nx9byy7FUUElEv4SC49F8vYuUbS7n2up/xxOpH+cg/z0E3hni5TvK1nbjNDv/5/Z/Q+mobbhQvfusb+W1XN4vFYrHsu1hzhbcQqxWy7Co9NrexBnbKlCm9BN3ly5eTSqVoamrCGIPruuTzeXK5HL7v09HRwQvLV3DAAQegtaalpQUpwQ99JJJlT7zAxi2bee+73su4+nE8N38pz857DtEtQEBNXS0zZp5C0THUpGtxxgesX/s6ZKBhfIb6KbU8cfcy8GDNC5t49qW/cdhpB7HsqdfQKmDhswtxgI7ubo486WBqxtTy9F0LEB6sXbqJYzvzdPkRzuEQNPmsefMVUo2wtW0bTsaheWId3V4XRV1g9ZrVUII0WUI/Ip2VRFG4x/u874OExWKxWEYnVsi1WEY4yQKyROiqFsCiKGLx4sXMmDGDuro6giDAdV0KhQKe57F48eLYW0GgkU6suQwiH5WWpJRDx5sF1rZu4LV5D5Abl+L0j53C3G/M4bfffQAUFFo95v9hCW2PBrhIgibNhy5/N877a3mz5U02b9qCKIAsCmQNbG3bypjx9eCDq1I4Jk2oSzgpQ7Y2S8fGLqJ28LeC0ywwoURlIMyC75SYefo7kQUHIV1eW9SCClP4eahzG/E6Q2pyOQobCjTkGikUCrjpvTOF7cgVm8VisVhGB1bItVhGMMlr9Y0bN26nXUzMD6IoYtGiRZx66qnU1tZWBLQFCxagw9iPrOM4RCbsSaNDmseP40MfO52bf/5bhISOjT7zFjzFFz/3SSYeUM+G1ztxMwqtIjAQ5DWMgZdfXsO0I6ex9IUXmDx5KtoHnTUQwNgx44j8AIDQj1A4COMQBQF+0WfchLH4AbhjJUGoSWUVxoeUAQeXB373OBSIF8qFQBuMnZqh2Fki59awdWsnk2omUywUqautxwtKe63fLRaLxTK6sTa5FssIJ9Hk9tXoVhNFEUuWLMHzPKIoYuHChXGgCCkQKg7uYIwpL9YSCBy2dbeSOlgx41PTCA8FpsFB05rpai+S3+qBhm7aMeM1HAwcDZmj4bjTjmLrmq14q2HTphbeMfsQOBTGn57mhONm8Nyjr4AAhSTtuvj5gAankdWrXqXV38rR508iOEAz4ew0qUaXWulQnA9Ou2L62VNhEjAZps88DAQEnqaurg7P8xjT3ECxu0g2m6VQyu+1PrdCrsVisYx+rCbXYhnhVHvmSD6TvxOfuMYYisUi8+fPx5jY00K1LW/1q3dRjhiWz/vce/v9vP1db+NL/zQTKSUvv7mOh2/5I1GHIO1As57AJe/5KHWnjSfoDiipLlYsWMH8e1aAD/N+8xhnzj6DMz97Fl7e58nfPYNeC/Vj0jSGzSgvRcqkkYGLDuDxe55gxrtP5IITp7BsxfNsfb6V5vbxbGnfwIP//SfO+cDpzLrifEqdIWuXvcZavZZcUEuuu4bGqImt7e00pBoJwxCl1LCMh8VisVhGB2LSpElDWl0x3BqPwfoZnTRpEsYYWlpaei0sGaqf1KGWPxSG20/evlD+UBju8U/YWT5CCCZOnAjAxo0bK+WHjkfBLWBUiInKLsqERkSSbFhHhE8x00WkDG4Yh9w1IkQYSSrMghEUKRISR1eTCCQOAkWoA2QkyMoceCCli1aaLtpQ6dhGOJ3NEIoAYSROmEYaiFSIEQZhBCpySOkUxVKJbHOO7o5uGp0m/C4f13X3mAuxvra3yWK/wZDP53Ech3Q6TbFYBChHmovHN51OD1hW4sptKAzn/Lu/X/8jgeHuv+G+/w+F0d7+4a7/cJc/WKwm12LZT3HCNPVhHFOselFbIny5IhcHXtgBaRP/7vux4JmYRCR5hGFITU0N+Xye2poanJJCBLEAqIKda2K11jS6OTpe72Bc03gCLyCVSiGlJAiCPaLNTSbapO67Qjab7SWsuq5LEATU1NRQKpW2E2qT/aEKtxaLxWLZOdYm12LZz0kWoyWa0cTEYTAkx+ZyORzHwXGcihDnOA41NTUUi0VSqRS+7yOEQClFOp0elKAnpaSzs5NJkybR2tpa0ZhKKclkMkNteq83OlJKoijq1Rc7IznWdV0aGhpQSlFTU1NpayI09/VxvKvCtMVisVh2HavJtVj2YxK73epFbbsigOVyuYoNsNZ6OzdnQRDgOE5FECyVShVhcjBCpJSSsWPHsmHDBiZMmEBHRwcNDQ3k8/GiM9d1d6PVPSR1Tvoh0Qz3hE3euSmI53mVPstmsxhjaGhoqNhJJ+2AHo251eRaLBbL3scKuRbLfkzfBWqJYDdYTabneRhjKhrcRFuZ5JUIkUIIOjs7qaurI4oiwjDEcZydlhGGIZ7n0dTURFdXVyWqW6LFjaJoSO1PNMthGPYKnzzYfJVSZDKZSh8EQWyf3NrailIKx4mn2ERDniwSrDaRsFgsFsvewb4zs1j2YxJhtq/nhsEKX0m6RHCFHu1ooq1NBMYkpHBiSztYc4VcLtfLm4KUEqUUQRDscnv7I4qiXu2uFtR3RhAEGGPwPI8gCCptchynl5a5Oj8r2FosFstbgxVyLZb9mL4CbvI5WEEsEThd5ZBJpXEcp7IwTAiBEpKU4yKEwHVdoiiKPSMgcNXOXyRJKfE8j1KpFHuECEPWr1/PCSecsMfsWqWU2+U1WJvkN998kzPPPJNMJoNSqpdtct/AHX1duVksFotl72KFXIvFwhlnnMH06dN7LTwbjDA2YcIEbrrpJlatWsXKlSv5+c9/zvjx44FYc/viiy8yZ86cillDKpXiuOOO44316we1cCwRihNbV6UUU6dOZdGiRXtEWEw0t9W2ubNmzWL27Nm7lE8QBCxfvpxXXnmFV199lVdffZWHHnqImTNn9qrnrmrKLRaLxbL7DFnITW4Su7vt7wx33w13+aOZofbBUIW0HZXfV0jtT9BK7EONMeRyOSZPnszJJ5+M4zgopXq55xqorjfccAPt7e2cdNJJHHfccbS3t3PnnXcipay40ErsXRMTA9d1icqmDcnitMQcIYoi0uk0QRBUzBEcx8HzvIo22Pd9HMehVCrR1dVFJpMhiiIcx6FQKJBKpSgUCjiOg9Yaz/Mqtr1BEJDNZimVShWNc1KvpC/e8573cOGFF1bqLISgq6ur4j83aVfS/2EYVlyH/eM//iPjxo3jkEMO4ZFHHuGmm26irq6usvAuiiJ836/UKZ2Otd9dXV2VdqfTafL5fKXsHW3DOf/uifPXzj+7z0jov5FQh9HKSOi74S7/rcBqci37NTsTIna2jYTyB1MvY3ovdjLG9LIfTYS8hoYGZsyYUXnd3ndS62vScNJJJ/Hwww+zdetWurq6uOqqq1i3bh0NDQ10d3dXhEiAYrGIEIIoiipCaxRFHHXUUdx1110sXryYp59+mnPOOYdcLseECRPYsGEDn/rUp3jppZc47rjjMMawfv16Tj75ZObMmUNraysrVqzgzTffZNWqVSxcuJDXX3+dpqYmmpubuf3221m1ahVPPPEEH/vYx1BKkc1maWlpYdasWTz11FM8//zzfO973wPg5z//OR/96EeZPXs2ixYtwvd9JkyYwNKlS5k/fz4rVqzgXe96FzU1NRWPEol9cWKikUqliKKI+++/nzFjxlR+r6ur48EHH2TNmjXMnz+fD33oQwRBwKxZs9i0aRO5XI4xY8bwT//0T7zwwgujwgPDcF8/w13/4d4sFsuOsd4VLJZ9gL5CaEJfoTQRxhKhVymXIIhQyiWKNFIqamrqOOWUU1myZAn5fL6SNi4n3oSI7VhvueUWfvSjHxEEAS+++CJdXV3MmTOHhoYGamtrKZSKhDrWstbW1gKQTqdJZdKEOqKxsZGf/exnLF26lE9+8pPMmDGD2267jQsuuIDOzk4gNomYMWMGnZ2dTJ48GWMMtbW13HfffcybNw+tNUceeSR//etfufbaazn00EPp6Ojg2Wef5d577+Uzn/kMZ599Nj/5yU9Yt24dW7duRSnFjBkzeP/738/kyZO5//77ee6557j88sv56U9/iuu6fPnLX6ahoYEHHniAW265hV/+8pecddZZ3HHHHUybNo1cLoeUklQqRSaTiQNXNDbS0NCAlJKLLrqI+++/n66uLqSUPPjggzz55JNcfvnlTJ8+nZtvvpkNGzbw6KOPsmDBAr7zne/w4x//mK9//evMmjWr4p3CYrFYLLuHFXItllFO9aujao0t9ISoTT4nT54M9Ai/GzZsqJgtJOYCQgjS6TSnnHIKTz31VCWwQZKu+jX5tddey8svv8yVV17JlClTuP3227n++usJ/n/2zjs8qir//687mV4zaaQgTUXRCIpSV5QiAsJiWVdc2+NaENG1wK7Ab9VFEHXd79rWgg0bgooUERFQLChiQhRMUESQpYX0TDK9z+8PnnO8k0WJBg3lvp5nnoQwc++5596Zed/PeX8+n1iMQCCAw+HgL3/5C5dffjl+vx+LxUJmZibhcJiMjAz69OnDsccey9ixYwkGg6xdu5ZXXnmFW2+9lalTp5JKpZgzZ46MNPv9fkwmE8FgEAC3242iKDz22GO89dZbLFy4kFAoxMCBAzEYDPzzn//EZrOxePFi/vCHP3DxxRfzxBNPEAqFePHFF9m+fTtNTU1UVFRQVFSEzWYDkPVto9EoJ510Ep07dyaRSLBz505isRiDBg1i+fLlBINB/H4/fr+fjIwMxo0bxznnnEMikaC4uJgPPviAaDTKueeei9Vq5aGHHqKmpoZAIMB7773HuHHj2LhxI3fccQfLly/nhBNO4KmnnmL79u1EIpE21wHW0NDQOJrRRK6GxmGOOtK6v0iuSCRTJ5S1FMM/hTryKyKLYjsej4cFCxbw8ssv06VLF6ZPn86yZcsYMmQIer0ej8fDY489xrJly2Qkt7i4mNdee03Wv62srMRgMBAKhXA4HNTU1NClSxcMBgPJZBKz2UwwGJR1Z5ubmzGbzSiKQmVlJbfffjv5+flceOGFWK1WkskkvXv3JhaLEQqFqK+vJycnhy+//JJBgwYRi8Ww2+3o9XrcbjehUEj6hkOhEOFwGKfTSTweJx6PM336dC666CJ27dolj72+vh6LxYLVasVqtcouZ6+88grz588H9tUQXrFiBffeey8VFRV4PB5ZQi2RSLB+/XpGjx5NKBTC4/GwaNEibrjhBq644gqCwaDWFU1DQ0OjjWifohoaRwA/5tHbZ0nIoLq6mpqaGqqrq6mqqpI/RfRWNEAQwioSiVBSUkI0GpXiOJVKSd9pKpXixBNP5M0336SxsRGDwUBFRQWTJ0+me/fuFBcXE41GyczMlB3Vamtr8fv9MunKaDRSX1/PscceS3NzMxaLhWAwSFFREeFwmFAolNaoISMjg0AggMvlwuPxADB06FDuvvturr76alKpFM3NzZhMJjZs2IDJZEKn05Gfn09DQwM9evSgsrISvV6P3+9HUfYllIloqc1mS4ucxuNx+vTpw6233soVV1zBlVdeyRVXXIHFYpGe3EQiQSwWIxqNAuDz+WQinclkYu3atZxwwgkEAgE6d+4sk9ai0Sh9+vRh586d5OTkkJGRweWXX055eTk33XTTQWlZrKGhoXG0o4lcDY0jHHXL3pY/RYkuUd0glUoRCAQoKSmRtWnVkV91xLiyspLu3bvz6KOPYjKZyMvL49prr8Xr9VJdXU0ikcDr9cr9u91ujEajrGogoplbtmxh1qxZ5OTk0LdvX6644gqee+45mbDmcDhktQTxe15eHmazmccff5wZM2awZ88ewuEw2dnZJBIJvvvuO2pra/nHP/5BLBbjggsuYMCAAbz11lsAGI1GWZrMYrGQSCRobm4mlUoRDAZxu90UFhZit9vlWO12O3fccQewL1nP6/WSkZGByWTCZrOh0+mwWCwYjUYURSE3N5dRo0axdetWVqxYQWNjI7fddhsFBQUMGDCAoUOHsmzZMpqbm3n++edZtGgREyZMkJ5di8Xy210kGhoaGkcgmsjV0DjCUftpxU915Fe02AXweDyUlJTI6GlLD64av9/PuHHjKCoqoqysjPLyck499VQuvPBCGhoacDgc2O12zGYzer2eUCgkk98UZV85sEgkws0330yPHj1Yv3499913H9OnT+fTTz+V0cxAICCFaDgcxmq14vF4uPjiiykoKODuu++mvLycqqoqysvLsdlsxGIxrr/+ek4++WS++uorZs2axX333cdnn31GIpHAaDRKQSvKmrndbsLhMHPnzqVr164sX76cjz76iEWLFvHuu+/yySefUFFRAeyL+op6wOFwGL/fTzKZ5NFHH2XPnj3U1NSwZs0a1q9fz0MPPYTf7+fGG2+kW7dufP3119x7773MnDmTtWvXctVVV1FcXCwT45555hkeffRRjEbjr39xaGhoaBzBKAUFBe1a8KytZVBa83pFUSgoKCCVSlFVVZUWlWpLvbfWlnH5tfZ/JNCW838w5q49rz8gzesqrALCFiDE4I+RSu2rQSu2IR46nY54PJ7W4ED9GlHSKpVKyajjmWeeKROwfo5fNxaLodPpZBkyMW4hmo901OdReJfFv1szh225hg+F678tHAqffYdzGa5DYf7ayuF+/bX399fhzm9x/o+ObyINjUOUliW+hEg9kMAViCX9WCyWVttWNEIQPlt10ploY6v+kF2zZo0Uwz9n/waDIa3mrhDRRwvqOWxZ7kv7EtPQ0NBoXzSRq6HRzghhKMTiz4mkimYEFoslTWiKbQoxKwSwegVB3fFsf1UYWoMQzuoOaaJTWTKZ1EpgaWhoaGi0G5rI1dBoR0TUVC1Qf07pKFEy68fsCRaLRdoaxPMAuU91VHd/tXBbM37RqlZEiU0mk0xkO9JpOU8/9yZBQ0NDQ+PXQxO5GhrtSEs7gRCcLe0EP0YkEpGRWvhhyVyI10gkkub3FTaGlpFdwf7+9lOoI8ZC8Io6sMlk8ohPnmo5Tz8nCq+hoaGh8euiiVwNjXZkf1FUaL2fUwhSUbNV3d0skUjIban9ucKioBbT6qS3nyvUhLAWQj0jI+NnRYM1NDQ0NDR+DbQSYhoa7cj+BO7PEYfqRDLhizUYDFK0ir8pioLRaJT/L34KhH1BHU1uDe+//z7jx4+XVgnxumQyKRskaGhoaGhotAeayNXQOAQYNGgQxcXFaXVkWxNNzcvL4+mnn6aiooKvv/6aJ598kpycHJmQVlFRwY4dO9i5cyfffPMNCxYsoGfPnsTjcRKJRJo9QQhjEQlujdAVyWuiE5q6SsTR4MnV0NDQ0Dh0aZPIPRhLkeql05/7aG9aM4aWXaYOJuraqL/lQwiagzGGttCaBK1fc//Quuu35fPV4xcRUKvVSmFhIWeccQZ6vT6tWoE4jv0xe/ZsvF4v/fv359RTT8Xr9fLGG2+g1+tlC9mrrrqKoqIi2XDh5Zdfxmq14vP5ZIvZcDhMNBqV3chMJpPsMhaPxzEYDESj0TQRDvsaNYjjNBgM+P1+aZ8Q47ZYLIRCIcxms4wYt8d7+GB/hrTntS/2r9F+tOW761D5DmsL7f39fzDev4fr2I8Efqv3j669P6jbm7Yef2tOQnte5D91rn5sDK05z2KJ/Ofs/8fG0JbHoX59inEKYdfyb4AUkoqi4Ha76devn0wMA9KqL6hvLgD69OnD8uXLaWxsJBAIcO+997Jz506cTieBQACr1UpOTg719fXodDpefPFFsrKycDqdKIpCYWEh8+fPp7KykpKSEoYPHy47gjU1NTFx4kS+/fZbOnfujN1up1evXqxevZry8nIeeughioqKCAQCsozZ6tWr2bRpEytWrODkk09GURRcLhe1tbWMHz+eL774gp49e5JK/bwqEhr7R/v8PrqPv60c7fN3uB9/W8ff3o/fAu1b5ghHfSG1vLDUgulQeMMeiQghJ+ZXCHMhYEWnML1eLxPDbDYb/fv3l21thadWLYzFOZszZw4PPvggQ4cOJT8/n1AoxNixY2loaMBut+P3+4nFYpx66qk4nU7+9re/sXTpUmpra3E4HMydO5eGhgZ69uzJzJkzeeKJJ+jVqxdut5tUKkVmZiY9e/Zkz549xONxZs+ezZYtWxg0aBArV65Ep9PhcrmIRqMsW7aMdevWMXDgQF5//XXefPNN7Ha77KqWn5/PaaedJlvjatechoaGhsaviSZyj3DUS8M/FkH+NSPLR/sSTcvKA0VFReTn58ufiURC+lpFu10Ak8lEv379MBgMaR5ddYOHVCrFww8/zKOPPsrUqVP54IMPmDRpEkVFRZhMJlKpFFlZWfz1r39l0qRJ3H///ZxyyinU19djNBo58cQTOfHEE5k8eTLxeJzly5ezZMkSbrzxRml1eOmll9DpdNTW1nL22WdTUFDAPffcQzwe55133qG6uprGxkbGjBlDZmYmpaWlFBYWUlFRgcVi4bjjjiMjI4NIJMK8efMIh8MYjUZCodBR0/pXQ0NDQ6N90L5lNH4SEXnU+GUoipImdNV/a+28tmy3K7ahKAqNjY0sWLCAl19+mS5dujB9+nSWLVvGkCFD0Ov11NXVcd9997Fq1SopkOfNm8fUqVPZtGkT3377LRaLBa/XS2ZmJt9//z1nnHGGtBMIQS1sDzt27CAWi7F3715yc3NJJBLY7XZ8Ph+KonDdddcRiUTIyMhgxYoVKIpCc3MzZrOZpqYm8vLyqK6uJjs7G5/Ph8lk+hVmXUNDQ0NDQxO5GgdAE7htR6fTUV1dnWZTEL9nZGSQSCRQFCWtzm0kEqGsrIxIJIKiKGkNI2DfzceJJ57IzJkzOe+883A6nZSXlzN58mQqKiooLi5m/fr12O12GUkNBALk5+ezZs0ahgwZwoIFC+jRowd1dXU4nU4aGxs5/vjjicfjpFIpYrGYFNOBQIDm5maOPfZY6uvrKSoqoqamBqfTSTQaRa/Xo9PpuPrqq2lqapLHqNfrOeGEEwgEAuTm5vLll19SWFhIc3MzbrebSCTSbudFQ0NDQ+PIRrMraPwomsA9OLSM5KrtG6JygWiDm0wmCQQCfP7554TDYVnJQu3lFUK5srKS448/nkcffRSTyUSHDh249tpr8Xq9VFdXk0qlCIVCsiRYTk4OnTp1Yty4cWzcuJHNmzfz/fff8+9//5uMjAzGjBnD+eefz+zZs7FarSiKgs1mw+v14na7+eijj/B4PEybNo14PM4ll1xCVlYWdrudxYsX4/P5uO222+jQoQPHHHMMEydORKfTEQqFsNvt1NTU0K1bN+rq6nC5XPj9/nY7JxoaGhoaRz6ayD3K+Smf7C/9P4101Al+4qc62S8ej8tqCh6Ph5KSElltQTz2N99+v59LL72UoqIiysrKKC8vp1evXlx44YU0NDTgcDiw2Ww8++yzVFVVsXnzZpYsWcLKlSuZNWsW8Xicq6++mh49evD1119z3333cffdd/P555+TSqVkC2Ahvpubm5kyZQojRoxg8+bNnHvuuXz66aekUvtKhl133XX07t2b8vJy3nvvPbp37y4bUABkZmZSW1uL3W4nEokc8S1/NTQ0NDTaF6WwsPAXq5X2FjqtrQqgKAoFBQWkUimqqqr+J8P910ZklgNp+4e2zaGiKMTjcbmdlj5KsdysLrUF6d5QkaCkKArRaBSDwSCXxyORCHq9HoPBID2bzc3N2O12AoEAFovlgOMXy+3qMat9ququW7/k+A+E8IeKBC91NDWZTMrkJ2EHUFsC9Ho9iqIQi8VwOBzU1NRQUFBAY2MjLpfroHlKdTodZ555Jk1NTVRUVKSdr1gsRjweJ5lMYjKZ0urMCvEofqqPTfztQHMUi8Xk/IhKD6IlsPgptieizeprTYhzo9GIz+fD4XDg9/txOBxEo1H5fPV1KGiN31tYIcQ1aLfbCQaDOBwOeW5be3wZGRlyTOJ4xXk3GAwEAgH5ftDr9USjUWklUScG6nQ6ORdCxIvrRt017kC+a/HeCYfDZGZm0tTURGZmJjU1NWRmZv4s3/bhyMH4/G3P+Wnv8R8J+28rh/v5byuH8+fDb3X9ap7cwxyDwSCFifgCbvkl2zJzXwgo9Rd8PB5Py9pXlB/awIZCISwWi4wuiv22BiFChChSC/HfAqPRmPZmEj7RWCyG0WgkkUjIYxFCTl3DVW01cDqdBINBzGazvIE4WKxZsyYtwUxdLsxkMkmRJuwNoVBI/l2cX7XIau3YWgq9SCSCwWBI26aYNzFH6ooQQnArikJmZiaBQACXy0UoFPqf8mktadUHlKq0mtPpxOfzkZmZSTgcbtXxZWRkyIi0OD51lzZREziVSsl2yOK9YDAY5GuF2BWvFe8HSBfrap+1eO5PkUqlMJvN+P1+eT1aLBZ5LrWucRoa76vEjgAAIABJREFUGhq/HM2ucJgTi8UwmUwYDAZMJlNaVM9isWAwGGR01mg0YjQa5fPF89TeT5PJJLteAQSDQaxWqxR3IkO/tSJXROHMZjN6vV4KZyGyfwvEeMVxK4qC2WxGp9NJ76lYcjcajXKsirKvW5eYm5ZzcbBKYAmRtL8qDEajEYPBIAWuw+EAwGazScErRJW4yfk541LfeEQiEWw2m5wvtdDLyMiQ15fJZEKv16PX63E4HFIU19bWymi/w+H4HxH7S24KzGYzBoMBi8VCc3Mz2dnZNDQ0YDQa5Tz9FOLmTiTfqY9PURR5kyjGZzQa5QqFuC6MRiNWq1W+n0RE3Wg0yki2ELPqcnCtQafTEQwGcTqdaTcGOp1Os3NoaGhotBHNrvAb8GvaFYTAAGS0SXz5i+VU8X8iSinEkBB2oharXq+X9gJ1W9lwOIzNZpNWBbEf4IBCw263k0qlZEvYRCIhBZkYY1uO/0CoxycEhGhOoNfr8fl8MrKsvp5aJobFYjHsdjtNTU3YbDb8fj9Wq1W2r/2lqCPc6n2Lv4XDYSkyRWc0q9VKPB7HZDIRCoXSOqkBMrrbGrElLCmJRAKTySQFoHhtNBpNWxFQi2JxXi0WC+FwGJfLJb3AtbW12Gy2NkcixY1HMBiUFpHMzEwaGhqwWq0HvP7Uxydu3tTHJ1ZB1JYdEaGFH1YCxPtG2FPEjZqoDiHmpGVy4U/dyIl9GgwGmpqacLlcRCIRLBYLkUhEerWPVNp7ub2ttPf4j4T9t5XD/fy3Fc2ucODjz3A4HNPbvKd24ueIXBEBExndv+XFoSgKdrv9oO9fCFrxZanT6YhGo8APX8LxeFwKXIFaeMRisbSLTUToxPjE9gAZ/RICUR3B+jFisZjchnqsQri1VeS35jli3GrhJgSs2sYhxL9YxhY3AELgCPEI6V3I2oI4F2p7hPg9ldpXn1YIMyF6xFK93+9PG6vaUrA/D+z+MJvNUuAKURaNRmXkWj0WtR1CXE8Gg0GuBITDYTm/DocjbUy/FIvFQiwWkxaRjIwM/H4/ZrNZ3gD8nOMTQlZRFEKhkHx/iLGK1Qz4wZMtPLpCFIubNTEH4jni+mrpgf8p1O8J+OGDX+131vhxDucveWj/8bf3/tvK4T7+tqId/4GPX7MrHAEkk0ni8XhaXVPxJSz+Tx1FFclMwv8nfJkioqtOWBNLsiaTSYoKsbT9c77ERfRWiMWWwvvXnBuRQCTmSIhW9dyoo6Aiein+rV5CFtFxkRB1MMYn9i3OnVrYxGIxKSLFeMU41AlPaj+1EOOtOT/i+IG0mxG1mBUPsX/1jZPwaYtIuLhJCgaDbUoqVI9PHSE1m81S8Iob19Yen7AlqI9P2DIAGSlXrzqI445EIlIci+MXqCO26mupNXYKIaqF/UEtkH+L94eGhobGkYwmcg9z1J5N4bcVwlQ8LBaLFAcmkwmTySR/j0QiMkkGkL/n5uaye/duunbtKqNfQtQlEgn27t3LoEGD5Dj2F7kSX+DCC9tyfAdDBB0IsV/h6xTHrZ4j4VsW8yj+ro5u5uTksGvXLjp37iwjigdzuUW9vK2OBmZkZLB27Vquu+46mZAkXifGKwRmy0Sx1niehfdTUfbVxAXSvLfiurFYLJhMprSf6ihpLBZj9+7dnHrqqTLyqb4efulc7dixg3POOYdIJMKOHTs45ZRT5I2AsGoc6CGi8SJRT1zHBoNB3hCI56htKx9//DE333yz9JQLP67VapXWDvWNScv5bo1VIyMjQ7ZQjsViZGdns2vXLo477rijPkqjoaGh0VaOXMPXUUJ2djYzZ85kyJAhpFIpPvzwQ/7xj39QXV3N0qVLOe200/b7utmzZzNz5kyZPa6O3Kq9nCIZR4hc9dJva8pUbd68GbPZDOyLpG3bto1//etfrFq16qAsZx8IEWlcvHgxffr02e/+nnzySWbMmEFhYSH3338/Z511FolEgjVr1jBr1ix2794tBbnw4R6srHeRFKUWSeratOqIYiKR4JtvvsHpdMrn1dbW8tJLL/HYY4+RTCYZNWoUGRkZvP32260ap4hqwj7BtXnz5v+JkO7Zs4c9e/bQv3///3l9KpXiqaee4r777qNz585pN0sHqg7QmmizsE8YjUa6deuWJkZbI+KFeBTX9+bNm+X8iW2sWrWKa665Js33LG7sYrEYCxYsoG/fvvvd/jPPPMOMGTPSjkckCYp9tGaMJpNJ2megbaX1NDQ0NDT2cViL3NYuyR4K+2+ZHAQ/ZGILMSKWKMUXufi3WK5VJ8yJn08//TTff/89p59+OuFwmFmzZvH6668zdOhQKXgsFgvz589n7dq1/POf/yQej8skHCFGxDK9+FJWWxv8fn9aOSvhhxQCOJVK4ff7ZYknq9UqM8UVReHaa6/lvffeI5VKce211zJ79myGDRvGli1bpJgTiUHqclkiKcxqtZJKpWhubsbpdBKLxWQimPCpCm9oPB6XjQbUyXFjxoyR1RIWLFhASUkJDzzwgLRumM1mHnvsMRoaGjjllFMwGo3ceeedvPzyywwdOlQmV7X09op5M5vNUlCJ47dYLACyKoDf78flcqUlN4nXhUIhAHlDISKEYn5jsZi0AUybNo1ly5aRSCQYOHAg//nPf/D5fMydO5ehQ4dit9tZsWIF8EPEV2xTHdEUNWMBeQzhcJhp06axdOlSKfaETQH2NXSYP38+n3/+OQ888IAcu9PpxO/3o9frsdlshMNhHA4HoVAIo9FIJBLB4XDQ1NSE1WolEonI87q/60fMNexLfBR1bBOJBGazGa/Xi9lslhaJQCAg/csiMiuuI+G9tdls+Hw+pkyZwsKFC9MqSoi6uJFIhGQyidlslpVALrroIkKhEGazmQULFlBWVsb//d//yTm12WyydrLwMYtxiMoXooqCeH4gEEhLUhPHIapGiEoo4XCYSCQi6wOr3x/wg4UmFovJYxZ2m1Qqhd1ul2XRxHtdlNBrbbT/SOVQ8DsfCmPQODpp78TF34p2/4QTX+a/9NHeHGipVO25FKgjdP369WP06NEMHz6cIUOGMGbMGAYPHsyIESMYPnw4I0eOpF+/fjJCBKSJt9NPP51ly5ZRX1+P3+9n5syZ7NixQ2aii32pI3Zq32Bubi6LFi2ivLycnTt30qdPH8xmM83Nzeh0Oi655BLWrl3LN998w6RJk0gkEjQ3N0s/ZigUoqioiHfeeYeysjLWrl1Ljx49sNlscmnY4XDg8/lIJBK8+uqrhMNhTjzxRILBIB07dmTevHns2rWLTz/9lJEjRxKLxbjjjjtYvHgxsViMZDLJ4sWLZcQsFApRUVHBxRdfLIVufX29FLwDBw7cr192fzclIsFHURR69+7Nq6++is/nw+Px8MADD7Bt2zbsdrs85iFDhvDZZ5/x3XffMWvWLKLRKAUFBZjNZj7++GPKy8vZtGkTI0eOJBAI4HQ6aWpqYtKkSXz33XcUFRURDofJycnhzTff5LPPPmPZsmWcccYZUhgVFxdTWlrKpk2bePrpp9OEbkvhVlJSwurVq+nfvz9PPPEEf/rTnxg+fDhbt27F7Xbz3//+l/Hjx/PFF18wYMAAzGaz9KmGQiEyMjLo1q2bFFki2U5dwkoIZSGWhZASNxtCZO3evZuzzjoLh8NBXV0dl112GV999RXffvst119/PT179uSzzz5j+/bt3HHHHQSDQYLBIEVFRSxbtoz169fL60dEzEX1g1gsxq5duzj77LNlY44xY8ZQUlLCli1bePzxx9OE+Ny5c/nyyy9599136dWrF4qi4Pf7yczMJDMzE5vNhsViwel04vV6MRqN9OjRg08++YTvvvuOJ598slXRepHUWldXx8SJE9mwYQPFxcXodDqKi4t5/vnnWb9+PevXr2fEiBGyvXGvXr1YtWoVO3bsYN26dQwbNkzaPIR49ng8TJo0iY0bN2I0GjnmmGPIycmR5evE9dDc3CyPL5VKkZ+fT05ODi6Xi3A4LFdfxKO5uVmWDtTQaE8O9+//tnK0H/9vQbuL3CMddaREiE1AJq4EAgEZ8RERL1FoXkRp1N5D9TK2Tqdjzpw5PPjggwwdOpQOHToQDAYZO3YsDQ0N2O32//FoqmuwplIp3n77bb766it69+7NhAkTWLp0KQBut5umpibcbjcjRoxg2rRp/OUvf2Hw4MHS45pIJOjQoQPPPfccmzdv5tRTT+Wpp55iyZIlxGIxXC4XgUBAdnJSFIUTTjgBi8XCt99+i9Pp5JVXXsHj8dCzZ09mzpzJI488Qu/evSkrK6Nnz56YzWacTic9evTg4osvxu/3c9JJJ5Gdnc2aNWuorKwkFotRWFjIhAkT+OKLLzj//PPR6XQykipomdQlIrt2u51oNMr8+fO55557GDlyJHq9noaGBi655BJZH9dgMJCbm8vo0aO58MILufrqq7nwwgvZtWsXn3zyCW+88Qann346t956Ky+++CLHHnssiqIQCAQwm8306dOHvXv34nQ6mTt3Lps3b2bIkCHMnz+f+fPnk52djaIozJs3jxUrVjB48GCWL1/OMcccIxP+RNkwEZ0zGAx06NCB5uZmbrzxRl555RU+++wzunfvjsvlwmAw0KlTJ0aOHMmnn35KIBDA7/eTSCS45ZZb+Pbbb5kyZYq85oxGIx6Ph0gkQk1NDfBDLWVRPUHMragYIiKnIgIqbjC6d+/OWWedxYwZM7jnnnuYNm0aI0eO5I9//COTJ09mwIAB5Ofn8+yzz7J582Z69erFk08+yZIlS4jH47hcLnmu1L5aserRv39/hg8fzh/+8AfOP/98LrroInQ6HUuXLuW///0vZ599Nm+99RYrVqwgOzsbp9Mpvxy6dOmC2+2moKCA/Px8GhsbmTNnDiUlJQwZMoRPPvmEbt26HfD9LZL1dDodWVlZ9O3bl82bN5NIJJgzZw5ff/01/fr1Y9asWcydOxedTke3bt146KGH+PTTT+nbty+vvPIKjzzyCEVFRTQ2NmI2mwmFQpx//vn87W9/48477yQcDpNMJnn//feZMWMGOTk5pFL72kA7HA68Xi85OTmytFxFRQV33XUXJ510En6/n+rqapqbm/H7/RQUFGAwGMjOzm7tx5iGhobGYclhbVc4HFCXXtLpdBQWFqZlUJeXl2M0GsnKypJiQbTMjcVieDweNm7cSGFhIclkkqqqqrT2q4888ghbt25l6tSpFBUVMW/ePJ544om00l3wg8BTJzopikLfvn2ldWHPnj00NjYydOhQPvvsMzIzM3n66acxGAwsX76cMWPGcMEFF1BWViajQMXFxRx77LHMmDGDE044gcrKSgKBAMOHD+ftt9/GbDZz//338/nnn3P88cfTuXNnbrvtNiorK+nevTsnnngiw4YNw2g08u6777JkyRKuu+467rjjDnQ6HT179uS4445j9erVnHbaafTt25cuXbqwfft2duzYQd++ffn973/PuHHj2Lx5M5MnT6akpIRwOCxruIrj399Pn89HOBzGbDYzc+ZMxo0bxx133MHs2bNZtGgRd999N83NzeTl5ZFIJFi4cCGVlZUkk0k2bdpEhw4dOOaYYzj++OPp1q0bLpeLbdu2kUgkKCgoYO/evdjtdl577TWampqw2+107dqVk046iX/84x8UFRVRUlKCw+HguOOOw2g0kpuby0MPPYTf7+fdd9/l+uuvl/7lSCTCqFGjKCgoQKfTcdppp8k5FQlztbW1ZGVlUV9fTzQaZfbs2Wzfvp2ioiIsFgvjx49n3LhxrF27lj//+c8sXboUnU4nG0y88MILhEIh2Ur3qquuYuPGjWmVG0S0W1Q6EFH7aDQqI5Fz586lrq6Ot99+m5kzZ/LGG2/Q3NzMxo0bKS0t5dRTT8VqtdKtWzfuueceTjjhBPbs2SOvn6VLl6a1VhYRY+HRffHFFwkGg2zatImqqipyc3MZNGgQXbt25dZbb+WYY45h5cqVXHXVVXTt2pVvv/0WnU7HXXfdJaPIfr+fP/3pT5x77rlkZWXx+OOPU1NTw7x587jmmmsO+P42mUyykcPChQvlOY5GowwbNgy/309eXh5lZWV4PB6GDh3Kli1b6NGjB3/84x8Jh8M8++yz5OfnEwwGyc3NJRqNcuaZZ3LDDTfwt7/9jeXLlwPQ0NDALbfcwu9//3s+/PBDVq5cyVtvvcX7779PYWEhlZWVuFwuqqqqGDp0KNdccw3z5s3jm2++4dlnn6WkpASAvXv3YjKZ8Hg8uN3ug/Exp6GhoXFIoonc3wC1TQB+6DIF+yK6ZWVl9OvXD4fDIdvNhkIhwuEwX3zxhYzaCQ+v8N8BNDY2smDBAl5++WW6dOnC9OnTWbZsGUOGDJERtf0JXPHv8ePHc/3111NXV4ei7Kvn+9133+F0OuWSdHV1NZmZmezcuZOTTz5Z+huNRiM5OTnEYjFuuukmPB4PFouF0tJSKisrpTd18uTJbNy4EY/Hwy233MJDDz3E6tWr6dmzJ1u3bsVisRAIBDAajezcuZPTTjsNr9dLWVkZZ511Fr179+a9996jtraWsWPHYrFYWLZsGYqiMHToUG644QZmzZrFa6+9RiwWw+fzYTKZcLvdaT5agXqZR6fTkZ2dTTAYJB6PM2fOHBYuXEhmZiazZs1i1apVjBgxQnpsfT4fLpeLuro6GhoaKCwspKamhmnTpvGHP/yB+vp66bs1Go00Njbi9/vx+/106NCBHTt2cM0119DY2Mhtt90mvcSrV68mHo9TWFjIzp078fv9ssWuqJcaDoexWCx4vV4ikQihUIglS5Zw8803k0qlCAaDAOTl5bFt2zaOPfZYWUUiNzeXnTt38sQTT3Deeedx77338tprr2G32+nUqRPNzc0yOn/dddfx3nvvEY/HsVgshEIh6ScV1gmXyyUj9S3LyonzKSwQDQ0NNDQ0UFdXJysyiEYR+fn5xONxbr75ZjweD1arNe36EfYM4YEWUWSPx0MymZQ+4Lq6Omw2G5mZmfj9fu666y5p8dm5cyeKohAOh4nFYkydOpXFixdLL7ZI7Kurq5NL/263u1UlwKLRKHv27MFisVBXV0fnzp2pqqrC7XZz6aWXcv3117Njxw50Oh1ut5sdO3bQr18/tm7dSlNTk1zBueWWW+jUqRMejwej0citt96KzWZj3bp1ZGVlSZ/tG2+8QUlJCbfffjuzZ8/mqaeeYuLEiSxZsoTCwkJpM9qxYwd33HEH//rXv7j99tt5/vnnueaaa3j33XfJy8sjEomQm5uL1+tt68ebhoaGxiGLJnJ/A3Q6HTU1Nf8jtgCZmFJaWsrAgQNlNC2ZTFJSUiJtDaKvvbAdxONxTjrpJO69915Gjx6Nw+GgoqKCyZMnU15eTnFxMevXr5eJLGofj0gIO+OMM5gxYwannXYa1dXV6HQ6du/ezbHHHsumTZtk8ovL5cLj8ZCTkyPrnwaDQRlZttlsXHXVVdJqUVNTQ2FhoYxIFxQU8MYbb5CXl8fTTz/NHXfcwe9+9zs2bdrE8ccfT1NTEyaTCZ/PR+fOnaV/eOXKlYwcOZI+ffpwyy23UFVVxfTp01EUhSlTppBMJnnzzTfx+/2MHz+eP/3pT8yZM4d3330Xv9+Pz+dL6wgnUP/bYDDQ2NjIkCFDuOyyy7jrrrvYvXs30WiUyZMnU1FRQceOHWVCW2ZmJps2bcJut2MymWhqamLYsGHceeedDBs2jB07duD1eqmtrSWZTFJQUICiKOTk5PDNN99QUFDAmjVr+Pvf/86ll16aVttYp9NRVFQkI64i8UtE+EUEv6SkhCVLlsjjEOMQ5b2qqqrIysoCSLtR6dy5MzNmzKChoYEbb7yRK6+8kvnz5/Piiy+mtbYV1hKDwSCT/0TnOnFuRARcCEkR4VXbKERk12azkZeXJ1siGwwGmpubsVqtspqDuH6sVivV1dV07NiRQCCQdu2LmzPhvTabzfJmy2azkUwmCYVCKIrCH//4R5kEJpLUHA6H7MwmEuS8Xm/aGIWPvaamptV1eLt06YLX66VLly68+eabFBQUcPzxxzN9+nTOPPNMdu7cSTKZZNeuXbhcLiorK+nRoweZmZk0NTWh0+kYN24cpaWlZGZmEggEuOKKK5g4cSL3338/5557Lm63G6PRyO9+9zvOOeccbrrpJnbs2MH999/Pe++9R0FBgTzv4pq/8cYbueiii7DZbDz44IOUl5fjdrtpbGxEp9PJLmsaGhoaRyqaJ/c3QN1RC/ZfaUFEdEV2d2lpaZqoFa8Vv+t0OqqqqujevTuPPvooZrOZDh06cO211+Lz+aiurk7r4gTpnZkAWT7M6XSSl5fHzJkzAaitrSWVShEIBLjpppswGo2cddZZnHPOObz//vtpPsQNGzawa9cupkyZQmFhITqdjilTptDU1CSXu+vq6ujWrZvMZK+vr8dut7N161Z27drFrFmzMBqNjB49mrFjx/L0009js9l4//33GTx4MBs2bMDr9bJ+/XpcLhfdunVjw4YNKIpCTU0Nr7/+OsOGDePxxx/n6quv5q677gLYr0hRJwUKsrKy2Lp1K0OHDuXWW2/luOOOw2AwcNlllxEIBNi7dy8ej0cu8apLeAkxmkwmZfWHhx9+mGg0isFgoLa2FrPZTDAYJC8vj6amJhobG9m8eTN33303HTt2pGvXrkyYMIFUKsXq1auJRqNce+21uN1uRo8ezQknnCBLuIlmHUJMigiisCrs2bOH008/HYfDIbP0XS6X9O2aTCZmzZrFsGHDePjhh5kwYQLPP/+8zOwXotDn88lIo4iYBoNBMjIyMBgMUlzqdDoZhTcajbLtsLg+RMJaIpGgtraW/Px8kskkdrudWCzGhg0b2LFjB1OmTJE3BFOnTpXXj6iyIWobJ5NJHA6HrGAg3hderxdFUVi1ahV+v5+///3vdO3alVNOOYV77rlHVksQCV0ZGRkyASsrK0smOU6aNAm32824cePo0qXLAd/bqVSKmpoanE4nu3fv5pRTTsHn85GdnS1vYAoKCpg1a5Z8L37yySdUVFRw++2343a7GT58OM8880xa1YhEIsFdd91Fv379+Ne//gWAy+VixYoVjB07lj//+c9ccMEFzJ49WyaTdejQgVQqJW8e+vfvzz//+U/69+/PM888g8fjIRqNkpWVhc1m06wKGhoaRzyayP0N2J8fVDxEMplYTl23bh2ffPKJTPIRIlctjMV2vF4vl156KYWFhZSVlfHVV1/Rq1cvLrzwQhobG2Wizf6EHUBJSQmvv/46Cxcu5IMPPmDjxo0kk0lyc3NlA4fPP/+cjz76iPnz57Nw4UIWL14sE4BEDdMJEyZw6qmn8tFHH7Fu3Tq6d++OzWbDZDLhcDjIzs6moaFBlk7atWsXJ598Mn6/nyuvvJLevXvz5Zdf8sADDzB9+nTWrl0LQHV1NR6Ph9WrV8vI4urVq/nss89k1NBqtcoo5DvvvMN5553HI488QiKRIBKJyGNVH7/atiF8mY2NjYwZM4bu3btTWlrKtm3bGD58OBdccIFMHEsmk1itVimOrFYriqJQWlrK4sWLWblyJZ9//jmlpaXSqynG53A4CAQC2Gw2ampquP322ykuLmbNmjWUlJTQsWNH8vPz8Xq9XH/99VxxxRV89tlnjBgxgnfffVeKzYyMDBlVFc08OnToIDu7rVy5EovFIuvkwr72v01NTRiNRmKxGPn5+cRiMVasWMGgQYO48847ZZRWCNicnBzcbrcUz1arVfqb4/G4LG2VSqVwOBzSSiDsF0JQiiocBoMBl8slk97E9RWJRLjxxht/9PqBfeIuEonIShh+v19WfhAlykwmE3a7nUQiwaWXXkrfvn0pKSlhwYIFZGVlYTKZiEajOJ1Onn32WXbv3k1jYyMej4dFixYRCoWYNGkSv//97ykvL+fss8/mnXfeOeB722g0ygS8rKwsdu3ahdlsZs2aNSxZsoT333+fpUuXsnnzZplMZzAYuPnmm+nfvz8lJSVMmTJFWlicTqe0MOzdu5err76aG264gdNPPx2Ayy67jNGjR7Nt2zZ5kyNuqEQUO5VKMWbMGK666iref/99GfUWJdFE9FqrrqChoXGkoxQWFv7iYmmHQp211rxeRFNSqRRVVVVpdWbbwm91/IqikJ+fD5A2/ta8vmXZrJZjFgJRXb1BPF+U72pZskQdVRZ+TCHCxJhaNiJQC0y18FYUhWAwiNvtlokwNTU1chlV3ahAVJVQ1x49EOpEJbXVQyRKCfEslsrr6+txu90Eg0FZs1Ych9pTLcYmxFbLORfH2hL1dScSEoXwyMnJobm5WS5jiyYaP0Vrrp8fu07bu870waC149/fsWo1StuX9v7+0M5/+8/f4fz5c7gff3uP/7fav+bJPcxpzYXyUyLHYDCkNZxQtyoVheNF1FQtzoSwFbVV1Y0kYJ/XVSyrt9ynejypVAqz2Yzf75eZ+haLRdZGFX5M9bZELdf9bb8lGRkZMgor9itKXYlqAeqmHC6XS/pMRWSzJWKf6hsCNQd646lvUITINZlMUjSLyHFrRGhbPigO5y8Ywc85/v15s4+EOdDQ0NDQ2D+aXeEoRiwnC7+jyWSSFRmE31R4KkVzAKPRiNlslskt6ox3YWHQ6XSEQqFWZacriiI7ZgWDwTRRLSKpLbcvXtPa7YvlX3F8NptN/p/Yn8jgF53H9Ho9drtddlMTiVRiyVcI/bYgBL7Yjjgu0SnsaO5G9VugCVwNDQ2NIxstknuUY7FY0jy76kx/IcJElFN0yhIiVAjOWCwm/ZlCiIpsd+EL/SkyMzOpr68nMzOTYDAoy5eJsmktty9Ea2u2bzKZpN9UWA9EKSzY1zJWZPzHYjGys7NlUwSRKCf2I+rBqufqx4TogaKE4v9Fy1ohbNVzIawkGgePg2FT0tDQ0NA4PNBE7lGOuod9RkaGrHUqIroieUt7/XocAAAgAElEQVTtzRUeVfE3kQUvnp9IJKQ9YH/L/WqEaBSZ+SK6LISosAyI7Yu2sq3dvqh8IPzDIglK7EN4ivV6vWwgIewber0+rducWtQKe8f+BNPPEVEiuUqcB2HRUPuhNQ4emsDV0NDQOHrQRO5RjvCFqpPGROKYoGVlB1GaTN3OVdgKhIdWiOYDRVoVRcFsNst6rOqyZ7FYTJbNUmfv/5zti2MT2wVkRFpYFNRNF8Rr1O1z1dtS/y4i2i1pbeIZ7BO3JpNJCneRLS8iyRoaGhoaGhq/DM30d5TwYxHBjIwMaTsQNVBF2SghJNWeXeFPNRgMGI1G/vvf/zJw4EDgh6isEMKiS9b+xiL+rtPpCIfDaUJ7586dDBgwAIDt27f/5PZ/bLvq4zMajdJfbDKZsFgs0gsrhK4odfXee+/JmrUiSi3mw2g0yn+LOdgfYj73R8tIok6nkzVWTzzxRGKxGKlUSpbMaisHskwcbWiRcQ0NDY2jBy2Se5TwY12/srOzmTlzJoMHDyaZTPLhhx8yY8YMqqqqeOutt+jduzeQ3khCURSeeuop7r33Xjp37iyX8UVUWERJRZT3QGMBMJvN0gsL+6ozKIpCly5dWrV9tXhpGS395ptvpLdWRF/XrFkju2yJ7VqtVmlVePPNNzn99NPTvLXCm/zMM88wa9asNA9zS1pbYQGQEWRhoxCVFg6GIPspIXu0CT6tmoKGhobG0YW+vaM5R3sJpAOhFlIta82K5DCxfC/8rKLygVjyFyWy9ldf9+mnn2bbtm2cfvrphMNhZs2axWuvvcawYcM477zzZAmuefPmsW7dOv75z3+mtW0V27fb7dTW1pKZmYnf78dqtcpi8yJJLRqNYrFYpP82EolIcSs6eTkcDnw+H4BMFBPF7D0eD3a7nXA4LBshCMuE0WikqakJh8MhmwWI6gyhUIjbb7+dlStXylaxQtg6nU4CgYD0+oo5veiii/B6vZhMJhYtWkRZWRn//ve/5fPEHEciEemrFa8VQj2ZTMpWxyKJTnTyEthstrTOXSKiLZL+RHe5X+vaaivtXefx5+z/YCedtff8tfdnN7Rt/G09H4fC8R/OHArz19YxHA0a4Mc4Es7fb4FmVzjEUUcRBUKwJhIJ+vbty3nnncc555zD4MGDGT16NGeffTbnnnsu55xzDqNGjaJ///7ADyJMiKh4PE6fPn1Yvnw5jY2NBAIB7r33Xnbu3CnFn7oRxP4ee/bsYcCAAZjNZiorK7nkkkv46quv2LRpEzfddBOnn346n3/+Obt27eIf//gHXq+XpqYmXC4Xb731Fl9++SUrVqygZ8+eMvlL2ApSqRR79uyhX79+WCwWKisrGTVqFKWlpVRUVDBjxgxpG3A4HCxfvpySkhLWr19Pnz59ZDtYYTsIh8My4UxRFEwmEz179mTVqlXs2LGD2bNny3kJBoNSnAohLW4WdDodeXl5VFdXc9ddd7F161a6d++O0+mkU6dOLFiwgLKyMt5//30uvfRSfD4fyWSSnJwcPvjgA7Zv386aNWsYOnQogUBAdqsSlSymTZtGRUUFWVlZ7XLNHU6oK4P8kodG+3Kgz5cDPdqbto6/vR8aGkc6msg9xFHXUIUfolfiCzoQCMiGAiJZSYgzEUENBoNppb/Uv8+ZM4cHH3yQoUOHkp+fTygUYuzYsTQ0NMh2pT+FaKwgas8WFxczaNAgZs2axZ133snNN9/M4MGDGTduHBMmTODss8/G7XazaNEivvjiCwYOHMhrr73G3LlzyczMlC1fPR6PrKhgsVhwOBzE43HOPvtshg8fzrhx47j66qs555xzSKVSvPrqq2zYsIEzzzyTRx55hIULF1JQUCDnpqCggJ49e9KrVy+OO+44LBYLoVCI559/nq+//poBAwawZMkSjjvuOCKRCC6XKy3xrWXnNXVEvGvXruzcuZP6+npee+01tmzZQv/+/XnyySe5//776dKlCwBvvfUWZWVlDBo0iBdeeIFnn32WnJwcQqEQNpuNxsZGzj//fMaPH8+kSZOoqqo6iFeShoaGhobG0YXmyT3EEUvoogxWYWFhmtAtLy/HaDSSlZWV1jHLYrEQi8Voampi48aNdOzYkXg8TlVVlbQZ6HQ6Hn74Yb777jumTp1KUVER8+fP5/HHHycWi8ml/Z9Cr9fj8XhkC9q5c+dSW1vL4sWLmT59OitWrMBoNLJ27Vq++eYbevbsSSwWo6CggA8++IAuXbqwceNGsrOzOeGEE/jqq6+IRCJpTSE8Ho+0R7zwwgtUVVWRTCYpLy+nqKiIoUOH0qlTJ9auXUvHjh2prq7G6/XSq1cvNmzYQDAYZOLEiZx77rmkUikcDgdXXnklv/vd78jOzua+++6jvr6e1atXs3HjRvLy8vB6vWk2AhHhVdtEAJYuXYrT6cTn82Gz2Rg+fDjBYJD8/Hw++OADrFYreXl59OrVC7PZzH/+8x/q6upYsGABbrdbzmE4HObyyy9n2LBhPPnkk6xevVqeQw0NDQ0NDY2fjyZyD3GEdxRIS7ISIisej1NWVka/fv2w2+2y/FQoFCISifDFF1/IFrkiKixqsaZSKRobG1mwYAEvv/wyXbp0Yfr06SxbtowhQ4bIhKifIhKJkJeXx6efforFYsHr9ZKVlUVdXR3hcJg9e/ZQXV0to8I6nY4ePXqg0+m4/fbbpR930aJFJJNJmXglxhyNRsnLy2Pbtm0YjUZ8Ph9ut5u6ujr5f01NTUSjUa655hrZTGLjxo14PB48Hg8ul4spU6awatUqkskkPp8PvV5PcXExu3fvJhAIkEqlZNWExsZG2QpYtDYWlRhERzRh+/D5fNTX16PX64lGo1xxxRX8/e9/p6ysjOzsbACsVit2u53GxkbZRjiRSHDffffhdruxWq2YzWZGjhxJ586dee655zCZTESjUW1JUUNDQ0ND4xeiidzDAJ1OR3V19X4TNYRgKi0tZcCAAdjtdllqq7S0VNaRFfVlxWvi8Tg9evRg1qxZnHfeeTidTsrLy5k8eTIVFRUUFxezfv16GaH9qbF5PB46deokBW5FRQV2ux2j0UhBQQEOh4NYLCaTryorK0kmk1x22WWyzJg4rqysLAKBADabTSZwNTc3k5+fj9frJTs7m/LycpxOp+xSFo1GcTgc3HjjjVKgNjQ0kJeXJ4V3RkYGNTU1aXaNRCJBp06dZAMIMca8vDyZvJZKpdIaM4g6wMJKkZubS3V1NbFYjF69enHvvfdyxhlnEAwG2bt3rxTggUCA/Px8OV69Xs+YMWNYu3YtLpcLj8fDpEmTmDBhAvPmzWPMmDG/euKZhoaGhobGkYzmyT3E2V8kt2VzBthnaygrKyMSiZBMJiktLU1bXhevFSJPURSqqqo4/vjjefTRRzGZTHTo0IFrr70Wr9dLdXV1qxJz9Ho9FouFPXv24HK5qK2tJS8vT9osGhoaZC3aRCKBw+GgtLSUPXv2MGPGDDp06EDnzp258cYbSaVShEIh9Ho9Xq9XNmUwm83U1tbK7efm5soOYfF4nI8++giv18v48eM55phjcDgc/PWvf5UC1eFwkEql6NChAw6HA7vdjl6vZ+3atQSDQSZPnozL5WLEiBH07t2b+vp6bDab7N4mfLhqgSysFM3NzTJBz2Kx0NTURE5ODoqi8Pzzz8sKDitXriQajXLLLbeQm5vLqFGjePbZZ+nQoQN79+7F7XbT3NzM3/72Nzp27Mj/+3//r1UtkTU0NDQ0NDT2jyZyD3H2V/ZL/K5uMasoCpFIhHXr1vHJJ58QDofl30WkVL0dRVHwer1ceumlFBUVUVZWRnl5Ob169eLCCy+koaEBh8NxwPEpyr4mEuK5WVlZ+Hw+WZHA7Xbj9XoxGAyYzWbC4TCpVIoJEyZwyimnUFJSwocffkjXrl2x2+1yjOoIsk6nw2q1kkqlcLvdslqBqKoQjUa59NJLOeOMMygtLeXTTz+lZ8+eKIqC1WolmUzy2GOPsXnzZr7//nt2797NW2+9BcANN9zABRdcQHl5Oeeddx6rVq2S4l7YJhKJBHq9noyMjP8p52a1WmXVhTVr1vDpp5+yYMECSkpK+Pjjj9HpdGRnZxMOh/nzn//MgAED2Lx5M7feeivXX389e/fuJS8vT3Y+q6+v59Zbb2XixIn069evTdeOhoaGhobG0YxSUFBw2NbRaW0ZFEVRKCgoIJVKUVVV9T8VCn4p7V0ns7XjUBSF/Px8Gb09mEXxhW9ULP+LJg4iiiqW/BVFQa/XE4lEZGRUr9cfcBwiktrynKkj3PBD1QPRKEJEkg9EPB6X9XjhhyQwtQ9XHQlvub+2zuOBXv9rlrk6VK7fX0p7j/9I2H9bOdzPf1s5nD3zh8L8tZXD/fo73N//7U1r5k/z5Gq0CdF1TIhQUbZMICK6iURCRn3VzzvQG1UtcMX2xOuEAE0kEmmJdUJsq//2U4iosaLsa55hsVgIBAI4nU5ZJ1dsR4zlt+hIpqGhoaGhofHL0ewKGm1C2AbMZjMmk0lGOIWfVtTsVRRFRlf1ej0mk4l4PH7A7YtovbpOrRCXyWSSaDSKTqfDYrFIe4GiKIRCof22FG6JyWSSjR5isRiZmZnE43EyMzOJRCJpkWm1sBWRXw0NDQ0NDY1DEy2Sq9EmREvbZDIprQXq6KkQoYqiyOiqEIqtibK2jOLCD35kIYBjsZhs8SuEttFolGP6Kfx+PwaDAZ1Oh81mw+fzkZ2dTSgUIicnh0AgkNaQQwj4WCwmy44dDA6GfUZDQ0NDQ0PjBzSRq9EmRDQ2IyMDg8FAJBKR/lv4QZAmk0mCwSA2m01GYIUV4adQi7+WVSJEZFhEYmGfqE4kEtJCYTAYfnL7LpdLljYTNYZ9Ph8A9fX1GI3GNHuCGPPBjuRqAldDQ0NDQ+PgotkVNNqEuimF6M4lRKHws6pLman9s62xE6ijty3bEqu7j4lat0Lw6vX6A9b4hX3+3WAwmFahQpQ8E0JdnfSmjgxrwlRDQ0NDQ+PQRRO5RzhiSV+dJKWus9tWhGdVeG2NRqMstyWW+UUVBXX0FVrva1XbE1qWQtu+fTsDBw4EkE0whP83GAwecNupVIqGhgYGDhyIxWJJ8/+qo9Hq6K1aYB8sDucsbQ0NDQ0NjUMRTeQe4aibFwj2V3f3l5KVlcVTTz3Fli1b+Prrr3n88cfJyckhkUgwZ84cnnvuOVKplGxSodfrmThxomxWcSBExFf4a88991zGjh0rI7hdunRh3bp1UmSL52ZkZGCxWA64fREFTiaTRCIRvvnmG3bt2sWuXbv49ttvefvttznjjDPSIsmiRJmIXB8MtKiwhoaGhobGwaVdRe5v8cV+MKOWLWmrSFQL0LY8DrQPMdaWrxHRVrV4E8lU6uX6lolfap555hl8Ph9nnHEGvXr1wufzsWDBAgwGAy+99JJsGazX6zEYDMTjcS6//HJef/31tFJfiqIQjUblc4xGo2ytG4/HZdR01KhRjBo1Svpj4/E4er1ejtvn8xGNRgmHw4TDYeLxOIFAQNomhBdY+G9Fm95YLCajv9dffz15eXmceOKJlJaWMmfOHEwmE6FQiEgkIgW7GJeY08bGRiwWi/xbayLJRzO/5nX/W4xBQ6Mt/Nqf/Yc6B2P87Tl/7f39r9E62ixy1cvhv+TRVlpzIfyaF0l7H39rSaXSqxSkUvv8pf369WP06NEMHz6cIUOGMGbMGAYPHsyIESMYPnw4I0eOpH///lJUqkkkEvTp04eVK1dSX19PIBDg/vvvZ9euXbhcLpYtW0ZzczPnn3++3O/JJ59M586dWbhwIbFYDLvdzty5c/n+++9Zt24dJ598sozKNjc3M3HiRLZs2UKXLl2YM2cOl1xyCSNGjGDz5s2Ew2GqqqooLi4mlUrhdDpZvXo133//PR9++CFnnnkmsViMwsJCrFYrH330EeXl5WzatIlRo0bh9/uJRqPShysS5kR1hmg0yjPPPIPb7cZut5Obm0uHDh1YtGgRX375JevWrWPUqFEkEglGjhyJz+cjkUhgNpuZOnUqZWVlaXOmvua0DyqNQ4HD5fPr1+JoP/62crTP3+F+/G0df3s/WoNmVzjCUftG1U0bhO9URDmFsItEIrK2rWjYEAqFpCgT9gHx+4svvsi//vUvzjnnHAoKCggGg1xwwQXU19djsVh48803GTdunFzav/DCCyktLWXPnj3o9XoWL15MY2Mj3bt354UXXuC1115Dp9ORk5NDNBolKyuLU089laqqKq677jpef/11PvnkE4qLi2U1B7fbDcCyZcv48ssvGThwIC+99BIvvvgiRUVF7N69m48//piFCxfSu3dvbrnlFl588UWOO+44nE4nmZmZ0jccjUaxWq3YbDZyc3OZNGkSCxcupKmpicbGRpYsWcL27dsZMWIE06ZN47HHHqN379588MEHrFq1ikceeYTMzEwmTpzIhAkTpCVjfzdYh8KHnIaGhoaGxpGKVkLsCCeZTEphqtPpKCwslOWwFEWhvLwco9FIVlYWqdS+kluBQACLxUIsFsPj8bBhwwY6duxIIpGgqqoKvV4vl/0feeQRtm7dyrRp0+jYsSOvvvoqTzzxBNFolEAgwMsvv8y1115L586daWho4IILLuCBBx4gkUgwYMAAjj/+eG677TZOOukkKioqABg+fDjr16/HaDTy8ssvE41GaW5uxm63k0wm8Xq9WCwWgsEgBoMBn8/HmDFjcDgcPPzww9TV1fH666+TmZlJKBSiqKiI7t27061bN5xOJ9u2bSORSNChQwe2bNlCTU2N9OU6HA7Gjx/P2LFjicViFBUV8fnnnxONRrnoootwuVw88cQTNDU18eGHH7J48WIuu+wybrrpJu68805WrVrFc889xwsvvMCWLVtQlPRWxOqIuvr/NDQ0NDQ0NA4umsg9wlFHbYWgUrfTTSQSlJWV0a9fPxwOB7FYDKPRSCgUIhwO88UXX0jvq3ideA4gBeVLL71Ep06dmDlzJsuWLWPw4MEYDAZ27NjBhg0bOP/88/nvf/9LIpFg5cqVpFIpunbtisfjYfr06Xi9XsxmMx999BFbt25FUfZVSBAVE0SHtFgsRn5+Pnv37sXpdKLT6WQDiMrKyjTLwYMPPkhOTg4ej4epU6dy0UUX0dDQgMPhkLaCvLw88vLypAfZ5/Px6KOPsnjxYvj/7d17cFTl+cDx7+6e3SSbZBMSyIWocUqDIKEgBLEU56eGakULtX+IjI4IWsdWOrXeivVSisAAHcfL6ECNDtpLFFErFhyp1HaIlyTES4IkEarAFMiNbC6bsLvZs3t+fzDv6ckCJriBzZLnM7MTyO6ey7t7kifPPu/zAunp6bzxxhusWLGC+vp62tvbOXLkCG1tbWRlZXHkyBFKSkoYNWoUXq+XzZs3s2TJEm688UZ6enpOaGNmzd5KgCuEEEKcORLkjgB2u52WlpaTZg5Vp4Dq6mpmzZpFamoquq4TiUSoqqrqt6hCOBzGZjveOkvXdS6++GJWrVrF9ddfT1paGnV1ddx7773U1tYyadIkPv30U1JSUigvL2fp0qVUVVWxY8cOvF4vmqbR1taGx+Phhz/8IVlZWYTDYfx+Pzk5Of2yncnJyXi9XlwuF2lpaRw6dIi8vDw6OjowDMNcAOLCCy/E7/ebK6Bde+21fPTRR1x11VU88sgjlJaW8tVXX9HT00N7ezuRSASfz0d3d7e5gIRa/EEtT9zd3c2//vUvZs6cSUVFBfn5+TgcDvLy8vD5fBQWFvLf//6XQCBARkYGixYtYv/+/fzyl79k7dq1A664JoQQQogzQ2pyRwCVyY3O6FoDXpXRVZ0DqqurzQAteqUxVe7Q1NTERRddxJNPPklycjL5+fksWbKE3t5empubzXrUd955h/PPP58f/ehHvPnmmwSDQQBqamo4fPgwf/jDH3C5XOTl5XHvvfdy6NAhkpKSCIVCOJ1OOjo6zLrZQ4cOMXPmTAKBgHksHo+Hd955B5/Px69+9StGjRrFT37yE8rKyvB4PGbnhM7OTjweD0899RR9fX1omobH4zG7P9jt9n4LVRiGwZQpU7jyyitpbGxk+/bttLW1cf/995OSksLVV1/N3Llzefvtt7HZbJSVlbFlyxYWL17MkiVLmDZtGiC1t0IIIUQ8SJA7AlizouqruqlJZzabjUAgwMcff0xFRQWBQMD8vrW8QdWU2mw2uru7ufHGGykoKGDXrl3U1tZyySWXMH/+fLxeLx6PBwCv18v777/Pl19+SWNjo1n60NfXx+LFiykuLqauro6KigrOP/98MjIyiEQiJCcnEwwGycjIoKOjwyx10DSNmpoasy7YZrPh9/u5/fbb+f73v8/evXtZunQpd911F16vl+rqarZs2cI//vEPPvzwQ6qrq3E6nWRmZtLV1YXP5zP766akpPDcc8/R3NxMS0sLb7/9Nh9//DHPPvssx44d45577mHcuHHU1tby6KOP8thjj7Fz505uvfVWpk2bxtq1azly5AgvvPACzzzzDG63+4QxVwtbCCGEEOLMseXn58dUGBjLL+uz1afOZrORl5cHQFNTU7/JP/E0HGoyBzMOA42fqvtVnRysXRhOtX117mrp3+jWIKp8QG3L+jxVSmAYhlkb/G319fWZLcusWVyn03lar8+pJpENh/fZqQzF+y+e1/+5IN7jN5zfnwNJ9POP9/GfC/uPVaK//rFK5Ot/sKQmV8RMtcWydm0YbC2q6iOrFoJQAa919TJrEK2CXhXoxsrlcp3Q1it6EYzBGgk/MIQQQohEIUGuiJlhGOaqY9Y63sFQS/C63e5+fWTV99V2XC5Xv5pildEdik8D1EQzFXCrnr4qoyuEEEKIxCNBrohJdMb1VMHtqVpnqeBWdXSIXijBer/NZiMUCplBsAqEY2G32wmHw/T19ZnHr9qVDWbb0aUb1nOTzK4QQggRPxLkipioSWSKKi2w1s1+U7AXCAQAzBXHrPW5drudQCBwQqmCNXMcayZXZYTVBLZwOEwoFCISiRAOh2Ou+RVCCCFEfEiQK2JibS9mDWhVT92TBbjWSVrq+WrhBxUcqwyr2q56jApyrcsMx0odv7V0QdXmDhRED3R+QgghhIgPaSEmYqICTWtrLBUkAqcMdBU1iczhcOByucyvaltOpxOn04mmaSQnJ6NpGi6XC03ThqRedseOHfzsZz87oZdwJBIx+/kOdP6D+Z4QQgghzi4JcsWQuPzyyykuLjazrjC4mtScnByef/556uvr2bNnD+vXr2f06NFm8Lxnzx4OHjzIwYMHaWho4I033mDKlCnouj4kq4mpTHB0OYS1y4IQQgghEk/CB7nR/VUHulmfIwYnOjMZvZiEWkQhPz+f6dOnm5lZ1f3AupBEdB3thg0b6OrqYsaMGUyePJmuri5ee+01NE0jGAyi6zq33HIL+fn5XHTRRVRVVfHyyy/jdrvNRRz6+vo4duyYuUKaWgq4t7cXTdPQdR2n02ku/6tKKQzDwO/3m8fmcrk4duwY0L+EISUlhUAgQEpKijnhzRrMn+y8or9/pm6xiPUaiOexnwuGw/gNh2NIVMNh7OK9fzFyxfv312AlfJA7WNGB7rnidIP8kwX9g9kH9F8O2HpzOBxm14PMzExmzJjRb+KZYRj9OicYhmEGmSUlJbzzzjt4vV6OHTvGypUrOXDgAOnp6fT09OB2uxk9ejRtbW3Y7XZeeuklRo0aRXp6Ona7ndzcXMrLyzl06BAff/wxc+bMIRQKoWkaXq+Xu+66i8bGRgoLC3G73UydOpUdO3ZQW1vLU089xXnnnWcGw263mx07dvDFF1/w7rvvUlxcjM1mIzMzk7a2Nu68804++eQTpkyZgmEMTT1wvJ2N989wPv5434QQ395Iv/5G+vkPRuL/lhZnjQpMrf+32+2EQiEcDofZ5istLY3LLruM5ORk83GKNfC12Wxs3LiRdevWcdVVV5GXl4ff72fevHm0t7eTlpZGT08PoVCISy65BI/HwwMPPMDf//53WltbSUtL469//StHjx5l8uTJrFy5kueee44pU6YwatQoM+iePHkyhw4dQtd11q9fz5dffsns2bPZvn07drudzMxM+vr62Lp1K5WVlcyaNYtNmzbx+uuvk56ejsvlwmY7vurbJZdcQl1d3QnnJYQQQojhZUQFufIRzemzZl0B8vPz+91UuzCV0VUf4SclJTFz5kycTme/yVxqQpna9pNPPsnTTz/NsmXLeP/99/n1r39NQUEBSUlJAIwaNYr777+fe++9lzVr1jB58mSOHj1KUlISEyZMYMKECdx3332Ew2G2bdvGW2+9xc9//nMCgQCGYfDyyy9js9lobW3l//7v/8jPz+f3v/89uq6zbds2mpubaW9v5/rrryczM5Pq6mrGjh3L7t27SUlJ4bvf/S4Oh4NgMEh5eTmBQACn08mxY8ekZlcIIYQYxuS3tDjj1GQuaxCsPi7xer1s3ryZP//5zxQWFrJ8+XK2bdvGFVdcgaZpHD16lNWrV7N9+3Y0TcNut1NeXs5vfvMbvvjiCxobG0lJScHn85GRkcFXX31FSUmJuT+1oENKSgqjR4/mwIEDhEIhjhw5Ql5eHuFwmLS0NHw+HzabjTvuuINAIIDD4eDdd98FoKuri+TkZDo7O8nJyaG5uZns7Gx8Pp8ZjAshhBBieJEgV3wjlcVV2dempibz+6pcQU3kUn1uDcMgGAxSU1NjriQWvR3DMJg4cSIrV65k7ty5eDwe6urquO+++6irq6O4uJiamhrS0tLMTGp7eztjx45l586dXHHFFWzevJmLL76YtrY2MjMz8Xq9FBUVoes6hmH027ff76erq4tx48Zx9OhRzjvvPFpbW/F4PASDQZxOJ3a7nUWLFtHR0WE+z+FwcNFFF9HT08OYMWOoqamhoKCArq4uMjMzB9VmTAghhBBn30DUJR0AABJ6SURBVIgqVxCxsQap6v+RSASn00k4HDYXT+jt7aWyspJAINCvPCF6otbhw4cpKirimWeeITk5mby8PG6//Xa6u7tpbm7GMI53P1BlDrm5uVxwwQUsWLCAzz//nIaGBv7zn//wxBNPYLfbuf7665k/fz4bNmzA7XZjs9lwu910d3eTmZnJv//9bzo7O3nooYfQdZ0FCxaQlZVFeno6f/vb3/D5fNxzzz3k5eVx/vnnc/fdd5urrqWlpdHS0sK4ceNoa2sjIyODnp6eszr+QgghhBg8CXLFgFQ9rgpWo2dn6rpu1qd2dHRQVVVlTkJTj7duQ916enpYuHAhBQUF1NTUUFtby5QpU7jhhhtob28nPT2d1NRUnn/+eZqammhoaGDLli1s376d1atXo+s6ixcvZuLEidTX17N69Woee+wxKisrMQzDrAdWZRJdXV08+OCDXHPNNTQ0NHD11VfzwQcfEIlE0HWdO+64w5xY9t5771FUVGQuUAGQkZFhTngLBoOy5K8QQggxjNny8/Njmo0VywzzWCeCDbYNhs1mIz8/H8MwaGpqOmEyVbwMxf7Pxgx/1VkA6Dd+8L/s7qxZs+ju7mb37t1EIhGzlGEgqrQgurVJOBw263dVTa+ilgI2DCOugWa83z8Q3w4PI/38YzUcxi9Wif7+i+fvr3NBvMdvpF//I/n6GyypyRUxUW/SiooKszRB0zQzQB2IypKq3rYq4FXbUAGztS+t3W4/IfAVQgghhLCSIFcMCRWsquB2sIGuquVNSUk5YeEIh8NhBrZOp/OExSjUJDchhBBCiGgS5IqYqPICFZiqrOtgM7mpqakYhoGu6/1WRVMZYrfb3e9+Vd6gsrwquBZCCCGEsJIgVwy506mzCQQCAGYPXNWOTNX0BgIBs7uCKlkwDMMsbZBMrhBCCCFORoJcERNroKkyuta+uANRk8jC4bDZZ1cFteFw2NyHeowKctVtMJPbhBBCCDHySJArYqYCTrV4AmAGpANRk9XUZDNFlS6oWlzrv9X9qguDEEIIIUQ0SYOJmKhgc/bs2UyePNnMuMLgWozk5uZSVlZGQ0MDe/bsYf369YwZM8acWLZnzx4OHDjAwYMH+fLLL3njjTeYOnVqv/0IIYQQQkSLKci1fmz8bW5ng3VG/pna9kDfP9XjYu0RF+vzT/e1iJ5QpmmaeQzp6ekUFBQwY8YMnE6neRvoWNevX09nZyclJSUUFxfT2dnJpk2bcDgcBAIBdF3nlltuIT8/n6KiIiorK3nppZdISUnB5/OhaRqhUAi/308gEDBreTVNo6ury8wsa5pGMBgkOTnZnMDm9/u/7dCJc0CsP78SvR58KI4/nuM3lD//RtprPxSGw/gNh2NIVMNh7M7GMdijm/Cf7i3eBjMI33TfUJ3/N33f+pH8cBizkznVGKmyAWv3BNXZQNd14HgAqSaMZWVlMXPmzH4Tw6LHW301DIOSkhK2bdtGe3s7vb29PP744xw4cMBcNjc5OZns7Gza2tqw2Wxs3LiRUaNGkZ6eDsDo0aPZtGkTBw4cYNeuXVx99dUEAgF+8IMf0N7eTlZWFh6Ph0cffZRPPvmE7u5u+vr6zOONt0S//mI10s8/ViN9/BL9/GM9/njfhBjupFxhhBvoLyI10Uv9QLMuzgDH++OGQiEcDocZOKalpXHZZZeRnJxsBvkn25/dbufFF19k3bp1XHXVVeTm5uL3+5k3bx5Hjx4lLS2Nnp4eQqEQU6dOxePx8OCDD/L222/T2tpKeno6f/nLXzhy5AglJSX87ne/Y8OGDVx66aV89NFH/POf/+SRRx4hJyeHW2+9lbvvvhuApKQk8ziFEEIIcW6yjR079lvnneOd7h/sX5I226mXpY3lr1Hr+Vu3Z/1I/2Tbtz4vljGM9S/pk2VYo6lOB7m5uf06G6i/5JuamnA4HMyZM6dfCzA4vmRvRUUFfX19J4y32k52djbXXXcdN910EwUFBbzyyis8++yzhEIhent7aW1t5euvv6ayspKMjAwuvPBCqqqqWLFiBePGjeO9996jsLDQHPN169aRmprK3XffTU5ODh9++CH19fXU19fz4IMPYrPZCAaDuFwuwuFwTMsCD8X7P5GzIYl+/vE+/nNh/7FK9Nc/ViP9+o+3RH//Jfr1H6vBnL9kcodYor1xBvrYybp8bvSCD9Hb+aZtqMeoUgf1f6/Xy2uvvcbcuXOZP38+EyZMYOvWrfT19aFpGm1tbaxevZply5axdOlSfvzjHzNp0iQeeughJkyYwL59+3A6nWYwfujQIdLT0wkGg7S1tVFeXs60adNYsWKF+X2Px0MkEiEpKSnW4RNCCCHEMCVBrhiQzWajpaWF1tZWWlpaaG5upqWlxcziqi4HKotrGAbBYJCqqir6+vr6lTio+mTDMJgwYQKvv/46HR0daJpGXV0d9913H+PHj2fSpEkEg0HS0tJwOBxm0Gq329m5cyfTp0+nsbGRoqIiuru7MQyDQCBAYWEhwWAQTdPIzs5m4cKF7Nu3j4cffpjOzk6zvtfpdOLz+eI8skIIIYQ4UyTIHeEGk3lWj4luDWYYBuFwGE3T0HXdzPr29PRQWVlpdjtQQa01A2yz2Th8+DBFRUU8/fTTpKSkkJeXx+233053dzctLS1EIhH8fr8ZPI8ePZoLLriABQsW8Pnnn9PQ0MDBgwdZuXIlbreb0tJS5s2bR1lZGcnJyaxbt4633nqLxYsXc/PNNzNnzhx8Ph9ZWVkEAgHcbvcZGlUhhBBCxJssBjHCWcsRTkWVIqiyg+hFHlSgC9DR0cFnn31mPs86YS1aT08PN910Ew899BC7du3C4XBQXV3NDTfcQHt7O+np6aSmpvLCCy8A4Pf70XWdV199lVWrVqHrOrfddhtr166ltrYWr9fL8uXL+eCDD7jtttuYNWsWV155JW1tbWzcuJE1a9YwZ84cOjs7cTqd6LoeU02uEEIIIYavET/xTN2vajoB82N19TH7qRiGQSgUAv63cpfaXjgc7rfEraL2oyZeWXvJnq6hmHgWK3V+s2fPprOzk927d58wvmfStzmHoTq2eE8ciLdEP/94H/+5sP9YJfrrH6uRfv3HW6K//xL9+o/VYM5/xGdyrYGpCs4GE+AqKoOp6zqappnPczqdhMNhM2DWdd1cmEB9PRfeZMrOnTv7ZXoHO36xSuRfEkIIIYQ4c0Z8kAvHg02Hw3HCogeDEYlEcDgcuN3ufgsnRCIRc0EEgOTkZHO7Kvh1OBwn/Rg/0VgXibB+FUIIIYSIlxEf5Kqsowo2VeZ1sNTkJV3XzSBXMQwDt9uNYRjm/WqVMFXOcDr7Go7UeEX3Hj5ZmzEhhBBCiLNlxAe54XC438frKmAbzIQsgGAwiGEYZtmCYrfbsdvt+P3+fnW4KvhzuVxm1jeRqQy4cqo+ukIIIYQQZ9OID3JPloWEwdfLqoAuHA6bAbMKkq0tt1S2WAXU1pXDEpk6F+ukvXPhvIQQQgiR2EZ8kGvNPEYvzTuYQM3hcJhZW2unBBXgOp3Ofr1hrXWrqozhXGBdxUzqcoUQQggRb4ldEDqELr/8coqLi82s60DL3Sq5ubm88MIL1NfX09DQwIYNG8jJyQGOB8D19fXs37+f/fv309jYyJtvvsn3vvc9dF03A+FEZv0jQWVzreUZQgghhBDxEFOQG2umLtbnWyeLfdNNif6/qic1DIOUlBTGjh1LSUkJmqbhcDj63a+eb92OzWZj/fr1dHZ2MmPGDIqLi+ns7OTVV1/FbrcTCATQdZ1bb72VgoICxo8fT2VlJX/6059ISUnB5/PhcrkIh8MEAgH6+vpwOBxommYuO+t0OrHb7bhcLvr6+khJSTHLI/x+/4DnPphxiYV1oQhrxjoRShZiGbuhGr/hcAyJajiMXbz3L0auWN//if4eHIrjj+f4DUWf+5H62p8OM8g91YCrjOZgM5unK3r7p3sb6MWytvWyfi8SifRr5aXrOoZhkJmZyaWXXtqvvVf0m8L6kfz06dPZunUrR48exefzsWLFCg4cOEBGRgY9PT0kJSWRlZVFS0sLAC+++CIZGRl4PB5sNhtjxoxh06ZNHDx4kF27dnHNNdcQCASYPXs27e3tZGdnk5GRwWOPPcYnn3xCd3c3fX1950QWWAiR2GL9+Z3oRvr5x2qkj1+in3+sx382zt+Rnp6+3HqwpzqJM2EothsdfEZTGcb09HQMw6C7u9sMju12uxngjh8/3vyY3el0kp+fT2trK6FQqF+bLxXwqnHJzMzkF7/4BXv37sXv99Pb28uLL75IOBzG6XRy5513smPHDnPp29/+9rd8/fXXvPbaayQlJbFlyxb27t3LzTffzL59+ygrK6OiooJPP/2Uiy++mFmzZrFnzx6eeOIJFi1axOHDh3G5XEQiEVJTU+PenWE4XGgjWaKPf6Iff7zFe/zivf94S/Tzj/fxx3v/sUr0449VIpy/uayvOtiTZUatJxJ9fyxp71gH6GQZ1pM9xmazkZub2285XRWkNjU1oWkapaWlZkcEtR1d16moqKCvr8/cnrWLAEB2djbXXXcdN910EwUFBZSXl/Pcc88RDAbx+/20tLSwf/9+KisrycjI4MILL6SqqorHH3+c73znO+zYsYPCwkJzv2vXrsXtdrN06VJycnL46KOPqK+vp76+ngceeAA43rbM5XKh6zoulyumMYxVIrzJT+Vc+MgmnuM/FOMXy/GfC69frOI9fiP9+pfrL7H3H6tEf/1jlQjXf8JPPBsoda2ytvC/0gXr9wbDbrdjs9lOWDgCwOv1snnzZubOncv8+fOZOHEiW7duJRQK4XQ6aW9vZ9WqVSxbtoylS5cyb948Jk2axLJly5g4cSJ79+41M7N2u53Dhw/j8XgIBoO0tbVRXl7OtGnTWLFiBWlpaQSDQTweD5FIhOTk5NgGTwghhBDiHJXwQe5AVHDa0tJCa2srLS0tNDc309LSQlNTk1muYLPZ+vW5DQaDVFVVEQqFzG4LqsRB/XvChAm8/vrreL1enE4ndXV13H///RQVFVFcXEwgECA1NRVN08yg1WazsXPnTqZPn05DQwPjx4+ns7MTwzDw+/0UFhYSDAbRNI3s7GwWLlzIvn37ePjhh+nq6iI7O5u2tjacTifd3d3xHl4hhBBCiGGpX5A7HNLfQ8066cw6kUx9VbWzuq6bk816e3uprKwkEAgA/bsFqOfabDaOHDlCUVERzzzzDElJSeTl5bFkyRJ8Ph/Nzc1EIhECgYAZJGdnZ3PBBRewYMECPv/8cxoaGjh48CCrVq3C7XZTWlrKvHnzKCsrIzk5mXXr1vHWW2+xePFibr75ZubMmYPP5yMrK8sMoIUQQgghxInMxSAGG+CqYC8RqeOOLm/QdR1N0zAMg46ODj777LMTHneyxQ16enpYuHAhy5Yto6amBofDQXV1NT/96U9pb28nPT2d1NRUnn/+eQBzid9XXnmF1atXo+s6t912G2vWrKG2thav18vy5cv54IMPWLRoEbNmzaK0tJTW1lY2btzImjVrKC0tpbOz0wzMrQtQCCGEEEKI42w5OTmGdSKWNaiLXrIVMFtuqftUkGXNcKrnnGzJV5U5tT7+2xqqwnebzcbs2bPp7Oxk9+7dpxXID8XkuXg8d6gk6h88MDzGL1aJPvEh3td/oov3+I3061+uv8Tef6wS/fWPVSJc/7b8/HwDIBQKmdlMa1BqXYZW1as6HA7z/uiP8q3ZUhXkqqDYuh31mFgMZZBrPT/1/+H+AsqbPDbDYfxileg/ZBP9l1y8xXv8Rvr1L9dfYu8/Von++scqEa5/LRKJ4HA4cLvdZlCr2mxZV/1yuVz9AkD1PGswGN1qTAWN1mVyrQHucCl9iA5sEyHAFUIIIYQQp6a53W7geF2qNcCF44GoWkZW3a++qlt0fasqU1CspQ3Qf9LXcAgkrcF4dM3ucPhLSQghhBBCnD4tGAxiGAaadnwOmgpcVassNVnKGgja7XaztMEa0FoXU1ABo1p+Vj1WZYaHSxCpjkcZTscmhBBCCCG+HU0FdOFwuF+fWPU9+F+AGn2/NeMbXX5gvU8Fydbtqfvi7WST44ZLllkIIYQQQnw7msPhwG63Y7fbza4HamEEOJ7ptH6MrzK11kDYWndrZe3aoLLF1kypCpiHA5WRtk5Ek0BXCCGEECIx2XNycigrK6O+vp76+nr++Mc/MmbMmON32u00Njayf/9+9u/fT2NjI2+++SZTp05F1/V+Aa7quAD/y9Bec801XHfddcDxgLe0tJRrr732hEA6nqKDbqBfeYYQQgghhEg8/w+x8q6nQ3qchAAAAABJRU5ErkJggg==;" vertex="1" parent="WIyWlLk6GJQsqaUBKTNV-1">
          <mxGeometry x="720" y="110" width="697" height="488" as="geometry" />
        </mxCell>
        <mxCell id="cFBqHGoz0xMpMaC2QSJA-16" style="edgeStyle=orthogonalEdgeStyle;rounded=0;orthogonalLoop=1;jettySize=auto;html=1;exitX=0.5;exitY=0;exitDx=0;exitDy=0;entryX=0.805;entryY=1.019;entryDx=0;entryDy=0;entryPerimeter=0;endArrow=diamondThin;endFill=0;" edge="1" parent="WIyWlLk6GJQsqaUBKTNV-1" source="cFBqHGoz0xMpMaC2QSJA-12" target="cFBqHGoz0xMpMaC2QSJA-3">
          <mxGeometry relative="1" as="geometry" />
        </mxCell>
        <mxCell id="cFBqHGoz0xMpMaC2QSJA-12" value="STimelineEdTrack" style="swimlane;fontStyle=1;align=center;verticalAlign=top;childLayout=stackLayout;horizontal=1;startSize=26;horizontalStack=0;resizeParent=1;resizeParentMax=0;resizeLast=0;collapsible=1;marginBottom=0;whiteSpace=wrap;html=1;" vertex="1" parent="WIyWlLk6GJQsqaUBKTNV-1">
          <mxGeometry x="390" y="330" width="220" height="114" as="geometry" />
        </mxCell>
        <mxCell id="cFBqHGoz0xMpMaC2QSJA-13" value="+&amp;nbsp;Track&lt;span style=&quot;background-color: initial;&quot;&gt;:&amp;nbsp;&lt;/span&gt;FTimelineEdTrack*&lt;br&gt;+&amp;nbsp;TrackWidget : SCurveEditor*&lt;br&gt;+&amp;nbsp;CurveBasePtr : UCurveBase*" style="text;strokeColor=none;fillColor=none;align=left;verticalAlign=top;spacingLeft=4;spacingRight=4;overflow=hidden;rotatable=0;points=[[0,0.5],[1,0.5]];portConstraint=eastwest;whiteSpace=wrap;html=1;" vertex="1" parent="cFBqHGoz0xMpMaC2QSJA-12">
          <mxGeometry y="26" width="220" height="54" as="geometry" />
        </mxCell>
        <mxCell id="cFBqHGoz0xMpMaC2QSJA-14" value="" style="line;strokeWidth=1;fillColor=none;align=left;verticalAlign=middle;spacingTop=-1;spacingLeft=3;spacingRight=3;rotatable=0;labelPosition=right;points=[];portConstraint=eastwest;strokeColor=inherit;" vertex="1" parent="cFBqHGoz0xMpMaC2QSJA-12">
          <mxGeometry y="80" width="220" height="8" as="geometry" />
        </mxCell>
        <mxCell id="cFBqHGoz0xMpMaC2QSJA-15" value="+ method(type): type" style="text;strokeColor=none;fillColor=none;align=left;verticalAlign=top;spacingLeft=4;spacingRight=4;overflow=hidden;rotatable=0;points=[[0,0.5],[1,0.5]];portConstraint=eastwest;whiteSpace=wrap;html=1;" vertex="1" parent="cFBqHGoz0xMpMaC2QSJA-12">
          <mxGeometry y="88" width="220" height="26" as="geometry" />
        </mxCell>
        <mxCell id="cFBqHGoz0xMpMaC2QSJA-23" style="edgeStyle=orthogonalEdgeStyle;rounded=0;orthogonalLoop=1;jettySize=auto;html=1;exitX=0.5;exitY=0;exitDx=0;exitDy=0;entryX=0.427;entryY=1.038;entryDx=0;entryDy=0;entryPerimeter=0;endArrow=diamondThin;endFill=1;" edge="1" parent="WIyWlLk6GJQsqaUBKTNV-1" source="cFBqHGoz0xMpMaC2QSJA-19" target="cFBqHGoz0xMpMaC2QSJA-15">
          <mxGeometry relative="1" as="geometry" />
        </mxCell>
        <mxCell id="cFBqHGoz0xMpMaC2QSJA-19" value="SCurveEditor" style="swimlane;fontStyle=1;align=center;verticalAlign=top;childLayout=stackLayout;horizontal=1;startSize=26;horizontalStack=0;resizeParent=1;resizeParentMax=0;resizeLast=0;collapsible=1;marginBottom=0;whiteSpace=wrap;html=1;" vertex="1" parent="WIyWlLk6GJQsqaUBKTNV-1">
          <mxGeometry x="400" y="540" width="160" height="86" as="geometry" />
        </mxCell>
        <mxCell id="cFBqHGoz0xMpMaC2QSJA-20" value="+ field: type" style="text;strokeColor=none;fillColor=none;align=left;verticalAlign=top;spacingLeft=4;spacingRight=4;overflow=hidden;rotatable=0;points=[[0,0.5],[1,0.5]];portConstraint=eastwest;whiteSpace=wrap;html=1;" vertex="1" parent="cFBqHGoz0xMpMaC2QSJA-19">
          <mxGeometry y="26" width="160" height="26" as="geometry" />
        </mxCell>
        <mxCell id="cFBqHGoz0xMpMaC2QSJA-21" value="" style="line;strokeWidth=1;fillColor=none;align=left;verticalAlign=middle;spacingTop=-1;spacingLeft=3;spacingRight=3;rotatable=0;labelPosition=right;points=[];portConstraint=eastwest;strokeColor=inherit;" vertex="1" parent="cFBqHGoz0xMpMaC2QSJA-19">
          <mxGeometry y="52" width="160" height="8" as="geometry" />
        </mxCell>
        <mxCell id="cFBqHGoz0xMpMaC2QSJA-22" value="+ method(type): type" style="text;strokeColor=none;fillColor=none;align=left;verticalAlign=top;spacingLeft=4;spacingRight=4;overflow=hidden;rotatable=0;points=[[0,0.5],[1,0.5]];portConstraint=eastwest;whiteSpace=wrap;html=1;" vertex="1" parent="cFBqHGoz0xMpMaC2QSJA-19">
          <mxGeometry y="60" width="160" height="26" as="geometry" />
        </mxCell>
      </root>
    </mxGraphModel>
  </diagram>
</mxfile>
